G04 #@! TF.GenerationSoftware,KiCad,Pcbnew,no-vcs-found-7584~57~ubuntu16.04.1*
G04 #@! TF.CreationDate,2017-02-08T11:00:44-05:00*
G04 #@! TF.ProjectId,modular_device_base_5x3,6D6F64756C61725F6465766963655F62,1.0*
G04 #@! TF.FileFunction,Soldermask,Bot*
G04 #@! TF.FilePolarity,Negative*
%FSLAX46Y46*%
G04 Gerber Fmt 4.6, Leading zero omitted, Abs format (unit mm)*
G04 Created by KiCad (PCBNEW no-vcs-found-7584~57~ubuntu16.04.1) date Wed Feb  8 11:00:44 2017*
%MOMM*%
%LPD*%
G01*
G04 APERTURE LIST*
%ADD10C,0.100000*%
%ADD11C,0.228600*%
%ADD12R,2.900000X3.110000*%
%ADD13R,1.670000X2.940000*%
%ADD14R,2.940000X1.670000*%
%ADD15O,2.940000X1.924000*%
%ADD16C,3.956000*%
%ADD17R,2.940000X1.924000*%
%ADD18O,2.254200X2.940000*%
%ADD19R,2.254200X2.940000*%
%ADD20O,5.480000X3.448000*%
%ADD21O,2.432000X1.924000*%
%ADD22O,1.924000X2.432000*%
%ADD23C,1.600200*%
%ADD24R,2.178000X4.591000*%
%ADD25R,2.997200X5.029200*%
%ADD26R,4.591000X2.178000*%
%ADD27R,5.029200X2.997200*%
%ADD28O,1.924000X2.940000*%
%ADD29R,1.924000X2.940000*%
%ADD30C,2.330400*%
%ADD31O,4.972000X3.956000*%
%ADD32O,4.464000X5.480000*%
%ADD33O,5.480000X3.956000*%
G04 APERTURE END LIST*
D10*
D11*
X194310000Y-66675000D02*
X59690000Y-66675000D01*
X194310000Y-132715000D02*
X194310000Y-66675000D01*
X59690000Y-132715000D02*
X194310000Y-132715000D01*
X59690000Y-66675000D02*
X59690000Y-132715000D01*
D12*
X71755000Y-111725000D03*
X71755000Y-115605000D03*
D13*
X67056000Y-106680000D03*
X70104000Y-106680000D03*
D14*
X62865000Y-112014000D03*
X62865000Y-108966000D03*
D15*
X67310000Y-113030000D03*
X67310000Y-115570000D03*
X67310000Y-110490000D03*
D14*
X69850000Y-70866000D03*
X69850000Y-73914000D03*
D13*
X75819000Y-106680000D03*
X72771000Y-106680000D03*
D16*
X62230000Y-69215000D03*
X62230000Y-130175000D03*
X191770000Y-69215000D03*
D15*
X151765000Y-106045000D03*
X151765000Y-108585000D03*
X151765000Y-111125000D03*
X151765000Y-113665000D03*
X151765000Y-116205000D03*
X151765000Y-118745000D03*
X151765000Y-121285000D03*
X151765000Y-123825000D03*
X151765000Y-126365000D03*
X167005000Y-126365000D03*
X167005000Y-123825000D03*
X167005000Y-121285000D03*
X167005000Y-118745000D03*
X167005000Y-116205000D03*
X167005000Y-113665000D03*
X167005000Y-111125000D03*
X167005000Y-108585000D03*
X167005000Y-78105000D03*
X167005000Y-80645000D03*
X167005000Y-83185000D03*
X167005000Y-85725000D03*
X167005000Y-88265000D03*
X167005000Y-90805000D03*
X167005000Y-93345000D03*
X167005000Y-95885000D03*
X167005000Y-98425000D03*
X167005000Y-100965000D03*
X151765000Y-100965000D03*
X151765000Y-98425000D03*
X151765000Y-95885000D03*
X151765000Y-93345000D03*
X151765000Y-90805000D03*
X151765000Y-88265000D03*
X151765000Y-85725000D03*
X151765000Y-83185000D03*
X151765000Y-80645000D03*
X151765000Y-78105000D03*
D17*
X151765000Y-103505000D03*
D15*
X167005000Y-103505000D03*
X167005000Y-106045000D03*
D18*
X78740000Y-69215000D03*
X81280000Y-69215000D03*
D19*
X76200000Y-69215000D03*
D18*
X83820000Y-69215000D03*
X86360000Y-69215000D03*
X88900000Y-69215000D03*
X91440000Y-69215000D03*
X93980000Y-69215000D03*
X96520000Y-69215000D03*
X99060000Y-69215000D03*
X101600000Y-69215000D03*
X104140000Y-69215000D03*
X106680000Y-69215000D03*
X109220000Y-69215000D03*
X111760000Y-69215000D03*
X114300000Y-69215000D03*
X114300000Y-130175000D03*
X111760000Y-130175000D03*
X109220000Y-130175000D03*
X106680000Y-130175000D03*
X104140000Y-130175000D03*
X101600000Y-130175000D03*
X99060000Y-130175000D03*
X96520000Y-130175000D03*
X93980000Y-130175000D03*
X91440000Y-130175000D03*
X88900000Y-130175000D03*
X86360000Y-130175000D03*
X83820000Y-130175000D03*
X81280000Y-130175000D03*
X78740000Y-130175000D03*
X76200000Y-130175000D03*
D16*
X77470000Y-74295000D03*
X77470000Y-125095000D03*
X140970000Y-130175000D03*
X140970000Y-69215000D03*
D18*
X116840000Y-130175000D03*
X119380000Y-130175000D03*
X121920000Y-130175000D03*
X124460000Y-130175000D03*
X127000000Y-130175000D03*
X129540000Y-130175000D03*
X132080000Y-130175000D03*
X134620000Y-130175000D03*
X137160000Y-130175000D03*
X116840000Y-69215000D03*
X119380000Y-69215000D03*
X121920000Y-69215000D03*
X124460000Y-69215000D03*
X127000000Y-69215000D03*
X129540000Y-69215000D03*
X132080000Y-69215000D03*
X134620000Y-69215000D03*
X137160000Y-69215000D03*
D20*
X63500000Y-104775000D03*
X63500000Y-94615000D03*
D21*
X69596000Y-99695000D03*
D22*
X72390000Y-99695000D03*
X72390000Y-96901000D03*
X72390000Y-102489000D03*
D23*
X182118000Y-72771000D03*
X174752000Y-72771000D03*
D24*
X175895000Y-122174000D03*
X178435000Y-122174000D03*
X180975000Y-122174000D03*
D23*
X173482000Y-125349000D03*
X183388000Y-125349000D03*
D25*
X172440600Y-128905000D03*
X184429400Y-128905000D03*
D26*
X183769000Y-86360000D03*
X183769000Y-83820000D03*
X183769000Y-81280000D03*
D23*
X186944000Y-88773000D03*
X186944000Y-78867000D03*
D27*
X190500000Y-89814400D03*
X190500000Y-77825600D03*
D28*
X116840000Y-107315000D03*
X119380000Y-107315000D03*
X121920000Y-107315000D03*
X124460000Y-107315000D03*
X127000000Y-107315000D03*
X129540000Y-107315000D03*
X132080000Y-107315000D03*
X134620000Y-107315000D03*
X137160000Y-107315000D03*
X137160000Y-92075000D03*
X134620000Y-92075000D03*
X132080000Y-92075000D03*
X129540000Y-92075000D03*
X127000000Y-92075000D03*
X124460000Y-92075000D03*
X121920000Y-92075000D03*
X119380000Y-92075000D03*
D29*
X78740000Y-92075000D03*
D28*
X81280000Y-92075000D03*
X83820000Y-92075000D03*
X86360000Y-92075000D03*
X88900000Y-92075000D03*
X91440000Y-92075000D03*
X93980000Y-92075000D03*
X96520000Y-92075000D03*
X99060000Y-92075000D03*
X101600000Y-92075000D03*
X104140000Y-92075000D03*
X106680000Y-92075000D03*
X109220000Y-92075000D03*
X111760000Y-92075000D03*
X111760000Y-107315000D03*
X109220000Y-107315000D03*
X106680000Y-107315000D03*
X104140000Y-107315000D03*
X101600000Y-107315000D03*
X99060000Y-107315000D03*
X96520000Y-107315000D03*
X93980000Y-107315000D03*
X91440000Y-107315000D03*
X88900000Y-107315000D03*
X86360000Y-107315000D03*
X83820000Y-107315000D03*
X81280000Y-107315000D03*
X78740000Y-107315000D03*
D15*
X124460000Y-104775000D03*
X124460000Y-102235000D03*
X124460000Y-99695000D03*
X124460000Y-97155000D03*
X124460000Y-94615000D03*
D28*
X81280000Y-104267000D03*
X86360000Y-104267000D03*
X88900000Y-104267000D03*
X91440000Y-104267000D03*
X93980000Y-102743000D03*
X93980000Y-99187000D03*
X96520000Y-102743000D03*
X96520000Y-99187000D03*
X99060000Y-99187000D03*
X101600000Y-99187000D03*
X99060000Y-102743000D03*
X101600000Y-102743000D03*
D29*
X114300000Y-107315000D03*
D28*
X114300000Y-92075000D03*
X116840000Y-92075000D03*
X121920000Y-102743000D03*
X119380000Y-102743000D03*
X116840000Y-102743000D03*
X121920000Y-99187000D03*
X119380000Y-99187000D03*
X116840000Y-99187000D03*
X127000000Y-102743000D03*
X129540000Y-102743000D03*
X132080000Y-102743000D03*
X134620000Y-102743000D03*
X137160000Y-102743000D03*
X127000000Y-99187000D03*
X129540000Y-99187000D03*
X132080000Y-99187000D03*
X134620000Y-99187000D03*
X137160000Y-99187000D03*
D26*
X70231000Y-81280000D03*
X70231000Y-83820000D03*
X70231000Y-86360000D03*
D23*
X67056000Y-78867000D03*
X67056000Y-88773000D03*
D27*
X63500000Y-77825600D03*
X63500000Y-89814400D03*
D23*
X65786000Y-87503000D03*
X65786000Y-80137000D03*
D24*
X180975000Y-77216000D03*
X178435000Y-77216000D03*
X175895000Y-77216000D03*
D23*
X183388000Y-74041000D03*
X173482000Y-74041000D03*
D25*
X184429400Y-70485000D03*
X172440600Y-70485000D03*
D23*
X182118000Y-126619000D03*
X174752000Y-126619000D03*
X188214000Y-80137000D03*
X188214000Y-87503000D03*
D30*
X191312800Y-99695000D03*
D31*
X187807600Y-99695000D03*
D32*
X182321200Y-99695000D03*
D33*
X189306200Y-104190800D03*
X189306200Y-95199200D03*
D16*
X191770000Y-130175000D03*
M02*
