G04 #@! TF.GenerationSoftware,KiCad,Pcbnew,no-vcs-found-7584~57~ubuntu16.04.1*
G04 #@! TF.CreationDate,2017-02-08T11:00:44-05:00*
G04 #@! TF.ProjectId,modular_device_base_5x3,6D6F64756C61725F6465766963655F62,1.0*
G04 #@! TF.FileFunction,Copper,L1,Top,Signal*
G04 #@! TF.FilePolarity,Positive*
%FSLAX46Y46*%
G04 Gerber Fmt 4.6, Leading zero omitted, Abs format (unit mm)*
G04 Created by KiCad (PCBNEW no-vcs-found-7584~57~ubuntu16.04.1) date Wed Feb  8 11:00:44 2017*
%MOMM*%
%LPD*%
G01*
G04 APERTURE LIST*
%ADD10C,0.100000*%
%ADD11C,0.228600*%
%ADD12O,2.540000X1.524000*%
%ADD13R,1.590040X2.667000*%
%ADD14R,4.960000X3.800000*%
%ADD15R,1.440000X1.600000*%
%ADD16R,1.270000X2.540000*%
%ADD17R,2.710000X2.500000*%
%ADD18C,3.556000*%
%ADD19R,2.540000X1.524000*%
%ADD20O,1.854200X2.540000*%
%ADD21R,1.854200X2.540000*%
%ADD22O,5.080000X3.048000*%
%ADD23O,2.032000X1.524000*%
%ADD24O,1.524000X2.032000*%
%ADD25R,2.794000X4.826000*%
%ADD26C,1.397000*%
%ADD27R,1.778000X4.191000*%
%ADD28O,1.524000X2.540000*%
%ADD29R,1.524000X2.540000*%
%ADD30R,4.191000X1.778000*%
%ADD31R,4.826000X2.794000*%
%ADD32C,1.930400*%
%ADD33O,4.572000X3.556000*%
%ADD34O,4.064000X5.080000*%
%ADD35O,5.080000X3.556000*%
%ADD36C,0.889000*%
%ADD37C,1.219200*%
%ADD38C,0.609600*%
%ADD39C,0.203200*%
G04 APERTURE END LIST*
D10*
D11*
X194310000Y-66675000D02*
X59690000Y-66675000D01*
X194310000Y-132715000D02*
X194310000Y-66675000D01*
X59690000Y-132715000D02*
X194310000Y-132715000D01*
X59690000Y-66675000D02*
X59690000Y-132715000D01*
D12*
X67310000Y-113030000D03*
X67310000Y-115570000D03*
X67310000Y-110490000D03*
D13*
X67851020Y-68262500D03*
X67851020Y-76517500D03*
X71848980Y-68262500D03*
X71848980Y-76517500D03*
D14*
X173605000Y-93345000D03*
D15*
X177405000Y-92280000D03*
X177405000Y-94410000D03*
D14*
X173605000Y-106045000D03*
D15*
X177405000Y-104980000D03*
X177405000Y-107110000D03*
D16*
X86741000Y-99695000D03*
X89789000Y-99695000D03*
D17*
X83220000Y-99695000D03*
X79340000Y-99695000D03*
D18*
X62230000Y-69215000D03*
X62230000Y-130175000D03*
X191770000Y-69215000D03*
D12*
X151765000Y-106045000D03*
X151765000Y-108585000D03*
X151765000Y-111125000D03*
X151765000Y-113665000D03*
X151765000Y-116205000D03*
X151765000Y-118745000D03*
X151765000Y-121285000D03*
X151765000Y-123825000D03*
X151765000Y-126365000D03*
X167005000Y-126365000D03*
X167005000Y-123825000D03*
X167005000Y-121285000D03*
X167005000Y-118745000D03*
X167005000Y-116205000D03*
X167005000Y-113665000D03*
X167005000Y-111125000D03*
X167005000Y-108585000D03*
X167005000Y-78105000D03*
X167005000Y-80645000D03*
X167005000Y-83185000D03*
X167005000Y-85725000D03*
X167005000Y-88265000D03*
X167005000Y-90805000D03*
X167005000Y-93345000D03*
X167005000Y-95885000D03*
X167005000Y-98425000D03*
X167005000Y-100965000D03*
X151765000Y-100965000D03*
X151765000Y-98425000D03*
X151765000Y-95885000D03*
X151765000Y-93345000D03*
X151765000Y-90805000D03*
X151765000Y-88265000D03*
X151765000Y-85725000D03*
X151765000Y-83185000D03*
X151765000Y-80645000D03*
X151765000Y-78105000D03*
D19*
X151765000Y-103505000D03*
D12*
X167005000Y-103505000D03*
X167005000Y-106045000D03*
D20*
X78740000Y-69215000D03*
X81280000Y-69215000D03*
D21*
X76200000Y-69215000D03*
D20*
X83820000Y-69215000D03*
X86360000Y-69215000D03*
X88900000Y-69215000D03*
X91440000Y-69215000D03*
X93980000Y-69215000D03*
X96520000Y-69215000D03*
X99060000Y-69215000D03*
X101600000Y-69215000D03*
X104140000Y-69215000D03*
X106680000Y-69215000D03*
X109220000Y-69215000D03*
X111760000Y-69215000D03*
X114300000Y-69215000D03*
X114300000Y-130175000D03*
X111760000Y-130175000D03*
X109220000Y-130175000D03*
X106680000Y-130175000D03*
X104140000Y-130175000D03*
X101600000Y-130175000D03*
X99060000Y-130175000D03*
X96520000Y-130175000D03*
X93980000Y-130175000D03*
X91440000Y-130175000D03*
X88900000Y-130175000D03*
X86360000Y-130175000D03*
X83820000Y-130175000D03*
X81280000Y-130175000D03*
X78740000Y-130175000D03*
X76200000Y-130175000D03*
D18*
X77470000Y-74295000D03*
X77470000Y-125095000D03*
X140970000Y-130175000D03*
X140970000Y-69215000D03*
D20*
X116840000Y-130175000D03*
X119380000Y-130175000D03*
X121920000Y-130175000D03*
X124460000Y-130175000D03*
X127000000Y-130175000D03*
X129540000Y-130175000D03*
X132080000Y-130175000D03*
X134620000Y-130175000D03*
X137160000Y-130175000D03*
X116840000Y-69215000D03*
X119380000Y-69215000D03*
X121920000Y-69215000D03*
X124460000Y-69215000D03*
X127000000Y-69215000D03*
X129540000Y-69215000D03*
X132080000Y-69215000D03*
X134620000Y-69215000D03*
X137160000Y-69215000D03*
D22*
X63500000Y-104775000D03*
X63500000Y-94615000D03*
D23*
X69596000Y-99695000D03*
D24*
X72390000Y-99695000D03*
X72390000Y-96901000D03*
X72390000Y-102489000D03*
D25*
X183159400Y-69215000D03*
X173710600Y-69215000D03*
D26*
X182118000Y-72771000D03*
X174752000Y-72771000D03*
D27*
X179705000Y-75946000D03*
X177165000Y-75946000D03*
D26*
X173482000Y-125349000D03*
X183388000Y-125349000D03*
X186944000Y-88773000D03*
X186944000Y-78867000D03*
D28*
X116840000Y-107315000D03*
X119380000Y-107315000D03*
X121920000Y-107315000D03*
X124460000Y-107315000D03*
X127000000Y-107315000D03*
X129540000Y-107315000D03*
X132080000Y-107315000D03*
X134620000Y-107315000D03*
X137160000Y-107315000D03*
X137160000Y-92075000D03*
X134620000Y-92075000D03*
X132080000Y-92075000D03*
X129540000Y-92075000D03*
X127000000Y-92075000D03*
X124460000Y-92075000D03*
X121920000Y-92075000D03*
X119380000Y-92075000D03*
D29*
X78740000Y-92075000D03*
D28*
X81280000Y-92075000D03*
X83820000Y-92075000D03*
X86360000Y-92075000D03*
X88900000Y-92075000D03*
X91440000Y-92075000D03*
X93980000Y-92075000D03*
X96520000Y-92075000D03*
X99060000Y-92075000D03*
X101600000Y-92075000D03*
X104140000Y-92075000D03*
X106680000Y-92075000D03*
X109220000Y-92075000D03*
X111760000Y-92075000D03*
X111760000Y-107315000D03*
X109220000Y-107315000D03*
X106680000Y-107315000D03*
X104140000Y-107315000D03*
X101600000Y-107315000D03*
X99060000Y-107315000D03*
X96520000Y-107315000D03*
X93980000Y-107315000D03*
X91440000Y-107315000D03*
X88900000Y-107315000D03*
X86360000Y-107315000D03*
X83820000Y-107315000D03*
X81280000Y-107315000D03*
X78740000Y-107315000D03*
D12*
X124460000Y-104775000D03*
X124460000Y-102235000D03*
X124460000Y-99695000D03*
X124460000Y-97155000D03*
X124460000Y-94615000D03*
D28*
X81280000Y-104267000D03*
X86360000Y-104267000D03*
X88900000Y-104267000D03*
X91440000Y-104267000D03*
X93980000Y-102743000D03*
X93980000Y-99187000D03*
X96520000Y-102743000D03*
X96520000Y-99187000D03*
X99060000Y-99187000D03*
X101600000Y-99187000D03*
X99060000Y-102743000D03*
X101600000Y-102743000D03*
D29*
X114300000Y-107315000D03*
D28*
X114300000Y-92075000D03*
X116840000Y-92075000D03*
X121920000Y-102743000D03*
X119380000Y-102743000D03*
X116840000Y-102743000D03*
X121920000Y-99187000D03*
X119380000Y-99187000D03*
X116840000Y-99187000D03*
X127000000Y-102743000D03*
X129540000Y-102743000D03*
X132080000Y-102743000D03*
X134620000Y-102743000D03*
X137160000Y-102743000D03*
X127000000Y-99187000D03*
X129540000Y-99187000D03*
X132080000Y-99187000D03*
X134620000Y-99187000D03*
X137160000Y-99187000D03*
D14*
X173605000Y-99695000D03*
D15*
X177405000Y-98630000D03*
X177405000Y-100760000D03*
D26*
X67056000Y-78867000D03*
X67056000Y-88773000D03*
D30*
X68961000Y-85090000D03*
X68961000Y-82550000D03*
D26*
X65786000Y-87503000D03*
X65786000Y-80137000D03*
D31*
X62230000Y-88544400D03*
X62230000Y-79095600D03*
D26*
X183388000Y-74041000D03*
X173482000Y-74041000D03*
D27*
X179705000Y-123444000D03*
X177165000Y-123444000D03*
D26*
X182118000Y-126619000D03*
X174752000Y-126619000D03*
D25*
X183159400Y-130175000D03*
X173710600Y-130175000D03*
D30*
X185039000Y-82550000D03*
X185039000Y-85090000D03*
D26*
X188214000Y-80137000D03*
X188214000Y-87503000D03*
D31*
X191770000Y-79095600D03*
X191770000Y-88544400D03*
D32*
X191312800Y-99695000D03*
D33*
X187807600Y-99695000D03*
D34*
X182321200Y-99695000D03*
D35*
X189306200Y-104190800D03*
X189306200Y-95199200D03*
D18*
X191770000Y-130175000D03*
D36*
X179149400Y-80175400D03*
X66001600Y-85090000D03*
X88239900Y-99695000D03*
X168190600Y-76479000D03*
X144229800Y-80243000D03*
X174957900Y-80121400D03*
X173416000Y-120015000D03*
X176238800Y-114934900D03*
X70493600Y-88331400D03*
X69146100Y-79508800D03*
X93678300Y-72697700D03*
X108207600Y-76664800D03*
X111433100Y-76725300D03*
X76798500Y-104532800D03*
X176051300Y-86995000D03*
X175647500Y-89535000D03*
X139006900Y-95764900D03*
X118989900Y-90221600D03*
X130731800Y-76148200D03*
X126098600Y-95993200D03*
X134077800Y-79538100D03*
X80091600Y-79538100D03*
X136789800Y-85725000D03*
X76849600Y-92888600D03*
D37*
X180870000Y-103098900D02*
X178988900Y-104980000D01*
X182321200Y-103098900D02*
X180870000Y-103098900D01*
X182321200Y-99695000D02*
X182321200Y-103098900D01*
X177405000Y-104980000D02*
X178197000Y-104980000D01*
X178197000Y-104980000D02*
X178988900Y-104980000D01*
X177730900Y-105446100D02*
X177405000Y-105446100D01*
X178197000Y-104980000D02*
X177730900Y-105446100D01*
X177405000Y-107110000D02*
X177405000Y-105446100D01*
X68961000Y-85090000D02*
X66001600Y-85090000D01*
X179149400Y-79461000D02*
X179149400Y-80175400D01*
X179705000Y-78905400D02*
X179149400Y-79461000D01*
X179705000Y-75946000D02*
X179705000Y-78905400D01*
X185039000Y-96418400D02*
X185039000Y-85090000D01*
X188315600Y-99695000D02*
X185039000Y-96418400D01*
X179705000Y-108305600D02*
X188315600Y-99695000D01*
X179705000Y-123444000D02*
X179705000Y-108305600D01*
X78740000Y-69215000D02*
X78740000Y-71348900D01*
X89789000Y-99695000D02*
X88290100Y-99695000D01*
X88290100Y-99695000D02*
X88239900Y-99695000D01*
X80116400Y-72725300D02*
X80116400Y-77078000D01*
X78740000Y-71348900D02*
X80116400Y-72725300D01*
X71849000Y-76517500D02*
X71849000Y-78714900D01*
X78740000Y-92075000D02*
X78740000Y-89941100D01*
X78479500Y-89680600D02*
X78479500Y-78714900D01*
X78740000Y-89941100D02*
X78479500Y-89680600D01*
X80116400Y-77078000D02*
X78479500Y-78714900D01*
X78479500Y-78714900D02*
X71849000Y-78714900D01*
X135286500Y-76479000D02*
X168190600Y-76479000D01*
X133731800Y-78033700D02*
X135286500Y-76479000D01*
X81072100Y-78033700D02*
X133731800Y-78033700D01*
X80116400Y-77078000D02*
X81072100Y-78033700D01*
D38*
X143981000Y-80491800D02*
X144229800Y-80243000D01*
X91163400Y-80491800D02*
X143981000Y-80491800D01*
X81280000Y-90375200D02*
X91163400Y-80491800D01*
X81280000Y-92075000D02*
X81280000Y-90375200D01*
X170624300Y-84455000D02*
X174957900Y-80121400D01*
X99363000Y-84455000D02*
X170624300Y-84455000D01*
X92710000Y-91108000D02*
X99363000Y-84455000D01*
X92710000Y-93010300D02*
X92710000Y-91108000D01*
X91945500Y-93774800D02*
X92710000Y-93010300D01*
X83820000Y-93774800D02*
X91945500Y-93774800D01*
X83820000Y-92075000D02*
X83820000Y-93774800D01*
X99060000Y-92075000D02*
X99060000Y-93774800D01*
X100382000Y-93774800D02*
X99060000Y-93774800D01*
X112960200Y-106353000D02*
X100382000Y-93774800D01*
X112960200Y-108768600D02*
X112960200Y-106353000D01*
X124206600Y-120015000D02*
X112960200Y-108768600D01*
X173416000Y-120015000D02*
X124206600Y-120015000D01*
X101600000Y-92075000D02*
X101600000Y-93774800D01*
X126809700Y-114934900D02*
X176238800Y-114934900D01*
X120548800Y-108674000D02*
X126809700Y-114934900D01*
X120548800Y-106261000D02*
X120548800Y-108674000D01*
X118707600Y-104419800D02*
X120548800Y-106261000D01*
X112245000Y-104419800D02*
X118707600Y-104419800D01*
X101600000Y-93774800D02*
X112245000Y-104419800D01*
D37*
X177405000Y-94410000D02*
X177405000Y-92280000D01*
X177405000Y-92280000D02*
X177405000Y-90616100D01*
X177405000Y-79145400D02*
X177165000Y-78905400D01*
X177405000Y-90616100D02*
X177405000Y-79145400D01*
X177165000Y-75946000D02*
X177165000Y-78905400D01*
X81604200Y-101808900D02*
X83220000Y-101808900D01*
X81280000Y-102133100D02*
X81604200Y-101808900D01*
X81280000Y-104775000D02*
X81280000Y-102133100D01*
X83220000Y-99695000D02*
X83220000Y-101808900D01*
X173605000Y-106045000D02*
X173605000Y-99695000D01*
X173605000Y-99695000D02*
X173605000Y-93345000D01*
X177165000Y-123444000D02*
X177165000Y-122987200D01*
X177165000Y-122987200D02*
X177165000Y-120484600D01*
X173605000Y-106045000D02*
X173605000Y-108808900D01*
X173585700Y-122987200D02*
X177165000Y-122987200D01*
X168563500Y-128009400D02*
X173585700Y-122987200D01*
X146193400Y-128009400D02*
X168563500Y-128009400D01*
X141823800Y-123639800D02*
X146193400Y-128009400D01*
X87266000Y-123639800D02*
X141823800Y-123639800D01*
X74116200Y-110490000D02*
X87266000Y-123639800D01*
X67310000Y-110490000D02*
X74116200Y-110490000D01*
X71920400Y-86904600D02*
X71920400Y-82550000D01*
X70493600Y-88331400D02*
X71920400Y-86904600D01*
X177547200Y-112751100D02*
X173605000Y-108808900D01*
X177547200Y-120102400D02*
X177547200Y-112751100D01*
X177165000Y-120484600D02*
X177547200Y-120102400D01*
X68961000Y-82550000D02*
X69452500Y-82550000D01*
X69452500Y-82550000D02*
X69687800Y-82550000D01*
X69687800Y-82550000D02*
X71920400Y-82550000D01*
X69687800Y-80050500D02*
X69146100Y-79508800D01*
X69687800Y-82550000D02*
X69687800Y-80050500D01*
X79340000Y-104581100D02*
X79340000Y-101808900D01*
X78740000Y-105181100D02*
X79340000Y-104581100D01*
X78740000Y-107315000D02*
X78740000Y-105181100D01*
X79340000Y-99695000D02*
X79340000Y-101808900D01*
D38*
X67851000Y-68262500D02*
X67851000Y-70025800D01*
X123190000Y-100965000D02*
X124460000Y-102235000D01*
X110840900Y-100965000D02*
X123190000Y-100965000D01*
X102860500Y-92984600D02*
X110840900Y-100965000D01*
X102860500Y-91146900D02*
X102860500Y-92984600D01*
X102102500Y-90388900D02*
X102860500Y-91146900D01*
X98567000Y-90388900D02*
X102102500Y-90388900D01*
X97780500Y-91175400D02*
X98567000Y-90388900D01*
X97780500Y-92990800D02*
X97780500Y-91175400D01*
X95561500Y-95209800D02*
X97780500Y-92990800D01*
X77912800Y-95209800D02*
X95561500Y-95209800D01*
X75828400Y-93125400D02*
X77912800Y-95209800D01*
X75828400Y-84538400D02*
X75828400Y-93125400D01*
X69382800Y-78092800D02*
X75828400Y-84538400D01*
X69382800Y-71557600D02*
X69382800Y-78092800D01*
X67851000Y-70025800D02*
X69382800Y-71557600D01*
X93980000Y-69215000D02*
X93980000Y-70914800D01*
X93678300Y-71216500D02*
X93980000Y-70914800D01*
X93678300Y-72697700D02*
X93678300Y-71216500D01*
X108207600Y-71927200D02*
X109220000Y-70914800D01*
X108207600Y-76664800D02*
X108207600Y-71927200D01*
X109220000Y-69215000D02*
X109220000Y-70914800D01*
X111760000Y-76398400D02*
X111760000Y-69215000D01*
X111433100Y-76725300D02*
X111760000Y-76398400D01*
D37*
X85976400Y-101828900D02*
X86741000Y-101828900D01*
X83820000Y-103985300D02*
X85976400Y-101828900D01*
X83820000Y-107315000D02*
X83820000Y-103985300D01*
X86741000Y-99695000D02*
X86741000Y-101828900D01*
X76200000Y-130175000D02*
X74409000Y-130175000D01*
X73146400Y-108184900D02*
X76798500Y-104532800D01*
X66794300Y-108184900D02*
X73146400Y-108184900D01*
X65172400Y-109806800D02*
X66794300Y-108184900D01*
X65172400Y-120938400D02*
X65172400Y-109806800D01*
X74409000Y-130175000D02*
X65172400Y-120938400D01*
D38*
X104140000Y-92075000D02*
X104140000Y-90375200D01*
X107520200Y-86995000D02*
X176051300Y-86995000D01*
X104140000Y-90375200D02*
X107520200Y-86995000D01*
X106680000Y-92075000D02*
X106680000Y-90375200D01*
X108870000Y-88185200D02*
X106680000Y-90375200D01*
X139456900Y-88185200D02*
X108870000Y-88185200D01*
X140806700Y-89535000D02*
X139456900Y-88185200D01*
X175647500Y-89535000D02*
X140806700Y-89535000D01*
X69850000Y-102096000D02*
X69850000Y-99695000D01*
X71840100Y-104086100D02*
X69850000Y-102096000D01*
X72921900Y-104086100D02*
X71840100Y-104086100D01*
X74631600Y-102376400D02*
X72921900Y-104086100D01*
X74631600Y-100998800D02*
X74631600Y-102376400D01*
X77781500Y-97848900D02*
X74631600Y-100998800D01*
X90658000Y-97848900D02*
X77781500Y-97848900D01*
X91021300Y-98212200D02*
X90658000Y-97848900D01*
X91021300Y-99577100D02*
X91021300Y-98212200D01*
X93679200Y-102235000D02*
X91021300Y-99577100D01*
X93980000Y-102235000D02*
X93679200Y-102235000D01*
X96520000Y-102235000D02*
X96520000Y-101043200D01*
X72390000Y-99695000D02*
X73581800Y-99695000D01*
X76139400Y-97137400D02*
X73581800Y-99695000D01*
X90952800Y-97137400D02*
X76139400Y-97137400D01*
X91984200Y-98168800D02*
X90952800Y-97137400D01*
X91984200Y-99533700D02*
X91984200Y-98168800D01*
X93493700Y-101043200D02*
X91984200Y-99533700D01*
X96520000Y-101043200D02*
X93493700Y-101043200D01*
X147955000Y-109014800D02*
X150065200Y-111125000D01*
X121920000Y-109014800D02*
X147955000Y-109014800D01*
X121920000Y-107315000D02*
X121920000Y-109014800D01*
X151765000Y-111125000D02*
X150065200Y-111125000D01*
X136993800Y-93751800D02*
X139006900Y-95764900D01*
X128676800Y-93751800D02*
X136993800Y-93751800D01*
X127000000Y-92075000D02*
X128676800Y-93751800D01*
X159610900Y-113665000D02*
X167005000Y-113665000D01*
X153260900Y-107315000D02*
X159610900Y-113665000D01*
X149079500Y-107315000D02*
X153260900Y-107315000D01*
X136939300Y-95174800D02*
X149079500Y-107315000D01*
X127559800Y-95174800D02*
X136939300Y-95174800D01*
X124460000Y-92075000D02*
X127559800Y-95174800D01*
X121920000Y-92075000D02*
X121920000Y-90375200D01*
X167005000Y-111125000D02*
X168704800Y-111125000D01*
X122631500Y-89663700D02*
X121920000Y-90375200D01*
X137916500Y-89663700D02*
X122631500Y-89663700D01*
X150490500Y-102237700D02*
X137916500Y-89663700D01*
X150490500Y-102237800D02*
X150490500Y-102237700D01*
X157774900Y-102237800D02*
X150490500Y-102237800D01*
X162892700Y-107355600D02*
X157774900Y-102237800D01*
X167940800Y-107355600D02*
X162892700Y-107355600D01*
X168704800Y-108119600D02*
X167940800Y-107355600D01*
X168704800Y-111125000D02*
X168704800Y-108119600D01*
X160282800Y-108585000D02*
X167005000Y-108585000D01*
X156470000Y-104772200D02*
X160282800Y-108585000D01*
X150205200Y-104772200D02*
X156470000Y-104772200D01*
X148794700Y-103361700D02*
X150205200Y-104772200D01*
X148794700Y-101548200D02*
X148794700Y-103361700D01*
X137644700Y-90398200D02*
X148794700Y-101548200D01*
X123935100Y-90398200D02*
X137644700Y-90398200D01*
X123190000Y-91143300D02*
X123935100Y-90398200D01*
X123190000Y-93047500D02*
X123190000Y-91143300D01*
X122462700Y-93774800D02*
X123190000Y-93047500D01*
X119380000Y-93774800D02*
X122462700Y-93774800D01*
X119380000Y-92075000D02*
X119380000Y-93774800D01*
X88900000Y-92075000D02*
X88900000Y-90375200D01*
X167005000Y-78105000D02*
X165305200Y-78105000D01*
X164035200Y-79375000D02*
X165305200Y-78105000D01*
X149009900Y-79375000D02*
X164035200Y-79375000D01*
X147181500Y-81203400D02*
X149009900Y-79375000D01*
X98071800Y-81203400D02*
X147181500Y-81203400D01*
X88900000Y-90375200D02*
X98071800Y-81203400D01*
X91440000Y-92075000D02*
X91440000Y-90375200D01*
X167005000Y-80645000D02*
X165305200Y-80645000D01*
X164032400Y-81917800D02*
X165305200Y-80645000D01*
X99897400Y-81917800D02*
X164032400Y-81917800D01*
X91440000Y-90375200D02*
X99897400Y-81917800D01*
X116840000Y-92075000D02*
X116840000Y-90375200D01*
X167005000Y-106045000D02*
X165305200Y-106045000D01*
X118268500Y-88946700D02*
X116840000Y-90375200D01*
X139059900Y-88946700D02*
X118268500Y-88946700D01*
X147268100Y-97154900D02*
X139059900Y-88946700D01*
X156415100Y-97154900D02*
X147268100Y-97154900D01*
X165305200Y-106045000D02*
X156415100Y-97154900D01*
X121920000Y-99695000D02*
X121920000Y-97487200D01*
X118211200Y-91000300D02*
X118989900Y-90221600D01*
X118211200Y-93778400D02*
X118211200Y-91000300D01*
X121920000Y-97487200D02*
X118211200Y-93778400D01*
X123773200Y-76148200D02*
X130731800Y-76148200D01*
X116840000Y-69215000D02*
X123773200Y-76148200D01*
X128569000Y-95993200D02*
X126098600Y-95993200D01*
X130888200Y-98312400D02*
X128569000Y-95993200D01*
X130888200Y-100223900D02*
X130888200Y-98312400D01*
X131707500Y-101043200D02*
X130888200Y-100223900D01*
X132080000Y-101043200D02*
X131707500Y-101043200D01*
X132080000Y-102235000D02*
X132080000Y-101043200D01*
X134077800Y-79538100D02*
X80091600Y-79538100D01*
X76849600Y-93010400D02*
X76849600Y-92888600D01*
X78325600Y-94486400D02*
X76849600Y-93010400D01*
X93831900Y-94486400D02*
X78325600Y-94486400D01*
X95250000Y-93068300D02*
X93831900Y-94486400D01*
X95250000Y-91139500D02*
X95250000Y-93068300D01*
X100664500Y-85725000D02*
X95250000Y-91139500D01*
X136789800Y-85725000D02*
X100664500Y-85725000D01*
D37*
X177405000Y-98630000D02*
X178197000Y-98630000D01*
X177730900Y-99096100D02*
X177405000Y-99096100D01*
X178197000Y-98630000D02*
X177730900Y-99096100D01*
X177405000Y-100760000D02*
X177405000Y-99096100D01*
X182079600Y-94747400D02*
X178197000Y-98630000D01*
X182079600Y-82550000D02*
X182079600Y-94747400D01*
X185039000Y-82550000D02*
X182079600Y-82550000D01*
D39*
G36*
X70743189Y-69596000D02*
X70766845Y-69714927D01*
X70834212Y-69815748D01*
X70935033Y-69883115D01*
X71053960Y-69906771D01*
X72644000Y-69906771D01*
X72762927Y-69883115D01*
X72863748Y-69815748D01*
X72931115Y-69714927D01*
X72954771Y-69596000D01*
X72954771Y-69519800D01*
X74663300Y-69519800D01*
X74663300Y-70606257D01*
X74756106Y-70830311D01*
X74927589Y-71001794D01*
X75151643Y-71094600D01*
X75895200Y-71094600D01*
X76047600Y-70942200D01*
X76047600Y-69367400D01*
X74815700Y-69367400D01*
X74663300Y-69519800D01*
X72954771Y-69519800D01*
X72954771Y-67823743D01*
X74663300Y-67823743D01*
X74663300Y-68910200D01*
X74815700Y-69062600D01*
X76047600Y-69062600D01*
X76047600Y-67487800D01*
X75895200Y-67335400D01*
X75151643Y-67335400D01*
X74927589Y-67428206D01*
X74756106Y-67599689D01*
X74663300Y-67823743D01*
X72954771Y-67823743D01*
X72954771Y-67094100D01*
X172002829Y-67094100D01*
X172002829Y-71628000D01*
X172026485Y-71746927D01*
X172093852Y-71847748D01*
X172194673Y-71915115D01*
X172313600Y-71938771D01*
X174165563Y-71938771D01*
X173901939Y-72201934D01*
X173748874Y-72570556D01*
X173748526Y-72969693D01*
X173796219Y-73085117D01*
X173682444Y-73037874D01*
X173283307Y-73037526D01*
X172914419Y-73189948D01*
X172631939Y-73471934D01*
X172478874Y-73840556D01*
X172478526Y-74239693D01*
X172630948Y-74608581D01*
X172912934Y-74891061D01*
X173281556Y-75044126D01*
X173680693Y-75044474D01*
X174049581Y-74892052D01*
X174332061Y-74610066D01*
X174485126Y-74241444D01*
X174485474Y-73842307D01*
X174437781Y-73726883D01*
X174551556Y-73774126D01*
X174950693Y-73774474D01*
X175319581Y-73622052D01*
X175602061Y-73340066D01*
X175755126Y-72971444D01*
X175755474Y-72572307D01*
X175603052Y-72203419D01*
X175321066Y-71920939D01*
X175257385Y-71894496D01*
X175327348Y-71847748D01*
X175394715Y-71746927D01*
X175418371Y-71628000D01*
X175418371Y-67094100D01*
X181451629Y-67094100D01*
X181451629Y-71628000D01*
X181475285Y-71746927D01*
X181542652Y-71847748D01*
X181612386Y-71894343D01*
X181550419Y-71919948D01*
X181267939Y-72201934D01*
X181114874Y-72570556D01*
X181114526Y-72969693D01*
X181266948Y-73338581D01*
X181548934Y-73621061D01*
X181917556Y-73774126D01*
X182316693Y-73774474D01*
X182432117Y-73726781D01*
X182384874Y-73840556D01*
X182384526Y-74239693D01*
X182536948Y-74608581D01*
X182818934Y-74891061D01*
X183187556Y-75044126D01*
X183586693Y-75044474D01*
X183955581Y-74892052D01*
X184238061Y-74610066D01*
X184391126Y-74241444D01*
X184391474Y-73842307D01*
X184239052Y-73473419D01*
X183957066Y-73190939D01*
X183588444Y-73037874D01*
X183189307Y-73037526D01*
X183073883Y-73085219D01*
X183121126Y-72971444D01*
X183121474Y-72572307D01*
X182969052Y-72203419D01*
X182704867Y-71938771D01*
X184556400Y-71938771D01*
X184675327Y-71915115D01*
X184776148Y-71847748D01*
X184843515Y-71746927D01*
X184867171Y-71628000D01*
X184867171Y-69627477D01*
X189686840Y-69627477D01*
X190003259Y-70393270D01*
X190588648Y-70979682D01*
X191353888Y-71297437D01*
X192182477Y-71298160D01*
X192948270Y-70981741D01*
X193534682Y-70396352D01*
X193852437Y-69631112D01*
X193853160Y-68802523D01*
X193536741Y-68036730D01*
X192951352Y-67450318D01*
X192186112Y-67132563D01*
X191357523Y-67131840D01*
X190591730Y-67448259D01*
X190005318Y-68033648D01*
X189687563Y-68798888D01*
X189686840Y-69627477D01*
X184867171Y-69627477D01*
X184867171Y-67094100D01*
X193890900Y-67094100D01*
X193890900Y-77387829D01*
X189357000Y-77387829D01*
X189238073Y-77411485D01*
X189137252Y-77478852D01*
X189069885Y-77579673D01*
X189046229Y-77698600D01*
X189046229Y-79550563D01*
X188783066Y-79286939D01*
X188414444Y-79133874D01*
X188015307Y-79133526D01*
X187899883Y-79181219D01*
X187947126Y-79067444D01*
X187947474Y-78668307D01*
X187795052Y-78299419D01*
X187513066Y-78016939D01*
X187144444Y-77863874D01*
X186745307Y-77863526D01*
X186376419Y-78015948D01*
X186093939Y-78297934D01*
X185940874Y-78666556D01*
X185940526Y-79065693D01*
X186092948Y-79434581D01*
X186374934Y-79717061D01*
X186743556Y-79870126D01*
X187142693Y-79870474D01*
X187258117Y-79822781D01*
X187210874Y-79936556D01*
X187210526Y-80335693D01*
X187362948Y-80704581D01*
X187644934Y-80987061D01*
X188013556Y-81140126D01*
X188412693Y-81140474D01*
X188781581Y-80988052D01*
X189064061Y-80706066D01*
X189090504Y-80642385D01*
X189137252Y-80712348D01*
X189238073Y-80779715D01*
X189357000Y-80803371D01*
X193890900Y-80803371D01*
X193890900Y-86836629D01*
X189357000Y-86836629D01*
X189238073Y-86860285D01*
X189137252Y-86927652D01*
X189090657Y-86997386D01*
X189065052Y-86935419D01*
X188783066Y-86652939D01*
X188414444Y-86499874D01*
X188015307Y-86499526D01*
X187646419Y-86651948D01*
X187363939Y-86933934D01*
X187210874Y-87302556D01*
X187210526Y-87701693D01*
X187258219Y-87817117D01*
X187144444Y-87769874D01*
X186745307Y-87769526D01*
X186376419Y-87921948D01*
X186093939Y-88203934D01*
X186004200Y-88420050D01*
X186004200Y-86341566D01*
X187134500Y-86341566D01*
X187273248Y-86313967D01*
X187390873Y-86235373D01*
X187469467Y-86117748D01*
X187497066Y-85979000D01*
X187497066Y-84201000D01*
X187469467Y-84062252D01*
X187390873Y-83944627D01*
X187273248Y-83866033D01*
X187134500Y-83838434D01*
X183044800Y-83838434D01*
X183044800Y-83801566D01*
X187134500Y-83801566D01*
X187273248Y-83773967D01*
X187390873Y-83695373D01*
X187469467Y-83577748D01*
X187497066Y-83439000D01*
X187497066Y-81661000D01*
X187469467Y-81522252D01*
X187390873Y-81404627D01*
X187273248Y-81326033D01*
X187134500Y-81298434D01*
X182943500Y-81298434D01*
X182804752Y-81326033D01*
X182687127Y-81404627D01*
X182608533Y-81522252D01*
X182596091Y-81584800D01*
X182079600Y-81584800D01*
X181710234Y-81658271D01*
X181397101Y-81867501D01*
X181187871Y-82180634D01*
X181114400Y-82550000D01*
X181114400Y-94347601D01*
X177942773Y-97519229D01*
X176685000Y-97519229D01*
X176634739Y-97529226D01*
X176601794Y-97449689D01*
X176430311Y-97278206D01*
X176206257Y-97185400D01*
X173909800Y-97185400D01*
X173757400Y-97337800D01*
X173757400Y-99542600D01*
X173777400Y-99542600D01*
X173777400Y-99847400D01*
X173757400Y-99847400D01*
X173757400Y-102052200D01*
X173909800Y-102204600D01*
X176206257Y-102204600D01*
X176430311Y-102111794D01*
X176601794Y-101940311D01*
X176634739Y-101860774D01*
X176685000Y-101870771D01*
X178125000Y-101870771D01*
X178243927Y-101847115D01*
X178344748Y-101779748D01*
X178412115Y-101678927D01*
X178435771Y-101560000D01*
X178435771Y-99960000D01*
X178412115Y-99841073D01*
X178383652Y-99798475D01*
X178413399Y-99778599D01*
X178879500Y-99312499D01*
X178879502Y-99312496D01*
X180397106Y-97794893D01*
X180115345Y-98216577D01*
X179933600Y-99130272D01*
X179933600Y-100259728D01*
X180115345Y-101173423D01*
X180632912Y-101948016D01*
X180910807Y-102133700D01*
X180870000Y-102133700D01*
X180561915Y-102194982D01*
X180500633Y-102207171D01*
X180187500Y-102416401D01*
X178589102Y-104014800D01*
X178381196Y-104014800D01*
X178344748Y-103960252D01*
X178243927Y-103892885D01*
X178125000Y-103869229D01*
X176685000Y-103869229D01*
X176634739Y-103879226D01*
X176601794Y-103799689D01*
X176430311Y-103628206D01*
X176206257Y-103535400D01*
X173909800Y-103535400D01*
X173757400Y-103687800D01*
X173757400Y-105892600D01*
X173777400Y-105892600D01*
X173777400Y-106197400D01*
X173757400Y-106197400D01*
X173757400Y-108402200D01*
X173909800Y-108554600D01*
X176206257Y-108554600D01*
X176430311Y-108461794D01*
X176601794Y-108290311D01*
X176634739Y-108210774D01*
X176685000Y-108220771D01*
X178125000Y-108220771D01*
X178243927Y-108197115D01*
X178344748Y-108129748D01*
X178412115Y-108028927D01*
X178435771Y-107910000D01*
X178435771Y-106310000D01*
X178412115Y-106191073D01*
X178383652Y-106148475D01*
X178413399Y-106128599D01*
X178596798Y-105945200D01*
X178988900Y-105945200D01*
X179358266Y-105871729D01*
X179671399Y-105662499D01*
X181269799Y-104064100D01*
X182321200Y-104064100D01*
X182646135Y-103999467D01*
X179022501Y-107623101D01*
X178813271Y-107936234D01*
X178739800Y-108305600D01*
X178739800Y-121001091D01*
X178677252Y-121013533D01*
X178597227Y-121067004D01*
X178570794Y-121003189D01*
X178399311Y-120831706D01*
X178175257Y-120738900D01*
X177469800Y-120738900D01*
X177317400Y-120891300D01*
X177317400Y-123291600D01*
X177337400Y-123291600D01*
X177337400Y-123596400D01*
X177317400Y-123596400D01*
X177317400Y-125996700D01*
X177469800Y-126149100D01*
X178175257Y-126149100D01*
X178399311Y-126056294D01*
X178570794Y-125884811D01*
X178597227Y-125820996D01*
X178677252Y-125874467D01*
X178816000Y-125902066D01*
X180594000Y-125902066D01*
X180732748Y-125874467D01*
X180850373Y-125795873D01*
X180928967Y-125678248D01*
X180956566Y-125539500D01*
X180956566Y-121348500D01*
X180928967Y-121209752D01*
X180850373Y-121092127D01*
X180732748Y-121013533D01*
X180670200Y-121001091D01*
X180670200Y-108705398D01*
X185184798Y-104190800D01*
X186405667Y-104190800D01*
X186564211Y-104987853D01*
X187015705Y-105663562D01*
X187691414Y-106115056D01*
X188488467Y-106273600D01*
X190123933Y-106273600D01*
X190920986Y-106115056D01*
X191596695Y-105663562D01*
X192048189Y-104987853D01*
X192206733Y-104190800D01*
X192048189Y-103393747D01*
X191596695Y-102718038D01*
X190920986Y-102266544D01*
X190123933Y-102108000D01*
X188488467Y-102108000D01*
X187691414Y-102266544D01*
X187015705Y-102718038D01*
X186564211Y-103393747D01*
X186405667Y-104190800D01*
X185184798Y-104190800D01*
X187546999Y-101828600D01*
X188367352Y-101828600D01*
X189183845Y-101666189D01*
X189876035Y-101203683D01*
X190336473Y-100514589D01*
X190592463Y-100771026D01*
X191059073Y-100964779D01*
X191564310Y-100965220D01*
X192031258Y-100772282D01*
X192388826Y-100415337D01*
X192582579Y-99948727D01*
X192583020Y-99443490D01*
X192390082Y-98976542D01*
X192033137Y-98618974D01*
X191566527Y-98425221D01*
X191061290Y-98424780D01*
X190594342Y-98617718D01*
X190336363Y-98875247D01*
X189876035Y-98186317D01*
X189183845Y-97723811D01*
X188367352Y-97561400D01*
X187546999Y-97561400D01*
X186004200Y-96018602D01*
X186004200Y-95199200D01*
X186405667Y-95199200D01*
X186564211Y-95996253D01*
X187015705Y-96671962D01*
X187691414Y-97123456D01*
X188488467Y-97282000D01*
X190123933Y-97282000D01*
X190920986Y-97123456D01*
X191596695Y-96671962D01*
X192048189Y-95996253D01*
X192206733Y-95199200D01*
X192048189Y-94402147D01*
X191596695Y-93726438D01*
X190920986Y-93274944D01*
X190123933Y-93116400D01*
X188488467Y-93116400D01*
X187691414Y-93274944D01*
X187015705Y-93726438D01*
X186564211Y-94402147D01*
X186405667Y-95199200D01*
X186004200Y-95199200D01*
X186004200Y-89125795D01*
X186092948Y-89340581D01*
X186374934Y-89623061D01*
X186743556Y-89776126D01*
X187142693Y-89776474D01*
X187511581Y-89624052D01*
X187794061Y-89342066D01*
X187947126Y-88973444D01*
X187947474Y-88574307D01*
X187899781Y-88458883D01*
X188013556Y-88506126D01*
X188412693Y-88506474D01*
X188781581Y-88354052D01*
X189046229Y-88089867D01*
X189046229Y-89941400D01*
X189069885Y-90060327D01*
X189137252Y-90161148D01*
X189238073Y-90228515D01*
X189357000Y-90252171D01*
X193890900Y-90252171D01*
X193890900Y-132295900D01*
X184867171Y-132295900D01*
X184867171Y-130587477D01*
X189686840Y-130587477D01*
X190003259Y-131353270D01*
X190588648Y-131939682D01*
X191353888Y-132257437D01*
X192182477Y-132258160D01*
X192948270Y-131941741D01*
X193534682Y-131356352D01*
X193852437Y-130591112D01*
X193853160Y-129762523D01*
X193536741Y-128996730D01*
X192951352Y-128410318D01*
X192186112Y-128092563D01*
X191357523Y-128091840D01*
X190591730Y-128408259D01*
X190005318Y-128993648D01*
X189687563Y-129758888D01*
X189686840Y-130587477D01*
X184867171Y-130587477D01*
X184867171Y-127762000D01*
X184843515Y-127643073D01*
X184776148Y-127542252D01*
X184675327Y-127474885D01*
X184556400Y-127451229D01*
X182704437Y-127451229D01*
X182968061Y-127188066D01*
X183121126Y-126819444D01*
X183121474Y-126420307D01*
X183073781Y-126304883D01*
X183187556Y-126352126D01*
X183586693Y-126352474D01*
X183955581Y-126200052D01*
X184238061Y-125918066D01*
X184391126Y-125549444D01*
X184391474Y-125150307D01*
X184239052Y-124781419D01*
X183957066Y-124498939D01*
X183588444Y-124345874D01*
X183189307Y-124345526D01*
X182820419Y-124497948D01*
X182537939Y-124779934D01*
X182384874Y-125148556D01*
X182384526Y-125547693D01*
X182432219Y-125663117D01*
X182318444Y-125615874D01*
X181919307Y-125615526D01*
X181550419Y-125767948D01*
X181267939Y-126049934D01*
X181114874Y-126418556D01*
X181114526Y-126817693D01*
X181266948Y-127186581D01*
X181548934Y-127469061D01*
X181612615Y-127495504D01*
X181542652Y-127542252D01*
X181475285Y-127643073D01*
X181451629Y-127762000D01*
X181451629Y-132295900D01*
X175418371Y-132295900D01*
X175418371Y-127762000D01*
X175394715Y-127643073D01*
X175327348Y-127542252D01*
X175257614Y-127495657D01*
X175319581Y-127470052D01*
X175602061Y-127188066D01*
X175755126Y-126819444D01*
X175755474Y-126420307D01*
X175603052Y-126051419D01*
X175321066Y-125768939D01*
X174952444Y-125615874D01*
X174553307Y-125615526D01*
X174437883Y-125663219D01*
X174485126Y-125549444D01*
X174485474Y-125150307D01*
X174333052Y-124781419D01*
X174051066Y-124498939D01*
X173682444Y-124345874D01*
X173283307Y-124345526D01*
X172914419Y-124497948D01*
X172631939Y-124779934D01*
X172478874Y-125148556D01*
X172478526Y-125547693D01*
X172630948Y-125916581D01*
X172912934Y-126199061D01*
X173281556Y-126352126D01*
X173680693Y-126352474D01*
X173796117Y-126304781D01*
X173748874Y-126418556D01*
X173748526Y-126817693D01*
X173900948Y-127186581D01*
X174165133Y-127451229D01*
X172313600Y-127451229D01*
X172194673Y-127474885D01*
X172093852Y-127542252D01*
X172026485Y-127643073D01*
X172002829Y-127762000D01*
X172002829Y-132295900D01*
X60109100Y-132295900D01*
X60109100Y-130587477D01*
X60146840Y-130587477D01*
X60463259Y-131353270D01*
X61048648Y-131939682D01*
X61813888Y-132257437D01*
X62642477Y-132258160D01*
X63408270Y-131941741D01*
X63994682Y-131356352D01*
X64312437Y-130591112D01*
X64313160Y-129762523D01*
X63996741Y-128996730D01*
X63411352Y-128410318D01*
X62646112Y-128092563D01*
X61817523Y-128091840D01*
X61051730Y-128408259D01*
X60465318Y-128993648D01*
X60147563Y-129758888D01*
X60146840Y-130587477D01*
X60109100Y-130587477D01*
X60109100Y-109806800D01*
X64207200Y-109806800D01*
X64207200Y-120938400D01*
X64261175Y-121209752D01*
X64280671Y-121307766D01*
X64489901Y-121620899D01*
X73726501Y-130857499D01*
X74039634Y-131066729D01*
X74409000Y-131140200D01*
X75081480Y-131140200D01*
X75292994Y-131456753D01*
X75709132Y-131734807D01*
X76200000Y-131832447D01*
X76690868Y-131734807D01*
X77107006Y-131456753D01*
X77385060Y-131040615D01*
X77470000Y-130613594D01*
X77554940Y-131040615D01*
X77832994Y-131456753D01*
X78249132Y-131734807D01*
X78740000Y-131832447D01*
X79230868Y-131734807D01*
X79647006Y-131456753D01*
X79925060Y-131040615D01*
X80010000Y-130613594D01*
X80094940Y-131040615D01*
X80372994Y-131456753D01*
X80789132Y-131734807D01*
X81280000Y-131832447D01*
X81770868Y-131734807D01*
X82187006Y-131456753D01*
X82465060Y-131040615D01*
X82550000Y-130613594D01*
X82634940Y-131040615D01*
X82912994Y-131456753D01*
X83329132Y-131734807D01*
X83820000Y-131832447D01*
X84310868Y-131734807D01*
X84727006Y-131456753D01*
X85005060Y-131040615D01*
X85102700Y-130549747D01*
X85102700Y-129801248D01*
X85128100Y-129801248D01*
X85128100Y-130548752D01*
X85221873Y-131020180D01*
X85488915Y-131419837D01*
X85888572Y-131686879D01*
X86360000Y-131780652D01*
X86831428Y-131686879D01*
X87231085Y-131419837D01*
X87498127Y-131020180D01*
X87591900Y-130548752D01*
X87591900Y-129801248D01*
X87668100Y-129801248D01*
X87668100Y-130548752D01*
X87761873Y-131020180D01*
X88028915Y-131419837D01*
X88428572Y-131686879D01*
X88900000Y-131780652D01*
X89371428Y-131686879D01*
X89771085Y-131419837D01*
X90038127Y-131020180D01*
X90131900Y-130548752D01*
X90131900Y-129801248D01*
X90208100Y-129801248D01*
X90208100Y-130548752D01*
X90301873Y-131020180D01*
X90568915Y-131419837D01*
X90968572Y-131686879D01*
X91440000Y-131780652D01*
X91911428Y-131686879D01*
X92311085Y-131419837D01*
X92578127Y-131020180D01*
X92671900Y-130548752D01*
X92671900Y-129801248D01*
X92748100Y-129801248D01*
X92748100Y-130548752D01*
X92841873Y-131020180D01*
X93108915Y-131419837D01*
X93508572Y-131686879D01*
X93980000Y-131780652D01*
X94451428Y-131686879D01*
X94851085Y-131419837D01*
X95118127Y-131020180D01*
X95211900Y-130548752D01*
X95211900Y-129801248D01*
X95288100Y-129801248D01*
X95288100Y-130548752D01*
X95381873Y-131020180D01*
X95648915Y-131419837D01*
X96048572Y-131686879D01*
X96520000Y-131780652D01*
X96991428Y-131686879D01*
X97391085Y-131419837D01*
X97658127Y-131020180D01*
X97751900Y-130548752D01*
X97751900Y-129801248D01*
X97828100Y-129801248D01*
X97828100Y-130548752D01*
X97921873Y-131020180D01*
X98188915Y-131419837D01*
X98588572Y-131686879D01*
X99060000Y-131780652D01*
X99531428Y-131686879D01*
X99931085Y-131419837D01*
X100198127Y-131020180D01*
X100291900Y-130548752D01*
X100291900Y-129801248D01*
X100368100Y-129801248D01*
X100368100Y-130548752D01*
X100461873Y-131020180D01*
X100728915Y-131419837D01*
X101128572Y-131686879D01*
X101600000Y-131780652D01*
X102071428Y-131686879D01*
X102471085Y-131419837D01*
X102738127Y-131020180D01*
X102831900Y-130548752D01*
X102831900Y-129801248D01*
X102908100Y-129801248D01*
X102908100Y-130548752D01*
X103001873Y-131020180D01*
X103268915Y-131419837D01*
X103668572Y-131686879D01*
X104140000Y-131780652D01*
X104611428Y-131686879D01*
X105011085Y-131419837D01*
X105278127Y-131020180D01*
X105371900Y-130548752D01*
X105371900Y-129801248D01*
X105448100Y-129801248D01*
X105448100Y-130548752D01*
X105541873Y-131020180D01*
X105808915Y-131419837D01*
X106208572Y-131686879D01*
X106680000Y-131780652D01*
X107151428Y-131686879D01*
X107551085Y-131419837D01*
X107818127Y-131020180D01*
X107911900Y-130548752D01*
X107911900Y-129801248D01*
X107988100Y-129801248D01*
X107988100Y-130548752D01*
X108081873Y-131020180D01*
X108348915Y-131419837D01*
X108748572Y-131686879D01*
X109220000Y-131780652D01*
X109691428Y-131686879D01*
X110091085Y-131419837D01*
X110358127Y-131020180D01*
X110451900Y-130548752D01*
X110451900Y-129801248D01*
X110528100Y-129801248D01*
X110528100Y-130548752D01*
X110621873Y-131020180D01*
X110888915Y-131419837D01*
X111288572Y-131686879D01*
X111760000Y-131780652D01*
X112231428Y-131686879D01*
X112631085Y-131419837D01*
X112898127Y-131020180D01*
X112991900Y-130548752D01*
X112991900Y-129801248D01*
X113068100Y-129801248D01*
X113068100Y-130548752D01*
X113161873Y-131020180D01*
X113428915Y-131419837D01*
X113828572Y-131686879D01*
X114300000Y-131780652D01*
X114771428Y-131686879D01*
X115171085Y-131419837D01*
X115438127Y-131020180D01*
X115531900Y-130548752D01*
X115531900Y-129801248D01*
X115608100Y-129801248D01*
X115608100Y-130548752D01*
X115701873Y-131020180D01*
X115968915Y-131419837D01*
X116368572Y-131686879D01*
X116840000Y-131780652D01*
X117311428Y-131686879D01*
X117711085Y-131419837D01*
X117978127Y-131020180D01*
X118071900Y-130548752D01*
X118071900Y-129801248D01*
X118148100Y-129801248D01*
X118148100Y-130548752D01*
X118241873Y-131020180D01*
X118508915Y-131419837D01*
X118908572Y-131686879D01*
X119380000Y-131780652D01*
X119851428Y-131686879D01*
X120251085Y-131419837D01*
X120518127Y-131020180D01*
X120611900Y-130548752D01*
X120611900Y-129801248D01*
X120688100Y-129801248D01*
X120688100Y-130548752D01*
X120781873Y-131020180D01*
X121048915Y-131419837D01*
X121448572Y-131686879D01*
X121920000Y-131780652D01*
X122391428Y-131686879D01*
X122791085Y-131419837D01*
X123058127Y-131020180D01*
X123151900Y-130548752D01*
X123151900Y-129801248D01*
X123228100Y-129801248D01*
X123228100Y-130548752D01*
X123321873Y-131020180D01*
X123588915Y-131419837D01*
X123988572Y-131686879D01*
X124460000Y-131780652D01*
X124931428Y-131686879D01*
X125331085Y-131419837D01*
X125598127Y-131020180D01*
X125691900Y-130548752D01*
X125691900Y-129801248D01*
X125768100Y-129801248D01*
X125768100Y-130548752D01*
X125861873Y-131020180D01*
X126128915Y-131419837D01*
X126528572Y-131686879D01*
X127000000Y-131780652D01*
X127471428Y-131686879D01*
X127871085Y-131419837D01*
X128138127Y-131020180D01*
X128231900Y-130548752D01*
X128231900Y-129801248D01*
X128308100Y-129801248D01*
X128308100Y-130548752D01*
X128401873Y-131020180D01*
X128668915Y-131419837D01*
X129068572Y-131686879D01*
X129540000Y-131780652D01*
X130011428Y-131686879D01*
X130411085Y-131419837D01*
X130678127Y-131020180D01*
X130771900Y-130548752D01*
X130771900Y-129801248D01*
X130848100Y-129801248D01*
X130848100Y-130548752D01*
X130941873Y-131020180D01*
X131208915Y-131419837D01*
X131608572Y-131686879D01*
X132080000Y-131780652D01*
X132551428Y-131686879D01*
X132951085Y-131419837D01*
X133218127Y-131020180D01*
X133311900Y-130548752D01*
X133311900Y-129801248D01*
X133388100Y-129801248D01*
X133388100Y-130548752D01*
X133481873Y-131020180D01*
X133748915Y-131419837D01*
X134148572Y-131686879D01*
X134620000Y-131780652D01*
X135091428Y-131686879D01*
X135491085Y-131419837D01*
X135758127Y-131020180D01*
X135851900Y-130548752D01*
X135851900Y-129801248D01*
X135928100Y-129801248D01*
X135928100Y-130548752D01*
X136021873Y-131020180D01*
X136288915Y-131419837D01*
X136688572Y-131686879D01*
X137160000Y-131780652D01*
X137631428Y-131686879D01*
X138031085Y-131419837D01*
X138298127Y-131020180D01*
X138384197Y-130587477D01*
X138886840Y-130587477D01*
X139203259Y-131353270D01*
X139788648Y-131939682D01*
X140553888Y-132257437D01*
X141382477Y-132258160D01*
X142148270Y-131941741D01*
X142734682Y-131356352D01*
X143052437Y-130591112D01*
X143053160Y-129762523D01*
X142736741Y-128996730D01*
X142151352Y-128410318D01*
X141386112Y-128092563D01*
X140557523Y-128091840D01*
X139791730Y-128408259D01*
X139205318Y-128993648D01*
X138887563Y-129758888D01*
X138886840Y-130587477D01*
X138384197Y-130587477D01*
X138391900Y-130548752D01*
X138391900Y-129801248D01*
X138298127Y-129329820D01*
X138031085Y-128930163D01*
X137631428Y-128663121D01*
X137160000Y-128569348D01*
X136688572Y-128663121D01*
X136288915Y-128930163D01*
X136021873Y-129329820D01*
X135928100Y-129801248D01*
X135851900Y-129801248D01*
X135758127Y-129329820D01*
X135491085Y-128930163D01*
X135091428Y-128663121D01*
X134620000Y-128569348D01*
X134148572Y-128663121D01*
X133748915Y-128930163D01*
X133481873Y-129329820D01*
X133388100Y-129801248D01*
X133311900Y-129801248D01*
X133218127Y-129329820D01*
X132951085Y-128930163D01*
X132551428Y-128663121D01*
X132080000Y-128569348D01*
X131608572Y-128663121D01*
X131208915Y-128930163D01*
X130941873Y-129329820D01*
X130848100Y-129801248D01*
X130771900Y-129801248D01*
X130678127Y-129329820D01*
X130411085Y-128930163D01*
X130011428Y-128663121D01*
X129540000Y-128569348D01*
X129068572Y-128663121D01*
X128668915Y-128930163D01*
X128401873Y-129329820D01*
X128308100Y-129801248D01*
X128231900Y-129801248D01*
X128138127Y-129329820D01*
X127871085Y-128930163D01*
X127471428Y-128663121D01*
X127000000Y-128569348D01*
X126528572Y-128663121D01*
X126128915Y-128930163D01*
X125861873Y-129329820D01*
X125768100Y-129801248D01*
X125691900Y-129801248D01*
X125598127Y-129329820D01*
X125331085Y-128930163D01*
X124931428Y-128663121D01*
X124460000Y-128569348D01*
X123988572Y-128663121D01*
X123588915Y-128930163D01*
X123321873Y-129329820D01*
X123228100Y-129801248D01*
X123151900Y-129801248D01*
X123058127Y-129329820D01*
X122791085Y-128930163D01*
X122391428Y-128663121D01*
X121920000Y-128569348D01*
X121448572Y-128663121D01*
X121048915Y-128930163D01*
X120781873Y-129329820D01*
X120688100Y-129801248D01*
X120611900Y-129801248D01*
X120518127Y-129329820D01*
X120251085Y-128930163D01*
X119851428Y-128663121D01*
X119380000Y-128569348D01*
X118908572Y-128663121D01*
X118508915Y-128930163D01*
X118241873Y-129329820D01*
X118148100Y-129801248D01*
X118071900Y-129801248D01*
X117978127Y-129329820D01*
X117711085Y-128930163D01*
X117311428Y-128663121D01*
X116840000Y-128569348D01*
X116368572Y-128663121D01*
X115968915Y-128930163D01*
X115701873Y-129329820D01*
X115608100Y-129801248D01*
X115531900Y-129801248D01*
X115438127Y-129329820D01*
X115171085Y-128930163D01*
X114771428Y-128663121D01*
X114300000Y-128569348D01*
X113828572Y-128663121D01*
X113428915Y-128930163D01*
X113161873Y-129329820D01*
X113068100Y-129801248D01*
X112991900Y-129801248D01*
X112898127Y-129329820D01*
X112631085Y-128930163D01*
X112231428Y-128663121D01*
X111760000Y-128569348D01*
X111288572Y-128663121D01*
X110888915Y-128930163D01*
X110621873Y-129329820D01*
X110528100Y-129801248D01*
X110451900Y-129801248D01*
X110358127Y-129329820D01*
X110091085Y-128930163D01*
X109691428Y-128663121D01*
X109220000Y-128569348D01*
X108748572Y-128663121D01*
X108348915Y-128930163D01*
X108081873Y-129329820D01*
X107988100Y-129801248D01*
X107911900Y-129801248D01*
X107818127Y-129329820D01*
X107551085Y-128930163D01*
X107151428Y-128663121D01*
X106680000Y-128569348D01*
X106208572Y-128663121D01*
X105808915Y-128930163D01*
X105541873Y-129329820D01*
X105448100Y-129801248D01*
X105371900Y-129801248D01*
X105278127Y-129329820D01*
X105011085Y-128930163D01*
X104611428Y-128663121D01*
X104140000Y-128569348D01*
X103668572Y-128663121D01*
X103268915Y-128930163D01*
X103001873Y-129329820D01*
X102908100Y-129801248D01*
X102831900Y-129801248D01*
X102738127Y-129329820D01*
X102471085Y-128930163D01*
X102071428Y-128663121D01*
X101600000Y-128569348D01*
X101128572Y-128663121D01*
X100728915Y-128930163D01*
X100461873Y-129329820D01*
X100368100Y-129801248D01*
X100291900Y-129801248D01*
X100198127Y-129329820D01*
X99931085Y-128930163D01*
X99531428Y-128663121D01*
X99060000Y-128569348D01*
X98588572Y-128663121D01*
X98188915Y-128930163D01*
X97921873Y-129329820D01*
X97828100Y-129801248D01*
X97751900Y-129801248D01*
X97658127Y-129329820D01*
X97391085Y-128930163D01*
X96991428Y-128663121D01*
X96520000Y-128569348D01*
X96048572Y-128663121D01*
X95648915Y-128930163D01*
X95381873Y-129329820D01*
X95288100Y-129801248D01*
X95211900Y-129801248D01*
X95118127Y-129329820D01*
X94851085Y-128930163D01*
X94451428Y-128663121D01*
X93980000Y-128569348D01*
X93508572Y-128663121D01*
X93108915Y-128930163D01*
X92841873Y-129329820D01*
X92748100Y-129801248D01*
X92671900Y-129801248D01*
X92578127Y-129329820D01*
X92311085Y-128930163D01*
X91911428Y-128663121D01*
X91440000Y-128569348D01*
X90968572Y-128663121D01*
X90568915Y-128930163D01*
X90301873Y-129329820D01*
X90208100Y-129801248D01*
X90131900Y-129801248D01*
X90038127Y-129329820D01*
X89771085Y-128930163D01*
X89371428Y-128663121D01*
X88900000Y-128569348D01*
X88428572Y-128663121D01*
X88028915Y-128930163D01*
X87761873Y-129329820D01*
X87668100Y-129801248D01*
X87591900Y-129801248D01*
X87498127Y-129329820D01*
X87231085Y-128930163D01*
X86831428Y-128663121D01*
X86360000Y-128569348D01*
X85888572Y-128663121D01*
X85488915Y-128930163D01*
X85221873Y-129329820D01*
X85128100Y-129801248D01*
X85102700Y-129801248D01*
X85102700Y-129800253D01*
X85005060Y-129309385D01*
X84727006Y-128893247D01*
X84310868Y-128615193D01*
X83820000Y-128517553D01*
X83329132Y-128615193D01*
X82912994Y-128893247D01*
X82634940Y-129309385D01*
X82550000Y-129736406D01*
X82465060Y-129309385D01*
X82187006Y-128893247D01*
X81770868Y-128615193D01*
X81280000Y-128517553D01*
X80789132Y-128615193D01*
X80372994Y-128893247D01*
X80094940Y-129309385D01*
X80010000Y-129736406D01*
X79925060Y-129309385D01*
X79647006Y-128893247D01*
X79230868Y-128615193D01*
X78740000Y-128517553D01*
X78249132Y-128615193D01*
X77832994Y-128893247D01*
X77554940Y-129309385D01*
X77470000Y-129736406D01*
X77385060Y-129309385D01*
X77107006Y-128893247D01*
X76690868Y-128615193D01*
X76200000Y-128517553D01*
X75709132Y-128615193D01*
X75292994Y-128893247D01*
X75081480Y-129209800D01*
X74808798Y-129209800D01*
X71106475Y-125507477D01*
X75386840Y-125507477D01*
X75703259Y-126273270D01*
X76288648Y-126859682D01*
X77053888Y-127177437D01*
X77882477Y-127178160D01*
X78648270Y-126861741D01*
X79145879Y-126365000D01*
X150159348Y-126365000D01*
X150240553Y-126773247D01*
X150471806Y-127119342D01*
X150817901Y-127350595D01*
X151226148Y-127431800D01*
X152303852Y-127431800D01*
X152712099Y-127350595D01*
X153058194Y-127119342D01*
X153289447Y-126773247D01*
X153370652Y-126365000D01*
X165399348Y-126365000D01*
X165480553Y-126773247D01*
X165711806Y-127119342D01*
X166057901Y-127350595D01*
X166466148Y-127431800D01*
X167543852Y-127431800D01*
X167952099Y-127350595D01*
X168298194Y-127119342D01*
X168529447Y-126773247D01*
X168610652Y-126365000D01*
X168529447Y-125956753D01*
X168298194Y-125610658D01*
X167952099Y-125379405D01*
X167543852Y-125298200D01*
X166466148Y-125298200D01*
X166057901Y-125379405D01*
X165711806Y-125610658D01*
X165480553Y-125956753D01*
X165399348Y-126365000D01*
X153370652Y-126365000D01*
X153289447Y-125956753D01*
X153058194Y-125610658D01*
X152712099Y-125379405D01*
X152303852Y-125298200D01*
X151226148Y-125298200D01*
X150817901Y-125379405D01*
X150471806Y-125610658D01*
X150240553Y-125956753D01*
X150159348Y-126365000D01*
X79145879Y-126365000D01*
X79234682Y-126276352D01*
X79552437Y-125511112D01*
X79553160Y-124682523D01*
X79236741Y-123916730D01*
X79145172Y-123825000D01*
X150159348Y-123825000D01*
X150240553Y-124233247D01*
X150471806Y-124579342D01*
X150817901Y-124810595D01*
X151226148Y-124891800D01*
X152303852Y-124891800D01*
X152712099Y-124810595D01*
X153058194Y-124579342D01*
X153289447Y-124233247D01*
X153370652Y-123825000D01*
X165399348Y-123825000D01*
X165480553Y-124233247D01*
X165711806Y-124579342D01*
X166057901Y-124810595D01*
X166466148Y-124891800D01*
X167543852Y-124891800D01*
X167952099Y-124810595D01*
X168298194Y-124579342D01*
X168529447Y-124233247D01*
X168610652Y-123825000D01*
X168595495Y-123748800D01*
X175666400Y-123748800D01*
X175666400Y-125660757D01*
X175759206Y-125884811D01*
X175930689Y-126056294D01*
X176154743Y-126149100D01*
X176860200Y-126149100D01*
X177012600Y-125996700D01*
X177012600Y-123596400D01*
X175818800Y-123596400D01*
X175666400Y-123748800D01*
X168595495Y-123748800D01*
X168529447Y-123416753D01*
X168298194Y-123070658D01*
X167952099Y-122839405D01*
X167543852Y-122758200D01*
X166466148Y-122758200D01*
X166057901Y-122839405D01*
X165711806Y-123070658D01*
X165480553Y-123416753D01*
X165399348Y-123825000D01*
X153370652Y-123825000D01*
X153289447Y-123416753D01*
X153058194Y-123070658D01*
X152712099Y-122839405D01*
X152303852Y-122758200D01*
X151226148Y-122758200D01*
X150817901Y-122839405D01*
X150471806Y-123070658D01*
X150240553Y-123416753D01*
X150159348Y-123825000D01*
X79145172Y-123825000D01*
X78651352Y-123330318D01*
X77886112Y-123012563D01*
X77057523Y-123011840D01*
X76291730Y-123328259D01*
X75705318Y-123913648D01*
X75387563Y-124678888D01*
X75386840Y-125507477D01*
X71106475Y-125507477D01*
X66137600Y-120538602D01*
X66137600Y-116465641D01*
X66342466Y-116602528D01*
X66770153Y-116687600D01*
X67849847Y-116687600D01*
X68277534Y-116602528D01*
X68640110Y-116360263D01*
X68882375Y-115997687D01*
X68967447Y-115570000D01*
X68882375Y-115142313D01*
X68640110Y-114779737D01*
X68277534Y-114537472D01*
X67849847Y-114452400D01*
X66770153Y-114452400D01*
X66342466Y-114537472D01*
X66137600Y-114674359D01*
X66137600Y-113925641D01*
X66342466Y-114062528D01*
X66770153Y-114147600D01*
X67849847Y-114147600D01*
X68277534Y-114062528D01*
X68640110Y-113820263D01*
X68882375Y-113457687D01*
X68967447Y-113030000D01*
X68882375Y-112602313D01*
X68640110Y-112239737D01*
X68277534Y-111997472D01*
X67849847Y-111912400D01*
X66770153Y-111912400D01*
X66342466Y-111997472D01*
X66137600Y-112134359D01*
X66137600Y-111699280D01*
X66649600Y-111861600D01*
X67157600Y-111861600D01*
X67157600Y-110642400D01*
X67462400Y-110642400D01*
X67462400Y-111861600D01*
X67970400Y-111861600D01*
X68483688Y-111698872D01*
X68895631Y-111352104D01*
X69140484Y-110853761D01*
X69027637Y-110642400D01*
X67462400Y-110642400D01*
X67157600Y-110642400D01*
X67137600Y-110642400D01*
X67137600Y-110337600D01*
X67157600Y-110337600D01*
X67157600Y-110317600D01*
X67462400Y-110317600D01*
X67462400Y-110337600D01*
X69027637Y-110337600D01*
X69140484Y-110126239D01*
X68895631Y-109627896D01*
X68483688Y-109281128D01*
X68070390Y-109150100D01*
X73146400Y-109150100D01*
X73515766Y-109076629D01*
X73828899Y-108867399D01*
X77480999Y-105215300D01*
X77690229Y-104902167D01*
X77763699Y-104532800D01*
X77690229Y-104163434D01*
X77480999Y-103850301D01*
X77167866Y-103641071D01*
X76798500Y-103567601D01*
X76429133Y-103641071D01*
X76116000Y-103850301D01*
X72746602Y-107219700D01*
X66794300Y-107219700D01*
X66424934Y-107293171D01*
X66111801Y-107502401D01*
X64489901Y-109124301D01*
X64280671Y-109437434D01*
X64207200Y-109806800D01*
X60109100Y-109806800D01*
X60109100Y-104775000D01*
X60599467Y-104775000D01*
X60738676Y-105474851D01*
X61135110Y-106068157D01*
X61728416Y-106464591D01*
X62428267Y-106603800D01*
X64571733Y-106603800D01*
X65271584Y-106464591D01*
X65864890Y-106068157D01*
X66261324Y-105474851D01*
X66400533Y-104775000D01*
X66261324Y-104075149D01*
X65864890Y-103481843D01*
X65271584Y-103085409D01*
X64571733Y-102946200D01*
X62428267Y-102946200D01*
X61728416Y-103085409D01*
X61135110Y-103481843D01*
X60738676Y-104075149D01*
X60599467Y-104775000D01*
X60109100Y-104775000D01*
X60109100Y-99695000D01*
X68249324Y-99695000D01*
X68330529Y-100103247D01*
X68561782Y-100449342D01*
X68907877Y-100680595D01*
X69240400Y-100746738D01*
X69240400Y-102096000D01*
X69286803Y-102329284D01*
X69418948Y-102527052D01*
X71409047Y-104517152D01*
X71490834Y-104571800D01*
X71606816Y-104649297D01*
X71840100Y-104695700D01*
X72921900Y-104695700D01*
X73155184Y-104649297D01*
X73352952Y-104517152D01*
X75062652Y-102807452D01*
X75194797Y-102609684D01*
X75241200Y-102376400D01*
X75241200Y-101251304D01*
X77622434Y-98870071D01*
X77622434Y-100945000D01*
X77650033Y-101083748D01*
X77728627Y-101201373D01*
X77846252Y-101279967D01*
X77985000Y-101307566D01*
X78374800Y-101307566D01*
X78374800Y-104181301D01*
X78057501Y-104498601D01*
X77848271Y-104811734D01*
X77774800Y-105181100D01*
X77774800Y-106246702D01*
X77707472Y-106347466D01*
X77622400Y-106775153D01*
X77622400Y-107854847D01*
X77707472Y-108282534D01*
X77949737Y-108645110D01*
X78312313Y-108887375D01*
X78740000Y-108972447D01*
X79167687Y-108887375D01*
X79530263Y-108645110D01*
X79772528Y-108282534D01*
X79857600Y-107854847D01*
X79857600Y-106775153D01*
X79772528Y-106347466D01*
X79705200Y-106246702D01*
X79705200Y-105580898D01*
X80022499Y-105263600D01*
X80200318Y-104997476D01*
X80247472Y-105234534D01*
X80489737Y-105597110D01*
X80779915Y-105791000D01*
X80489737Y-105984890D01*
X80247472Y-106347466D01*
X80162400Y-106775153D01*
X80162400Y-107854847D01*
X80247472Y-108282534D01*
X80489737Y-108645110D01*
X80852313Y-108887375D01*
X81280000Y-108972447D01*
X81707687Y-108887375D01*
X82070263Y-108645110D01*
X82312528Y-108282534D01*
X82397600Y-107854847D01*
X82397600Y-106775153D01*
X82312528Y-106347466D01*
X82070263Y-105984890D01*
X81780085Y-105791000D01*
X82070263Y-105597110D01*
X82312528Y-105234534D01*
X82397600Y-104806847D01*
X82397600Y-103727153D01*
X82312528Y-103299466D01*
X82245200Y-103198702D01*
X82245200Y-102774100D01*
X83220000Y-102774100D01*
X83589366Y-102700629D01*
X83902499Y-102491399D01*
X84111729Y-102178266D01*
X84185200Y-101808900D01*
X84185200Y-101307566D01*
X84575000Y-101307566D01*
X84713748Y-101279967D01*
X84831373Y-101201373D01*
X84909967Y-101083748D01*
X84937566Y-100945000D01*
X84937566Y-98458500D01*
X85743434Y-98458500D01*
X85743434Y-100910040D01*
X85668315Y-100924982D01*
X85607033Y-100937171D01*
X85293900Y-101146401D01*
X83137501Y-103302801D01*
X82928271Y-103615934D01*
X82854800Y-103985300D01*
X82854800Y-106246702D01*
X82787472Y-106347466D01*
X82702400Y-106775153D01*
X82702400Y-107854847D01*
X82787472Y-108282534D01*
X83029737Y-108645110D01*
X83392313Y-108887375D01*
X83820000Y-108972447D01*
X84247687Y-108887375D01*
X84610263Y-108645110D01*
X84852528Y-108282534D01*
X84937600Y-107854847D01*
X84937600Y-106775153D01*
X84852528Y-106347466D01*
X84785200Y-106246702D01*
X84785200Y-104385098D01*
X85242400Y-103927898D01*
X85242400Y-104806847D01*
X85327472Y-105234534D01*
X85569737Y-105597110D01*
X85905499Y-105821459D01*
X85605658Y-106021806D01*
X85374405Y-106367901D01*
X85293200Y-106776148D01*
X85293200Y-107853852D01*
X85374405Y-108262099D01*
X85605658Y-108608194D01*
X85951753Y-108839447D01*
X86360000Y-108920652D01*
X86768247Y-108839447D01*
X87114342Y-108608194D01*
X87345595Y-108262099D01*
X87426800Y-107853852D01*
X87426800Y-106776148D01*
X87345595Y-106367901D01*
X87114342Y-106021806D01*
X86814501Y-105821459D01*
X87150263Y-105597110D01*
X87392528Y-105234534D01*
X87477600Y-104806847D01*
X87477600Y-103728148D01*
X87833200Y-103728148D01*
X87833200Y-104805852D01*
X87914405Y-105214099D01*
X88145658Y-105560194D01*
X88491084Y-105791000D01*
X88145658Y-106021806D01*
X87914405Y-106367901D01*
X87833200Y-106776148D01*
X87833200Y-107853852D01*
X87914405Y-108262099D01*
X88145658Y-108608194D01*
X88491753Y-108839447D01*
X88900000Y-108920652D01*
X89308247Y-108839447D01*
X89654342Y-108608194D01*
X89885595Y-108262099D01*
X89966800Y-107853852D01*
X89966800Y-106776148D01*
X89885595Y-106367901D01*
X89654342Y-106021806D01*
X89308916Y-105791000D01*
X89654342Y-105560194D01*
X89885595Y-105214099D01*
X89966800Y-104805852D01*
X89966800Y-103728148D01*
X90373200Y-103728148D01*
X90373200Y-104805852D01*
X90454405Y-105214099D01*
X90685658Y-105560194D01*
X91031084Y-105791000D01*
X90685658Y-106021806D01*
X90454405Y-106367901D01*
X90373200Y-106776148D01*
X90373200Y-107853852D01*
X90454405Y-108262099D01*
X90685658Y-108608194D01*
X91031753Y-108839447D01*
X91440000Y-108920652D01*
X91848247Y-108839447D01*
X92194342Y-108608194D01*
X92425595Y-108262099D01*
X92506800Y-107853852D01*
X92506800Y-106776148D01*
X92913200Y-106776148D01*
X92913200Y-107853852D01*
X92994405Y-108262099D01*
X93225658Y-108608194D01*
X93571753Y-108839447D01*
X93980000Y-108920652D01*
X94388247Y-108839447D01*
X94734342Y-108608194D01*
X94965595Y-108262099D01*
X95046800Y-107853852D01*
X95046800Y-106776148D01*
X95453200Y-106776148D01*
X95453200Y-107853852D01*
X95534405Y-108262099D01*
X95765658Y-108608194D01*
X96111753Y-108839447D01*
X96520000Y-108920652D01*
X96928247Y-108839447D01*
X97274342Y-108608194D01*
X97505595Y-108262099D01*
X97586800Y-107853852D01*
X97586800Y-106776148D01*
X97993200Y-106776148D01*
X97993200Y-107853852D01*
X98074405Y-108262099D01*
X98305658Y-108608194D01*
X98651753Y-108839447D01*
X99060000Y-108920652D01*
X99468247Y-108839447D01*
X99814342Y-108608194D01*
X100045595Y-108262099D01*
X100126800Y-107853852D01*
X100126800Y-106776148D01*
X100533200Y-106776148D01*
X100533200Y-107853852D01*
X100614405Y-108262099D01*
X100845658Y-108608194D01*
X101191753Y-108839447D01*
X101600000Y-108920652D01*
X102008247Y-108839447D01*
X102354342Y-108608194D01*
X102585595Y-108262099D01*
X102666800Y-107853852D01*
X102666800Y-106776148D01*
X103073200Y-106776148D01*
X103073200Y-107853852D01*
X103154405Y-108262099D01*
X103385658Y-108608194D01*
X103731753Y-108839447D01*
X104140000Y-108920652D01*
X104548247Y-108839447D01*
X104894342Y-108608194D01*
X105125595Y-108262099D01*
X105206800Y-107853852D01*
X105206800Y-106776148D01*
X105613200Y-106776148D01*
X105613200Y-107853852D01*
X105694405Y-108262099D01*
X105925658Y-108608194D01*
X106271753Y-108839447D01*
X106680000Y-108920652D01*
X107088247Y-108839447D01*
X107434342Y-108608194D01*
X107665595Y-108262099D01*
X107746800Y-107853852D01*
X107746800Y-106776148D01*
X108153200Y-106776148D01*
X108153200Y-107853852D01*
X108234405Y-108262099D01*
X108465658Y-108608194D01*
X108811753Y-108839447D01*
X109220000Y-108920652D01*
X109628247Y-108839447D01*
X109974342Y-108608194D01*
X110205595Y-108262099D01*
X110286800Y-107853852D01*
X110286800Y-106776148D01*
X110205595Y-106367901D01*
X109974342Y-106021806D01*
X109628247Y-105790553D01*
X109220000Y-105709348D01*
X108811753Y-105790553D01*
X108465658Y-106021806D01*
X108234405Y-106367901D01*
X108153200Y-106776148D01*
X107746800Y-106776148D01*
X107665595Y-106367901D01*
X107434342Y-106021806D01*
X107088247Y-105790553D01*
X106680000Y-105709348D01*
X106271753Y-105790553D01*
X105925658Y-106021806D01*
X105694405Y-106367901D01*
X105613200Y-106776148D01*
X105206800Y-106776148D01*
X105125595Y-106367901D01*
X104894342Y-106021806D01*
X104548247Y-105790553D01*
X104140000Y-105709348D01*
X103731753Y-105790553D01*
X103385658Y-106021806D01*
X103154405Y-106367901D01*
X103073200Y-106776148D01*
X102666800Y-106776148D01*
X102585595Y-106367901D01*
X102354342Y-106021806D01*
X102008247Y-105790553D01*
X101600000Y-105709348D01*
X101191753Y-105790553D01*
X100845658Y-106021806D01*
X100614405Y-106367901D01*
X100533200Y-106776148D01*
X100126800Y-106776148D01*
X100045595Y-106367901D01*
X99814342Y-106021806D01*
X99468247Y-105790553D01*
X99060000Y-105709348D01*
X98651753Y-105790553D01*
X98305658Y-106021806D01*
X98074405Y-106367901D01*
X97993200Y-106776148D01*
X97586800Y-106776148D01*
X97505595Y-106367901D01*
X97274342Y-106021806D01*
X96928247Y-105790553D01*
X96520000Y-105709348D01*
X96111753Y-105790553D01*
X95765658Y-106021806D01*
X95534405Y-106367901D01*
X95453200Y-106776148D01*
X95046800Y-106776148D01*
X94965595Y-106367901D01*
X94734342Y-106021806D01*
X94388247Y-105790553D01*
X93980000Y-105709348D01*
X93571753Y-105790553D01*
X93225658Y-106021806D01*
X92994405Y-106367901D01*
X92913200Y-106776148D01*
X92506800Y-106776148D01*
X92425595Y-106367901D01*
X92194342Y-106021806D01*
X91848916Y-105791000D01*
X92194342Y-105560194D01*
X92425595Y-105214099D01*
X92506800Y-104805852D01*
X92506800Y-103728148D01*
X92425595Y-103319901D01*
X92194342Y-102973806D01*
X91848247Y-102742553D01*
X91440000Y-102661348D01*
X91031753Y-102742553D01*
X90685658Y-102973806D01*
X90454405Y-103319901D01*
X90373200Y-103728148D01*
X89966800Y-103728148D01*
X89885595Y-103319901D01*
X89654342Y-102973806D01*
X89308247Y-102742553D01*
X88900000Y-102661348D01*
X88491753Y-102742553D01*
X88145658Y-102973806D01*
X87914405Y-103319901D01*
X87833200Y-103728148D01*
X87477600Y-103728148D01*
X87477600Y-103727153D01*
X87392528Y-103299466D01*
X87150263Y-102936890D01*
X86891700Y-102764124D01*
X87110366Y-102720629D01*
X87423499Y-102511399D01*
X87632729Y-102198266D01*
X87706200Y-101828900D01*
X87706200Y-101110882D01*
X87710967Y-101103748D01*
X87738566Y-100965000D01*
X87738566Y-100498550D01*
X87870534Y-100586729D01*
X88239900Y-100660200D01*
X88791434Y-100660200D01*
X88791434Y-100965000D01*
X88819033Y-101103748D01*
X88897627Y-101221373D01*
X89015252Y-101299967D01*
X89154000Y-101327566D01*
X90424000Y-101327566D01*
X90562748Y-101299967D01*
X90680373Y-101221373D01*
X90758967Y-101103748D01*
X90786566Y-100965000D01*
X90786566Y-100204470D01*
X92913200Y-102331104D01*
X92913200Y-103281852D01*
X92994405Y-103690099D01*
X93225658Y-104036194D01*
X93571753Y-104267447D01*
X93980000Y-104348652D01*
X94388247Y-104267447D01*
X94734342Y-104036194D01*
X94965595Y-103690099D01*
X95046800Y-103281852D01*
X95046800Y-102204148D01*
X94965595Y-101795901D01*
X94869978Y-101652800D01*
X95630022Y-101652800D01*
X95534405Y-101795901D01*
X95453200Y-102204148D01*
X95453200Y-103281852D01*
X95534405Y-103690099D01*
X95765658Y-104036194D01*
X96111753Y-104267447D01*
X96520000Y-104348652D01*
X96928247Y-104267447D01*
X97274342Y-104036194D01*
X97505595Y-103690099D01*
X97586800Y-103281852D01*
X97586800Y-102204148D01*
X97993200Y-102204148D01*
X97993200Y-103281852D01*
X98074405Y-103690099D01*
X98305658Y-104036194D01*
X98651753Y-104267447D01*
X99060000Y-104348652D01*
X99468247Y-104267447D01*
X99814342Y-104036194D01*
X100045595Y-103690099D01*
X100126800Y-103281852D01*
X100126800Y-102204148D01*
X100533200Y-102204148D01*
X100533200Y-103281852D01*
X100614405Y-103690099D01*
X100845658Y-104036194D01*
X101191753Y-104267447D01*
X101600000Y-104348652D01*
X102008247Y-104267447D01*
X102354342Y-104036194D01*
X102585595Y-103690099D01*
X102666800Y-103281852D01*
X102666800Y-102204148D01*
X102585595Y-101795901D01*
X102354342Y-101449806D01*
X102008247Y-101218553D01*
X101600000Y-101137348D01*
X101191753Y-101218553D01*
X100845658Y-101449806D01*
X100614405Y-101795901D01*
X100533200Y-102204148D01*
X100126800Y-102204148D01*
X100045595Y-101795901D01*
X99814342Y-101449806D01*
X99468247Y-101218553D01*
X99060000Y-101137348D01*
X98651753Y-101218553D01*
X98305658Y-101449806D01*
X98074405Y-101795901D01*
X97993200Y-102204148D01*
X97586800Y-102204148D01*
X97505595Y-101795901D01*
X97274342Y-101449806D01*
X97129600Y-101353093D01*
X97129600Y-101043200D01*
X97083197Y-100809916D01*
X96989883Y-100670263D01*
X97274342Y-100480194D01*
X97505595Y-100134099D01*
X97586800Y-99725852D01*
X97586800Y-98648148D01*
X97993200Y-98648148D01*
X97993200Y-99725852D01*
X98074405Y-100134099D01*
X98305658Y-100480194D01*
X98651753Y-100711447D01*
X99060000Y-100792652D01*
X99468247Y-100711447D01*
X99814342Y-100480194D01*
X100045595Y-100134099D01*
X100126800Y-99725852D01*
X100126800Y-98648148D01*
X100533200Y-98648148D01*
X100533200Y-99725852D01*
X100614405Y-100134099D01*
X100845658Y-100480194D01*
X101191753Y-100711447D01*
X101600000Y-100792652D01*
X102008247Y-100711447D01*
X102354342Y-100480194D01*
X102585595Y-100134099D01*
X102666800Y-99725852D01*
X102666800Y-98648148D01*
X102585595Y-98239901D01*
X102354342Y-97893806D01*
X102008247Y-97662553D01*
X101600000Y-97581348D01*
X101191753Y-97662553D01*
X100845658Y-97893806D01*
X100614405Y-98239901D01*
X100533200Y-98648148D01*
X100126800Y-98648148D01*
X100045595Y-98239901D01*
X99814342Y-97893806D01*
X99468247Y-97662553D01*
X99060000Y-97581348D01*
X98651753Y-97662553D01*
X98305658Y-97893806D01*
X98074405Y-98239901D01*
X97993200Y-98648148D01*
X97586800Y-98648148D01*
X97505595Y-98239901D01*
X97274342Y-97893806D01*
X96928247Y-97662553D01*
X96520000Y-97581348D01*
X96111753Y-97662553D01*
X95765658Y-97893806D01*
X95534405Y-98239901D01*
X95453200Y-98648148D01*
X95453200Y-99725852D01*
X95534405Y-100134099D01*
X95734525Y-100433600D01*
X94765475Y-100433600D01*
X94965595Y-100134099D01*
X95046800Y-99725852D01*
X95046800Y-98648148D01*
X94965595Y-98239901D01*
X94734342Y-97893806D01*
X94388247Y-97662553D01*
X93980000Y-97581348D01*
X93571753Y-97662553D01*
X93225658Y-97893806D01*
X92994405Y-98239901D01*
X92913200Y-98648148D01*
X92913200Y-99600596D01*
X92593800Y-99281196D01*
X92593800Y-98168800D01*
X92547397Y-97935516D01*
X92415252Y-97737748D01*
X91383852Y-96706348D01*
X91186084Y-96574203D01*
X90952800Y-96527800D01*
X76139400Y-96527800D01*
X75906116Y-96574203D01*
X75879926Y-96591703D01*
X75708348Y-96706347D01*
X73380941Y-99033755D01*
X73375595Y-99006877D01*
X73144342Y-98660782D01*
X72798247Y-98429529D01*
X72390000Y-98348324D01*
X71981753Y-98429529D01*
X71635658Y-98660782D01*
X71404405Y-99006877D01*
X71323200Y-99415124D01*
X71323200Y-99974876D01*
X71404405Y-100383123D01*
X71635658Y-100729218D01*
X71981753Y-100960471D01*
X72390000Y-101041676D01*
X72798247Y-100960471D01*
X73144342Y-100729218D01*
X73375595Y-100383123D01*
X73391214Y-100304600D01*
X73581800Y-100304600D01*
X73815084Y-100258197D01*
X74012852Y-100126052D01*
X76391905Y-97747000D01*
X77021295Y-97747000D01*
X74200548Y-100567748D01*
X74068403Y-100765516D01*
X74022000Y-100998800D01*
X74022000Y-102123896D01*
X73507600Y-102638296D01*
X73507600Y-102208129D01*
X73422528Y-101780442D01*
X73180263Y-101417866D01*
X72817687Y-101175601D01*
X72390000Y-101090529D01*
X71962313Y-101175601D01*
X71599737Y-101417866D01*
X71357472Y-101780442D01*
X71272400Y-102208129D01*
X71272400Y-102656296D01*
X70459600Y-101843496D01*
X70459600Y-100563345D01*
X70630218Y-100449342D01*
X70861471Y-100103247D01*
X70942676Y-99695000D01*
X70861471Y-99286753D01*
X70630218Y-98940658D01*
X70284123Y-98709405D01*
X69875876Y-98628200D01*
X69316124Y-98628200D01*
X68907877Y-98709405D01*
X68561782Y-98940658D01*
X68330529Y-99286753D01*
X68249324Y-99695000D01*
X60109100Y-99695000D01*
X60109100Y-96620129D01*
X71272400Y-96620129D01*
X71272400Y-97181871D01*
X71357472Y-97609558D01*
X71599737Y-97972134D01*
X71962313Y-98214399D01*
X72390000Y-98299471D01*
X72817687Y-98214399D01*
X73180263Y-97972134D01*
X73422528Y-97609558D01*
X73507600Y-97181871D01*
X73507600Y-96620129D01*
X73422528Y-96192442D01*
X73180263Y-95829866D01*
X72817687Y-95587601D01*
X72390000Y-95502529D01*
X71962313Y-95587601D01*
X71599737Y-95829866D01*
X71357472Y-96192442D01*
X71272400Y-96620129D01*
X60109100Y-96620129D01*
X60109100Y-94615000D01*
X60599467Y-94615000D01*
X60738676Y-95314851D01*
X61135110Y-95908157D01*
X61728416Y-96304591D01*
X62428267Y-96443800D01*
X64571733Y-96443800D01*
X65271584Y-96304591D01*
X65864890Y-95908157D01*
X66261324Y-95314851D01*
X66400533Y-94615000D01*
X66261324Y-93915149D01*
X65864890Y-93321843D01*
X65271584Y-92925409D01*
X64571733Y-92786200D01*
X62428267Y-92786200D01*
X61728416Y-92925409D01*
X61135110Y-93321843D01*
X60738676Y-93915149D01*
X60599467Y-94615000D01*
X60109100Y-94615000D01*
X60109100Y-90252171D01*
X64643000Y-90252171D01*
X64761927Y-90228515D01*
X64862748Y-90161148D01*
X64930115Y-90060327D01*
X64953771Y-89941400D01*
X64953771Y-88089437D01*
X65216934Y-88353061D01*
X65585556Y-88506126D01*
X65984693Y-88506474D01*
X66100117Y-88458781D01*
X66052874Y-88572556D01*
X66052526Y-88971693D01*
X66204948Y-89340581D01*
X66486934Y-89623061D01*
X66855556Y-89776126D01*
X67254693Y-89776474D01*
X67623581Y-89624052D01*
X67906061Y-89342066D01*
X68059126Y-88973444D01*
X68059474Y-88574307D01*
X67907052Y-88205419D01*
X67625066Y-87922939D01*
X67256444Y-87769874D01*
X66857307Y-87769526D01*
X66741883Y-87817219D01*
X66789126Y-87703444D01*
X66789474Y-87304307D01*
X66637052Y-86935419D01*
X66355066Y-86652939D01*
X65986444Y-86499874D01*
X65587307Y-86499526D01*
X65218419Y-86651948D01*
X64935939Y-86933934D01*
X64909496Y-86997615D01*
X64862748Y-86927652D01*
X64761927Y-86860285D01*
X64643000Y-86836629D01*
X60109100Y-86836629D01*
X60109100Y-85090000D01*
X65036400Y-85090000D01*
X65109871Y-85459366D01*
X65319101Y-85772499D01*
X65632234Y-85981729D01*
X66001600Y-86055200D01*
X66518091Y-86055200D01*
X66530533Y-86117748D01*
X66609127Y-86235373D01*
X66726752Y-86313967D01*
X66865500Y-86341566D01*
X71056500Y-86341566D01*
X71195248Y-86313967D01*
X71312873Y-86235373D01*
X71391467Y-86117748D01*
X71419066Y-85979000D01*
X71419066Y-84201000D01*
X71391467Y-84062252D01*
X71337996Y-83982227D01*
X71401811Y-83955794D01*
X71573294Y-83784311D01*
X71666100Y-83560257D01*
X71666100Y-82854800D01*
X71513700Y-82702400D01*
X69113400Y-82702400D01*
X69113400Y-82722400D01*
X68808600Y-82722400D01*
X68808600Y-82702400D01*
X66408300Y-82702400D01*
X66255900Y-82854800D01*
X66255900Y-83560257D01*
X66348706Y-83784311D01*
X66520189Y-83955794D01*
X66584004Y-83982227D01*
X66530533Y-84062252D01*
X66518091Y-84124800D01*
X66001600Y-84124800D01*
X65632234Y-84198271D01*
X65319101Y-84407501D01*
X65109871Y-84720634D01*
X65036400Y-85090000D01*
X60109100Y-85090000D01*
X60109100Y-81539743D01*
X66255900Y-81539743D01*
X66255900Y-82245200D01*
X66408300Y-82397600D01*
X68808600Y-82397600D01*
X68808600Y-81203800D01*
X69113400Y-81203800D01*
X69113400Y-82397600D01*
X71513700Y-82397600D01*
X71666100Y-82245200D01*
X71666100Y-81539743D01*
X71573294Y-81315689D01*
X71401811Y-81144206D01*
X71177757Y-81051400D01*
X69265800Y-81051400D01*
X69113400Y-81203800D01*
X68808600Y-81203800D01*
X68656200Y-81051400D01*
X66744243Y-81051400D01*
X66520189Y-81144206D01*
X66348706Y-81315689D01*
X66255900Y-81539743D01*
X60109100Y-81539743D01*
X60109100Y-80803371D01*
X64643000Y-80803371D01*
X64761927Y-80779715D01*
X64862748Y-80712348D01*
X64909343Y-80642614D01*
X64934948Y-80704581D01*
X65216934Y-80987061D01*
X65585556Y-81140126D01*
X65984693Y-81140474D01*
X66353581Y-80988052D01*
X66636061Y-80706066D01*
X66789126Y-80337444D01*
X66789474Y-79938307D01*
X66741781Y-79822883D01*
X66855556Y-79870126D01*
X67254693Y-79870474D01*
X67623581Y-79718052D01*
X67906061Y-79436066D01*
X68059126Y-79067444D01*
X68059474Y-78668307D01*
X67907052Y-78299419D01*
X67769645Y-78161771D01*
X68646040Y-78161771D01*
X68764967Y-78138115D01*
X68780190Y-78127943D01*
X68819603Y-78326084D01*
X68951748Y-78523852D01*
X75218800Y-84790904D01*
X75218800Y-93125400D01*
X75265203Y-93358684D01*
X75397348Y-93556452D01*
X77481748Y-95640852D01*
X77679516Y-95772997D01*
X77912800Y-95819400D01*
X95561500Y-95819400D01*
X95794784Y-95772997D01*
X95992552Y-95640852D01*
X98211552Y-93421852D01*
X98276532Y-93324603D01*
X98305658Y-93368194D01*
X98450400Y-93464907D01*
X98450400Y-93774800D01*
X98496803Y-94008084D01*
X98628948Y-94205852D01*
X98826716Y-94337997D01*
X99060000Y-94384400D01*
X100129496Y-94384400D01*
X111505139Y-105760043D01*
X111351753Y-105790553D01*
X111005658Y-106021806D01*
X110774405Y-106367901D01*
X110693200Y-106776148D01*
X110693200Y-107853852D01*
X110774405Y-108262099D01*
X111005658Y-108608194D01*
X111351753Y-108839447D01*
X111760000Y-108920652D01*
X112168247Y-108839447D01*
X112350600Y-108717603D01*
X112350600Y-108768600D01*
X112397003Y-109001884D01*
X112529148Y-109199652D01*
X123775547Y-120446052D01*
X123902169Y-120530658D01*
X123973316Y-120578197D01*
X124206600Y-120624600D01*
X150409036Y-120624600D01*
X150240553Y-120876753D01*
X150159348Y-121285000D01*
X150240553Y-121693247D01*
X150471806Y-122039342D01*
X150817901Y-122270595D01*
X151226148Y-122351800D01*
X152303852Y-122351800D01*
X152712099Y-122270595D01*
X153058194Y-122039342D01*
X153289447Y-121693247D01*
X153370652Y-121285000D01*
X153289447Y-120876753D01*
X153120964Y-120624600D01*
X165649036Y-120624600D01*
X165480553Y-120876753D01*
X165399348Y-121285000D01*
X165480553Y-121693247D01*
X165711806Y-122039342D01*
X166057901Y-122270595D01*
X166466148Y-122351800D01*
X167543852Y-122351800D01*
X167952099Y-122270595D01*
X168298194Y-122039342D01*
X168529447Y-121693247D01*
X168610652Y-121285000D01*
X168599164Y-121227243D01*
X175666400Y-121227243D01*
X175666400Y-123139200D01*
X175818800Y-123291600D01*
X177012600Y-123291600D01*
X177012600Y-120891300D01*
X176860200Y-120738900D01*
X176154743Y-120738900D01*
X175930689Y-120831706D01*
X175759206Y-121003189D01*
X175666400Y-121227243D01*
X168599164Y-121227243D01*
X168529447Y-120876753D01*
X168360964Y-120624600D01*
X172965789Y-120624600D01*
X172991001Y-120649856D01*
X173266301Y-120764170D01*
X173564391Y-120764430D01*
X173839890Y-120650596D01*
X174050856Y-120439999D01*
X174165170Y-120164699D01*
X174165430Y-119866609D01*
X174051596Y-119591110D01*
X173840999Y-119380144D01*
X173565699Y-119265830D01*
X173267609Y-119265570D01*
X172992110Y-119379404D01*
X172966068Y-119405400D01*
X168360964Y-119405400D01*
X168529447Y-119153247D01*
X168610652Y-118745000D01*
X168529447Y-118336753D01*
X168298194Y-117990658D01*
X167952099Y-117759405D01*
X167543852Y-117678200D01*
X166466148Y-117678200D01*
X166057901Y-117759405D01*
X165711806Y-117990658D01*
X165480553Y-118336753D01*
X165399348Y-118745000D01*
X165480553Y-119153247D01*
X165649036Y-119405400D01*
X153120964Y-119405400D01*
X153289447Y-119153247D01*
X153370652Y-118745000D01*
X153289447Y-118336753D01*
X153058194Y-117990658D01*
X152712099Y-117759405D01*
X152303852Y-117678200D01*
X151226148Y-117678200D01*
X150817901Y-117759405D01*
X150471806Y-117990658D01*
X150240553Y-118336753D01*
X150159348Y-118745000D01*
X150240553Y-119153247D01*
X150409036Y-119405400D01*
X124459105Y-119405400D01*
X113949475Y-108895771D01*
X115062000Y-108895771D01*
X115180927Y-108872115D01*
X115281748Y-108804748D01*
X115349115Y-108703927D01*
X115372771Y-108585000D01*
X115372771Y-106776148D01*
X115773200Y-106776148D01*
X115773200Y-107853852D01*
X115854405Y-108262099D01*
X116085658Y-108608194D01*
X116431753Y-108839447D01*
X116840000Y-108920652D01*
X117248247Y-108839447D01*
X117594342Y-108608194D01*
X117825595Y-108262099D01*
X117906800Y-107853852D01*
X117906800Y-106776148D01*
X117825595Y-106367901D01*
X117594342Y-106021806D01*
X117248247Y-105790553D01*
X116840000Y-105709348D01*
X116431753Y-105790553D01*
X116085658Y-106021806D01*
X115854405Y-106367901D01*
X115773200Y-106776148D01*
X115372771Y-106776148D01*
X115372771Y-106045000D01*
X115349115Y-105926073D01*
X115281748Y-105825252D01*
X115180927Y-105757885D01*
X115062000Y-105734229D01*
X113538000Y-105734229D01*
X113419073Y-105757885D01*
X113318252Y-105825252D01*
X113308761Y-105839457D01*
X112498704Y-105029400D01*
X118455096Y-105029400D01*
X119175685Y-105749989D01*
X118971753Y-105790553D01*
X118625658Y-106021806D01*
X118394405Y-106367901D01*
X118313200Y-106776148D01*
X118313200Y-107853852D01*
X118394405Y-108262099D01*
X118625658Y-108608194D01*
X118971753Y-108839447D01*
X119380000Y-108920652D01*
X119788247Y-108839447D01*
X119950539Y-108731007D01*
X119985603Y-108907284D01*
X120117748Y-109105052D01*
X126378648Y-115365953D01*
X126576416Y-115498097D01*
X126809700Y-115544500D01*
X150409103Y-115544500D01*
X150240553Y-115796753D01*
X150159348Y-116205000D01*
X150240553Y-116613247D01*
X150471806Y-116959342D01*
X150817901Y-117190595D01*
X151226148Y-117271800D01*
X152303852Y-117271800D01*
X152712099Y-117190595D01*
X153058194Y-116959342D01*
X153289447Y-116613247D01*
X153370652Y-116205000D01*
X153289447Y-115796753D01*
X153120897Y-115544500D01*
X165649103Y-115544500D01*
X165480553Y-115796753D01*
X165399348Y-116205000D01*
X165480553Y-116613247D01*
X165711806Y-116959342D01*
X166057901Y-117190595D01*
X166466148Y-117271800D01*
X167543852Y-117271800D01*
X167952099Y-117190595D01*
X168298194Y-116959342D01*
X168529447Y-116613247D01*
X168610652Y-116205000D01*
X168529447Y-115796753D01*
X168360897Y-115544500D01*
X175788589Y-115544500D01*
X175813801Y-115569756D01*
X176089101Y-115684070D01*
X176387191Y-115684330D01*
X176662690Y-115570496D01*
X176873656Y-115359899D01*
X176987970Y-115084599D01*
X176988230Y-114786509D01*
X176874396Y-114511010D01*
X176663799Y-114300044D01*
X176388499Y-114185730D01*
X176090409Y-114185470D01*
X175814910Y-114299304D01*
X175788868Y-114325300D01*
X168361031Y-114325300D01*
X168529447Y-114073247D01*
X168610652Y-113665000D01*
X168529447Y-113256753D01*
X168298194Y-112910658D01*
X167952099Y-112679405D01*
X167543852Y-112598200D01*
X166466148Y-112598200D01*
X166057901Y-112679405D01*
X165711806Y-112910658D01*
X165615093Y-113055400D01*
X159863404Y-113055400D01*
X153691952Y-106883948D01*
X153494184Y-106751803D01*
X153260900Y-106705400D01*
X153120964Y-106705400D01*
X153289447Y-106453247D01*
X153370652Y-106045000D01*
X153289447Y-105636753D01*
X153119093Y-105381800D01*
X156217496Y-105381800D01*
X159851747Y-109016052D01*
X159942407Y-109076629D01*
X160049516Y-109148197D01*
X160282800Y-109194600D01*
X165615093Y-109194600D01*
X165711806Y-109339342D01*
X166057901Y-109570595D01*
X166466148Y-109651800D01*
X167543852Y-109651800D01*
X167952099Y-109570595D01*
X168095200Y-109474978D01*
X168095200Y-110235022D01*
X167952099Y-110139405D01*
X167543852Y-110058200D01*
X166466148Y-110058200D01*
X166057901Y-110139405D01*
X165711806Y-110370658D01*
X165480553Y-110716753D01*
X165399348Y-111125000D01*
X165480553Y-111533247D01*
X165711806Y-111879342D01*
X166057901Y-112110595D01*
X166466148Y-112191800D01*
X167543852Y-112191800D01*
X167952099Y-112110595D01*
X168298194Y-111879342D01*
X168394907Y-111734600D01*
X168704800Y-111734600D01*
X168938084Y-111688197D01*
X169135852Y-111556052D01*
X169267997Y-111358284D01*
X169314400Y-111125000D01*
X169314400Y-108119600D01*
X169267997Y-107886316D01*
X169135852Y-107688548D01*
X168371852Y-106924548D01*
X168241331Y-106837336D01*
X168298194Y-106799342D01*
X168529447Y-106453247D01*
X168550023Y-106349800D01*
X170515400Y-106349800D01*
X170515400Y-108066257D01*
X170608206Y-108290311D01*
X170779689Y-108461794D01*
X171003743Y-108554600D01*
X173300200Y-108554600D01*
X173452600Y-108402200D01*
X173452600Y-106197400D01*
X170667800Y-106197400D01*
X170515400Y-106349800D01*
X168550023Y-106349800D01*
X168610652Y-106045000D01*
X168529447Y-105636753D01*
X168298194Y-105290658D01*
X167952099Y-105059405D01*
X167543852Y-104978200D01*
X166466148Y-104978200D01*
X166057901Y-105059405D01*
X165711806Y-105290658D01*
X165615093Y-105435400D01*
X165557704Y-105435400D01*
X163627304Y-103505000D01*
X165399348Y-103505000D01*
X165480553Y-103913247D01*
X165711806Y-104259342D01*
X166057901Y-104490595D01*
X166466148Y-104571800D01*
X167543852Y-104571800D01*
X167952099Y-104490595D01*
X168298194Y-104259342D01*
X168455616Y-104023743D01*
X170515400Y-104023743D01*
X170515400Y-105740200D01*
X170667800Y-105892600D01*
X173452600Y-105892600D01*
X173452600Y-103687800D01*
X173300200Y-103535400D01*
X171003743Y-103535400D01*
X170779689Y-103628206D01*
X170608206Y-103799689D01*
X170515400Y-104023743D01*
X168455616Y-104023743D01*
X168529447Y-103913247D01*
X168610652Y-103505000D01*
X168529447Y-103096753D01*
X168298194Y-102750658D01*
X167952099Y-102519405D01*
X167543852Y-102438200D01*
X166466148Y-102438200D01*
X166057901Y-102519405D01*
X165711806Y-102750658D01*
X165480553Y-103096753D01*
X165399348Y-103505000D01*
X163627304Y-103505000D01*
X161087304Y-100965000D01*
X165399348Y-100965000D01*
X165480553Y-101373247D01*
X165711806Y-101719342D01*
X166057901Y-101950595D01*
X166466148Y-102031800D01*
X167543852Y-102031800D01*
X167952099Y-101950595D01*
X168298194Y-101719342D01*
X168529447Y-101373247D01*
X168610652Y-100965000D01*
X168529447Y-100556753D01*
X168298194Y-100210658D01*
X167982623Y-99999800D01*
X170515400Y-99999800D01*
X170515400Y-101716257D01*
X170608206Y-101940311D01*
X170779689Y-102111794D01*
X171003743Y-102204600D01*
X173300200Y-102204600D01*
X173452600Y-102052200D01*
X173452600Y-99847400D01*
X170667800Y-99847400D01*
X170515400Y-99999800D01*
X167982623Y-99999800D01*
X167952099Y-99979405D01*
X167543852Y-99898200D01*
X166466148Y-99898200D01*
X166057901Y-99979405D01*
X165711806Y-100210658D01*
X165480553Y-100556753D01*
X165399348Y-100965000D01*
X161087304Y-100965000D01*
X158547304Y-98425000D01*
X165399348Y-98425000D01*
X165480553Y-98833247D01*
X165711806Y-99179342D01*
X166057901Y-99410595D01*
X166466148Y-99491800D01*
X167543852Y-99491800D01*
X167952099Y-99410595D01*
X168298194Y-99179342D01*
X168529447Y-98833247D01*
X168610652Y-98425000D01*
X168529447Y-98016753D01*
X168300256Y-97673743D01*
X170515400Y-97673743D01*
X170515400Y-99390200D01*
X170667800Y-99542600D01*
X173452600Y-99542600D01*
X173452600Y-97337800D01*
X173300200Y-97185400D01*
X171003743Y-97185400D01*
X170779689Y-97278206D01*
X170608206Y-97449689D01*
X170515400Y-97673743D01*
X168300256Y-97673743D01*
X168298194Y-97670658D01*
X167952099Y-97439405D01*
X167543852Y-97358200D01*
X166466148Y-97358200D01*
X166057901Y-97439405D01*
X165711806Y-97670658D01*
X165480553Y-98016753D01*
X165399348Y-98425000D01*
X158547304Y-98425000D01*
X156846152Y-96723848D01*
X156648384Y-96591703D01*
X156415100Y-96545300D01*
X153121031Y-96545300D01*
X153289447Y-96293247D01*
X153370652Y-95885000D01*
X165399348Y-95885000D01*
X165480553Y-96293247D01*
X165711806Y-96639342D01*
X166057901Y-96870595D01*
X166466148Y-96951800D01*
X167543852Y-96951800D01*
X167952099Y-96870595D01*
X168298194Y-96639342D01*
X168529447Y-96293247D01*
X168610652Y-95885000D01*
X168529447Y-95476753D01*
X168298194Y-95130658D01*
X167952099Y-94899405D01*
X167543852Y-94818200D01*
X166466148Y-94818200D01*
X166057901Y-94899405D01*
X165711806Y-95130658D01*
X165480553Y-95476753D01*
X165399348Y-95885000D01*
X153370652Y-95885000D01*
X153289447Y-95476753D01*
X153058194Y-95130658D01*
X152712099Y-94899405D01*
X152303852Y-94818200D01*
X151226148Y-94818200D01*
X150817901Y-94899405D01*
X150471806Y-95130658D01*
X150240553Y-95476753D01*
X150159348Y-95885000D01*
X150240553Y-96293247D01*
X150408969Y-96545300D01*
X147520604Y-96545300D01*
X144320304Y-93345000D01*
X150159348Y-93345000D01*
X150240553Y-93753247D01*
X150471806Y-94099342D01*
X150817901Y-94330595D01*
X151226148Y-94411800D01*
X152303852Y-94411800D01*
X152712099Y-94330595D01*
X153058194Y-94099342D01*
X153289447Y-93753247D01*
X153370652Y-93345000D01*
X165399348Y-93345000D01*
X165480553Y-93753247D01*
X165711806Y-94099342D01*
X166057901Y-94330595D01*
X166466148Y-94411800D01*
X167543852Y-94411800D01*
X167952099Y-94330595D01*
X168298194Y-94099342D01*
X168529447Y-93753247D01*
X168550023Y-93649800D01*
X170515400Y-93649800D01*
X170515400Y-95366257D01*
X170608206Y-95590311D01*
X170779689Y-95761794D01*
X171003743Y-95854600D01*
X173300200Y-95854600D01*
X173452600Y-95702200D01*
X173452600Y-93497400D01*
X170667800Y-93497400D01*
X170515400Y-93649800D01*
X168550023Y-93649800D01*
X168610652Y-93345000D01*
X168529447Y-92936753D01*
X168298194Y-92590658D01*
X167952099Y-92359405D01*
X167543852Y-92278200D01*
X166466148Y-92278200D01*
X166057901Y-92359405D01*
X165711806Y-92590658D01*
X165480553Y-92936753D01*
X165399348Y-93345000D01*
X153370652Y-93345000D01*
X153289447Y-92936753D01*
X153058194Y-92590658D01*
X152712099Y-92359405D01*
X152303852Y-92278200D01*
X151226148Y-92278200D01*
X150817901Y-92359405D01*
X150471806Y-92590658D01*
X150240553Y-92936753D01*
X150159348Y-93345000D01*
X144320304Y-93345000D01*
X141119904Y-90144600D01*
X150409036Y-90144600D01*
X150240553Y-90396753D01*
X150159348Y-90805000D01*
X150240553Y-91213247D01*
X150471806Y-91559342D01*
X150817901Y-91790595D01*
X151226148Y-91871800D01*
X152303852Y-91871800D01*
X152712099Y-91790595D01*
X153058194Y-91559342D01*
X153289447Y-91213247D01*
X153370652Y-90805000D01*
X153289447Y-90396753D01*
X153120964Y-90144600D01*
X165649036Y-90144600D01*
X165480553Y-90396753D01*
X165399348Y-90805000D01*
X165480553Y-91213247D01*
X165711806Y-91559342D01*
X166057901Y-91790595D01*
X166466148Y-91871800D01*
X167543852Y-91871800D01*
X167952099Y-91790595D01*
X168298194Y-91559342D01*
X168455616Y-91323743D01*
X170515400Y-91323743D01*
X170515400Y-93040200D01*
X170667800Y-93192600D01*
X173452600Y-93192600D01*
X173452600Y-90987800D01*
X173300200Y-90835400D01*
X171003743Y-90835400D01*
X170779689Y-90928206D01*
X170608206Y-91099689D01*
X170515400Y-91323743D01*
X168455616Y-91323743D01*
X168529447Y-91213247D01*
X168610652Y-90805000D01*
X168529447Y-90396753D01*
X168360964Y-90144600D01*
X175197289Y-90144600D01*
X175222501Y-90169856D01*
X175497801Y-90284170D01*
X175795891Y-90284430D01*
X176071390Y-90170596D01*
X176282356Y-89959999D01*
X176396670Y-89684699D01*
X176396930Y-89386609D01*
X176283096Y-89111110D01*
X176072499Y-88900144D01*
X175797199Y-88785830D01*
X175499109Y-88785570D01*
X175223610Y-88899404D01*
X175197568Y-88925400D01*
X168360964Y-88925400D01*
X168529447Y-88673247D01*
X168610652Y-88265000D01*
X168529447Y-87856753D01*
X168360964Y-87604600D01*
X175601089Y-87604600D01*
X175626301Y-87629856D01*
X175901601Y-87744170D01*
X176199691Y-87744430D01*
X176439800Y-87645219D01*
X176439800Y-90937695D01*
X176430311Y-90928206D01*
X176206257Y-90835400D01*
X173909800Y-90835400D01*
X173757400Y-90987800D01*
X173757400Y-93192600D01*
X173777400Y-93192600D01*
X173777400Y-93497400D01*
X173757400Y-93497400D01*
X173757400Y-95702200D01*
X173909800Y-95854600D01*
X176206257Y-95854600D01*
X176430311Y-95761794D01*
X176601794Y-95590311D01*
X176634739Y-95510774D01*
X176685000Y-95520771D01*
X178125000Y-95520771D01*
X178243927Y-95497115D01*
X178344748Y-95429748D01*
X178412115Y-95328927D01*
X178435771Y-95210000D01*
X178435771Y-93610000D01*
X178412115Y-93491073D01*
X178370200Y-93428343D01*
X178370200Y-93261657D01*
X178412115Y-93198927D01*
X178435771Y-93080000D01*
X178435771Y-91480000D01*
X178412115Y-91361073D01*
X178370200Y-91298343D01*
X178370200Y-80713177D01*
X178466901Y-80857899D01*
X178780034Y-81067129D01*
X179149400Y-81140600D01*
X179518766Y-81067129D01*
X179831899Y-80857899D01*
X180041129Y-80544766D01*
X180114600Y-80175400D01*
X180114600Y-79860799D01*
X180387499Y-79587900D01*
X180596729Y-79274766D01*
X180630090Y-79107048D01*
X180670200Y-78905400D01*
X180670200Y-78388909D01*
X180732748Y-78376467D01*
X180850373Y-78297873D01*
X180928967Y-78180248D01*
X180956566Y-78041500D01*
X180956566Y-73850500D01*
X180928967Y-73711752D01*
X180850373Y-73594127D01*
X180732748Y-73515533D01*
X180594000Y-73487934D01*
X178816000Y-73487934D01*
X178677252Y-73515533D01*
X178559627Y-73594127D01*
X178481033Y-73711752D01*
X178453434Y-73850500D01*
X178453434Y-78041500D01*
X178481033Y-78180248D01*
X178559627Y-78297873D01*
X178677252Y-78376467D01*
X178739800Y-78388909D01*
X178739800Y-78505602D01*
X178466901Y-78778501D01*
X178336145Y-78974191D01*
X178299294Y-78788930D01*
X178296729Y-78776033D01*
X178130200Y-78526806D01*
X178130200Y-78388909D01*
X178192748Y-78376467D01*
X178310373Y-78297873D01*
X178388967Y-78180248D01*
X178416566Y-78041500D01*
X178416566Y-73850500D01*
X178388967Y-73711752D01*
X178310373Y-73594127D01*
X178192748Y-73515533D01*
X178054000Y-73487934D01*
X176276000Y-73487934D01*
X176137252Y-73515533D01*
X176019627Y-73594127D01*
X175941033Y-73711752D01*
X175913434Y-73850500D01*
X175913434Y-78041500D01*
X175941033Y-78180248D01*
X176019627Y-78297873D01*
X176137252Y-78376467D01*
X176199800Y-78388909D01*
X176199800Y-78905400D01*
X176239910Y-79107048D01*
X176273271Y-79274766D01*
X176439800Y-79523993D01*
X176439800Y-86344988D01*
X176200999Y-86245830D01*
X175902909Y-86245570D01*
X175627410Y-86359404D01*
X175601368Y-86385400D01*
X168360964Y-86385400D01*
X168529447Y-86133247D01*
X168610652Y-85725000D01*
X168529447Y-85316753D01*
X168360964Y-85064600D01*
X170624300Y-85064600D01*
X170857584Y-85018197D01*
X171055352Y-84886052D01*
X175070605Y-80870799D01*
X175106291Y-80870830D01*
X175381790Y-80756996D01*
X175592756Y-80546399D01*
X175707070Y-80271099D01*
X175707330Y-79973009D01*
X175593496Y-79697510D01*
X175382899Y-79486544D01*
X175107599Y-79372230D01*
X174809509Y-79371970D01*
X174534010Y-79485804D01*
X174323044Y-79696401D01*
X174208730Y-79971701D01*
X174208698Y-80008498D01*
X170371796Y-83845400D01*
X168360964Y-83845400D01*
X168529447Y-83593247D01*
X168610652Y-83185000D01*
X168529447Y-82776753D01*
X168298194Y-82430658D01*
X167952099Y-82199405D01*
X167543852Y-82118200D01*
X166466148Y-82118200D01*
X166057901Y-82199405D01*
X165711806Y-82430658D01*
X165480553Y-82776753D01*
X165399348Y-83185000D01*
X165480553Y-83593247D01*
X165649036Y-83845400D01*
X153120964Y-83845400D01*
X153289447Y-83593247D01*
X153370652Y-83185000D01*
X153289447Y-82776753D01*
X153122835Y-82527400D01*
X164032400Y-82527400D01*
X164265684Y-82480997D01*
X164463452Y-82348852D01*
X165557704Y-81254600D01*
X165615093Y-81254600D01*
X165711806Y-81399342D01*
X166057901Y-81630595D01*
X166466148Y-81711800D01*
X167543852Y-81711800D01*
X167952099Y-81630595D01*
X168298194Y-81399342D01*
X168529447Y-81053247D01*
X168610652Y-80645000D01*
X168529447Y-80236753D01*
X168298194Y-79890658D01*
X167952099Y-79659405D01*
X167543852Y-79578200D01*
X166466148Y-79578200D01*
X166057901Y-79659405D01*
X165711806Y-79890658D01*
X165615093Y-80035400D01*
X165305200Y-80035400D01*
X165071916Y-80081803D01*
X164874148Y-80213948D01*
X163779896Y-81308200D01*
X153119093Y-81308200D01*
X153289447Y-81053247D01*
X153370652Y-80645000D01*
X153289447Y-80236753D01*
X153120964Y-79984600D01*
X164035200Y-79984600D01*
X164268484Y-79938197D01*
X164466252Y-79806052D01*
X165557704Y-78714600D01*
X165615093Y-78714600D01*
X165711806Y-78859342D01*
X166057901Y-79090595D01*
X166466148Y-79171800D01*
X167543852Y-79171800D01*
X167952099Y-79090595D01*
X168298194Y-78859342D01*
X168529447Y-78513247D01*
X168610652Y-78105000D01*
X168529447Y-77696753D01*
X168340742Y-77414335D01*
X168559966Y-77370729D01*
X168873099Y-77161499D01*
X169082329Y-76848366D01*
X169155800Y-76479000D01*
X169082329Y-76109634D01*
X168873099Y-75796501D01*
X168559966Y-75587271D01*
X168190600Y-75513800D01*
X135286500Y-75513800D01*
X134928536Y-75585003D01*
X134917134Y-75587271D01*
X134604001Y-75796500D01*
X133332002Y-77068500D01*
X112101922Y-77068500D01*
X112182270Y-76874999D01*
X112182302Y-76838203D01*
X112191052Y-76829453D01*
X112323197Y-76631684D01*
X112334092Y-76576909D01*
X112369600Y-76398400D01*
X112369600Y-70634556D01*
X112631085Y-70459837D01*
X112898127Y-70060180D01*
X112991900Y-69588752D01*
X112991900Y-68841248D01*
X113068100Y-68841248D01*
X113068100Y-69588752D01*
X113161873Y-70060180D01*
X113428915Y-70459837D01*
X113828572Y-70726879D01*
X114300000Y-70820652D01*
X114771428Y-70726879D01*
X115171085Y-70459837D01*
X115438127Y-70060180D01*
X115531900Y-69588752D01*
X115531900Y-68841248D01*
X115608100Y-68841248D01*
X115608100Y-69588752D01*
X115701873Y-70060180D01*
X115968915Y-70459837D01*
X116368572Y-70726879D01*
X116840000Y-70820652D01*
X117311428Y-70726879D01*
X117418339Y-70655443D01*
X123342147Y-76579252D01*
X123431339Y-76638848D01*
X123539916Y-76711397D01*
X123773200Y-76757800D01*
X130281589Y-76757800D01*
X130306801Y-76783056D01*
X130582101Y-76897370D01*
X130880191Y-76897630D01*
X131155690Y-76783796D01*
X131366656Y-76573199D01*
X131480970Y-76297899D01*
X131481230Y-75999809D01*
X131367396Y-75724310D01*
X131156799Y-75513344D01*
X130881499Y-75399030D01*
X130583409Y-75398770D01*
X130307910Y-75512604D01*
X130281868Y-75538600D01*
X124025705Y-75538600D01*
X119289818Y-70802714D01*
X119380000Y-70820652D01*
X119851428Y-70726879D01*
X120251085Y-70459837D01*
X120518127Y-70060180D01*
X120611900Y-69588752D01*
X120611900Y-68841248D01*
X120688100Y-68841248D01*
X120688100Y-69588752D01*
X120781873Y-70060180D01*
X121048915Y-70459837D01*
X121448572Y-70726879D01*
X121920000Y-70820652D01*
X122391428Y-70726879D01*
X122791085Y-70459837D01*
X123058127Y-70060180D01*
X123151900Y-69588752D01*
X123151900Y-68841248D01*
X123228100Y-68841248D01*
X123228100Y-69588752D01*
X123321873Y-70060180D01*
X123588915Y-70459837D01*
X123988572Y-70726879D01*
X124460000Y-70820652D01*
X124931428Y-70726879D01*
X125331085Y-70459837D01*
X125598127Y-70060180D01*
X125691900Y-69588752D01*
X125691900Y-68841248D01*
X125768100Y-68841248D01*
X125768100Y-69588752D01*
X125861873Y-70060180D01*
X126128915Y-70459837D01*
X126528572Y-70726879D01*
X127000000Y-70820652D01*
X127471428Y-70726879D01*
X127871085Y-70459837D01*
X128138127Y-70060180D01*
X128231900Y-69588752D01*
X128231900Y-68841248D01*
X128308100Y-68841248D01*
X128308100Y-69588752D01*
X128401873Y-70060180D01*
X128668915Y-70459837D01*
X129068572Y-70726879D01*
X129540000Y-70820652D01*
X130011428Y-70726879D01*
X130411085Y-70459837D01*
X130678127Y-70060180D01*
X130771900Y-69588752D01*
X130771900Y-68841248D01*
X130848100Y-68841248D01*
X130848100Y-69588752D01*
X130941873Y-70060180D01*
X131208915Y-70459837D01*
X131608572Y-70726879D01*
X132080000Y-70820652D01*
X132551428Y-70726879D01*
X132951085Y-70459837D01*
X133218127Y-70060180D01*
X133311900Y-69588752D01*
X133311900Y-68841248D01*
X133388100Y-68841248D01*
X133388100Y-69588752D01*
X133481873Y-70060180D01*
X133748915Y-70459837D01*
X134148572Y-70726879D01*
X134620000Y-70820652D01*
X135091428Y-70726879D01*
X135491085Y-70459837D01*
X135758127Y-70060180D01*
X135851900Y-69588752D01*
X135851900Y-68841248D01*
X135928100Y-68841248D01*
X135928100Y-69588752D01*
X136021873Y-70060180D01*
X136288915Y-70459837D01*
X136688572Y-70726879D01*
X137160000Y-70820652D01*
X137631428Y-70726879D01*
X138031085Y-70459837D01*
X138298127Y-70060180D01*
X138384197Y-69627477D01*
X138886840Y-69627477D01*
X139203259Y-70393270D01*
X139788648Y-70979682D01*
X140553888Y-71297437D01*
X141382477Y-71298160D01*
X142148270Y-70981741D01*
X142734682Y-70396352D01*
X143052437Y-69631112D01*
X143053160Y-68802523D01*
X142736741Y-68036730D01*
X142151352Y-67450318D01*
X141386112Y-67132563D01*
X140557523Y-67131840D01*
X139791730Y-67448259D01*
X139205318Y-68033648D01*
X138887563Y-68798888D01*
X138886840Y-69627477D01*
X138384197Y-69627477D01*
X138391900Y-69588752D01*
X138391900Y-68841248D01*
X138298127Y-68369820D01*
X138031085Y-67970163D01*
X137631428Y-67703121D01*
X137160000Y-67609348D01*
X136688572Y-67703121D01*
X136288915Y-67970163D01*
X136021873Y-68369820D01*
X135928100Y-68841248D01*
X135851900Y-68841248D01*
X135758127Y-68369820D01*
X135491085Y-67970163D01*
X135091428Y-67703121D01*
X134620000Y-67609348D01*
X134148572Y-67703121D01*
X133748915Y-67970163D01*
X133481873Y-68369820D01*
X133388100Y-68841248D01*
X133311900Y-68841248D01*
X133218127Y-68369820D01*
X132951085Y-67970163D01*
X132551428Y-67703121D01*
X132080000Y-67609348D01*
X131608572Y-67703121D01*
X131208915Y-67970163D01*
X130941873Y-68369820D01*
X130848100Y-68841248D01*
X130771900Y-68841248D01*
X130678127Y-68369820D01*
X130411085Y-67970163D01*
X130011428Y-67703121D01*
X129540000Y-67609348D01*
X129068572Y-67703121D01*
X128668915Y-67970163D01*
X128401873Y-68369820D01*
X128308100Y-68841248D01*
X128231900Y-68841248D01*
X128138127Y-68369820D01*
X127871085Y-67970163D01*
X127471428Y-67703121D01*
X127000000Y-67609348D01*
X126528572Y-67703121D01*
X126128915Y-67970163D01*
X125861873Y-68369820D01*
X125768100Y-68841248D01*
X125691900Y-68841248D01*
X125598127Y-68369820D01*
X125331085Y-67970163D01*
X124931428Y-67703121D01*
X124460000Y-67609348D01*
X123988572Y-67703121D01*
X123588915Y-67970163D01*
X123321873Y-68369820D01*
X123228100Y-68841248D01*
X123151900Y-68841248D01*
X123058127Y-68369820D01*
X122791085Y-67970163D01*
X122391428Y-67703121D01*
X121920000Y-67609348D01*
X121448572Y-67703121D01*
X121048915Y-67970163D01*
X120781873Y-68369820D01*
X120688100Y-68841248D01*
X120611900Y-68841248D01*
X120518127Y-68369820D01*
X120251085Y-67970163D01*
X119851428Y-67703121D01*
X119380000Y-67609348D01*
X118908572Y-67703121D01*
X118508915Y-67970163D01*
X118241873Y-68369820D01*
X118148100Y-68841248D01*
X118148100Y-69588752D01*
X118166038Y-69678934D01*
X118071900Y-69584796D01*
X118071900Y-68841248D01*
X117978127Y-68369820D01*
X117711085Y-67970163D01*
X117311428Y-67703121D01*
X116840000Y-67609348D01*
X116368572Y-67703121D01*
X115968915Y-67970163D01*
X115701873Y-68369820D01*
X115608100Y-68841248D01*
X115531900Y-68841248D01*
X115438127Y-68369820D01*
X115171085Y-67970163D01*
X114771428Y-67703121D01*
X114300000Y-67609348D01*
X113828572Y-67703121D01*
X113428915Y-67970163D01*
X113161873Y-68369820D01*
X113068100Y-68841248D01*
X112991900Y-68841248D01*
X112898127Y-68369820D01*
X112631085Y-67970163D01*
X112231428Y-67703121D01*
X111760000Y-67609348D01*
X111288572Y-67703121D01*
X110888915Y-67970163D01*
X110621873Y-68369820D01*
X110528100Y-68841248D01*
X110528100Y-69588752D01*
X110621873Y-70060180D01*
X110888915Y-70459837D01*
X111150400Y-70634556D01*
X111150400Y-76031365D01*
X111009210Y-76089704D01*
X110798244Y-76300301D01*
X110683930Y-76575601D01*
X110683670Y-76873691D01*
X110764164Y-77068500D01*
X108851300Y-77068500D01*
X108956770Y-76814499D01*
X108957030Y-76516409D01*
X108843196Y-76240910D01*
X108817200Y-76214868D01*
X108817200Y-72179704D01*
X109651052Y-71345852D01*
X109783197Y-71148084D01*
X109829600Y-70914800D01*
X109829600Y-70634556D01*
X110091085Y-70459837D01*
X110358127Y-70060180D01*
X110451900Y-69588752D01*
X110451900Y-68841248D01*
X110358127Y-68369820D01*
X110091085Y-67970163D01*
X109691428Y-67703121D01*
X109220000Y-67609348D01*
X108748572Y-67703121D01*
X108348915Y-67970163D01*
X108081873Y-68369820D01*
X107988100Y-68841248D01*
X107988100Y-69588752D01*
X108081873Y-70060180D01*
X108348915Y-70459837D01*
X108610400Y-70634556D01*
X108610400Y-70662296D01*
X107776548Y-71496148D01*
X107644403Y-71693916D01*
X107598000Y-71927200D01*
X107598000Y-76214589D01*
X107572744Y-76239801D01*
X107458430Y-76515101D01*
X107458170Y-76813191D01*
X107563662Y-77068500D01*
X81471899Y-77068500D01*
X81081600Y-76678202D01*
X81081600Y-72725300D01*
X81008129Y-72355934D01*
X80952514Y-72272701D01*
X80798900Y-72042801D01*
X79705200Y-70949102D01*
X79705200Y-70409659D01*
X79925060Y-70080615D01*
X80022700Y-69589747D01*
X80022700Y-68841248D01*
X80048100Y-68841248D01*
X80048100Y-69588752D01*
X80141873Y-70060180D01*
X80408915Y-70459837D01*
X80808572Y-70726879D01*
X81280000Y-70820652D01*
X81751428Y-70726879D01*
X82151085Y-70459837D01*
X82418127Y-70060180D01*
X82511900Y-69588752D01*
X82511900Y-68841248D01*
X82588100Y-68841248D01*
X82588100Y-69588752D01*
X82681873Y-70060180D01*
X82948915Y-70459837D01*
X83348572Y-70726879D01*
X83820000Y-70820652D01*
X84291428Y-70726879D01*
X84691085Y-70459837D01*
X84958127Y-70060180D01*
X85051900Y-69588752D01*
X85051900Y-68841248D01*
X85128100Y-68841248D01*
X85128100Y-69588752D01*
X85221873Y-70060180D01*
X85488915Y-70459837D01*
X85888572Y-70726879D01*
X86360000Y-70820652D01*
X86831428Y-70726879D01*
X87231085Y-70459837D01*
X87498127Y-70060180D01*
X87591900Y-69588752D01*
X87591900Y-68841248D01*
X87668100Y-68841248D01*
X87668100Y-69588752D01*
X87761873Y-70060180D01*
X88028915Y-70459837D01*
X88428572Y-70726879D01*
X88900000Y-70820652D01*
X89371428Y-70726879D01*
X89771085Y-70459837D01*
X90038127Y-70060180D01*
X90131900Y-69588752D01*
X90131900Y-68841248D01*
X90208100Y-68841248D01*
X90208100Y-69588752D01*
X90301873Y-70060180D01*
X90568915Y-70459837D01*
X90968572Y-70726879D01*
X91440000Y-70820652D01*
X91911428Y-70726879D01*
X92311085Y-70459837D01*
X92578127Y-70060180D01*
X92671900Y-69588752D01*
X92671900Y-68841248D01*
X92748100Y-68841248D01*
X92748100Y-69588752D01*
X92841873Y-70060180D01*
X93108915Y-70459837D01*
X93370400Y-70634556D01*
X93370400Y-70662296D01*
X93247248Y-70785448D01*
X93115103Y-70983216D01*
X93068700Y-71216500D01*
X93068700Y-72247489D01*
X93043444Y-72272701D01*
X92929130Y-72548001D01*
X92928870Y-72846091D01*
X93042704Y-73121590D01*
X93253301Y-73332556D01*
X93528601Y-73446870D01*
X93826691Y-73447130D01*
X94102190Y-73333296D01*
X94313156Y-73122699D01*
X94427470Y-72847399D01*
X94427730Y-72549309D01*
X94313896Y-72273810D01*
X94287900Y-72247768D01*
X94287900Y-71469004D01*
X94411052Y-71345852D01*
X94543197Y-71148084D01*
X94547481Y-71126547D01*
X94589600Y-70914800D01*
X94589600Y-70634556D01*
X94851085Y-70459837D01*
X95118127Y-70060180D01*
X95211900Y-69588752D01*
X95211900Y-68841248D01*
X95288100Y-68841248D01*
X95288100Y-69588752D01*
X95381873Y-70060180D01*
X95648915Y-70459837D01*
X96048572Y-70726879D01*
X96520000Y-70820652D01*
X96991428Y-70726879D01*
X97391085Y-70459837D01*
X97658127Y-70060180D01*
X97751900Y-69588752D01*
X97751900Y-68841248D01*
X97828100Y-68841248D01*
X97828100Y-69588752D01*
X97921873Y-70060180D01*
X98188915Y-70459837D01*
X98588572Y-70726879D01*
X99060000Y-70820652D01*
X99531428Y-70726879D01*
X99931085Y-70459837D01*
X100198127Y-70060180D01*
X100291900Y-69588752D01*
X100291900Y-68841248D01*
X100368100Y-68841248D01*
X100368100Y-69588752D01*
X100461873Y-70060180D01*
X100728915Y-70459837D01*
X101128572Y-70726879D01*
X101600000Y-70820652D01*
X102071428Y-70726879D01*
X102471085Y-70459837D01*
X102738127Y-70060180D01*
X102831900Y-69588752D01*
X102831900Y-68841248D01*
X102908100Y-68841248D01*
X102908100Y-69588752D01*
X103001873Y-70060180D01*
X103268915Y-70459837D01*
X103668572Y-70726879D01*
X104140000Y-70820652D01*
X104611428Y-70726879D01*
X105011085Y-70459837D01*
X105278127Y-70060180D01*
X105371900Y-69588752D01*
X105371900Y-68841248D01*
X105448100Y-68841248D01*
X105448100Y-69588752D01*
X105541873Y-70060180D01*
X105808915Y-70459837D01*
X106208572Y-70726879D01*
X106680000Y-70820652D01*
X107151428Y-70726879D01*
X107551085Y-70459837D01*
X107818127Y-70060180D01*
X107911900Y-69588752D01*
X107911900Y-68841248D01*
X107818127Y-68369820D01*
X107551085Y-67970163D01*
X107151428Y-67703121D01*
X106680000Y-67609348D01*
X106208572Y-67703121D01*
X105808915Y-67970163D01*
X105541873Y-68369820D01*
X105448100Y-68841248D01*
X105371900Y-68841248D01*
X105278127Y-68369820D01*
X105011085Y-67970163D01*
X104611428Y-67703121D01*
X104140000Y-67609348D01*
X103668572Y-67703121D01*
X103268915Y-67970163D01*
X103001873Y-68369820D01*
X102908100Y-68841248D01*
X102831900Y-68841248D01*
X102738127Y-68369820D01*
X102471085Y-67970163D01*
X102071428Y-67703121D01*
X101600000Y-67609348D01*
X101128572Y-67703121D01*
X100728915Y-67970163D01*
X100461873Y-68369820D01*
X100368100Y-68841248D01*
X100291900Y-68841248D01*
X100198127Y-68369820D01*
X99931085Y-67970163D01*
X99531428Y-67703121D01*
X99060000Y-67609348D01*
X98588572Y-67703121D01*
X98188915Y-67970163D01*
X97921873Y-68369820D01*
X97828100Y-68841248D01*
X97751900Y-68841248D01*
X97658127Y-68369820D01*
X97391085Y-67970163D01*
X96991428Y-67703121D01*
X96520000Y-67609348D01*
X96048572Y-67703121D01*
X95648915Y-67970163D01*
X95381873Y-68369820D01*
X95288100Y-68841248D01*
X95211900Y-68841248D01*
X95118127Y-68369820D01*
X94851085Y-67970163D01*
X94451428Y-67703121D01*
X93980000Y-67609348D01*
X93508572Y-67703121D01*
X93108915Y-67970163D01*
X92841873Y-68369820D01*
X92748100Y-68841248D01*
X92671900Y-68841248D01*
X92578127Y-68369820D01*
X92311085Y-67970163D01*
X91911428Y-67703121D01*
X91440000Y-67609348D01*
X90968572Y-67703121D01*
X90568915Y-67970163D01*
X90301873Y-68369820D01*
X90208100Y-68841248D01*
X90131900Y-68841248D01*
X90038127Y-68369820D01*
X89771085Y-67970163D01*
X89371428Y-67703121D01*
X88900000Y-67609348D01*
X88428572Y-67703121D01*
X88028915Y-67970163D01*
X87761873Y-68369820D01*
X87668100Y-68841248D01*
X87591900Y-68841248D01*
X87498127Y-68369820D01*
X87231085Y-67970163D01*
X86831428Y-67703121D01*
X86360000Y-67609348D01*
X85888572Y-67703121D01*
X85488915Y-67970163D01*
X85221873Y-68369820D01*
X85128100Y-68841248D01*
X85051900Y-68841248D01*
X84958127Y-68369820D01*
X84691085Y-67970163D01*
X84291428Y-67703121D01*
X83820000Y-67609348D01*
X83348572Y-67703121D01*
X82948915Y-67970163D01*
X82681873Y-68369820D01*
X82588100Y-68841248D01*
X82511900Y-68841248D01*
X82418127Y-68369820D01*
X82151085Y-67970163D01*
X81751428Y-67703121D01*
X81280000Y-67609348D01*
X80808572Y-67703121D01*
X80408915Y-67970163D01*
X80141873Y-68369820D01*
X80048100Y-68841248D01*
X80022700Y-68841248D01*
X80022700Y-68840253D01*
X79925060Y-68349385D01*
X79647006Y-67933247D01*
X79230868Y-67655193D01*
X78740000Y-67557553D01*
X78249132Y-67655193D01*
X77832994Y-67933247D01*
X77736700Y-68077361D01*
X77736700Y-67823743D01*
X77643894Y-67599689D01*
X77472411Y-67428206D01*
X77248357Y-67335400D01*
X76504800Y-67335400D01*
X76352400Y-67487800D01*
X76352400Y-69062600D01*
X76372400Y-69062600D01*
X76372400Y-69367400D01*
X76352400Y-69367400D01*
X76352400Y-70942200D01*
X76504800Y-71094600D01*
X77248357Y-71094600D01*
X77472411Y-71001794D01*
X77643894Y-70830311D01*
X77736700Y-70606257D01*
X77736700Y-70352639D01*
X77774800Y-70409659D01*
X77774800Y-71348900D01*
X77809709Y-71524400D01*
X77848271Y-71718266D01*
X78057501Y-72031399D01*
X78489009Y-72462907D01*
X77886112Y-72212563D01*
X77057523Y-72211840D01*
X76291730Y-72528259D01*
X75705318Y-73113648D01*
X75387563Y-73878888D01*
X75386840Y-74707477D01*
X75703259Y-75473270D01*
X76288648Y-76059682D01*
X77053888Y-76377437D01*
X77882477Y-76378160D01*
X78648270Y-76061741D01*
X79151200Y-75559688D01*
X79151200Y-76678201D01*
X78079702Y-77749700D01*
X73006566Y-77749700D01*
X73006566Y-75184000D01*
X72978967Y-75045252D01*
X72900373Y-74927627D01*
X72782748Y-74849033D01*
X72644000Y-74821434D01*
X71053960Y-74821434D01*
X70915212Y-74849033D01*
X70797587Y-74927627D01*
X70718993Y-75045252D01*
X70691394Y-75184000D01*
X70691394Y-77851000D01*
X70718993Y-77989748D01*
X70797587Y-78107373D01*
X70883800Y-78164978D01*
X70883800Y-78714900D01*
X70887970Y-78735866D01*
X69992400Y-77840296D01*
X69992400Y-71557600D01*
X69945997Y-71324316D01*
X69813852Y-71126547D01*
X68594075Y-69906771D01*
X68646040Y-69906771D01*
X68764967Y-69883115D01*
X68865788Y-69815748D01*
X68933155Y-69714927D01*
X68956811Y-69596000D01*
X68956811Y-67094100D01*
X70743189Y-67094100D01*
X70743189Y-69596000D01*
X70743189Y-69596000D01*
G37*
X70743189Y-69596000D02*
X70766845Y-69714927D01*
X70834212Y-69815748D01*
X70935033Y-69883115D01*
X71053960Y-69906771D01*
X72644000Y-69906771D01*
X72762927Y-69883115D01*
X72863748Y-69815748D01*
X72931115Y-69714927D01*
X72954771Y-69596000D01*
X72954771Y-69519800D01*
X74663300Y-69519800D01*
X74663300Y-70606257D01*
X74756106Y-70830311D01*
X74927589Y-71001794D01*
X75151643Y-71094600D01*
X75895200Y-71094600D01*
X76047600Y-70942200D01*
X76047600Y-69367400D01*
X74815700Y-69367400D01*
X74663300Y-69519800D01*
X72954771Y-69519800D01*
X72954771Y-67823743D01*
X74663300Y-67823743D01*
X74663300Y-68910200D01*
X74815700Y-69062600D01*
X76047600Y-69062600D01*
X76047600Y-67487800D01*
X75895200Y-67335400D01*
X75151643Y-67335400D01*
X74927589Y-67428206D01*
X74756106Y-67599689D01*
X74663300Y-67823743D01*
X72954771Y-67823743D01*
X72954771Y-67094100D01*
X172002829Y-67094100D01*
X172002829Y-71628000D01*
X172026485Y-71746927D01*
X172093852Y-71847748D01*
X172194673Y-71915115D01*
X172313600Y-71938771D01*
X174165563Y-71938771D01*
X173901939Y-72201934D01*
X173748874Y-72570556D01*
X173748526Y-72969693D01*
X173796219Y-73085117D01*
X173682444Y-73037874D01*
X173283307Y-73037526D01*
X172914419Y-73189948D01*
X172631939Y-73471934D01*
X172478874Y-73840556D01*
X172478526Y-74239693D01*
X172630948Y-74608581D01*
X172912934Y-74891061D01*
X173281556Y-75044126D01*
X173680693Y-75044474D01*
X174049581Y-74892052D01*
X174332061Y-74610066D01*
X174485126Y-74241444D01*
X174485474Y-73842307D01*
X174437781Y-73726883D01*
X174551556Y-73774126D01*
X174950693Y-73774474D01*
X175319581Y-73622052D01*
X175602061Y-73340066D01*
X175755126Y-72971444D01*
X175755474Y-72572307D01*
X175603052Y-72203419D01*
X175321066Y-71920939D01*
X175257385Y-71894496D01*
X175327348Y-71847748D01*
X175394715Y-71746927D01*
X175418371Y-71628000D01*
X175418371Y-67094100D01*
X181451629Y-67094100D01*
X181451629Y-71628000D01*
X181475285Y-71746927D01*
X181542652Y-71847748D01*
X181612386Y-71894343D01*
X181550419Y-71919948D01*
X181267939Y-72201934D01*
X181114874Y-72570556D01*
X181114526Y-72969693D01*
X181266948Y-73338581D01*
X181548934Y-73621061D01*
X181917556Y-73774126D01*
X182316693Y-73774474D01*
X182432117Y-73726781D01*
X182384874Y-73840556D01*
X182384526Y-74239693D01*
X182536948Y-74608581D01*
X182818934Y-74891061D01*
X183187556Y-75044126D01*
X183586693Y-75044474D01*
X183955581Y-74892052D01*
X184238061Y-74610066D01*
X184391126Y-74241444D01*
X184391474Y-73842307D01*
X184239052Y-73473419D01*
X183957066Y-73190939D01*
X183588444Y-73037874D01*
X183189307Y-73037526D01*
X183073883Y-73085219D01*
X183121126Y-72971444D01*
X183121474Y-72572307D01*
X182969052Y-72203419D01*
X182704867Y-71938771D01*
X184556400Y-71938771D01*
X184675327Y-71915115D01*
X184776148Y-71847748D01*
X184843515Y-71746927D01*
X184867171Y-71628000D01*
X184867171Y-69627477D01*
X189686840Y-69627477D01*
X190003259Y-70393270D01*
X190588648Y-70979682D01*
X191353888Y-71297437D01*
X192182477Y-71298160D01*
X192948270Y-70981741D01*
X193534682Y-70396352D01*
X193852437Y-69631112D01*
X193853160Y-68802523D01*
X193536741Y-68036730D01*
X192951352Y-67450318D01*
X192186112Y-67132563D01*
X191357523Y-67131840D01*
X190591730Y-67448259D01*
X190005318Y-68033648D01*
X189687563Y-68798888D01*
X189686840Y-69627477D01*
X184867171Y-69627477D01*
X184867171Y-67094100D01*
X193890900Y-67094100D01*
X193890900Y-77387829D01*
X189357000Y-77387829D01*
X189238073Y-77411485D01*
X189137252Y-77478852D01*
X189069885Y-77579673D01*
X189046229Y-77698600D01*
X189046229Y-79550563D01*
X188783066Y-79286939D01*
X188414444Y-79133874D01*
X188015307Y-79133526D01*
X187899883Y-79181219D01*
X187947126Y-79067444D01*
X187947474Y-78668307D01*
X187795052Y-78299419D01*
X187513066Y-78016939D01*
X187144444Y-77863874D01*
X186745307Y-77863526D01*
X186376419Y-78015948D01*
X186093939Y-78297934D01*
X185940874Y-78666556D01*
X185940526Y-79065693D01*
X186092948Y-79434581D01*
X186374934Y-79717061D01*
X186743556Y-79870126D01*
X187142693Y-79870474D01*
X187258117Y-79822781D01*
X187210874Y-79936556D01*
X187210526Y-80335693D01*
X187362948Y-80704581D01*
X187644934Y-80987061D01*
X188013556Y-81140126D01*
X188412693Y-81140474D01*
X188781581Y-80988052D01*
X189064061Y-80706066D01*
X189090504Y-80642385D01*
X189137252Y-80712348D01*
X189238073Y-80779715D01*
X189357000Y-80803371D01*
X193890900Y-80803371D01*
X193890900Y-86836629D01*
X189357000Y-86836629D01*
X189238073Y-86860285D01*
X189137252Y-86927652D01*
X189090657Y-86997386D01*
X189065052Y-86935419D01*
X188783066Y-86652939D01*
X188414444Y-86499874D01*
X188015307Y-86499526D01*
X187646419Y-86651948D01*
X187363939Y-86933934D01*
X187210874Y-87302556D01*
X187210526Y-87701693D01*
X187258219Y-87817117D01*
X187144444Y-87769874D01*
X186745307Y-87769526D01*
X186376419Y-87921948D01*
X186093939Y-88203934D01*
X186004200Y-88420050D01*
X186004200Y-86341566D01*
X187134500Y-86341566D01*
X187273248Y-86313967D01*
X187390873Y-86235373D01*
X187469467Y-86117748D01*
X187497066Y-85979000D01*
X187497066Y-84201000D01*
X187469467Y-84062252D01*
X187390873Y-83944627D01*
X187273248Y-83866033D01*
X187134500Y-83838434D01*
X183044800Y-83838434D01*
X183044800Y-83801566D01*
X187134500Y-83801566D01*
X187273248Y-83773967D01*
X187390873Y-83695373D01*
X187469467Y-83577748D01*
X187497066Y-83439000D01*
X187497066Y-81661000D01*
X187469467Y-81522252D01*
X187390873Y-81404627D01*
X187273248Y-81326033D01*
X187134500Y-81298434D01*
X182943500Y-81298434D01*
X182804752Y-81326033D01*
X182687127Y-81404627D01*
X182608533Y-81522252D01*
X182596091Y-81584800D01*
X182079600Y-81584800D01*
X181710234Y-81658271D01*
X181397101Y-81867501D01*
X181187871Y-82180634D01*
X181114400Y-82550000D01*
X181114400Y-94347601D01*
X177942773Y-97519229D01*
X176685000Y-97519229D01*
X176634739Y-97529226D01*
X176601794Y-97449689D01*
X176430311Y-97278206D01*
X176206257Y-97185400D01*
X173909800Y-97185400D01*
X173757400Y-97337800D01*
X173757400Y-99542600D01*
X173777400Y-99542600D01*
X173777400Y-99847400D01*
X173757400Y-99847400D01*
X173757400Y-102052200D01*
X173909800Y-102204600D01*
X176206257Y-102204600D01*
X176430311Y-102111794D01*
X176601794Y-101940311D01*
X176634739Y-101860774D01*
X176685000Y-101870771D01*
X178125000Y-101870771D01*
X178243927Y-101847115D01*
X178344748Y-101779748D01*
X178412115Y-101678927D01*
X178435771Y-101560000D01*
X178435771Y-99960000D01*
X178412115Y-99841073D01*
X178383652Y-99798475D01*
X178413399Y-99778599D01*
X178879500Y-99312499D01*
X178879502Y-99312496D01*
X180397106Y-97794893D01*
X180115345Y-98216577D01*
X179933600Y-99130272D01*
X179933600Y-100259728D01*
X180115345Y-101173423D01*
X180632912Y-101948016D01*
X180910807Y-102133700D01*
X180870000Y-102133700D01*
X180561915Y-102194982D01*
X180500633Y-102207171D01*
X180187500Y-102416401D01*
X178589102Y-104014800D01*
X178381196Y-104014800D01*
X178344748Y-103960252D01*
X178243927Y-103892885D01*
X178125000Y-103869229D01*
X176685000Y-103869229D01*
X176634739Y-103879226D01*
X176601794Y-103799689D01*
X176430311Y-103628206D01*
X176206257Y-103535400D01*
X173909800Y-103535400D01*
X173757400Y-103687800D01*
X173757400Y-105892600D01*
X173777400Y-105892600D01*
X173777400Y-106197400D01*
X173757400Y-106197400D01*
X173757400Y-108402200D01*
X173909800Y-108554600D01*
X176206257Y-108554600D01*
X176430311Y-108461794D01*
X176601794Y-108290311D01*
X176634739Y-108210774D01*
X176685000Y-108220771D01*
X178125000Y-108220771D01*
X178243927Y-108197115D01*
X178344748Y-108129748D01*
X178412115Y-108028927D01*
X178435771Y-107910000D01*
X178435771Y-106310000D01*
X178412115Y-106191073D01*
X178383652Y-106148475D01*
X178413399Y-106128599D01*
X178596798Y-105945200D01*
X178988900Y-105945200D01*
X179358266Y-105871729D01*
X179671399Y-105662499D01*
X181269799Y-104064100D01*
X182321200Y-104064100D01*
X182646135Y-103999467D01*
X179022501Y-107623101D01*
X178813271Y-107936234D01*
X178739800Y-108305600D01*
X178739800Y-121001091D01*
X178677252Y-121013533D01*
X178597227Y-121067004D01*
X178570794Y-121003189D01*
X178399311Y-120831706D01*
X178175257Y-120738900D01*
X177469800Y-120738900D01*
X177317400Y-120891300D01*
X177317400Y-123291600D01*
X177337400Y-123291600D01*
X177337400Y-123596400D01*
X177317400Y-123596400D01*
X177317400Y-125996700D01*
X177469800Y-126149100D01*
X178175257Y-126149100D01*
X178399311Y-126056294D01*
X178570794Y-125884811D01*
X178597227Y-125820996D01*
X178677252Y-125874467D01*
X178816000Y-125902066D01*
X180594000Y-125902066D01*
X180732748Y-125874467D01*
X180850373Y-125795873D01*
X180928967Y-125678248D01*
X180956566Y-125539500D01*
X180956566Y-121348500D01*
X180928967Y-121209752D01*
X180850373Y-121092127D01*
X180732748Y-121013533D01*
X180670200Y-121001091D01*
X180670200Y-108705398D01*
X185184798Y-104190800D01*
X186405667Y-104190800D01*
X186564211Y-104987853D01*
X187015705Y-105663562D01*
X187691414Y-106115056D01*
X188488467Y-106273600D01*
X190123933Y-106273600D01*
X190920986Y-106115056D01*
X191596695Y-105663562D01*
X192048189Y-104987853D01*
X192206733Y-104190800D01*
X192048189Y-103393747D01*
X191596695Y-102718038D01*
X190920986Y-102266544D01*
X190123933Y-102108000D01*
X188488467Y-102108000D01*
X187691414Y-102266544D01*
X187015705Y-102718038D01*
X186564211Y-103393747D01*
X186405667Y-104190800D01*
X185184798Y-104190800D01*
X187546999Y-101828600D01*
X188367352Y-101828600D01*
X189183845Y-101666189D01*
X189876035Y-101203683D01*
X190336473Y-100514589D01*
X190592463Y-100771026D01*
X191059073Y-100964779D01*
X191564310Y-100965220D01*
X192031258Y-100772282D01*
X192388826Y-100415337D01*
X192582579Y-99948727D01*
X192583020Y-99443490D01*
X192390082Y-98976542D01*
X192033137Y-98618974D01*
X191566527Y-98425221D01*
X191061290Y-98424780D01*
X190594342Y-98617718D01*
X190336363Y-98875247D01*
X189876035Y-98186317D01*
X189183845Y-97723811D01*
X188367352Y-97561400D01*
X187546999Y-97561400D01*
X186004200Y-96018602D01*
X186004200Y-95199200D01*
X186405667Y-95199200D01*
X186564211Y-95996253D01*
X187015705Y-96671962D01*
X187691414Y-97123456D01*
X188488467Y-97282000D01*
X190123933Y-97282000D01*
X190920986Y-97123456D01*
X191596695Y-96671962D01*
X192048189Y-95996253D01*
X192206733Y-95199200D01*
X192048189Y-94402147D01*
X191596695Y-93726438D01*
X190920986Y-93274944D01*
X190123933Y-93116400D01*
X188488467Y-93116400D01*
X187691414Y-93274944D01*
X187015705Y-93726438D01*
X186564211Y-94402147D01*
X186405667Y-95199200D01*
X186004200Y-95199200D01*
X186004200Y-89125795D01*
X186092948Y-89340581D01*
X186374934Y-89623061D01*
X186743556Y-89776126D01*
X187142693Y-89776474D01*
X187511581Y-89624052D01*
X187794061Y-89342066D01*
X187947126Y-88973444D01*
X187947474Y-88574307D01*
X187899781Y-88458883D01*
X188013556Y-88506126D01*
X188412693Y-88506474D01*
X188781581Y-88354052D01*
X189046229Y-88089867D01*
X189046229Y-89941400D01*
X189069885Y-90060327D01*
X189137252Y-90161148D01*
X189238073Y-90228515D01*
X189357000Y-90252171D01*
X193890900Y-90252171D01*
X193890900Y-132295900D01*
X184867171Y-132295900D01*
X184867171Y-130587477D01*
X189686840Y-130587477D01*
X190003259Y-131353270D01*
X190588648Y-131939682D01*
X191353888Y-132257437D01*
X192182477Y-132258160D01*
X192948270Y-131941741D01*
X193534682Y-131356352D01*
X193852437Y-130591112D01*
X193853160Y-129762523D01*
X193536741Y-128996730D01*
X192951352Y-128410318D01*
X192186112Y-128092563D01*
X191357523Y-128091840D01*
X190591730Y-128408259D01*
X190005318Y-128993648D01*
X189687563Y-129758888D01*
X189686840Y-130587477D01*
X184867171Y-130587477D01*
X184867171Y-127762000D01*
X184843515Y-127643073D01*
X184776148Y-127542252D01*
X184675327Y-127474885D01*
X184556400Y-127451229D01*
X182704437Y-127451229D01*
X182968061Y-127188066D01*
X183121126Y-126819444D01*
X183121474Y-126420307D01*
X183073781Y-126304883D01*
X183187556Y-126352126D01*
X183586693Y-126352474D01*
X183955581Y-126200052D01*
X184238061Y-125918066D01*
X184391126Y-125549444D01*
X184391474Y-125150307D01*
X184239052Y-124781419D01*
X183957066Y-124498939D01*
X183588444Y-124345874D01*
X183189307Y-124345526D01*
X182820419Y-124497948D01*
X182537939Y-124779934D01*
X182384874Y-125148556D01*
X182384526Y-125547693D01*
X182432219Y-125663117D01*
X182318444Y-125615874D01*
X181919307Y-125615526D01*
X181550419Y-125767948D01*
X181267939Y-126049934D01*
X181114874Y-126418556D01*
X181114526Y-126817693D01*
X181266948Y-127186581D01*
X181548934Y-127469061D01*
X181612615Y-127495504D01*
X181542652Y-127542252D01*
X181475285Y-127643073D01*
X181451629Y-127762000D01*
X181451629Y-132295900D01*
X175418371Y-132295900D01*
X175418371Y-127762000D01*
X175394715Y-127643073D01*
X175327348Y-127542252D01*
X175257614Y-127495657D01*
X175319581Y-127470052D01*
X175602061Y-127188066D01*
X175755126Y-126819444D01*
X175755474Y-126420307D01*
X175603052Y-126051419D01*
X175321066Y-125768939D01*
X174952444Y-125615874D01*
X174553307Y-125615526D01*
X174437883Y-125663219D01*
X174485126Y-125549444D01*
X174485474Y-125150307D01*
X174333052Y-124781419D01*
X174051066Y-124498939D01*
X173682444Y-124345874D01*
X173283307Y-124345526D01*
X172914419Y-124497948D01*
X172631939Y-124779934D01*
X172478874Y-125148556D01*
X172478526Y-125547693D01*
X172630948Y-125916581D01*
X172912934Y-126199061D01*
X173281556Y-126352126D01*
X173680693Y-126352474D01*
X173796117Y-126304781D01*
X173748874Y-126418556D01*
X173748526Y-126817693D01*
X173900948Y-127186581D01*
X174165133Y-127451229D01*
X172313600Y-127451229D01*
X172194673Y-127474885D01*
X172093852Y-127542252D01*
X172026485Y-127643073D01*
X172002829Y-127762000D01*
X172002829Y-132295900D01*
X60109100Y-132295900D01*
X60109100Y-130587477D01*
X60146840Y-130587477D01*
X60463259Y-131353270D01*
X61048648Y-131939682D01*
X61813888Y-132257437D01*
X62642477Y-132258160D01*
X63408270Y-131941741D01*
X63994682Y-131356352D01*
X64312437Y-130591112D01*
X64313160Y-129762523D01*
X63996741Y-128996730D01*
X63411352Y-128410318D01*
X62646112Y-128092563D01*
X61817523Y-128091840D01*
X61051730Y-128408259D01*
X60465318Y-128993648D01*
X60147563Y-129758888D01*
X60146840Y-130587477D01*
X60109100Y-130587477D01*
X60109100Y-109806800D01*
X64207200Y-109806800D01*
X64207200Y-120938400D01*
X64261175Y-121209752D01*
X64280671Y-121307766D01*
X64489901Y-121620899D01*
X73726501Y-130857499D01*
X74039634Y-131066729D01*
X74409000Y-131140200D01*
X75081480Y-131140200D01*
X75292994Y-131456753D01*
X75709132Y-131734807D01*
X76200000Y-131832447D01*
X76690868Y-131734807D01*
X77107006Y-131456753D01*
X77385060Y-131040615D01*
X77470000Y-130613594D01*
X77554940Y-131040615D01*
X77832994Y-131456753D01*
X78249132Y-131734807D01*
X78740000Y-131832447D01*
X79230868Y-131734807D01*
X79647006Y-131456753D01*
X79925060Y-131040615D01*
X80010000Y-130613594D01*
X80094940Y-131040615D01*
X80372994Y-131456753D01*
X80789132Y-131734807D01*
X81280000Y-131832447D01*
X81770868Y-131734807D01*
X82187006Y-131456753D01*
X82465060Y-131040615D01*
X82550000Y-130613594D01*
X82634940Y-131040615D01*
X82912994Y-131456753D01*
X83329132Y-131734807D01*
X83820000Y-131832447D01*
X84310868Y-131734807D01*
X84727006Y-131456753D01*
X85005060Y-131040615D01*
X85102700Y-130549747D01*
X85102700Y-129801248D01*
X85128100Y-129801248D01*
X85128100Y-130548752D01*
X85221873Y-131020180D01*
X85488915Y-131419837D01*
X85888572Y-131686879D01*
X86360000Y-131780652D01*
X86831428Y-131686879D01*
X87231085Y-131419837D01*
X87498127Y-131020180D01*
X87591900Y-130548752D01*
X87591900Y-129801248D01*
X87668100Y-129801248D01*
X87668100Y-130548752D01*
X87761873Y-131020180D01*
X88028915Y-131419837D01*
X88428572Y-131686879D01*
X88900000Y-131780652D01*
X89371428Y-131686879D01*
X89771085Y-131419837D01*
X90038127Y-131020180D01*
X90131900Y-130548752D01*
X90131900Y-129801248D01*
X90208100Y-129801248D01*
X90208100Y-130548752D01*
X90301873Y-131020180D01*
X90568915Y-131419837D01*
X90968572Y-131686879D01*
X91440000Y-131780652D01*
X91911428Y-131686879D01*
X92311085Y-131419837D01*
X92578127Y-131020180D01*
X92671900Y-130548752D01*
X92671900Y-129801248D01*
X92748100Y-129801248D01*
X92748100Y-130548752D01*
X92841873Y-131020180D01*
X93108915Y-131419837D01*
X93508572Y-131686879D01*
X93980000Y-131780652D01*
X94451428Y-131686879D01*
X94851085Y-131419837D01*
X95118127Y-131020180D01*
X95211900Y-130548752D01*
X95211900Y-129801248D01*
X95288100Y-129801248D01*
X95288100Y-130548752D01*
X95381873Y-131020180D01*
X95648915Y-131419837D01*
X96048572Y-131686879D01*
X96520000Y-131780652D01*
X96991428Y-131686879D01*
X97391085Y-131419837D01*
X97658127Y-131020180D01*
X97751900Y-130548752D01*
X97751900Y-129801248D01*
X97828100Y-129801248D01*
X97828100Y-130548752D01*
X97921873Y-131020180D01*
X98188915Y-131419837D01*
X98588572Y-131686879D01*
X99060000Y-131780652D01*
X99531428Y-131686879D01*
X99931085Y-131419837D01*
X100198127Y-131020180D01*
X100291900Y-130548752D01*
X100291900Y-129801248D01*
X100368100Y-129801248D01*
X100368100Y-130548752D01*
X100461873Y-131020180D01*
X100728915Y-131419837D01*
X101128572Y-131686879D01*
X101600000Y-131780652D01*
X102071428Y-131686879D01*
X102471085Y-131419837D01*
X102738127Y-131020180D01*
X102831900Y-130548752D01*
X102831900Y-129801248D01*
X102908100Y-129801248D01*
X102908100Y-130548752D01*
X103001873Y-131020180D01*
X103268915Y-131419837D01*
X103668572Y-131686879D01*
X104140000Y-131780652D01*
X104611428Y-131686879D01*
X105011085Y-131419837D01*
X105278127Y-131020180D01*
X105371900Y-130548752D01*
X105371900Y-129801248D01*
X105448100Y-129801248D01*
X105448100Y-130548752D01*
X105541873Y-131020180D01*
X105808915Y-131419837D01*
X106208572Y-131686879D01*
X106680000Y-131780652D01*
X107151428Y-131686879D01*
X107551085Y-131419837D01*
X107818127Y-131020180D01*
X107911900Y-130548752D01*
X107911900Y-129801248D01*
X107988100Y-129801248D01*
X107988100Y-130548752D01*
X108081873Y-131020180D01*
X108348915Y-131419837D01*
X108748572Y-131686879D01*
X109220000Y-131780652D01*
X109691428Y-131686879D01*
X110091085Y-131419837D01*
X110358127Y-131020180D01*
X110451900Y-130548752D01*
X110451900Y-129801248D01*
X110528100Y-129801248D01*
X110528100Y-130548752D01*
X110621873Y-131020180D01*
X110888915Y-131419837D01*
X111288572Y-131686879D01*
X111760000Y-131780652D01*
X112231428Y-131686879D01*
X112631085Y-131419837D01*
X112898127Y-131020180D01*
X112991900Y-130548752D01*
X112991900Y-129801248D01*
X113068100Y-129801248D01*
X113068100Y-130548752D01*
X113161873Y-131020180D01*
X113428915Y-131419837D01*
X113828572Y-131686879D01*
X114300000Y-131780652D01*
X114771428Y-131686879D01*
X115171085Y-131419837D01*
X115438127Y-131020180D01*
X115531900Y-130548752D01*
X115531900Y-129801248D01*
X115608100Y-129801248D01*
X115608100Y-130548752D01*
X115701873Y-131020180D01*
X115968915Y-131419837D01*
X116368572Y-131686879D01*
X116840000Y-131780652D01*
X117311428Y-131686879D01*
X117711085Y-131419837D01*
X117978127Y-131020180D01*
X118071900Y-130548752D01*
X118071900Y-129801248D01*
X118148100Y-129801248D01*
X118148100Y-130548752D01*
X118241873Y-131020180D01*
X118508915Y-131419837D01*
X118908572Y-131686879D01*
X119380000Y-131780652D01*
X119851428Y-131686879D01*
X120251085Y-131419837D01*
X120518127Y-131020180D01*
X120611900Y-130548752D01*
X120611900Y-129801248D01*
X120688100Y-129801248D01*
X120688100Y-130548752D01*
X120781873Y-131020180D01*
X121048915Y-131419837D01*
X121448572Y-131686879D01*
X121920000Y-131780652D01*
X122391428Y-131686879D01*
X122791085Y-131419837D01*
X123058127Y-131020180D01*
X123151900Y-130548752D01*
X123151900Y-129801248D01*
X123228100Y-129801248D01*
X123228100Y-130548752D01*
X123321873Y-131020180D01*
X123588915Y-131419837D01*
X123988572Y-131686879D01*
X124460000Y-131780652D01*
X124931428Y-131686879D01*
X125331085Y-131419837D01*
X125598127Y-131020180D01*
X125691900Y-130548752D01*
X125691900Y-129801248D01*
X125768100Y-129801248D01*
X125768100Y-130548752D01*
X125861873Y-131020180D01*
X126128915Y-131419837D01*
X126528572Y-131686879D01*
X127000000Y-131780652D01*
X127471428Y-131686879D01*
X127871085Y-131419837D01*
X128138127Y-131020180D01*
X128231900Y-130548752D01*
X128231900Y-129801248D01*
X128308100Y-129801248D01*
X128308100Y-130548752D01*
X128401873Y-131020180D01*
X128668915Y-131419837D01*
X129068572Y-131686879D01*
X129540000Y-131780652D01*
X130011428Y-131686879D01*
X130411085Y-131419837D01*
X130678127Y-131020180D01*
X130771900Y-130548752D01*
X130771900Y-129801248D01*
X130848100Y-129801248D01*
X130848100Y-130548752D01*
X130941873Y-131020180D01*
X131208915Y-131419837D01*
X131608572Y-131686879D01*
X132080000Y-131780652D01*
X132551428Y-131686879D01*
X132951085Y-131419837D01*
X133218127Y-131020180D01*
X133311900Y-130548752D01*
X133311900Y-129801248D01*
X133388100Y-129801248D01*
X133388100Y-130548752D01*
X133481873Y-131020180D01*
X133748915Y-131419837D01*
X134148572Y-131686879D01*
X134620000Y-131780652D01*
X135091428Y-131686879D01*
X135491085Y-131419837D01*
X135758127Y-131020180D01*
X135851900Y-130548752D01*
X135851900Y-129801248D01*
X135928100Y-129801248D01*
X135928100Y-130548752D01*
X136021873Y-131020180D01*
X136288915Y-131419837D01*
X136688572Y-131686879D01*
X137160000Y-131780652D01*
X137631428Y-131686879D01*
X138031085Y-131419837D01*
X138298127Y-131020180D01*
X138384197Y-130587477D01*
X138886840Y-130587477D01*
X139203259Y-131353270D01*
X139788648Y-131939682D01*
X140553888Y-132257437D01*
X141382477Y-132258160D01*
X142148270Y-131941741D01*
X142734682Y-131356352D01*
X143052437Y-130591112D01*
X143053160Y-129762523D01*
X142736741Y-128996730D01*
X142151352Y-128410318D01*
X141386112Y-128092563D01*
X140557523Y-128091840D01*
X139791730Y-128408259D01*
X139205318Y-128993648D01*
X138887563Y-129758888D01*
X138886840Y-130587477D01*
X138384197Y-130587477D01*
X138391900Y-130548752D01*
X138391900Y-129801248D01*
X138298127Y-129329820D01*
X138031085Y-128930163D01*
X137631428Y-128663121D01*
X137160000Y-128569348D01*
X136688572Y-128663121D01*
X136288915Y-128930163D01*
X136021873Y-129329820D01*
X135928100Y-129801248D01*
X135851900Y-129801248D01*
X135758127Y-129329820D01*
X135491085Y-128930163D01*
X135091428Y-128663121D01*
X134620000Y-128569348D01*
X134148572Y-128663121D01*
X133748915Y-128930163D01*
X133481873Y-129329820D01*
X133388100Y-129801248D01*
X133311900Y-129801248D01*
X133218127Y-129329820D01*
X132951085Y-128930163D01*
X132551428Y-128663121D01*
X132080000Y-128569348D01*
X131608572Y-128663121D01*
X131208915Y-128930163D01*
X130941873Y-129329820D01*
X130848100Y-129801248D01*
X130771900Y-129801248D01*
X130678127Y-129329820D01*
X130411085Y-128930163D01*
X130011428Y-128663121D01*
X129540000Y-128569348D01*
X129068572Y-128663121D01*
X128668915Y-128930163D01*
X128401873Y-129329820D01*
X128308100Y-129801248D01*
X128231900Y-129801248D01*
X128138127Y-129329820D01*
X127871085Y-128930163D01*
X127471428Y-128663121D01*
X127000000Y-128569348D01*
X126528572Y-128663121D01*
X126128915Y-128930163D01*
X125861873Y-129329820D01*
X125768100Y-129801248D01*
X125691900Y-129801248D01*
X125598127Y-129329820D01*
X125331085Y-128930163D01*
X124931428Y-128663121D01*
X124460000Y-128569348D01*
X123988572Y-128663121D01*
X123588915Y-128930163D01*
X123321873Y-129329820D01*
X123228100Y-129801248D01*
X123151900Y-129801248D01*
X123058127Y-129329820D01*
X122791085Y-128930163D01*
X122391428Y-128663121D01*
X121920000Y-128569348D01*
X121448572Y-128663121D01*
X121048915Y-128930163D01*
X120781873Y-129329820D01*
X120688100Y-129801248D01*
X120611900Y-129801248D01*
X120518127Y-129329820D01*
X120251085Y-128930163D01*
X119851428Y-128663121D01*
X119380000Y-128569348D01*
X118908572Y-128663121D01*
X118508915Y-128930163D01*
X118241873Y-129329820D01*
X118148100Y-129801248D01*
X118071900Y-129801248D01*
X117978127Y-129329820D01*
X117711085Y-128930163D01*
X117311428Y-128663121D01*
X116840000Y-128569348D01*
X116368572Y-128663121D01*
X115968915Y-128930163D01*
X115701873Y-129329820D01*
X115608100Y-129801248D01*
X115531900Y-129801248D01*
X115438127Y-129329820D01*
X115171085Y-128930163D01*
X114771428Y-128663121D01*
X114300000Y-128569348D01*
X113828572Y-128663121D01*
X113428915Y-128930163D01*
X113161873Y-129329820D01*
X113068100Y-129801248D01*
X112991900Y-129801248D01*
X112898127Y-129329820D01*
X112631085Y-128930163D01*
X112231428Y-128663121D01*
X111760000Y-128569348D01*
X111288572Y-128663121D01*
X110888915Y-128930163D01*
X110621873Y-129329820D01*
X110528100Y-129801248D01*
X110451900Y-129801248D01*
X110358127Y-129329820D01*
X110091085Y-128930163D01*
X109691428Y-128663121D01*
X109220000Y-128569348D01*
X108748572Y-128663121D01*
X108348915Y-128930163D01*
X108081873Y-129329820D01*
X107988100Y-129801248D01*
X107911900Y-129801248D01*
X107818127Y-129329820D01*
X107551085Y-128930163D01*
X107151428Y-128663121D01*
X106680000Y-128569348D01*
X106208572Y-128663121D01*
X105808915Y-128930163D01*
X105541873Y-129329820D01*
X105448100Y-129801248D01*
X105371900Y-129801248D01*
X105278127Y-129329820D01*
X105011085Y-128930163D01*
X104611428Y-128663121D01*
X104140000Y-128569348D01*
X103668572Y-128663121D01*
X103268915Y-128930163D01*
X103001873Y-129329820D01*
X102908100Y-129801248D01*
X102831900Y-129801248D01*
X102738127Y-129329820D01*
X102471085Y-128930163D01*
X102071428Y-128663121D01*
X101600000Y-128569348D01*
X101128572Y-128663121D01*
X100728915Y-128930163D01*
X100461873Y-129329820D01*
X100368100Y-129801248D01*
X100291900Y-129801248D01*
X100198127Y-129329820D01*
X99931085Y-128930163D01*
X99531428Y-128663121D01*
X99060000Y-128569348D01*
X98588572Y-128663121D01*
X98188915Y-128930163D01*
X97921873Y-129329820D01*
X97828100Y-129801248D01*
X97751900Y-129801248D01*
X97658127Y-129329820D01*
X97391085Y-128930163D01*
X96991428Y-128663121D01*
X96520000Y-128569348D01*
X96048572Y-128663121D01*
X95648915Y-128930163D01*
X95381873Y-129329820D01*
X95288100Y-129801248D01*
X95211900Y-129801248D01*
X95118127Y-129329820D01*
X94851085Y-128930163D01*
X94451428Y-128663121D01*
X93980000Y-128569348D01*
X93508572Y-128663121D01*
X93108915Y-128930163D01*
X92841873Y-129329820D01*
X92748100Y-129801248D01*
X92671900Y-129801248D01*
X92578127Y-129329820D01*
X92311085Y-128930163D01*
X91911428Y-128663121D01*
X91440000Y-128569348D01*
X90968572Y-128663121D01*
X90568915Y-128930163D01*
X90301873Y-129329820D01*
X90208100Y-129801248D01*
X90131900Y-129801248D01*
X90038127Y-129329820D01*
X89771085Y-128930163D01*
X89371428Y-128663121D01*
X88900000Y-128569348D01*
X88428572Y-128663121D01*
X88028915Y-128930163D01*
X87761873Y-129329820D01*
X87668100Y-129801248D01*
X87591900Y-129801248D01*
X87498127Y-129329820D01*
X87231085Y-128930163D01*
X86831428Y-128663121D01*
X86360000Y-128569348D01*
X85888572Y-128663121D01*
X85488915Y-128930163D01*
X85221873Y-129329820D01*
X85128100Y-129801248D01*
X85102700Y-129801248D01*
X85102700Y-129800253D01*
X85005060Y-129309385D01*
X84727006Y-128893247D01*
X84310868Y-128615193D01*
X83820000Y-128517553D01*
X83329132Y-128615193D01*
X82912994Y-128893247D01*
X82634940Y-129309385D01*
X82550000Y-129736406D01*
X82465060Y-129309385D01*
X82187006Y-128893247D01*
X81770868Y-128615193D01*
X81280000Y-128517553D01*
X80789132Y-128615193D01*
X80372994Y-128893247D01*
X80094940Y-129309385D01*
X80010000Y-129736406D01*
X79925060Y-129309385D01*
X79647006Y-128893247D01*
X79230868Y-128615193D01*
X78740000Y-128517553D01*
X78249132Y-128615193D01*
X77832994Y-128893247D01*
X77554940Y-129309385D01*
X77470000Y-129736406D01*
X77385060Y-129309385D01*
X77107006Y-128893247D01*
X76690868Y-128615193D01*
X76200000Y-128517553D01*
X75709132Y-128615193D01*
X75292994Y-128893247D01*
X75081480Y-129209800D01*
X74808798Y-129209800D01*
X71106475Y-125507477D01*
X75386840Y-125507477D01*
X75703259Y-126273270D01*
X76288648Y-126859682D01*
X77053888Y-127177437D01*
X77882477Y-127178160D01*
X78648270Y-126861741D01*
X79145879Y-126365000D01*
X150159348Y-126365000D01*
X150240553Y-126773247D01*
X150471806Y-127119342D01*
X150817901Y-127350595D01*
X151226148Y-127431800D01*
X152303852Y-127431800D01*
X152712099Y-127350595D01*
X153058194Y-127119342D01*
X153289447Y-126773247D01*
X153370652Y-126365000D01*
X165399348Y-126365000D01*
X165480553Y-126773247D01*
X165711806Y-127119342D01*
X166057901Y-127350595D01*
X166466148Y-127431800D01*
X167543852Y-127431800D01*
X167952099Y-127350595D01*
X168298194Y-127119342D01*
X168529447Y-126773247D01*
X168610652Y-126365000D01*
X168529447Y-125956753D01*
X168298194Y-125610658D01*
X167952099Y-125379405D01*
X167543852Y-125298200D01*
X166466148Y-125298200D01*
X166057901Y-125379405D01*
X165711806Y-125610658D01*
X165480553Y-125956753D01*
X165399348Y-126365000D01*
X153370652Y-126365000D01*
X153289447Y-125956753D01*
X153058194Y-125610658D01*
X152712099Y-125379405D01*
X152303852Y-125298200D01*
X151226148Y-125298200D01*
X150817901Y-125379405D01*
X150471806Y-125610658D01*
X150240553Y-125956753D01*
X150159348Y-126365000D01*
X79145879Y-126365000D01*
X79234682Y-126276352D01*
X79552437Y-125511112D01*
X79553160Y-124682523D01*
X79236741Y-123916730D01*
X79145172Y-123825000D01*
X150159348Y-123825000D01*
X150240553Y-124233247D01*
X150471806Y-124579342D01*
X150817901Y-124810595D01*
X151226148Y-124891800D01*
X152303852Y-124891800D01*
X152712099Y-124810595D01*
X153058194Y-124579342D01*
X153289447Y-124233247D01*
X153370652Y-123825000D01*
X165399348Y-123825000D01*
X165480553Y-124233247D01*
X165711806Y-124579342D01*
X166057901Y-124810595D01*
X166466148Y-124891800D01*
X167543852Y-124891800D01*
X167952099Y-124810595D01*
X168298194Y-124579342D01*
X168529447Y-124233247D01*
X168610652Y-123825000D01*
X168595495Y-123748800D01*
X175666400Y-123748800D01*
X175666400Y-125660757D01*
X175759206Y-125884811D01*
X175930689Y-126056294D01*
X176154743Y-126149100D01*
X176860200Y-126149100D01*
X177012600Y-125996700D01*
X177012600Y-123596400D01*
X175818800Y-123596400D01*
X175666400Y-123748800D01*
X168595495Y-123748800D01*
X168529447Y-123416753D01*
X168298194Y-123070658D01*
X167952099Y-122839405D01*
X167543852Y-122758200D01*
X166466148Y-122758200D01*
X166057901Y-122839405D01*
X165711806Y-123070658D01*
X165480553Y-123416753D01*
X165399348Y-123825000D01*
X153370652Y-123825000D01*
X153289447Y-123416753D01*
X153058194Y-123070658D01*
X152712099Y-122839405D01*
X152303852Y-122758200D01*
X151226148Y-122758200D01*
X150817901Y-122839405D01*
X150471806Y-123070658D01*
X150240553Y-123416753D01*
X150159348Y-123825000D01*
X79145172Y-123825000D01*
X78651352Y-123330318D01*
X77886112Y-123012563D01*
X77057523Y-123011840D01*
X76291730Y-123328259D01*
X75705318Y-123913648D01*
X75387563Y-124678888D01*
X75386840Y-125507477D01*
X71106475Y-125507477D01*
X66137600Y-120538602D01*
X66137600Y-116465641D01*
X66342466Y-116602528D01*
X66770153Y-116687600D01*
X67849847Y-116687600D01*
X68277534Y-116602528D01*
X68640110Y-116360263D01*
X68882375Y-115997687D01*
X68967447Y-115570000D01*
X68882375Y-115142313D01*
X68640110Y-114779737D01*
X68277534Y-114537472D01*
X67849847Y-114452400D01*
X66770153Y-114452400D01*
X66342466Y-114537472D01*
X66137600Y-114674359D01*
X66137600Y-113925641D01*
X66342466Y-114062528D01*
X66770153Y-114147600D01*
X67849847Y-114147600D01*
X68277534Y-114062528D01*
X68640110Y-113820263D01*
X68882375Y-113457687D01*
X68967447Y-113030000D01*
X68882375Y-112602313D01*
X68640110Y-112239737D01*
X68277534Y-111997472D01*
X67849847Y-111912400D01*
X66770153Y-111912400D01*
X66342466Y-111997472D01*
X66137600Y-112134359D01*
X66137600Y-111699280D01*
X66649600Y-111861600D01*
X67157600Y-111861600D01*
X67157600Y-110642400D01*
X67462400Y-110642400D01*
X67462400Y-111861600D01*
X67970400Y-111861600D01*
X68483688Y-111698872D01*
X68895631Y-111352104D01*
X69140484Y-110853761D01*
X69027637Y-110642400D01*
X67462400Y-110642400D01*
X67157600Y-110642400D01*
X67137600Y-110642400D01*
X67137600Y-110337600D01*
X67157600Y-110337600D01*
X67157600Y-110317600D01*
X67462400Y-110317600D01*
X67462400Y-110337600D01*
X69027637Y-110337600D01*
X69140484Y-110126239D01*
X68895631Y-109627896D01*
X68483688Y-109281128D01*
X68070390Y-109150100D01*
X73146400Y-109150100D01*
X73515766Y-109076629D01*
X73828899Y-108867399D01*
X77480999Y-105215300D01*
X77690229Y-104902167D01*
X77763699Y-104532800D01*
X77690229Y-104163434D01*
X77480999Y-103850301D01*
X77167866Y-103641071D01*
X76798500Y-103567601D01*
X76429133Y-103641071D01*
X76116000Y-103850301D01*
X72746602Y-107219700D01*
X66794300Y-107219700D01*
X66424934Y-107293171D01*
X66111801Y-107502401D01*
X64489901Y-109124301D01*
X64280671Y-109437434D01*
X64207200Y-109806800D01*
X60109100Y-109806800D01*
X60109100Y-104775000D01*
X60599467Y-104775000D01*
X60738676Y-105474851D01*
X61135110Y-106068157D01*
X61728416Y-106464591D01*
X62428267Y-106603800D01*
X64571733Y-106603800D01*
X65271584Y-106464591D01*
X65864890Y-106068157D01*
X66261324Y-105474851D01*
X66400533Y-104775000D01*
X66261324Y-104075149D01*
X65864890Y-103481843D01*
X65271584Y-103085409D01*
X64571733Y-102946200D01*
X62428267Y-102946200D01*
X61728416Y-103085409D01*
X61135110Y-103481843D01*
X60738676Y-104075149D01*
X60599467Y-104775000D01*
X60109100Y-104775000D01*
X60109100Y-99695000D01*
X68249324Y-99695000D01*
X68330529Y-100103247D01*
X68561782Y-100449342D01*
X68907877Y-100680595D01*
X69240400Y-100746738D01*
X69240400Y-102096000D01*
X69286803Y-102329284D01*
X69418948Y-102527052D01*
X71409047Y-104517152D01*
X71490834Y-104571800D01*
X71606816Y-104649297D01*
X71840100Y-104695700D01*
X72921900Y-104695700D01*
X73155184Y-104649297D01*
X73352952Y-104517152D01*
X75062652Y-102807452D01*
X75194797Y-102609684D01*
X75241200Y-102376400D01*
X75241200Y-101251304D01*
X77622434Y-98870071D01*
X77622434Y-100945000D01*
X77650033Y-101083748D01*
X77728627Y-101201373D01*
X77846252Y-101279967D01*
X77985000Y-101307566D01*
X78374800Y-101307566D01*
X78374800Y-104181301D01*
X78057501Y-104498601D01*
X77848271Y-104811734D01*
X77774800Y-105181100D01*
X77774800Y-106246702D01*
X77707472Y-106347466D01*
X77622400Y-106775153D01*
X77622400Y-107854847D01*
X77707472Y-108282534D01*
X77949737Y-108645110D01*
X78312313Y-108887375D01*
X78740000Y-108972447D01*
X79167687Y-108887375D01*
X79530263Y-108645110D01*
X79772528Y-108282534D01*
X79857600Y-107854847D01*
X79857600Y-106775153D01*
X79772528Y-106347466D01*
X79705200Y-106246702D01*
X79705200Y-105580898D01*
X80022499Y-105263600D01*
X80200318Y-104997476D01*
X80247472Y-105234534D01*
X80489737Y-105597110D01*
X80779915Y-105791000D01*
X80489737Y-105984890D01*
X80247472Y-106347466D01*
X80162400Y-106775153D01*
X80162400Y-107854847D01*
X80247472Y-108282534D01*
X80489737Y-108645110D01*
X80852313Y-108887375D01*
X81280000Y-108972447D01*
X81707687Y-108887375D01*
X82070263Y-108645110D01*
X82312528Y-108282534D01*
X82397600Y-107854847D01*
X82397600Y-106775153D01*
X82312528Y-106347466D01*
X82070263Y-105984890D01*
X81780085Y-105791000D01*
X82070263Y-105597110D01*
X82312528Y-105234534D01*
X82397600Y-104806847D01*
X82397600Y-103727153D01*
X82312528Y-103299466D01*
X82245200Y-103198702D01*
X82245200Y-102774100D01*
X83220000Y-102774100D01*
X83589366Y-102700629D01*
X83902499Y-102491399D01*
X84111729Y-102178266D01*
X84185200Y-101808900D01*
X84185200Y-101307566D01*
X84575000Y-101307566D01*
X84713748Y-101279967D01*
X84831373Y-101201373D01*
X84909967Y-101083748D01*
X84937566Y-100945000D01*
X84937566Y-98458500D01*
X85743434Y-98458500D01*
X85743434Y-100910040D01*
X85668315Y-100924982D01*
X85607033Y-100937171D01*
X85293900Y-101146401D01*
X83137501Y-103302801D01*
X82928271Y-103615934D01*
X82854800Y-103985300D01*
X82854800Y-106246702D01*
X82787472Y-106347466D01*
X82702400Y-106775153D01*
X82702400Y-107854847D01*
X82787472Y-108282534D01*
X83029737Y-108645110D01*
X83392313Y-108887375D01*
X83820000Y-108972447D01*
X84247687Y-108887375D01*
X84610263Y-108645110D01*
X84852528Y-108282534D01*
X84937600Y-107854847D01*
X84937600Y-106775153D01*
X84852528Y-106347466D01*
X84785200Y-106246702D01*
X84785200Y-104385098D01*
X85242400Y-103927898D01*
X85242400Y-104806847D01*
X85327472Y-105234534D01*
X85569737Y-105597110D01*
X85905499Y-105821459D01*
X85605658Y-106021806D01*
X85374405Y-106367901D01*
X85293200Y-106776148D01*
X85293200Y-107853852D01*
X85374405Y-108262099D01*
X85605658Y-108608194D01*
X85951753Y-108839447D01*
X86360000Y-108920652D01*
X86768247Y-108839447D01*
X87114342Y-108608194D01*
X87345595Y-108262099D01*
X87426800Y-107853852D01*
X87426800Y-106776148D01*
X87345595Y-106367901D01*
X87114342Y-106021806D01*
X86814501Y-105821459D01*
X87150263Y-105597110D01*
X87392528Y-105234534D01*
X87477600Y-104806847D01*
X87477600Y-103728148D01*
X87833200Y-103728148D01*
X87833200Y-104805852D01*
X87914405Y-105214099D01*
X88145658Y-105560194D01*
X88491084Y-105791000D01*
X88145658Y-106021806D01*
X87914405Y-106367901D01*
X87833200Y-106776148D01*
X87833200Y-107853852D01*
X87914405Y-108262099D01*
X88145658Y-108608194D01*
X88491753Y-108839447D01*
X88900000Y-108920652D01*
X89308247Y-108839447D01*
X89654342Y-108608194D01*
X89885595Y-108262099D01*
X89966800Y-107853852D01*
X89966800Y-106776148D01*
X89885595Y-106367901D01*
X89654342Y-106021806D01*
X89308916Y-105791000D01*
X89654342Y-105560194D01*
X89885595Y-105214099D01*
X89966800Y-104805852D01*
X89966800Y-103728148D01*
X90373200Y-103728148D01*
X90373200Y-104805852D01*
X90454405Y-105214099D01*
X90685658Y-105560194D01*
X91031084Y-105791000D01*
X90685658Y-106021806D01*
X90454405Y-106367901D01*
X90373200Y-106776148D01*
X90373200Y-107853852D01*
X90454405Y-108262099D01*
X90685658Y-108608194D01*
X91031753Y-108839447D01*
X91440000Y-108920652D01*
X91848247Y-108839447D01*
X92194342Y-108608194D01*
X92425595Y-108262099D01*
X92506800Y-107853852D01*
X92506800Y-106776148D01*
X92913200Y-106776148D01*
X92913200Y-107853852D01*
X92994405Y-108262099D01*
X93225658Y-108608194D01*
X93571753Y-108839447D01*
X93980000Y-108920652D01*
X94388247Y-108839447D01*
X94734342Y-108608194D01*
X94965595Y-108262099D01*
X95046800Y-107853852D01*
X95046800Y-106776148D01*
X95453200Y-106776148D01*
X95453200Y-107853852D01*
X95534405Y-108262099D01*
X95765658Y-108608194D01*
X96111753Y-108839447D01*
X96520000Y-108920652D01*
X96928247Y-108839447D01*
X97274342Y-108608194D01*
X97505595Y-108262099D01*
X97586800Y-107853852D01*
X97586800Y-106776148D01*
X97993200Y-106776148D01*
X97993200Y-107853852D01*
X98074405Y-108262099D01*
X98305658Y-108608194D01*
X98651753Y-108839447D01*
X99060000Y-108920652D01*
X99468247Y-108839447D01*
X99814342Y-108608194D01*
X100045595Y-108262099D01*
X100126800Y-107853852D01*
X100126800Y-106776148D01*
X100533200Y-106776148D01*
X100533200Y-107853852D01*
X100614405Y-108262099D01*
X100845658Y-108608194D01*
X101191753Y-108839447D01*
X101600000Y-108920652D01*
X102008247Y-108839447D01*
X102354342Y-108608194D01*
X102585595Y-108262099D01*
X102666800Y-107853852D01*
X102666800Y-106776148D01*
X103073200Y-106776148D01*
X103073200Y-107853852D01*
X103154405Y-108262099D01*
X103385658Y-108608194D01*
X103731753Y-108839447D01*
X104140000Y-108920652D01*
X104548247Y-108839447D01*
X104894342Y-108608194D01*
X105125595Y-108262099D01*
X105206800Y-107853852D01*
X105206800Y-106776148D01*
X105613200Y-106776148D01*
X105613200Y-107853852D01*
X105694405Y-108262099D01*
X105925658Y-108608194D01*
X106271753Y-108839447D01*
X106680000Y-108920652D01*
X107088247Y-108839447D01*
X107434342Y-108608194D01*
X107665595Y-108262099D01*
X107746800Y-107853852D01*
X107746800Y-106776148D01*
X108153200Y-106776148D01*
X108153200Y-107853852D01*
X108234405Y-108262099D01*
X108465658Y-108608194D01*
X108811753Y-108839447D01*
X109220000Y-108920652D01*
X109628247Y-108839447D01*
X109974342Y-108608194D01*
X110205595Y-108262099D01*
X110286800Y-107853852D01*
X110286800Y-106776148D01*
X110205595Y-106367901D01*
X109974342Y-106021806D01*
X109628247Y-105790553D01*
X109220000Y-105709348D01*
X108811753Y-105790553D01*
X108465658Y-106021806D01*
X108234405Y-106367901D01*
X108153200Y-106776148D01*
X107746800Y-106776148D01*
X107665595Y-106367901D01*
X107434342Y-106021806D01*
X107088247Y-105790553D01*
X106680000Y-105709348D01*
X106271753Y-105790553D01*
X105925658Y-106021806D01*
X105694405Y-106367901D01*
X105613200Y-106776148D01*
X105206800Y-106776148D01*
X105125595Y-106367901D01*
X104894342Y-106021806D01*
X104548247Y-105790553D01*
X104140000Y-105709348D01*
X103731753Y-105790553D01*
X103385658Y-106021806D01*
X103154405Y-106367901D01*
X103073200Y-106776148D01*
X102666800Y-106776148D01*
X102585595Y-106367901D01*
X102354342Y-106021806D01*
X102008247Y-105790553D01*
X101600000Y-105709348D01*
X101191753Y-105790553D01*
X100845658Y-106021806D01*
X100614405Y-106367901D01*
X100533200Y-106776148D01*
X100126800Y-106776148D01*
X100045595Y-106367901D01*
X99814342Y-106021806D01*
X99468247Y-105790553D01*
X99060000Y-105709348D01*
X98651753Y-105790553D01*
X98305658Y-106021806D01*
X98074405Y-106367901D01*
X97993200Y-106776148D01*
X97586800Y-106776148D01*
X97505595Y-106367901D01*
X97274342Y-106021806D01*
X96928247Y-105790553D01*
X96520000Y-105709348D01*
X96111753Y-105790553D01*
X95765658Y-106021806D01*
X95534405Y-106367901D01*
X95453200Y-106776148D01*
X95046800Y-106776148D01*
X94965595Y-106367901D01*
X94734342Y-106021806D01*
X94388247Y-105790553D01*
X93980000Y-105709348D01*
X93571753Y-105790553D01*
X93225658Y-106021806D01*
X92994405Y-106367901D01*
X92913200Y-106776148D01*
X92506800Y-106776148D01*
X92425595Y-106367901D01*
X92194342Y-106021806D01*
X91848916Y-105791000D01*
X92194342Y-105560194D01*
X92425595Y-105214099D01*
X92506800Y-104805852D01*
X92506800Y-103728148D01*
X92425595Y-103319901D01*
X92194342Y-102973806D01*
X91848247Y-102742553D01*
X91440000Y-102661348D01*
X91031753Y-102742553D01*
X90685658Y-102973806D01*
X90454405Y-103319901D01*
X90373200Y-103728148D01*
X89966800Y-103728148D01*
X89885595Y-103319901D01*
X89654342Y-102973806D01*
X89308247Y-102742553D01*
X88900000Y-102661348D01*
X88491753Y-102742553D01*
X88145658Y-102973806D01*
X87914405Y-103319901D01*
X87833200Y-103728148D01*
X87477600Y-103728148D01*
X87477600Y-103727153D01*
X87392528Y-103299466D01*
X87150263Y-102936890D01*
X86891700Y-102764124D01*
X87110366Y-102720629D01*
X87423499Y-102511399D01*
X87632729Y-102198266D01*
X87706200Y-101828900D01*
X87706200Y-101110882D01*
X87710967Y-101103748D01*
X87738566Y-100965000D01*
X87738566Y-100498550D01*
X87870534Y-100586729D01*
X88239900Y-100660200D01*
X88791434Y-100660200D01*
X88791434Y-100965000D01*
X88819033Y-101103748D01*
X88897627Y-101221373D01*
X89015252Y-101299967D01*
X89154000Y-101327566D01*
X90424000Y-101327566D01*
X90562748Y-101299967D01*
X90680373Y-101221373D01*
X90758967Y-101103748D01*
X90786566Y-100965000D01*
X90786566Y-100204470D01*
X92913200Y-102331104D01*
X92913200Y-103281852D01*
X92994405Y-103690099D01*
X93225658Y-104036194D01*
X93571753Y-104267447D01*
X93980000Y-104348652D01*
X94388247Y-104267447D01*
X94734342Y-104036194D01*
X94965595Y-103690099D01*
X95046800Y-103281852D01*
X95046800Y-102204148D01*
X94965595Y-101795901D01*
X94869978Y-101652800D01*
X95630022Y-101652800D01*
X95534405Y-101795901D01*
X95453200Y-102204148D01*
X95453200Y-103281852D01*
X95534405Y-103690099D01*
X95765658Y-104036194D01*
X96111753Y-104267447D01*
X96520000Y-104348652D01*
X96928247Y-104267447D01*
X97274342Y-104036194D01*
X97505595Y-103690099D01*
X97586800Y-103281852D01*
X97586800Y-102204148D01*
X97993200Y-102204148D01*
X97993200Y-103281852D01*
X98074405Y-103690099D01*
X98305658Y-104036194D01*
X98651753Y-104267447D01*
X99060000Y-104348652D01*
X99468247Y-104267447D01*
X99814342Y-104036194D01*
X100045595Y-103690099D01*
X100126800Y-103281852D01*
X100126800Y-102204148D01*
X100533200Y-102204148D01*
X100533200Y-103281852D01*
X100614405Y-103690099D01*
X100845658Y-104036194D01*
X101191753Y-104267447D01*
X101600000Y-104348652D01*
X102008247Y-104267447D01*
X102354342Y-104036194D01*
X102585595Y-103690099D01*
X102666800Y-103281852D01*
X102666800Y-102204148D01*
X102585595Y-101795901D01*
X102354342Y-101449806D01*
X102008247Y-101218553D01*
X101600000Y-101137348D01*
X101191753Y-101218553D01*
X100845658Y-101449806D01*
X100614405Y-101795901D01*
X100533200Y-102204148D01*
X100126800Y-102204148D01*
X100045595Y-101795901D01*
X99814342Y-101449806D01*
X99468247Y-101218553D01*
X99060000Y-101137348D01*
X98651753Y-101218553D01*
X98305658Y-101449806D01*
X98074405Y-101795901D01*
X97993200Y-102204148D01*
X97586800Y-102204148D01*
X97505595Y-101795901D01*
X97274342Y-101449806D01*
X97129600Y-101353093D01*
X97129600Y-101043200D01*
X97083197Y-100809916D01*
X96989883Y-100670263D01*
X97274342Y-100480194D01*
X97505595Y-100134099D01*
X97586800Y-99725852D01*
X97586800Y-98648148D01*
X97993200Y-98648148D01*
X97993200Y-99725852D01*
X98074405Y-100134099D01*
X98305658Y-100480194D01*
X98651753Y-100711447D01*
X99060000Y-100792652D01*
X99468247Y-100711447D01*
X99814342Y-100480194D01*
X100045595Y-100134099D01*
X100126800Y-99725852D01*
X100126800Y-98648148D01*
X100533200Y-98648148D01*
X100533200Y-99725852D01*
X100614405Y-100134099D01*
X100845658Y-100480194D01*
X101191753Y-100711447D01*
X101600000Y-100792652D01*
X102008247Y-100711447D01*
X102354342Y-100480194D01*
X102585595Y-100134099D01*
X102666800Y-99725852D01*
X102666800Y-98648148D01*
X102585595Y-98239901D01*
X102354342Y-97893806D01*
X102008247Y-97662553D01*
X101600000Y-97581348D01*
X101191753Y-97662553D01*
X100845658Y-97893806D01*
X100614405Y-98239901D01*
X100533200Y-98648148D01*
X100126800Y-98648148D01*
X100045595Y-98239901D01*
X99814342Y-97893806D01*
X99468247Y-97662553D01*
X99060000Y-97581348D01*
X98651753Y-97662553D01*
X98305658Y-97893806D01*
X98074405Y-98239901D01*
X97993200Y-98648148D01*
X97586800Y-98648148D01*
X97505595Y-98239901D01*
X97274342Y-97893806D01*
X96928247Y-97662553D01*
X96520000Y-97581348D01*
X96111753Y-97662553D01*
X95765658Y-97893806D01*
X95534405Y-98239901D01*
X95453200Y-98648148D01*
X95453200Y-99725852D01*
X95534405Y-100134099D01*
X95734525Y-100433600D01*
X94765475Y-100433600D01*
X94965595Y-100134099D01*
X95046800Y-99725852D01*
X95046800Y-98648148D01*
X94965595Y-98239901D01*
X94734342Y-97893806D01*
X94388247Y-97662553D01*
X93980000Y-97581348D01*
X93571753Y-97662553D01*
X93225658Y-97893806D01*
X92994405Y-98239901D01*
X92913200Y-98648148D01*
X92913200Y-99600596D01*
X92593800Y-99281196D01*
X92593800Y-98168800D01*
X92547397Y-97935516D01*
X92415252Y-97737748D01*
X91383852Y-96706348D01*
X91186084Y-96574203D01*
X90952800Y-96527800D01*
X76139400Y-96527800D01*
X75906116Y-96574203D01*
X75879926Y-96591703D01*
X75708348Y-96706347D01*
X73380941Y-99033755D01*
X73375595Y-99006877D01*
X73144342Y-98660782D01*
X72798247Y-98429529D01*
X72390000Y-98348324D01*
X71981753Y-98429529D01*
X71635658Y-98660782D01*
X71404405Y-99006877D01*
X71323200Y-99415124D01*
X71323200Y-99974876D01*
X71404405Y-100383123D01*
X71635658Y-100729218D01*
X71981753Y-100960471D01*
X72390000Y-101041676D01*
X72798247Y-100960471D01*
X73144342Y-100729218D01*
X73375595Y-100383123D01*
X73391214Y-100304600D01*
X73581800Y-100304600D01*
X73815084Y-100258197D01*
X74012852Y-100126052D01*
X76391905Y-97747000D01*
X77021295Y-97747000D01*
X74200548Y-100567748D01*
X74068403Y-100765516D01*
X74022000Y-100998800D01*
X74022000Y-102123896D01*
X73507600Y-102638296D01*
X73507600Y-102208129D01*
X73422528Y-101780442D01*
X73180263Y-101417866D01*
X72817687Y-101175601D01*
X72390000Y-101090529D01*
X71962313Y-101175601D01*
X71599737Y-101417866D01*
X71357472Y-101780442D01*
X71272400Y-102208129D01*
X71272400Y-102656296D01*
X70459600Y-101843496D01*
X70459600Y-100563345D01*
X70630218Y-100449342D01*
X70861471Y-100103247D01*
X70942676Y-99695000D01*
X70861471Y-99286753D01*
X70630218Y-98940658D01*
X70284123Y-98709405D01*
X69875876Y-98628200D01*
X69316124Y-98628200D01*
X68907877Y-98709405D01*
X68561782Y-98940658D01*
X68330529Y-99286753D01*
X68249324Y-99695000D01*
X60109100Y-99695000D01*
X60109100Y-96620129D01*
X71272400Y-96620129D01*
X71272400Y-97181871D01*
X71357472Y-97609558D01*
X71599737Y-97972134D01*
X71962313Y-98214399D01*
X72390000Y-98299471D01*
X72817687Y-98214399D01*
X73180263Y-97972134D01*
X73422528Y-97609558D01*
X73507600Y-97181871D01*
X73507600Y-96620129D01*
X73422528Y-96192442D01*
X73180263Y-95829866D01*
X72817687Y-95587601D01*
X72390000Y-95502529D01*
X71962313Y-95587601D01*
X71599737Y-95829866D01*
X71357472Y-96192442D01*
X71272400Y-96620129D01*
X60109100Y-96620129D01*
X60109100Y-94615000D01*
X60599467Y-94615000D01*
X60738676Y-95314851D01*
X61135110Y-95908157D01*
X61728416Y-96304591D01*
X62428267Y-96443800D01*
X64571733Y-96443800D01*
X65271584Y-96304591D01*
X65864890Y-95908157D01*
X66261324Y-95314851D01*
X66400533Y-94615000D01*
X66261324Y-93915149D01*
X65864890Y-93321843D01*
X65271584Y-92925409D01*
X64571733Y-92786200D01*
X62428267Y-92786200D01*
X61728416Y-92925409D01*
X61135110Y-93321843D01*
X60738676Y-93915149D01*
X60599467Y-94615000D01*
X60109100Y-94615000D01*
X60109100Y-90252171D01*
X64643000Y-90252171D01*
X64761927Y-90228515D01*
X64862748Y-90161148D01*
X64930115Y-90060327D01*
X64953771Y-89941400D01*
X64953771Y-88089437D01*
X65216934Y-88353061D01*
X65585556Y-88506126D01*
X65984693Y-88506474D01*
X66100117Y-88458781D01*
X66052874Y-88572556D01*
X66052526Y-88971693D01*
X66204948Y-89340581D01*
X66486934Y-89623061D01*
X66855556Y-89776126D01*
X67254693Y-89776474D01*
X67623581Y-89624052D01*
X67906061Y-89342066D01*
X68059126Y-88973444D01*
X68059474Y-88574307D01*
X67907052Y-88205419D01*
X67625066Y-87922939D01*
X67256444Y-87769874D01*
X66857307Y-87769526D01*
X66741883Y-87817219D01*
X66789126Y-87703444D01*
X66789474Y-87304307D01*
X66637052Y-86935419D01*
X66355066Y-86652939D01*
X65986444Y-86499874D01*
X65587307Y-86499526D01*
X65218419Y-86651948D01*
X64935939Y-86933934D01*
X64909496Y-86997615D01*
X64862748Y-86927652D01*
X64761927Y-86860285D01*
X64643000Y-86836629D01*
X60109100Y-86836629D01*
X60109100Y-85090000D01*
X65036400Y-85090000D01*
X65109871Y-85459366D01*
X65319101Y-85772499D01*
X65632234Y-85981729D01*
X66001600Y-86055200D01*
X66518091Y-86055200D01*
X66530533Y-86117748D01*
X66609127Y-86235373D01*
X66726752Y-86313967D01*
X66865500Y-86341566D01*
X71056500Y-86341566D01*
X71195248Y-86313967D01*
X71312873Y-86235373D01*
X71391467Y-86117748D01*
X71419066Y-85979000D01*
X71419066Y-84201000D01*
X71391467Y-84062252D01*
X71337996Y-83982227D01*
X71401811Y-83955794D01*
X71573294Y-83784311D01*
X71666100Y-83560257D01*
X71666100Y-82854800D01*
X71513700Y-82702400D01*
X69113400Y-82702400D01*
X69113400Y-82722400D01*
X68808600Y-82722400D01*
X68808600Y-82702400D01*
X66408300Y-82702400D01*
X66255900Y-82854800D01*
X66255900Y-83560257D01*
X66348706Y-83784311D01*
X66520189Y-83955794D01*
X66584004Y-83982227D01*
X66530533Y-84062252D01*
X66518091Y-84124800D01*
X66001600Y-84124800D01*
X65632234Y-84198271D01*
X65319101Y-84407501D01*
X65109871Y-84720634D01*
X65036400Y-85090000D01*
X60109100Y-85090000D01*
X60109100Y-81539743D01*
X66255900Y-81539743D01*
X66255900Y-82245200D01*
X66408300Y-82397600D01*
X68808600Y-82397600D01*
X68808600Y-81203800D01*
X69113400Y-81203800D01*
X69113400Y-82397600D01*
X71513700Y-82397600D01*
X71666100Y-82245200D01*
X71666100Y-81539743D01*
X71573294Y-81315689D01*
X71401811Y-81144206D01*
X71177757Y-81051400D01*
X69265800Y-81051400D01*
X69113400Y-81203800D01*
X68808600Y-81203800D01*
X68656200Y-81051400D01*
X66744243Y-81051400D01*
X66520189Y-81144206D01*
X66348706Y-81315689D01*
X66255900Y-81539743D01*
X60109100Y-81539743D01*
X60109100Y-80803371D01*
X64643000Y-80803371D01*
X64761927Y-80779715D01*
X64862748Y-80712348D01*
X64909343Y-80642614D01*
X64934948Y-80704581D01*
X65216934Y-80987061D01*
X65585556Y-81140126D01*
X65984693Y-81140474D01*
X66353581Y-80988052D01*
X66636061Y-80706066D01*
X66789126Y-80337444D01*
X66789474Y-79938307D01*
X66741781Y-79822883D01*
X66855556Y-79870126D01*
X67254693Y-79870474D01*
X67623581Y-79718052D01*
X67906061Y-79436066D01*
X68059126Y-79067444D01*
X68059474Y-78668307D01*
X67907052Y-78299419D01*
X67769645Y-78161771D01*
X68646040Y-78161771D01*
X68764967Y-78138115D01*
X68780190Y-78127943D01*
X68819603Y-78326084D01*
X68951748Y-78523852D01*
X75218800Y-84790904D01*
X75218800Y-93125400D01*
X75265203Y-93358684D01*
X75397348Y-93556452D01*
X77481748Y-95640852D01*
X77679516Y-95772997D01*
X77912800Y-95819400D01*
X95561500Y-95819400D01*
X95794784Y-95772997D01*
X95992552Y-95640852D01*
X98211552Y-93421852D01*
X98276532Y-93324603D01*
X98305658Y-93368194D01*
X98450400Y-93464907D01*
X98450400Y-93774800D01*
X98496803Y-94008084D01*
X98628948Y-94205852D01*
X98826716Y-94337997D01*
X99060000Y-94384400D01*
X100129496Y-94384400D01*
X111505139Y-105760043D01*
X111351753Y-105790553D01*
X111005658Y-106021806D01*
X110774405Y-106367901D01*
X110693200Y-106776148D01*
X110693200Y-107853852D01*
X110774405Y-108262099D01*
X111005658Y-108608194D01*
X111351753Y-108839447D01*
X111760000Y-108920652D01*
X112168247Y-108839447D01*
X112350600Y-108717603D01*
X112350600Y-108768600D01*
X112397003Y-109001884D01*
X112529148Y-109199652D01*
X123775547Y-120446052D01*
X123902169Y-120530658D01*
X123973316Y-120578197D01*
X124206600Y-120624600D01*
X150409036Y-120624600D01*
X150240553Y-120876753D01*
X150159348Y-121285000D01*
X150240553Y-121693247D01*
X150471806Y-122039342D01*
X150817901Y-122270595D01*
X151226148Y-122351800D01*
X152303852Y-122351800D01*
X152712099Y-122270595D01*
X153058194Y-122039342D01*
X153289447Y-121693247D01*
X153370652Y-121285000D01*
X153289447Y-120876753D01*
X153120964Y-120624600D01*
X165649036Y-120624600D01*
X165480553Y-120876753D01*
X165399348Y-121285000D01*
X165480553Y-121693247D01*
X165711806Y-122039342D01*
X166057901Y-122270595D01*
X166466148Y-122351800D01*
X167543852Y-122351800D01*
X167952099Y-122270595D01*
X168298194Y-122039342D01*
X168529447Y-121693247D01*
X168610652Y-121285000D01*
X168599164Y-121227243D01*
X175666400Y-121227243D01*
X175666400Y-123139200D01*
X175818800Y-123291600D01*
X177012600Y-123291600D01*
X177012600Y-120891300D01*
X176860200Y-120738900D01*
X176154743Y-120738900D01*
X175930689Y-120831706D01*
X175759206Y-121003189D01*
X175666400Y-121227243D01*
X168599164Y-121227243D01*
X168529447Y-120876753D01*
X168360964Y-120624600D01*
X172965789Y-120624600D01*
X172991001Y-120649856D01*
X173266301Y-120764170D01*
X173564391Y-120764430D01*
X173839890Y-120650596D01*
X174050856Y-120439999D01*
X174165170Y-120164699D01*
X174165430Y-119866609D01*
X174051596Y-119591110D01*
X173840999Y-119380144D01*
X173565699Y-119265830D01*
X173267609Y-119265570D01*
X172992110Y-119379404D01*
X172966068Y-119405400D01*
X168360964Y-119405400D01*
X168529447Y-119153247D01*
X168610652Y-118745000D01*
X168529447Y-118336753D01*
X168298194Y-117990658D01*
X167952099Y-117759405D01*
X167543852Y-117678200D01*
X166466148Y-117678200D01*
X166057901Y-117759405D01*
X165711806Y-117990658D01*
X165480553Y-118336753D01*
X165399348Y-118745000D01*
X165480553Y-119153247D01*
X165649036Y-119405400D01*
X153120964Y-119405400D01*
X153289447Y-119153247D01*
X153370652Y-118745000D01*
X153289447Y-118336753D01*
X153058194Y-117990658D01*
X152712099Y-117759405D01*
X152303852Y-117678200D01*
X151226148Y-117678200D01*
X150817901Y-117759405D01*
X150471806Y-117990658D01*
X150240553Y-118336753D01*
X150159348Y-118745000D01*
X150240553Y-119153247D01*
X150409036Y-119405400D01*
X124459105Y-119405400D01*
X113949475Y-108895771D01*
X115062000Y-108895771D01*
X115180927Y-108872115D01*
X115281748Y-108804748D01*
X115349115Y-108703927D01*
X115372771Y-108585000D01*
X115372771Y-106776148D01*
X115773200Y-106776148D01*
X115773200Y-107853852D01*
X115854405Y-108262099D01*
X116085658Y-108608194D01*
X116431753Y-108839447D01*
X116840000Y-108920652D01*
X117248247Y-108839447D01*
X117594342Y-108608194D01*
X117825595Y-108262099D01*
X117906800Y-107853852D01*
X117906800Y-106776148D01*
X117825595Y-106367901D01*
X117594342Y-106021806D01*
X117248247Y-105790553D01*
X116840000Y-105709348D01*
X116431753Y-105790553D01*
X116085658Y-106021806D01*
X115854405Y-106367901D01*
X115773200Y-106776148D01*
X115372771Y-106776148D01*
X115372771Y-106045000D01*
X115349115Y-105926073D01*
X115281748Y-105825252D01*
X115180927Y-105757885D01*
X115062000Y-105734229D01*
X113538000Y-105734229D01*
X113419073Y-105757885D01*
X113318252Y-105825252D01*
X113308761Y-105839457D01*
X112498704Y-105029400D01*
X118455096Y-105029400D01*
X119175685Y-105749989D01*
X118971753Y-105790553D01*
X118625658Y-106021806D01*
X118394405Y-106367901D01*
X118313200Y-106776148D01*
X118313200Y-107853852D01*
X118394405Y-108262099D01*
X118625658Y-108608194D01*
X118971753Y-108839447D01*
X119380000Y-108920652D01*
X119788247Y-108839447D01*
X119950539Y-108731007D01*
X119985603Y-108907284D01*
X120117748Y-109105052D01*
X126378648Y-115365953D01*
X126576416Y-115498097D01*
X126809700Y-115544500D01*
X150409103Y-115544500D01*
X150240553Y-115796753D01*
X150159348Y-116205000D01*
X150240553Y-116613247D01*
X150471806Y-116959342D01*
X150817901Y-117190595D01*
X151226148Y-117271800D01*
X152303852Y-117271800D01*
X152712099Y-117190595D01*
X153058194Y-116959342D01*
X153289447Y-116613247D01*
X153370652Y-116205000D01*
X153289447Y-115796753D01*
X153120897Y-115544500D01*
X165649103Y-115544500D01*
X165480553Y-115796753D01*
X165399348Y-116205000D01*
X165480553Y-116613247D01*
X165711806Y-116959342D01*
X166057901Y-117190595D01*
X166466148Y-117271800D01*
X167543852Y-117271800D01*
X167952099Y-117190595D01*
X168298194Y-116959342D01*
X168529447Y-116613247D01*
X168610652Y-116205000D01*
X168529447Y-115796753D01*
X168360897Y-115544500D01*
X175788589Y-115544500D01*
X175813801Y-115569756D01*
X176089101Y-115684070D01*
X176387191Y-115684330D01*
X176662690Y-115570496D01*
X176873656Y-115359899D01*
X176987970Y-115084599D01*
X176988230Y-114786509D01*
X176874396Y-114511010D01*
X176663799Y-114300044D01*
X176388499Y-114185730D01*
X176090409Y-114185470D01*
X175814910Y-114299304D01*
X175788868Y-114325300D01*
X168361031Y-114325300D01*
X168529447Y-114073247D01*
X168610652Y-113665000D01*
X168529447Y-113256753D01*
X168298194Y-112910658D01*
X167952099Y-112679405D01*
X167543852Y-112598200D01*
X166466148Y-112598200D01*
X166057901Y-112679405D01*
X165711806Y-112910658D01*
X165615093Y-113055400D01*
X159863404Y-113055400D01*
X153691952Y-106883948D01*
X153494184Y-106751803D01*
X153260900Y-106705400D01*
X153120964Y-106705400D01*
X153289447Y-106453247D01*
X153370652Y-106045000D01*
X153289447Y-105636753D01*
X153119093Y-105381800D01*
X156217496Y-105381800D01*
X159851747Y-109016052D01*
X159942407Y-109076629D01*
X160049516Y-109148197D01*
X160282800Y-109194600D01*
X165615093Y-109194600D01*
X165711806Y-109339342D01*
X166057901Y-109570595D01*
X166466148Y-109651800D01*
X167543852Y-109651800D01*
X167952099Y-109570595D01*
X168095200Y-109474978D01*
X168095200Y-110235022D01*
X167952099Y-110139405D01*
X167543852Y-110058200D01*
X166466148Y-110058200D01*
X166057901Y-110139405D01*
X165711806Y-110370658D01*
X165480553Y-110716753D01*
X165399348Y-111125000D01*
X165480553Y-111533247D01*
X165711806Y-111879342D01*
X166057901Y-112110595D01*
X166466148Y-112191800D01*
X167543852Y-112191800D01*
X167952099Y-112110595D01*
X168298194Y-111879342D01*
X168394907Y-111734600D01*
X168704800Y-111734600D01*
X168938084Y-111688197D01*
X169135852Y-111556052D01*
X169267997Y-111358284D01*
X169314400Y-111125000D01*
X169314400Y-108119600D01*
X169267997Y-107886316D01*
X169135852Y-107688548D01*
X168371852Y-106924548D01*
X168241331Y-106837336D01*
X168298194Y-106799342D01*
X168529447Y-106453247D01*
X168550023Y-106349800D01*
X170515400Y-106349800D01*
X170515400Y-108066257D01*
X170608206Y-108290311D01*
X170779689Y-108461794D01*
X171003743Y-108554600D01*
X173300200Y-108554600D01*
X173452600Y-108402200D01*
X173452600Y-106197400D01*
X170667800Y-106197400D01*
X170515400Y-106349800D01*
X168550023Y-106349800D01*
X168610652Y-106045000D01*
X168529447Y-105636753D01*
X168298194Y-105290658D01*
X167952099Y-105059405D01*
X167543852Y-104978200D01*
X166466148Y-104978200D01*
X166057901Y-105059405D01*
X165711806Y-105290658D01*
X165615093Y-105435400D01*
X165557704Y-105435400D01*
X163627304Y-103505000D01*
X165399348Y-103505000D01*
X165480553Y-103913247D01*
X165711806Y-104259342D01*
X166057901Y-104490595D01*
X166466148Y-104571800D01*
X167543852Y-104571800D01*
X167952099Y-104490595D01*
X168298194Y-104259342D01*
X168455616Y-104023743D01*
X170515400Y-104023743D01*
X170515400Y-105740200D01*
X170667800Y-105892600D01*
X173452600Y-105892600D01*
X173452600Y-103687800D01*
X173300200Y-103535400D01*
X171003743Y-103535400D01*
X170779689Y-103628206D01*
X170608206Y-103799689D01*
X170515400Y-104023743D01*
X168455616Y-104023743D01*
X168529447Y-103913247D01*
X168610652Y-103505000D01*
X168529447Y-103096753D01*
X168298194Y-102750658D01*
X167952099Y-102519405D01*
X167543852Y-102438200D01*
X166466148Y-102438200D01*
X166057901Y-102519405D01*
X165711806Y-102750658D01*
X165480553Y-103096753D01*
X165399348Y-103505000D01*
X163627304Y-103505000D01*
X161087304Y-100965000D01*
X165399348Y-100965000D01*
X165480553Y-101373247D01*
X165711806Y-101719342D01*
X166057901Y-101950595D01*
X166466148Y-102031800D01*
X167543852Y-102031800D01*
X167952099Y-101950595D01*
X168298194Y-101719342D01*
X168529447Y-101373247D01*
X168610652Y-100965000D01*
X168529447Y-100556753D01*
X168298194Y-100210658D01*
X167982623Y-99999800D01*
X170515400Y-99999800D01*
X170515400Y-101716257D01*
X170608206Y-101940311D01*
X170779689Y-102111794D01*
X171003743Y-102204600D01*
X173300200Y-102204600D01*
X173452600Y-102052200D01*
X173452600Y-99847400D01*
X170667800Y-99847400D01*
X170515400Y-99999800D01*
X167982623Y-99999800D01*
X167952099Y-99979405D01*
X167543852Y-99898200D01*
X166466148Y-99898200D01*
X166057901Y-99979405D01*
X165711806Y-100210658D01*
X165480553Y-100556753D01*
X165399348Y-100965000D01*
X161087304Y-100965000D01*
X158547304Y-98425000D01*
X165399348Y-98425000D01*
X165480553Y-98833247D01*
X165711806Y-99179342D01*
X166057901Y-99410595D01*
X166466148Y-99491800D01*
X167543852Y-99491800D01*
X167952099Y-99410595D01*
X168298194Y-99179342D01*
X168529447Y-98833247D01*
X168610652Y-98425000D01*
X168529447Y-98016753D01*
X168300256Y-97673743D01*
X170515400Y-97673743D01*
X170515400Y-99390200D01*
X170667800Y-99542600D01*
X173452600Y-99542600D01*
X173452600Y-97337800D01*
X173300200Y-97185400D01*
X171003743Y-97185400D01*
X170779689Y-97278206D01*
X170608206Y-97449689D01*
X170515400Y-97673743D01*
X168300256Y-97673743D01*
X168298194Y-97670658D01*
X167952099Y-97439405D01*
X167543852Y-97358200D01*
X166466148Y-97358200D01*
X166057901Y-97439405D01*
X165711806Y-97670658D01*
X165480553Y-98016753D01*
X165399348Y-98425000D01*
X158547304Y-98425000D01*
X156846152Y-96723848D01*
X156648384Y-96591703D01*
X156415100Y-96545300D01*
X153121031Y-96545300D01*
X153289447Y-96293247D01*
X153370652Y-95885000D01*
X165399348Y-95885000D01*
X165480553Y-96293247D01*
X165711806Y-96639342D01*
X166057901Y-96870595D01*
X166466148Y-96951800D01*
X167543852Y-96951800D01*
X167952099Y-96870595D01*
X168298194Y-96639342D01*
X168529447Y-96293247D01*
X168610652Y-95885000D01*
X168529447Y-95476753D01*
X168298194Y-95130658D01*
X167952099Y-94899405D01*
X167543852Y-94818200D01*
X166466148Y-94818200D01*
X166057901Y-94899405D01*
X165711806Y-95130658D01*
X165480553Y-95476753D01*
X165399348Y-95885000D01*
X153370652Y-95885000D01*
X153289447Y-95476753D01*
X153058194Y-95130658D01*
X152712099Y-94899405D01*
X152303852Y-94818200D01*
X151226148Y-94818200D01*
X150817901Y-94899405D01*
X150471806Y-95130658D01*
X150240553Y-95476753D01*
X150159348Y-95885000D01*
X150240553Y-96293247D01*
X150408969Y-96545300D01*
X147520604Y-96545300D01*
X144320304Y-93345000D01*
X150159348Y-93345000D01*
X150240553Y-93753247D01*
X150471806Y-94099342D01*
X150817901Y-94330595D01*
X151226148Y-94411800D01*
X152303852Y-94411800D01*
X152712099Y-94330595D01*
X153058194Y-94099342D01*
X153289447Y-93753247D01*
X153370652Y-93345000D01*
X165399348Y-93345000D01*
X165480553Y-93753247D01*
X165711806Y-94099342D01*
X166057901Y-94330595D01*
X166466148Y-94411800D01*
X167543852Y-94411800D01*
X167952099Y-94330595D01*
X168298194Y-94099342D01*
X168529447Y-93753247D01*
X168550023Y-93649800D01*
X170515400Y-93649800D01*
X170515400Y-95366257D01*
X170608206Y-95590311D01*
X170779689Y-95761794D01*
X171003743Y-95854600D01*
X173300200Y-95854600D01*
X173452600Y-95702200D01*
X173452600Y-93497400D01*
X170667800Y-93497400D01*
X170515400Y-93649800D01*
X168550023Y-93649800D01*
X168610652Y-93345000D01*
X168529447Y-92936753D01*
X168298194Y-92590658D01*
X167952099Y-92359405D01*
X167543852Y-92278200D01*
X166466148Y-92278200D01*
X166057901Y-92359405D01*
X165711806Y-92590658D01*
X165480553Y-92936753D01*
X165399348Y-93345000D01*
X153370652Y-93345000D01*
X153289447Y-92936753D01*
X153058194Y-92590658D01*
X152712099Y-92359405D01*
X152303852Y-92278200D01*
X151226148Y-92278200D01*
X150817901Y-92359405D01*
X150471806Y-92590658D01*
X150240553Y-92936753D01*
X150159348Y-93345000D01*
X144320304Y-93345000D01*
X141119904Y-90144600D01*
X150409036Y-90144600D01*
X150240553Y-90396753D01*
X150159348Y-90805000D01*
X150240553Y-91213247D01*
X150471806Y-91559342D01*
X150817901Y-91790595D01*
X151226148Y-91871800D01*
X152303852Y-91871800D01*
X152712099Y-91790595D01*
X153058194Y-91559342D01*
X153289447Y-91213247D01*
X153370652Y-90805000D01*
X153289447Y-90396753D01*
X153120964Y-90144600D01*
X165649036Y-90144600D01*
X165480553Y-90396753D01*
X165399348Y-90805000D01*
X165480553Y-91213247D01*
X165711806Y-91559342D01*
X166057901Y-91790595D01*
X166466148Y-91871800D01*
X167543852Y-91871800D01*
X167952099Y-91790595D01*
X168298194Y-91559342D01*
X168455616Y-91323743D01*
X170515400Y-91323743D01*
X170515400Y-93040200D01*
X170667800Y-93192600D01*
X173452600Y-93192600D01*
X173452600Y-90987800D01*
X173300200Y-90835400D01*
X171003743Y-90835400D01*
X170779689Y-90928206D01*
X170608206Y-91099689D01*
X170515400Y-91323743D01*
X168455616Y-91323743D01*
X168529447Y-91213247D01*
X168610652Y-90805000D01*
X168529447Y-90396753D01*
X168360964Y-90144600D01*
X175197289Y-90144600D01*
X175222501Y-90169856D01*
X175497801Y-90284170D01*
X175795891Y-90284430D01*
X176071390Y-90170596D01*
X176282356Y-89959999D01*
X176396670Y-89684699D01*
X176396930Y-89386609D01*
X176283096Y-89111110D01*
X176072499Y-88900144D01*
X175797199Y-88785830D01*
X175499109Y-88785570D01*
X175223610Y-88899404D01*
X175197568Y-88925400D01*
X168360964Y-88925400D01*
X168529447Y-88673247D01*
X168610652Y-88265000D01*
X168529447Y-87856753D01*
X168360964Y-87604600D01*
X175601089Y-87604600D01*
X175626301Y-87629856D01*
X175901601Y-87744170D01*
X176199691Y-87744430D01*
X176439800Y-87645219D01*
X176439800Y-90937695D01*
X176430311Y-90928206D01*
X176206257Y-90835400D01*
X173909800Y-90835400D01*
X173757400Y-90987800D01*
X173757400Y-93192600D01*
X173777400Y-93192600D01*
X173777400Y-93497400D01*
X173757400Y-93497400D01*
X173757400Y-95702200D01*
X173909800Y-95854600D01*
X176206257Y-95854600D01*
X176430311Y-95761794D01*
X176601794Y-95590311D01*
X176634739Y-95510774D01*
X176685000Y-95520771D01*
X178125000Y-95520771D01*
X178243927Y-95497115D01*
X178344748Y-95429748D01*
X178412115Y-95328927D01*
X178435771Y-95210000D01*
X178435771Y-93610000D01*
X178412115Y-93491073D01*
X178370200Y-93428343D01*
X178370200Y-93261657D01*
X178412115Y-93198927D01*
X178435771Y-93080000D01*
X178435771Y-91480000D01*
X178412115Y-91361073D01*
X178370200Y-91298343D01*
X178370200Y-80713177D01*
X178466901Y-80857899D01*
X178780034Y-81067129D01*
X179149400Y-81140600D01*
X179518766Y-81067129D01*
X179831899Y-80857899D01*
X180041129Y-80544766D01*
X180114600Y-80175400D01*
X180114600Y-79860799D01*
X180387499Y-79587900D01*
X180596729Y-79274766D01*
X180630090Y-79107048D01*
X180670200Y-78905400D01*
X180670200Y-78388909D01*
X180732748Y-78376467D01*
X180850373Y-78297873D01*
X180928967Y-78180248D01*
X180956566Y-78041500D01*
X180956566Y-73850500D01*
X180928967Y-73711752D01*
X180850373Y-73594127D01*
X180732748Y-73515533D01*
X180594000Y-73487934D01*
X178816000Y-73487934D01*
X178677252Y-73515533D01*
X178559627Y-73594127D01*
X178481033Y-73711752D01*
X178453434Y-73850500D01*
X178453434Y-78041500D01*
X178481033Y-78180248D01*
X178559627Y-78297873D01*
X178677252Y-78376467D01*
X178739800Y-78388909D01*
X178739800Y-78505602D01*
X178466901Y-78778501D01*
X178336145Y-78974191D01*
X178299294Y-78788930D01*
X178296729Y-78776033D01*
X178130200Y-78526806D01*
X178130200Y-78388909D01*
X178192748Y-78376467D01*
X178310373Y-78297873D01*
X178388967Y-78180248D01*
X178416566Y-78041500D01*
X178416566Y-73850500D01*
X178388967Y-73711752D01*
X178310373Y-73594127D01*
X178192748Y-73515533D01*
X178054000Y-73487934D01*
X176276000Y-73487934D01*
X176137252Y-73515533D01*
X176019627Y-73594127D01*
X175941033Y-73711752D01*
X175913434Y-73850500D01*
X175913434Y-78041500D01*
X175941033Y-78180248D01*
X176019627Y-78297873D01*
X176137252Y-78376467D01*
X176199800Y-78388909D01*
X176199800Y-78905400D01*
X176239910Y-79107048D01*
X176273271Y-79274766D01*
X176439800Y-79523993D01*
X176439800Y-86344988D01*
X176200999Y-86245830D01*
X175902909Y-86245570D01*
X175627410Y-86359404D01*
X175601368Y-86385400D01*
X168360964Y-86385400D01*
X168529447Y-86133247D01*
X168610652Y-85725000D01*
X168529447Y-85316753D01*
X168360964Y-85064600D01*
X170624300Y-85064600D01*
X170857584Y-85018197D01*
X171055352Y-84886052D01*
X175070605Y-80870799D01*
X175106291Y-80870830D01*
X175381790Y-80756996D01*
X175592756Y-80546399D01*
X175707070Y-80271099D01*
X175707330Y-79973009D01*
X175593496Y-79697510D01*
X175382899Y-79486544D01*
X175107599Y-79372230D01*
X174809509Y-79371970D01*
X174534010Y-79485804D01*
X174323044Y-79696401D01*
X174208730Y-79971701D01*
X174208698Y-80008498D01*
X170371796Y-83845400D01*
X168360964Y-83845400D01*
X168529447Y-83593247D01*
X168610652Y-83185000D01*
X168529447Y-82776753D01*
X168298194Y-82430658D01*
X167952099Y-82199405D01*
X167543852Y-82118200D01*
X166466148Y-82118200D01*
X166057901Y-82199405D01*
X165711806Y-82430658D01*
X165480553Y-82776753D01*
X165399348Y-83185000D01*
X165480553Y-83593247D01*
X165649036Y-83845400D01*
X153120964Y-83845400D01*
X153289447Y-83593247D01*
X153370652Y-83185000D01*
X153289447Y-82776753D01*
X153122835Y-82527400D01*
X164032400Y-82527400D01*
X164265684Y-82480997D01*
X164463452Y-82348852D01*
X165557704Y-81254600D01*
X165615093Y-81254600D01*
X165711806Y-81399342D01*
X166057901Y-81630595D01*
X166466148Y-81711800D01*
X167543852Y-81711800D01*
X167952099Y-81630595D01*
X168298194Y-81399342D01*
X168529447Y-81053247D01*
X168610652Y-80645000D01*
X168529447Y-80236753D01*
X168298194Y-79890658D01*
X167952099Y-79659405D01*
X167543852Y-79578200D01*
X166466148Y-79578200D01*
X166057901Y-79659405D01*
X165711806Y-79890658D01*
X165615093Y-80035400D01*
X165305200Y-80035400D01*
X165071916Y-80081803D01*
X164874148Y-80213948D01*
X163779896Y-81308200D01*
X153119093Y-81308200D01*
X153289447Y-81053247D01*
X153370652Y-80645000D01*
X153289447Y-80236753D01*
X153120964Y-79984600D01*
X164035200Y-79984600D01*
X164268484Y-79938197D01*
X164466252Y-79806052D01*
X165557704Y-78714600D01*
X165615093Y-78714600D01*
X165711806Y-78859342D01*
X166057901Y-79090595D01*
X166466148Y-79171800D01*
X167543852Y-79171800D01*
X167952099Y-79090595D01*
X168298194Y-78859342D01*
X168529447Y-78513247D01*
X168610652Y-78105000D01*
X168529447Y-77696753D01*
X168340742Y-77414335D01*
X168559966Y-77370729D01*
X168873099Y-77161499D01*
X169082329Y-76848366D01*
X169155800Y-76479000D01*
X169082329Y-76109634D01*
X168873099Y-75796501D01*
X168559966Y-75587271D01*
X168190600Y-75513800D01*
X135286500Y-75513800D01*
X134928536Y-75585003D01*
X134917134Y-75587271D01*
X134604001Y-75796500D01*
X133332002Y-77068500D01*
X112101922Y-77068500D01*
X112182270Y-76874999D01*
X112182302Y-76838203D01*
X112191052Y-76829453D01*
X112323197Y-76631684D01*
X112334092Y-76576909D01*
X112369600Y-76398400D01*
X112369600Y-70634556D01*
X112631085Y-70459837D01*
X112898127Y-70060180D01*
X112991900Y-69588752D01*
X112991900Y-68841248D01*
X113068100Y-68841248D01*
X113068100Y-69588752D01*
X113161873Y-70060180D01*
X113428915Y-70459837D01*
X113828572Y-70726879D01*
X114300000Y-70820652D01*
X114771428Y-70726879D01*
X115171085Y-70459837D01*
X115438127Y-70060180D01*
X115531900Y-69588752D01*
X115531900Y-68841248D01*
X115608100Y-68841248D01*
X115608100Y-69588752D01*
X115701873Y-70060180D01*
X115968915Y-70459837D01*
X116368572Y-70726879D01*
X116840000Y-70820652D01*
X117311428Y-70726879D01*
X117418339Y-70655443D01*
X123342147Y-76579252D01*
X123431339Y-76638848D01*
X123539916Y-76711397D01*
X123773200Y-76757800D01*
X130281589Y-76757800D01*
X130306801Y-76783056D01*
X130582101Y-76897370D01*
X130880191Y-76897630D01*
X131155690Y-76783796D01*
X131366656Y-76573199D01*
X131480970Y-76297899D01*
X131481230Y-75999809D01*
X131367396Y-75724310D01*
X131156799Y-75513344D01*
X130881499Y-75399030D01*
X130583409Y-75398770D01*
X130307910Y-75512604D01*
X130281868Y-75538600D01*
X124025705Y-75538600D01*
X119289818Y-70802714D01*
X119380000Y-70820652D01*
X119851428Y-70726879D01*
X120251085Y-70459837D01*
X120518127Y-70060180D01*
X120611900Y-69588752D01*
X120611900Y-68841248D01*
X120688100Y-68841248D01*
X120688100Y-69588752D01*
X120781873Y-70060180D01*
X121048915Y-70459837D01*
X121448572Y-70726879D01*
X121920000Y-70820652D01*
X122391428Y-70726879D01*
X122791085Y-70459837D01*
X123058127Y-70060180D01*
X123151900Y-69588752D01*
X123151900Y-68841248D01*
X123228100Y-68841248D01*
X123228100Y-69588752D01*
X123321873Y-70060180D01*
X123588915Y-70459837D01*
X123988572Y-70726879D01*
X124460000Y-70820652D01*
X124931428Y-70726879D01*
X125331085Y-70459837D01*
X125598127Y-70060180D01*
X125691900Y-69588752D01*
X125691900Y-68841248D01*
X125768100Y-68841248D01*
X125768100Y-69588752D01*
X125861873Y-70060180D01*
X126128915Y-70459837D01*
X126528572Y-70726879D01*
X127000000Y-70820652D01*
X127471428Y-70726879D01*
X127871085Y-70459837D01*
X128138127Y-70060180D01*
X128231900Y-69588752D01*
X128231900Y-68841248D01*
X128308100Y-68841248D01*
X128308100Y-69588752D01*
X128401873Y-70060180D01*
X128668915Y-70459837D01*
X129068572Y-70726879D01*
X129540000Y-70820652D01*
X130011428Y-70726879D01*
X130411085Y-70459837D01*
X130678127Y-70060180D01*
X130771900Y-69588752D01*
X130771900Y-68841248D01*
X130848100Y-68841248D01*
X130848100Y-69588752D01*
X130941873Y-70060180D01*
X131208915Y-70459837D01*
X131608572Y-70726879D01*
X132080000Y-70820652D01*
X132551428Y-70726879D01*
X132951085Y-70459837D01*
X133218127Y-70060180D01*
X133311900Y-69588752D01*
X133311900Y-68841248D01*
X133388100Y-68841248D01*
X133388100Y-69588752D01*
X133481873Y-70060180D01*
X133748915Y-70459837D01*
X134148572Y-70726879D01*
X134620000Y-70820652D01*
X135091428Y-70726879D01*
X135491085Y-70459837D01*
X135758127Y-70060180D01*
X135851900Y-69588752D01*
X135851900Y-68841248D01*
X135928100Y-68841248D01*
X135928100Y-69588752D01*
X136021873Y-70060180D01*
X136288915Y-70459837D01*
X136688572Y-70726879D01*
X137160000Y-70820652D01*
X137631428Y-70726879D01*
X138031085Y-70459837D01*
X138298127Y-70060180D01*
X138384197Y-69627477D01*
X138886840Y-69627477D01*
X139203259Y-70393270D01*
X139788648Y-70979682D01*
X140553888Y-71297437D01*
X141382477Y-71298160D01*
X142148270Y-70981741D01*
X142734682Y-70396352D01*
X143052437Y-69631112D01*
X143053160Y-68802523D01*
X142736741Y-68036730D01*
X142151352Y-67450318D01*
X141386112Y-67132563D01*
X140557523Y-67131840D01*
X139791730Y-67448259D01*
X139205318Y-68033648D01*
X138887563Y-68798888D01*
X138886840Y-69627477D01*
X138384197Y-69627477D01*
X138391900Y-69588752D01*
X138391900Y-68841248D01*
X138298127Y-68369820D01*
X138031085Y-67970163D01*
X137631428Y-67703121D01*
X137160000Y-67609348D01*
X136688572Y-67703121D01*
X136288915Y-67970163D01*
X136021873Y-68369820D01*
X135928100Y-68841248D01*
X135851900Y-68841248D01*
X135758127Y-68369820D01*
X135491085Y-67970163D01*
X135091428Y-67703121D01*
X134620000Y-67609348D01*
X134148572Y-67703121D01*
X133748915Y-67970163D01*
X133481873Y-68369820D01*
X133388100Y-68841248D01*
X133311900Y-68841248D01*
X133218127Y-68369820D01*
X132951085Y-67970163D01*
X132551428Y-67703121D01*
X132080000Y-67609348D01*
X131608572Y-67703121D01*
X131208915Y-67970163D01*
X130941873Y-68369820D01*
X130848100Y-68841248D01*
X130771900Y-68841248D01*
X130678127Y-68369820D01*
X130411085Y-67970163D01*
X130011428Y-67703121D01*
X129540000Y-67609348D01*
X129068572Y-67703121D01*
X128668915Y-67970163D01*
X128401873Y-68369820D01*
X128308100Y-68841248D01*
X128231900Y-68841248D01*
X128138127Y-68369820D01*
X127871085Y-67970163D01*
X127471428Y-67703121D01*
X127000000Y-67609348D01*
X126528572Y-67703121D01*
X126128915Y-67970163D01*
X125861873Y-68369820D01*
X125768100Y-68841248D01*
X125691900Y-68841248D01*
X125598127Y-68369820D01*
X125331085Y-67970163D01*
X124931428Y-67703121D01*
X124460000Y-67609348D01*
X123988572Y-67703121D01*
X123588915Y-67970163D01*
X123321873Y-68369820D01*
X123228100Y-68841248D01*
X123151900Y-68841248D01*
X123058127Y-68369820D01*
X122791085Y-67970163D01*
X122391428Y-67703121D01*
X121920000Y-67609348D01*
X121448572Y-67703121D01*
X121048915Y-67970163D01*
X120781873Y-68369820D01*
X120688100Y-68841248D01*
X120611900Y-68841248D01*
X120518127Y-68369820D01*
X120251085Y-67970163D01*
X119851428Y-67703121D01*
X119380000Y-67609348D01*
X118908572Y-67703121D01*
X118508915Y-67970163D01*
X118241873Y-68369820D01*
X118148100Y-68841248D01*
X118148100Y-69588752D01*
X118166038Y-69678934D01*
X118071900Y-69584796D01*
X118071900Y-68841248D01*
X117978127Y-68369820D01*
X117711085Y-67970163D01*
X117311428Y-67703121D01*
X116840000Y-67609348D01*
X116368572Y-67703121D01*
X115968915Y-67970163D01*
X115701873Y-68369820D01*
X115608100Y-68841248D01*
X115531900Y-68841248D01*
X115438127Y-68369820D01*
X115171085Y-67970163D01*
X114771428Y-67703121D01*
X114300000Y-67609348D01*
X113828572Y-67703121D01*
X113428915Y-67970163D01*
X113161873Y-68369820D01*
X113068100Y-68841248D01*
X112991900Y-68841248D01*
X112898127Y-68369820D01*
X112631085Y-67970163D01*
X112231428Y-67703121D01*
X111760000Y-67609348D01*
X111288572Y-67703121D01*
X110888915Y-67970163D01*
X110621873Y-68369820D01*
X110528100Y-68841248D01*
X110528100Y-69588752D01*
X110621873Y-70060180D01*
X110888915Y-70459837D01*
X111150400Y-70634556D01*
X111150400Y-76031365D01*
X111009210Y-76089704D01*
X110798244Y-76300301D01*
X110683930Y-76575601D01*
X110683670Y-76873691D01*
X110764164Y-77068500D01*
X108851300Y-77068500D01*
X108956770Y-76814499D01*
X108957030Y-76516409D01*
X108843196Y-76240910D01*
X108817200Y-76214868D01*
X108817200Y-72179704D01*
X109651052Y-71345852D01*
X109783197Y-71148084D01*
X109829600Y-70914800D01*
X109829600Y-70634556D01*
X110091085Y-70459837D01*
X110358127Y-70060180D01*
X110451900Y-69588752D01*
X110451900Y-68841248D01*
X110358127Y-68369820D01*
X110091085Y-67970163D01*
X109691428Y-67703121D01*
X109220000Y-67609348D01*
X108748572Y-67703121D01*
X108348915Y-67970163D01*
X108081873Y-68369820D01*
X107988100Y-68841248D01*
X107988100Y-69588752D01*
X108081873Y-70060180D01*
X108348915Y-70459837D01*
X108610400Y-70634556D01*
X108610400Y-70662296D01*
X107776548Y-71496148D01*
X107644403Y-71693916D01*
X107598000Y-71927200D01*
X107598000Y-76214589D01*
X107572744Y-76239801D01*
X107458430Y-76515101D01*
X107458170Y-76813191D01*
X107563662Y-77068500D01*
X81471899Y-77068500D01*
X81081600Y-76678202D01*
X81081600Y-72725300D01*
X81008129Y-72355934D01*
X80952514Y-72272701D01*
X80798900Y-72042801D01*
X79705200Y-70949102D01*
X79705200Y-70409659D01*
X79925060Y-70080615D01*
X80022700Y-69589747D01*
X80022700Y-68841248D01*
X80048100Y-68841248D01*
X80048100Y-69588752D01*
X80141873Y-70060180D01*
X80408915Y-70459837D01*
X80808572Y-70726879D01*
X81280000Y-70820652D01*
X81751428Y-70726879D01*
X82151085Y-70459837D01*
X82418127Y-70060180D01*
X82511900Y-69588752D01*
X82511900Y-68841248D01*
X82588100Y-68841248D01*
X82588100Y-69588752D01*
X82681873Y-70060180D01*
X82948915Y-70459837D01*
X83348572Y-70726879D01*
X83820000Y-70820652D01*
X84291428Y-70726879D01*
X84691085Y-70459837D01*
X84958127Y-70060180D01*
X85051900Y-69588752D01*
X85051900Y-68841248D01*
X85128100Y-68841248D01*
X85128100Y-69588752D01*
X85221873Y-70060180D01*
X85488915Y-70459837D01*
X85888572Y-70726879D01*
X86360000Y-70820652D01*
X86831428Y-70726879D01*
X87231085Y-70459837D01*
X87498127Y-70060180D01*
X87591900Y-69588752D01*
X87591900Y-68841248D01*
X87668100Y-68841248D01*
X87668100Y-69588752D01*
X87761873Y-70060180D01*
X88028915Y-70459837D01*
X88428572Y-70726879D01*
X88900000Y-70820652D01*
X89371428Y-70726879D01*
X89771085Y-70459837D01*
X90038127Y-70060180D01*
X90131900Y-69588752D01*
X90131900Y-68841248D01*
X90208100Y-68841248D01*
X90208100Y-69588752D01*
X90301873Y-70060180D01*
X90568915Y-70459837D01*
X90968572Y-70726879D01*
X91440000Y-70820652D01*
X91911428Y-70726879D01*
X92311085Y-70459837D01*
X92578127Y-70060180D01*
X92671900Y-69588752D01*
X92671900Y-68841248D01*
X92748100Y-68841248D01*
X92748100Y-69588752D01*
X92841873Y-70060180D01*
X93108915Y-70459837D01*
X93370400Y-70634556D01*
X93370400Y-70662296D01*
X93247248Y-70785448D01*
X93115103Y-70983216D01*
X93068700Y-71216500D01*
X93068700Y-72247489D01*
X93043444Y-72272701D01*
X92929130Y-72548001D01*
X92928870Y-72846091D01*
X93042704Y-73121590D01*
X93253301Y-73332556D01*
X93528601Y-73446870D01*
X93826691Y-73447130D01*
X94102190Y-73333296D01*
X94313156Y-73122699D01*
X94427470Y-72847399D01*
X94427730Y-72549309D01*
X94313896Y-72273810D01*
X94287900Y-72247768D01*
X94287900Y-71469004D01*
X94411052Y-71345852D01*
X94543197Y-71148084D01*
X94547481Y-71126547D01*
X94589600Y-70914800D01*
X94589600Y-70634556D01*
X94851085Y-70459837D01*
X95118127Y-70060180D01*
X95211900Y-69588752D01*
X95211900Y-68841248D01*
X95288100Y-68841248D01*
X95288100Y-69588752D01*
X95381873Y-70060180D01*
X95648915Y-70459837D01*
X96048572Y-70726879D01*
X96520000Y-70820652D01*
X96991428Y-70726879D01*
X97391085Y-70459837D01*
X97658127Y-70060180D01*
X97751900Y-69588752D01*
X97751900Y-68841248D01*
X97828100Y-68841248D01*
X97828100Y-69588752D01*
X97921873Y-70060180D01*
X98188915Y-70459837D01*
X98588572Y-70726879D01*
X99060000Y-70820652D01*
X99531428Y-70726879D01*
X99931085Y-70459837D01*
X100198127Y-70060180D01*
X100291900Y-69588752D01*
X100291900Y-68841248D01*
X100368100Y-68841248D01*
X100368100Y-69588752D01*
X100461873Y-70060180D01*
X100728915Y-70459837D01*
X101128572Y-70726879D01*
X101600000Y-70820652D01*
X102071428Y-70726879D01*
X102471085Y-70459837D01*
X102738127Y-70060180D01*
X102831900Y-69588752D01*
X102831900Y-68841248D01*
X102908100Y-68841248D01*
X102908100Y-69588752D01*
X103001873Y-70060180D01*
X103268915Y-70459837D01*
X103668572Y-70726879D01*
X104140000Y-70820652D01*
X104611428Y-70726879D01*
X105011085Y-70459837D01*
X105278127Y-70060180D01*
X105371900Y-69588752D01*
X105371900Y-68841248D01*
X105448100Y-68841248D01*
X105448100Y-69588752D01*
X105541873Y-70060180D01*
X105808915Y-70459837D01*
X106208572Y-70726879D01*
X106680000Y-70820652D01*
X107151428Y-70726879D01*
X107551085Y-70459837D01*
X107818127Y-70060180D01*
X107911900Y-69588752D01*
X107911900Y-68841248D01*
X107818127Y-68369820D01*
X107551085Y-67970163D01*
X107151428Y-67703121D01*
X106680000Y-67609348D01*
X106208572Y-67703121D01*
X105808915Y-67970163D01*
X105541873Y-68369820D01*
X105448100Y-68841248D01*
X105371900Y-68841248D01*
X105278127Y-68369820D01*
X105011085Y-67970163D01*
X104611428Y-67703121D01*
X104140000Y-67609348D01*
X103668572Y-67703121D01*
X103268915Y-67970163D01*
X103001873Y-68369820D01*
X102908100Y-68841248D01*
X102831900Y-68841248D01*
X102738127Y-68369820D01*
X102471085Y-67970163D01*
X102071428Y-67703121D01*
X101600000Y-67609348D01*
X101128572Y-67703121D01*
X100728915Y-67970163D01*
X100461873Y-68369820D01*
X100368100Y-68841248D01*
X100291900Y-68841248D01*
X100198127Y-68369820D01*
X99931085Y-67970163D01*
X99531428Y-67703121D01*
X99060000Y-67609348D01*
X98588572Y-67703121D01*
X98188915Y-67970163D01*
X97921873Y-68369820D01*
X97828100Y-68841248D01*
X97751900Y-68841248D01*
X97658127Y-68369820D01*
X97391085Y-67970163D01*
X96991428Y-67703121D01*
X96520000Y-67609348D01*
X96048572Y-67703121D01*
X95648915Y-67970163D01*
X95381873Y-68369820D01*
X95288100Y-68841248D01*
X95211900Y-68841248D01*
X95118127Y-68369820D01*
X94851085Y-67970163D01*
X94451428Y-67703121D01*
X93980000Y-67609348D01*
X93508572Y-67703121D01*
X93108915Y-67970163D01*
X92841873Y-68369820D01*
X92748100Y-68841248D01*
X92671900Y-68841248D01*
X92578127Y-68369820D01*
X92311085Y-67970163D01*
X91911428Y-67703121D01*
X91440000Y-67609348D01*
X90968572Y-67703121D01*
X90568915Y-67970163D01*
X90301873Y-68369820D01*
X90208100Y-68841248D01*
X90131900Y-68841248D01*
X90038127Y-68369820D01*
X89771085Y-67970163D01*
X89371428Y-67703121D01*
X88900000Y-67609348D01*
X88428572Y-67703121D01*
X88028915Y-67970163D01*
X87761873Y-68369820D01*
X87668100Y-68841248D01*
X87591900Y-68841248D01*
X87498127Y-68369820D01*
X87231085Y-67970163D01*
X86831428Y-67703121D01*
X86360000Y-67609348D01*
X85888572Y-67703121D01*
X85488915Y-67970163D01*
X85221873Y-68369820D01*
X85128100Y-68841248D01*
X85051900Y-68841248D01*
X84958127Y-68369820D01*
X84691085Y-67970163D01*
X84291428Y-67703121D01*
X83820000Y-67609348D01*
X83348572Y-67703121D01*
X82948915Y-67970163D01*
X82681873Y-68369820D01*
X82588100Y-68841248D01*
X82511900Y-68841248D01*
X82418127Y-68369820D01*
X82151085Y-67970163D01*
X81751428Y-67703121D01*
X81280000Y-67609348D01*
X80808572Y-67703121D01*
X80408915Y-67970163D01*
X80141873Y-68369820D01*
X80048100Y-68841248D01*
X80022700Y-68841248D01*
X80022700Y-68840253D01*
X79925060Y-68349385D01*
X79647006Y-67933247D01*
X79230868Y-67655193D01*
X78740000Y-67557553D01*
X78249132Y-67655193D01*
X77832994Y-67933247D01*
X77736700Y-68077361D01*
X77736700Y-67823743D01*
X77643894Y-67599689D01*
X77472411Y-67428206D01*
X77248357Y-67335400D01*
X76504800Y-67335400D01*
X76352400Y-67487800D01*
X76352400Y-69062600D01*
X76372400Y-69062600D01*
X76372400Y-69367400D01*
X76352400Y-69367400D01*
X76352400Y-70942200D01*
X76504800Y-71094600D01*
X77248357Y-71094600D01*
X77472411Y-71001794D01*
X77643894Y-70830311D01*
X77736700Y-70606257D01*
X77736700Y-70352639D01*
X77774800Y-70409659D01*
X77774800Y-71348900D01*
X77809709Y-71524400D01*
X77848271Y-71718266D01*
X78057501Y-72031399D01*
X78489009Y-72462907D01*
X77886112Y-72212563D01*
X77057523Y-72211840D01*
X76291730Y-72528259D01*
X75705318Y-73113648D01*
X75387563Y-73878888D01*
X75386840Y-74707477D01*
X75703259Y-75473270D01*
X76288648Y-76059682D01*
X77053888Y-76377437D01*
X77882477Y-76378160D01*
X78648270Y-76061741D01*
X79151200Y-75559688D01*
X79151200Y-76678201D01*
X78079702Y-77749700D01*
X73006566Y-77749700D01*
X73006566Y-75184000D01*
X72978967Y-75045252D01*
X72900373Y-74927627D01*
X72782748Y-74849033D01*
X72644000Y-74821434D01*
X71053960Y-74821434D01*
X70915212Y-74849033D01*
X70797587Y-74927627D01*
X70718993Y-75045252D01*
X70691394Y-75184000D01*
X70691394Y-77851000D01*
X70718993Y-77989748D01*
X70797587Y-78107373D01*
X70883800Y-78164978D01*
X70883800Y-78714900D01*
X70887970Y-78735866D01*
X69992400Y-77840296D01*
X69992400Y-71557600D01*
X69945997Y-71324316D01*
X69813852Y-71126547D01*
X68594075Y-69906771D01*
X68646040Y-69906771D01*
X68764967Y-69883115D01*
X68865788Y-69815748D01*
X68933155Y-69714927D01*
X68956811Y-69596000D01*
X68956811Y-67094100D01*
X70743189Y-67094100D01*
X70743189Y-69596000D01*
M02*
