G04 #@! TF.GenerationSoftware,KiCad,Pcbnew,no-vcs-found-ea855c1~58~ubuntu16.04.1*
G04 #@! TF.CreationDate,2017-05-25T14:11:52-04:00*
G04 #@! TF.ProjectId,modular_device_base_5x3,6D6F64756C61725F6465766963655F62,1.1*
G04 #@! TF.FileFunction,Legend,Top*
G04 #@! TF.FilePolarity,Positive*
%FSLAX46Y46*%
G04 Gerber Fmt 4.6, Leading zero omitted, Abs format (unit mm)*
G04 Created by KiCad (PCBNEW no-vcs-found-ea855c1~58~ubuntu16.04.1) date Thu May 25 14:11:52 2017*
%MOMM*%
%LPD*%
G01*
G04 APERTURE LIST*
%ADD10C,0.100000*%
%ADD11C,0.254000*%
%ADD12C,0.190500*%
%ADD13C,0.228600*%
%ADD14C,0.508000*%
%ADD15C,0.381000*%
%ADD16C,0.127000*%
%ADD17C,0.150000*%
%ADD18C,0.158750*%
%ADD19O,2.254200X2.940000*%
%ADD20C,3.956000*%
%ADD21R,2.254200X2.940000*%
%ADD22O,2.940000X1.924000*%
%ADD23R,3.067000X1.990040*%
%ADD24R,5.160000X4.000000*%
%ADD25R,1.640000X1.800000*%
%ADD26R,1.670000X2.940000*%
%ADD27R,3.110000X2.900000*%
%ADD28O,5.480000X3.448000*%
%ADD29O,2.432000X1.924000*%
%ADD30O,1.924000X2.432000*%
%ADD31R,2.997200X5.029200*%
%ADD32C,1.600200*%
%ADD33R,2.178000X4.591000*%
%ADD34O,1.924000X2.940000*%
%ADD35R,1.924000X2.940000*%
%ADD36R,4.591000X2.178000*%
%ADD37R,5.029200X2.997200*%
%ADD38C,2.330400*%
%ADD39O,4.972000X3.956000*%
%ADD40O,4.464000X5.480000*%
%ADD41O,5.480000X3.956000*%
%ADD42R,1.990040X3.067000*%
%ADD43O,2.743200X2.057400*%
%ADD44R,2.743200X2.057400*%
G04 APERTURE END LIST*
D10*
D11*
X192229619Y-111143142D02*
X192229619Y-111626952D01*
X191213619Y-111626952D01*
X191697428Y-110804476D02*
X191697428Y-110465809D01*
X192229619Y-110320666D02*
X192229619Y-110804476D01*
X191213619Y-110804476D01*
X191213619Y-110320666D01*
X192229619Y-109885238D02*
X191213619Y-109885238D01*
X191213619Y-109643333D01*
X191262000Y-109498190D01*
X191358761Y-109401428D01*
X191455523Y-109353047D01*
X191649047Y-109304666D01*
X191794190Y-109304666D01*
X191987714Y-109353047D01*
X192084476Y-109401428D01*
X192181238Y-109498190D01*
X192229619Y-109643333D01*
X192229619Y-109885238D01*
D12*
X192949285Y-108802714D02*
X193094428Y-108802714D01*
X193167000Y-108839000D01*
X193239571Y-108911571D01*
X193275857Y-109056714D01*
X193275857Y-109310714D01*
X193239571Y-109455857D01*
X193167000Y-109528428D01*
X193094428Y-109564714D01*
X192949285Y-109564714D01*
X192876714Y-109528428D01*
X192804142Y-109455857D01*
X192767857Y-109310714D01*
X192767857Y-109056714D01*
X192804142Y-108911571D01*
X192876714Y-108839000D01*
X192949285Y-108802714D01*
X193856428Y-109165571D02*
X193602428Y-109165571D01*
X193602428Y-109564714D02*
X193602428Y-108802714D01*
X193965285Y-108802714D01*
X194509571Y-109165571D02*
X194255571Y-109165571D01*
X194255571Y-109564714D02*
X194255571Y-108802714D01*
X194618428Y-108802714D01*
X193203285Y-111342714D02*
X193348428Y-111342714D01*
X193421000Y-111379000D01*
X193493571Y-111451571D01*
X193529857Y-111596714D01*
X193529857Y-111850714D01*
X193493571Y-111995857D01*
X193421000Y-112068428D01*
X193348428Y-112104714D01*
X193203285Y-112104714D01*
X193130714Y-112068428D01*
X193058142Y-111995857D01*
X193021857Y-111850714D01*
X193021857Y-111596714D01*
X193058142Y-111451571D01*
X193130714Y-111379000D01*
X193203285Y-111342714D01*
X193856428Y-112104714D02*
X193856428Y-111342714D01*
X194291857Y-112104714D01*
X194291857Y-111342714D01*
X71374000Y-130410857D02*
X71374000Y-130773714D01*
X71120000Y-130011714D02*
X71374000Y-130410857D01*
X71628000Y-130011714D01*
X67382571Y-130048000D02*
X67310000Y-130011714D01*
X67201142Y-130011714D01*
X67092285Y-130048000D01*
X67019714Y-130120571D01*
X66983428Y-130193142D01*
X66947142Y-130338285D01*
X66947142Y-130447142D01*
X66983428Y-130592285D01*
X67019714Y-130664857D01*
X67092285Y-130737428D01*
X67201142Y-130773714D01*
X67273714Y-130773714D01*
X67382571Y-130737428D01*
X67418857Y-130701142D01*
X67418857Y-130447142D01*
X67273714Y-130447142D01*
D11*
X59302952Y-90877571D02*
X60077047Y-90877571D01*
X59302952Y-76907571D02*
X60077047Y-76907571D01*
X59690000Y-77294619D02*
X59690000Y-76520523D01*
D13*
X194945000Y-66040000D02*
X59055000Y-66040000D01*
X194945000Y-133350000D02*
X194945000Y-66040000D01*
X59055000Y-133350000D02*
X194945000Y-133350000D01*
X59055000Y-66040000D02*
X59055000Y-133350000D01*
D11*
X193922952Y-90877571D02*
X194697047Y-90877571D01*
X193922952Y-76907571D02*
X194697047Y-76907571D01*
X194310000Y-77294619D02*
X194310000Y-76520523D01*
D14*
X61347047Y-74494571D02*
X61347047Y-75849238D01*
X60863238Y-73720476D02*
X60379428Y-75171904D01*
X61637333Y-75171904D01*
D11*
X89262857Y-77294619D02*
X89262857Y-76278619D01*
X89698285Y-77294619D02*
X89698285Y-76762428D01*
X89649904Y-76665666D01*
X89553142Y-76617285D01*
X89408000Y-76617285D01*
X89311238Y-76665666D01*
X89262857Y-76714047D01*
X90036952Y-76617285D02*
X90424000Y-76617285D01*
X90182095Y-76278619D02*
X90182095Y-77149476D01*
X90230476Y-77246238D01*
X90327238Y-77294619D01*
X90424000Y-77294619D01*
X90617523Y-76617285D02*
X91004571Y-76617285D01*
X90762666Y-76278619D02*
X90762666Y-77149476D01*
X90811047Y-77246238D01*
X90907809Y-77294619D01*
X91004571Y-77294619D01*
X91343238Y-76617285D02*
X91343238Y-77633285D01*
X91343238Y-76665666D02*
X91440000Y-76617285D01*
X91633523Y-76617285D01*
X91730285Y-76665666D01*
X91778666Y-76714047D01*
X91827047Y-76810809D01*
X91827047Y-77101095D01*
X91778666Y-77197857D01*
X91730285Y-77246238D01*
X91633523Y-77294619D01*
X91440000Y-77294619D01*
X91343238Y-77246238D01*
X92214095Y-77246238D02*
X92310857Y-77294619D01*
X92504380Y-77294619D01*
X92601142Y-77246238D01*
X92649523Y-77149476D01*
X92649523Y-77101095D01*
X92601142Y-77004333D01*
X92504380Y-76955952D01*
X92359238Y-76955952D01*
X92262476Y-76907571D01*
X92214095Y-76810809D01*
X92214095Y-76762428D01*
X92262476Y-76665666D01*
X92359238Y-76617285D01*
X92504380Y-76617285D01*
X92601142Y-76665666D01*
X93084952Y-77197857D02*
X93133333Y-77246238D01*
X93084952Y-77294619D01*
X93036571Y-77246238D01*
X93084952Y-77197857D01*
X93084952Y-77294619D01*
X93084952Y-76665666D02*
X93133333Y-76714047D01*
X93084952Y-76762428D01*
X93036571Y-76714047D01*
X93084952Y-76665666D01*
X93084952Y-76762428D01*
X94294476Y-76230238D02*
X93423619Y-77536523D01*
X95358857Y-76230238D02*
X94488000Y-77536523D01*
X96132952Y-76617285D02*
X96132952Y-77439761D01*
X96084571Y-77536523D01*
X96036190Y-77584904D01*
X95939428Y-77633285D01*
X95794285Y-77633285D01*
X95697523Y-77584904D01*
X96132952Y-77246238D02*
X96036190Y-77294619D01*
X95842666Y-77294619D01*
X95745904Y-77246238D01*
X95697523Y-77197857D01*
X95649142Y-77101095D01*
X95649142Y-76810809D01*
X95697523Y-76714047D01*
X95745904Y-76665666D01*
X95842666Y-76617285D01*
X96036190Y-76617285D01*
X96132952Y-76665666D01*
X96616761Y-77294619D02*
X96616761Y-76617285D01*
X96616761Y-76278619D02*
X96568380Y-76327000D01*
X96616761Y-76375380D01*
X96665142Y-76327000D01*
X96616761Y-76278619D01*
X96616761Y-76375380D01*
X96955428Y-76617285D02*
X97342476Y-76617285D01*
X97100571Y-76278619D02*
X97100571Y-77149476D01*
X97148952Y-77246238D01*
X97245714Y-77294619D01*
X97342476Y-77294619D01*
X97681142Y-77294619D02*
X97681142Y-76278619D01*
X98116571Y-77294619D02*
X98116571Y-76762428D01*
X98068190Y-76665666D01*
X97971428Y-76617285D01*
X97826285Y-76617285D01*
X97729523Y-76665666D01*
X97681142Y-76714047D01*
X99035809Y-76617285D02*
X99035809Y-77294619D01*
X98600380Y-76617285D02*
X98600380Y-77149476D01*
X98648761Y-77246238D01*
X98745523Y-77294619D01*
X98890666Y-77294619D01*
X98987428Y-77246238D01*
X99035809Y-77197857D01*
X99519619Y-77294619D02*
X99519619Y-76278619D01*
X99519619Y-76665666D02*
X99616380Y-76617285D01*
X99809904Y-76617285D01*
X99906666Y-76665666D01*
X99955047Y-76714047D01*
X100003428Y-76810809D01*
X100003428Y-77101095D01*
X99955047Y-77197857D01*
X99906666Y-77246238D01*
X99809904Y-77294619D01*
X99616380Y-77294619D01*
X99519619Y-77246238D01*
X100438857Y-77197857D02*
X100487238Y-77246238D01*
X100438857Y-77294619D01*
X100390476Y-77246238D01*
X100438857Y-77197857D01*
X100438857Y-77294619D01*
X101358095Y-77246238D02*
X101261333Y-77294619D01*
X101067809Y-77294619D01*
X100971047Y-77246238D01*
X100922666Y-77197857D01*
X100874285Y-77101095D01*
X100874285Y-76810809D01*
X100922666Y-76714047D01*
X100971047Y-76665666D01*
X101067809Y-76617285D01*
X101261333Y-76617285D01*
X101358095Y-76665666D01*
X101938666Y-77294619D02*
X101841904Y-77246238D01*
X101793523Y-77197857D01*
X101745142Y-77101095D01*
X101745142Y-76810809D01*
X101793523Y-76714047D01*
X101841904Y-76665666D01*
X101938666Y-76617285D01*
X102083809Y-76617285D01*
X102180571Y-76665666D01*
X102228952Y-76714047D01*
X102277333Y-76810809D01*
X102277333Y-77101095D01*
X102228952Y-77197857D01*
X102180571Y-77246238D01*
X102083809Y-77294619D01*
X101938666Y-77294619D01*
X102712761Y-77294619D02*
X102712761Y-76617285D01*
X102712761Y-76714047D02*
X102761142Y-76665666D01*
X102857904Y-76617285D01*
X103003047Y-76617285D01*
X103099809Y-76665666D01*
X103148190Y-76762428D01*
X103148190Y-77294619D01*
X103148190Y-76762428D02*
X103196571Y-76665666D01*
X103293333Y-76617285D01*
X103438476Y-76617285D01*
X103535238Y-76665666D01*
X103583619Y-76762428D01*
X103583619Y-77294619D01*
X104793142Y-76230238D02*
X103922285Y-77536523D01*
X105131809Y-76617285D02*
X105131809Y-77488142D01*
X105083428Y-77584904D01*
X104986666Y-77633285D01*
X104938285Y-77633285D01*
X105131809Y-76278619D02*
X105083428Y-76327000D01*
X105131809Y-76375380D01*
X105180190Y-76327000D01*
X105131809Y-76278619D01*
X105131809Y-76375380D01*
X106051047Y-77294619D02*
X106051047Y-76762428D01*
X106002666Y-76665666D01*
X105905904Y-76617285D01*
X105712380Y-76617285D01*
X105615619Y-76665666D01*
X106051047Y-77246238D02*
X105954285Y-77294619D01*
X105712380Y-77294619D01*
X105615619Y-77246238D01*
X105567238Y-77149476D01*
X105567238Y-77052714D01*
X105615619Y-76955952D01*
X105712380Y-76907571D01*
X105954285Y-76907571D01*
X106051047Y-76859190D01*
X106534857Y-76617285D02*
X106534857Y-77294619D01*
X106534857Y-76714047D02*
X106583238Y-76665666D01*
X106680000Y-76617285D01*
X106825142Y-76617285D01*
X106921904Y-76665666D01*
X106970285Y-76762428D01*
X106970285Y-77294619D01*
X107841142Y-77246238D02*
X107744380Y-77294619D01*
X107550857Y-77294619D01*
X107454095Y-77246238D01*
X107405714Y-77149476D01*
X107405714Y-76762428D01*
X107454095Y-76665666D01*
X107550857Y-76617285D01*
X107744380Y-76617285D01*
X107841142Y-76665666D01*
X107889523Y-76762428D01*
X107889523Y-76859190D01*
X107405714Y-76955952D01*
X108470095Y-77294619D02*
X108373333Y-77246238D01*
X108324952Y-77149476D01*
X108324952Y-76278619D01*
X108857142Y-77294619D02*
X108857142Y-76617285D01*
X108857142Y-76278619D02*
X108808761Y-76327000D01*
X108857142Y-76375380D01*
X108905523Y-76327000D01*
X108857142Y-76278619D01*
X108857142Y-76375380D01*
X109776380Y-77294619D02*
X109776380Y-76762428D01*
X109728000Y-76665666D01*
X109631238Y-76617285D01*
X109437714Y-76617285D01*
X109340952Y-76665666D01*
X109776380Y-77246238D02*
X109679619Y-77294619D01*
X109437714Y-77294619D01*
X109340952Y-77246238D01*
X109292571Y-77149476D01*
X109292571Y-77052714D01*
X109340952Y-76955952D01*
X109437714Y-76907571D01*
X109679619Y-76907571D01*
X109776380Y-76859190D01*
X110260190Y-76907571D02*
X111034285Y-76907571D01*
X111518095Y-77294619D02*
X111518095Y-76617285D01*
X111518095Y-76714047D02*
X111566476Y-76665666D01*
X111663238Y-76617285D01*
X111808380Y-76617285D01*
X111905142Y-76665666D01*
X111953523Y-76762428D01*
X111953523Y-77294619D01*
X111953523Y-76762428D02*
X112001904Y-76665666D01*
X112098666Y-76617285D01*
X112243809Y-76617285D01*
X112340571Y-76665666D01*
X112388952Y-76762428D01*
X112388952Y-77294619D01*
X113017904Y-77294619D02*
X112921142Y-77246238D01*
X112872761Y-77197857D01*
X112824380Y-77101095D01*
X112824380Y-76810809D01*
X112872761Y-76714047D01*
X112921142Y-76665666D01*
X113017904Y-76617285D01*
X113163047Y-76617285D01*
X113259809Y-76665666D01*
X113308190Y-76714047D01*
X113356571Y-76810809D01*
X113356571Y-77101095D01*
X113308190Y-77197857D01*
X113259809Y-77246238D01*
X113163047Y-77294619D01*
X113017904Y-77294619D01*
X114227428Y-77294619D02*
X114227428Y-76278619D01*
X114227428Y-77246238D02*
X114130666Y-77294619D01*
X113937142Y-77294619D01*
X113840380Y-77246238D01*
X113792000Y-77197857D01*
X113743619Y-77101095D01*
X113743619Y-76810809D01*
X113792000Y-76714047D01*
X113840380Y-76665666D01*
X113937142Y-76617285D01*
X114130666Y-76617285D01*
X114227428Y-76665666D01*
X115146666Y-76617285D02*
X115146666Y-77294619D01*
X114711238Y-76617285D02*
X114711238Y-77149476D01*
X114759619Y-77246238D01*
X114856380Y-77294619D01*
X115001523Y-77294619D01*
X115098285Y-77246238D01*
X115146666Y-77197857D01*
X115775619Y-77294619D02*
X115678857Y-77246238D01*
X115630476Y-77149476D01*
X115630476Y-76278619D01*
X116598095Y-77294619D02*
X116598095Y-76762428D01*
X116549714Y-76665666D01*
X116452952Y-76617285D01*
X116259428Y-76617285D01*
X116162666Y-76665666D01*
X116598095Y-77246238D02*
X116501333Y-77294619D01*
X116259428Y-77294619D01*
X116162666Y-77246238D01*
X116114285Y-77149476D01*
X116114285Y-77052714D01*
X116162666Y-76955952D01*
X116259428Y-76907571D01*
X116501333Y-76907571D01*
X116598095Y-76859190D01*
X117081904Y-77294619D02*
X117081904Y-76617285D01*
X117081904Y-76810809D02*
X117130285Y-76714047D01*
X117178666Y-76665666D01*
X117275428Y-76617285D01*
X117372190Y-76617285D01*
X117710857Y-76907571D02*
X118484952Y-76907571D01*
X119404190Y-77294619D02*
X119404190Y-76278619D01*
X119404190Y-77246238D02*
X119307428Y-77294619D01*
X119113904Y-77294619D01*
X119017142Y-77246238D01*
X118968761Y-77197857D01*
X118920380Y-77101095D01*
X118920380Y-76810809D01*
X118968761Y-76714047D01*
X119017142Y-76665666D01*
X119113904Y-76617285D01*
X119307428Y-76617285D01*
X119404190Y-76665666D01*
X120275047Y-77246238D02*
X120178285Y-77294619D01*
X119984761Y-77294619D01*
X119888000Y-77246238D01*
X119839619Y-77149476D01*
X119839619Y-76762428D01*
X119888000Y-76665666D01*
X119984761Y-76617285D01*
X120178285Y-76617285D01*
X120275047Y-76665666D01*
X120323428Y-76762428D01*
X120323428Y-76859190D01*
X119839619Y-76955952D01*
X120662095Y-76617285D02*
X120904000Y-77294619D01*
X121145904Y-76617285D01*
X121532952Y-77294619D02*
X121532952Y-76617285D01*
X121532952Y-76278619D02*
X121484571Y-76327000D01*
X121532952Y-76375380D01*
X121581333Y-76327000D01*
X121532952Y-76278619D01*
X121532952Y-76375380D01*
X122452190Y-77246238D02*
X122355428Y-77294619D01*
X122161904Y-77294619D01*
X122065142Y-77246238D01*
X122016761Y-77197857D01*
X121968380Y-77101095D01*
X121968380Y-76810809D01*
X122016761Y-76714047D01*
X122065142Y-76665666D01*
X122161904Y-76617285D01*
X122355428Y-76617285D01*
X122452190Y-76665666D01*
X123274666Y-77246238D02*
X123177904Y-77294619D01*
X122984380Y-77294619D01*
X122887619Y-77246238D01*
X122839238Y-77149476D01*
X122839238Y-76762428D01*
X122887619Y-76665666D01*
X122984380Y-76617285D01*
X123177904Y-76617285D01*
X123274666Y-76665666D01*
X123323047Y-76762428D01*
X123323047Y-76859190D01*
X122839238Y-76955952D01*
X123710095Y-77246238D02*
X123806857Y-77294619D01*
X124000380Y-77294619D01*
X124097142Y-77246238D01*
X124145523Y-77149476D01*
X124145523Y-77101095D01*
X124097142Y-77004333D01*
X124000380Y-76955952D01*
X123855238Y-76955952D01*
X123758476Y-76907571D01*
X123710095Y-76810809D01*
X123710095Y-76762428D01*
X123758476Y-76665666D01*
X123855238Y-76617285D01*
X124000380Y-76617285D01*
X124097142Y-76665666D01*
D12*
X60816369Y-114336285D02*
X60816369Y-113900857D01*
X61832369Y-114118571D02*
X60816369Y-114118571D01*
X61832369Y-113538000D02*
X61783988Y-113610571D01*
X61735607Y-113646857D01*
X61638845Y-113683142D01*
X61348559Y-113683142D01*
X61251797Y-113646857D01*
X61203416Y-113610571D01*
X61155035Y-113538000D01*
X61155035Y-113429142D01*
X61203416Y-113356571D01*
X61251797Y-113320285D01*
X61348559Y-113284000D01*
X61638845Y-113284000D01*
X61735607Y-113320285D01*
X61783988Y-113356571D01*
X61832369Y-113429142D01*
X61832369Y-113538000D01*
X61155035Y-112957428D02*
X62171035Y-112957428D01*
X61203416Y-112957428D02*
X61155035Y-112884857D01*
X61155035Y-112739714D01*
X61203416Y-112667142D01*
X61251797Y-112630857D01*
X61348559Y-112594571D01*
X61638845Y-112594571D01*
X61735607Y-112630857D01*
X61783988Y-112667142D01*
X61832369Y-112739714D01*
X61832369Y-112884857D01*
X61783988Y-112957428D01*
X61735607Y-112268000D02*
X61783988Y-112231714D01*
X61832369Y-112268000D01*
X61783988Y-112304285D01*
X61735607Y-112268000D01*
X61832369Y-112268000D01*
X61203416Y-112268000D02*
X61251797Y-112231714D01*
X61300178Y-112268000D01*
X61251797Y-112304285D01*
X61203416Y-112268000D01*
X61300178Y-112268000D01*
X61300178Y-111070571D02*
X61348559Y-110961714D01*
X61396940Y-110925428D01*
X61493702Y-110889142D01*
X61638845Y-110889142D01*
X61735607Y-110925428D01*
X61783988Y-110961714D01*
X61832369Y-111034285D01*
X61832369Y-111324571D01*
X60816369Y-111324571D01*
X60816369Y-111070571D01*
X60864750Y-110998000D01*
X60913130Y-110961714D01*
X61009892Y-110925428D01*
X61106654Y-110925428D01*
X61203416Y-110961714D01*
X61251797Y-110998000D01*
X61300178Y-111070571D01*
X61300178Y-111324571D01*
X61832369Y-110562571D02*
X60816369Y-110562571D01*
X61832369Y-110127142D01*
X60816369Y-110127142D01*
X61735607Y-109328857D02*
X61783988Y-109365142D01*
X61832369Y-109474000D01*
X61832369Y-109546571D01*
X61783988Y-109655428D01*
X61687226Y-109728000D01*
X61590464Y-109764285D01*
X61396940Y-109800571D01*
X61251797Y-109800571D01*
X61058273Y-109764285D01*
X60961511Y-109728000D01*
X60864750Y-109655428D01*
X60816369Y-109546571D01*
X60816369Y-109474000D01*
X60864750Y-109365142D01*
X60913130Y-109328857D01*
X61300178Y-108167714D02*
X61348559Y-108058857D01*
X61396940Y-108022571D01*
X61493702Y-107986285D01*
X61638845Y-107986285D01*
X61735607Y-108022571D01*
X61783988Y-108058857D01*
X61832369Y-108131428D01*
X61832369Y-108421714D01*
X60816369Y-108421714D01*
X60816369Y-108167714D01*
X60864750Y-108095142D01*
X60913130Y-108058857D01*
X61009892Y-108022571D01*
X61106654Y-108022571D01*
X61203416Y-108058857D01*
X61251797Y-108095142D01*
X61300178Y-108167714D01*
X61300178Y-108421714D01*
X63014678Y-113882714D02*
X63063059Y-113773857D01*
X63111440Y-113737571D01*
X63208202Y-113701285D01*
X63353345Y-113701285D01*
X63450107Y-113737571D01*
X63498488Y-113773857D01*
X63546869Y-113846428D01*
X63546869Y-114136714D01*
X62530869Y-114136714D01*
X62530869Y-113882714D01*
X62579250Y-113810142D01*
X62627630Y-113773857D01*
X62724392Y-113737571D01*
X62821154Y-113737571D01*
X62917916Y-113773857D01*
X62966297Y-113810142D01*
X63014678Y-113882714D01*
X63014678Y-114136714D01*
X63546869Y-113265857D02*
X63498488Y-113338428D01*
X63450107Y-113374714D01*
X63353345Y-113411000D01*
X63063059Y-113411000D01*
X62966297Y-113374714D01*
X62917916Y-113338428D01*
X62869535Y-113265857D01*
X62869535Y-113157000D01*
X62917916Y-113084428D01*
X62966297Y-113048142D01*
X63063059Y-113011857D01*
X63353345Y-113011857D01*
X63450107Y-113048142D01*
X63498488Y-113084428D01*
X63546869Y-113157000D01*
X63546869Y-113265857D01*
X62869535Y-112794142D02*
X62869535Y-112503857D01*
X62530869Y-112685285D02*
X63401726Y-112685285D01*
X63498488Y-112649000D01*
X63546869Y-112576428D01*
X63546869Y-112503857D01*
X63450107Y-112249857D02*
X63498488Y-112213571D01*
X63546869Y-112249857D01*
X63498488Y-112286142D01*
X63450107Y-112249857D01*
X63546869Y-112249857D01*
X62917916Y-112249857D02*
X62966297Y-112213571D01*
X63014678Y-112249857D01*
X62966297Y-112286142D01*
X62917916Y-112249857D01*
X63014678Y-112249857D01*
X63014678Y-111052428D02*
X63063059Y-110943571D01*
X63111440Y-110907285D01*
X63208202Y-110871000D01*
X63353345Y-110871000D01*
X63450107Y-110907285D01*
X63498488Y-110943571D01*
X63546869Y-111016142D01*
X63546869Y-111306428D01*
X62530869Y-111306428D01*
X62530869Y-111052428D01*
X62579250Y-110979857D01*
X62627630Y-110943571D01*
X62724392Y-110907285D01*
X62821154Y-110907285D01*
X62917916Y-110943571D01*
X62966297Y-110979857D01*
X63014678Y-111052428D01*
X63014678Y-111306428D01*
X63546869Y-110544428D02*
X62530869Y-110544428D01*
X63546869Y-110109000D01*
X62530869Y-110109000D01*
X63450107Y-109310714D02*
X63498488Y-109347000D01*
X63546869Y-109455857D01*
X63546869Y-109528428D01*
X63498488Y-109637285D01*
X63401726Y-109709857D01*
X63304964Y-109746142D01*
X63111440Y-109782428D01*
X62966297Y-109782428D01*
X62772773Y-109746142D01*
X62676011Y-109709857D01*
X62579250Y-109637285D01*
X62530869Y-109528428D01*
X62530869Y-109455857D01*
X62579250Y-109347000D01*
X62627630Y-109310714D01*
X63256583Y-108439857D02*
X63256583Y-108077000D01*
X63546869Y-108512428D02*
X62530869Y-108258428D01*
X63546869Y-108004428D01*
D11*
X194128571Y-103613857D02*
X194128571Y-102839761D01*
X194515619Y-103226809D02*
X193741523Y-103226809D01*
X194515619Y-102307571D02*
X194515619Y-102114047D01*
X194467238Y-102017285D01*
X194418857Y-101968904D01*
X194273714Y-101872142D01*
X194080190Y-101823761D01*
X193693142Y-101823761D01*
X193596380Y-101872142D01*
X193548000Y-101920523D01*
X193499619Y-102017285D01*
X193499619Y-102210809D01*
X193548000Y-102307571D01*
X193596380Y-102355952D01*
X193693142Y-102404333D01*
X193935047Y-102404333D01*
X194031809Y-102355952D01*
X194080190Y-102307571D01*
X194128571Y-102210809D01*
X194128571Y-102017285D01*
X194080190Y-101920523D01*
X194031809Y-101872142D01*
X193935047Y-101823761D01*
X194128571Y-101388333D02*
X194128571Y-100614238D01*
X193838285Y-99695000D02*
X194515619Y-99695000D01*
X193451238Y-99936904D02*
X194176952Y-100178809D01*
X194176952Y-99549857D01*
X193596380Y-99211190D02*
X193548000Y-99162809D01*
X193499619Y-99066047D01*
X193499619Y-98824142D01*
X193548000Y-98727380D01*
X193596380Y-98679000D01*
X193693142Y-98630619D01*
X193789904Y-98630619D01*
X193935047Y-98679000D01*
X194515619Y-99259571D01*
X194515619Y-98630619D01*
X193499619Y-98340333D02*
X194515619Y-98001666D01*
X193499619Y-97663000D01*
X194515619Y-97324333D02*
X193499619Y-97324333D01*
X193499619Y-97082428D01*
X193548000Y-96937285D01*
X193644761Y-96840523D01*
X193741523Y-96792142D01*
X193935047Y-96743761D01*
X194080190Y-96743761D01*
X194273714Y-96792142D01*
X194370476Y-96840523D01*
X194467238Y-96937285D01*
X194515619Y-97082428D01*
X194515619Y-97324333D01*
X194418857Y-95727761D02*
X194467238Y-95776142D01*
X194515619Y-95921285D01*
X194515619Y-96018047D01*
X194467238Y-96163190D01*
X194370476Y-96259952D01*
X194273714Y-96308333D01*
X194080190Y-96356714D01*
X193935047Y-96356714D01*
X193741523Y-96308333D01*
X193644761Y-96259952D01*
X193548000Y-96163190D01*
X193499619Y-96018047D01*
X193499619Y-95921285D01*
X193548000Y-95776142D01*
X193596380Y-95727761D01*
D14*
X186647666Y-130332238D02*
X187905571Y-130332238D01*
X187228238Y-131106333D01*
X187518523Y-131106333D01*
X187712047Y-131203095D01*
X187808809Y-131299857D01*
X187905571Y-131493380D01*
X187905571Y-131977190D01*
X187808809Y-132170714D01*
X187712047Y-132267476D01*
X187518523Y-132364238D01*
X186937952Y-132364238D01*
X186744428Y-132267476D01*
X186647666Y-132170714D01*
X192459428Y-74010761D02*
X192556190Y-73914000D01*
X192749714Y-73817238D01*
X193233523Y-73817238D01*
X193427047Y-73914000D01*
X193523809Y-74010761D01*
X193620571Y-74204285D01*
X193620571Y-74397809D01*
X193523809Y-74688095D01*
X192362666Y-75849238D01*
X193620571Y-75849238D01*
X187905571Y-68864238D02*
X186744428Y-68864238D01*
X187325000Y-68864238D02*
X187325000Y-66832238D01*
X187131476Y-67122523D01*
X186937952Y-67316047D01*
X186744428Y-67412809D01*
D11*
X185032952Y-132787571D02*
X185807047Y-132787571D01*
X185032952Y-66747571D02*
X185807047Y-66747571D01*
X171062952Y-66747571D02*
X171837047Y-66747571D01*
X171450000Y-67134619D02*
X171450000Y-66360523D01*
X171062952Y-132787571D02*
X171837047Y-132787571D01*
X171450000Y-133174619D02*
X171450000Y-132400523D01*
X74373619Y-109413523D02*
X74373619Y-109897333D01*
X74857428Y-109945714D01*
X74809047Y-109897333D01*
X74760666Y-109800571D01*
X74760666Y-109558666D01*
X74809047Y-109461904D01*
X74857428Y-109413523D01*
X74954190Y-109365142D01*
X75196095Y-109365142D01*
X75292857Y-109413523D01*
X75341238Y-109461904D01*
X75389619Y-109558666D01*
X75389619Y-109800571D01*
X75341238Y-109897333D01*
X75292857Y-109945714D01*
X74373619Y-109074857D02*
X75389619Y-108736190D01*
X74373619Y-108397523D01*
X98285904Y-122125619D02*
X98285904Y-122851333D01*
X98237523Y-122996476D01*
X98140761Y-123093238D01*
X97995619Y-123141619D01*
X97898857Y-123141619D01*
X99205142Y-123141619D02*
X99205142Y-122609428D01*
X99156761Y-122512666D01*
X99060000Y-122464285D01*
X98866476Y-122464285D01*
X98769714Y-122512666D01*
X99205142Y-123093238D02*
X99108380Y-123141619D01*
X98866476Y-123141619D01*
X98769714Y-123093238D01*
X98721333Y-122996476D01*
X98721333Y-122899714D01*
X98769714Y-122802952D01*
X98866476Y-122754571D01*
X99108380Y-122754571D01*
X99205142Y-122706190D01*
X99688952Y-122464285D02*
X99688952Y-123141619D01*
X99688952Y-122561047D02*
X99737333Y-122512666D01*
X99834095Y-122464285D01*
X99979238Y-122464285D01*
X100076000Y-122512666D01*
X100124380Y-122609428D01*
X100124380Y-123141619D01*
X100995238Y-123093238D02*
X100898476Y-123141619D01*
X100704952Y-123141619D01*
X100608190Y-123093238D01*
X100559809Y-122996476D01*
X100559809Y-122609428D01*
X100608190Y-122512666D01*
X100704952Y-122464285D01*
X100898476Y-122464285D01*
X100995238Y-122512666D01*
X101043619Y-122609428D01*
X101043619Y-122706190D01*
X100559809Y-122802952D01*
X101624190Y-123141619D02*
X101527428Y-123093238D01*
X101479047Y-122996476D01*
X101479047Y-122125619D01*
X102011238Y-123141619D02*
X102011238Y-122464285D01*
X102011238Y-122125619D02*
X101962857Y-122174000D01*
X102011238Y-122222380D01*
X102059619Y-122174000D01*
X102011238Y-122125619D01*
X102011238Y-122222380D01*
X102930476Y-123141619D02*
X102930476Y-122609428D01*
X102882095Y-122512666D01*
X102785333Y-122464285D01*
X102591809Y-122464285D01*
X102495047Y-122512666D01*
X102930476Y-123093238D02*
X102833714Y-123141619D01*
X102591809Y-123141619D01*
X102495047Y-123093238D01*
X102446666Y-122996476D01*
X102446666Y-122899714D01*
X102495047Y-122802952D01*
X102591809Y-122754571D01*
X102833714Y-122754571D01*
X102930476Y-122706190D01*
X104188380Y-123141619D02*
X104188380Y-122125619D01*
X104527047Y-122851333D01*
X104865714Y-122125619D01*
X104865714Y-123141619D01*
X105494666Y-123141619D02*
X105397904Y-123093238D01*
X105349523Y-123044857D01*
X105301142Y-122948095D01*
X105301142Y-122657809D01*
X105349523Y-122561047D01*
X105397904Y-122512666D01*
X105494666Y-122464285D01*
X105639809Y-122464285D01*
X105736571Y-122512666D01*
X105784952Y-122561047D01*
X105833333Y-122657809D01*
X105833333Y-122948095D01*
X105784952Y-123044857D01*
X105736571Y-123093238D01*
X105639809Y-123141619D01*
X105494666Y-123141619D01*
X106704190Y-123141619D02*
X106704190Y-122125619D01*
X106704190Y-123093238D02*
X106607428Y-123141619D01*
X106413904Y-123141619D01*
X106317142Y-123093238D01*
X106268761Y-123044857D01*
X106220380Y-122948095D01*
X106220380Y-122657809D01*
X106268761Y-122561047D01*
X106317142Y-122512666D01*
X106413904Y-122464285D01*
X106607428Y-122464285D01*
X106704190Y-122512666D01*
X107623428Y-122464285D02*
X107623428Y-123141619D01*
X107188000Y-122464285D02*
X107188000Y-122996476D01*
X107236380Y-123093238D01*
X107333142Y-123141619D01*
X107478285Y-123141619D01*
X107575047Y-123093238D01*
X107623428Y-123044857D01*
X108252380Y-123141619D02*
X108155619Y-123093238D01*
X108107238Y-122996476D01*
X108107238Y-122125619D01*
X109074857Y-123141619D02*
X109074857Y-122609428D01*
X109026476Y-122512666D01*
X108929714Y-122464285D01*
X108736190Y-122464285D01*
X108639428Y-122512666D01*
X109074857Y-123093238D02*
X108978095Y-123141619D01*
X108736190Y-123141619D01*
X108639428Y-123093238D01*
X108591047Y-122996476D01*
X108591047Y-122899714D01*
X108639428Y-122802952D01*
X108736190Y-122754571D01*
X108978095Y-122754571D01*
X109074857Y-122706190D01*
X109558666Y-123141619D02*
X109558666Y-122464285D01*
X109558666Y-122657809D02*
X109607047Y-122561047D01*
X109655428Y-122512666D01*
X109752190Y-122464285D01*
X109848952Y-122464285D01*
X110961714Y-123141619D02*
X110961714Y-122125619D01*
X111203619Y-122125619D01*
X111348761Y-122174000D01*
X111445523Y-122270761D01*
X111493904Y-122367523D01*
X111542285Y-122561047D01*
X111542285Y-122706190D01*
X111493904Y-122899714D01*
X111445523Y-122996476D01*
X111348761Y-123093238D01*
X111203619Y-123141619D01*
X110961714Y-123141619D01*
X112364761Y-123093238D02*
X112268000Y-123141619D01*
X112074476Y-123141619D01*
X111977714Y-123093238D01*
X111929333Y-122996476D01*
X111929333Y-122609428D01*
X111977714Y-122512666D01*
X112074476Y-122464285D01*
X112268000Y-122464285D01*
X112364761Y-122512666D01*
X112413142Y-122609428D01*
X112413142Y-122706190D01*
X111929333Y-122802952D01*
X112751809Y-122464285D02*
X112993714Y-123141619D01*
X113235619Y-122464285D01*
X113622666Y-123141619D02*
X113622666Y-122464285D01*
X113622666Y-122125619D02*
X113574285Y-122174000D01*
X113622666Y-122222380D01*
X113671047Y-122174000D01*
X113622666Y-122125619D01*
X113622666Y-122222380D01*
X114541904Y-123093238D02*
X114445142Y-123141619D01*
X114251619Y-123141619D01*
X114154857Y-123093238D01*
X114106476Y-123044857D01*
X114058095Y-122948095D01*
X114058095Y-122657809D01*
X114106476Y-122561047D01*
X114154857Y-122512666D01*
X114251619Y-122464285D01*
X114445142Y-122464285D01*
X114541904Y-122512666D01*
X115364380Y-123093238D02*
X115267619Y-123141619D01*
X115074095Y-123141619D01*
X114977333Y-123093238D01*
X114928952Y-122996476D01*
X114928952Y-122609428D01*
X114977333Y-122512666D01*
X115074095Y-122464285D01*
X115267619Y-122464285D01*
X115364380Y-122512666D01*
X115412761Y-122609428D01*
X115412761Y-122706190D01*
X114928952Y-122802952D01*
X98890666Y-124919619D02*
X98890666Y-124242285D01*
X98890666Y-124339047D02*
X98939047Y-124290666D01*
X99035809Y-124242285D01*
X99180952Y-124242285D01*
X99277714Y-124290666D01*
X99326095Y-124387428D01*
X99326095Y-124919619D01*
X99326095Y-124387428D02*
X99374476Y-124290666D01*
X99471238Y-124242285D01*
X99616380Y-124242285D01*
X99713142Y-124290666D01*
X99761523Y-124387428D01*
X99761523Y-124919619D01*
X100390476Y-124919619D02*
X100293714Y-124871238D01*
X100245333Y-124822857D01*
X100196952Y-124726095D01*
X100196952Y-124435809D01*
X100245333Y-124339047D01*
X100293714Y-124290666D01*
X100390476Y-124242285D01*
X100535619Y-124242285D01*
X100632380Y-124290666D01*
X100680761Y-124339047D01*
X100729142Y-124435809D01*
X100729142Y-124726095D01*
X100680761Y-124822857D01*
X100632380Y-124871238D01*
X100535619Y-124919619D01*
X100390476Y-124919619D01*
X101600000Y-124919619D02*
X101600000Y-123903619D01*
X101600000Y-124871238D02*
X101503238Y-124919619D01*
X101309714Y-124919619D01*
X101212952Y-124871238D01*
X101164571Y-124822857D01*
X101116190Y-124726095D01*
X101116190Y-124435809D01*
X101164571Y-124339047D01*
X101212952Y-124290666D01*
X101309714Y-124242285D01*
X101503238Y-124242285D01*
X101600000Y-124290666D01*
X102519238Y-124242285D02*
X102519238Y-124919619D01*
X102083809Y-124242285D02*
X102083809Y-124774476D01*
X102132190Y-124871238D01*
X102228952Y-124919619D01*
X102374095Y-124919619D01*
X102470857Y-124871238D01*
X102519238Y-124822857D01*
X103148190Y-124919619D02*
X103051428Y-124871238D01*
X103003047Y-124774476D01*
X103003047Y-123903619D01*
X103970666Y-124919619D02*
X103970666Y-124387428D01*
X103922285Y-124290666D01*
X103825523Y-124242285D01*
X103632000Y-124242285D01*
X103535238Y-124290666D01*
X103970666Y-124871238D02*
X103873904Y-124919619D01*
X103632000Y-124919619D01*
X103535238Y-124871238D01*
X103486857Y-124774476D01*
X103486857Y-124677714D01*
X103535238Y-124580952D01*
X103632000Y-124532571D01*
X103873904Y-124532571D01*
X103970666Y-124484190D01*
X104454476Y-124919619D02*
X104454476Y-124242285D01*
X104454476Y-124435809D02*
X104502857Y-124339047D01*
X104551238Y-124290666D01*
X104648000Y-124242285D01*
X104744761Y-124242285D01*
X104841523Y-125016380D02*
X105615619Y-125016380D01*
X106292952Y-124919619D02*
X106292952Y-123903619D01*
X106292952Y-124871238D02*
X106196190Y-124919619D01*
X106002666Y-124919619D01*
X105905904Y-124871238D01*
X105857523Y-124822857D01*
X105809142Y-124726095D01*
X105809142Y-124435809D01*
X105857523Y-124339047D01*
X105905904Y-124290666D01*
X106002666Y-124242285D01*
X106196190Y-124242285D01*
X106292952Y-124290666D01*
X107163809Y-124871238D02*
X107067047Y-124919619D01*
X106873523Y-124919619D01*
X106776761Y-124871238D01*
X106728380Y-124774476D01*
X106728380Y-124387428D01*
X106776761Y-124290666D01*
X106873523Y-124242285D01*
X107067047Y-124242285D01*
X107163809Y-124290666D01*
X107212190Y-124387428D01*
X107212190Y-124484190D01*
X106728380Y-124580952D01*
X107550857Y-124242285D02*
X107792761Y-124919619D01*
X108034666Y-124242285D01*
X108421714Y-124919619D02*
X108421714Y-124242285D01*
X108421714Y-123903619D02*
X108373333Y-123952000D01*
X108421714Y-124000380D01*
X108470095Y-123952000D01*
X108421714Y-123903619D01*
X108421714Y-124000380D01*
X109340952Y-124871238D02*
X109244190Y-124919619D01*
X109050666Y-124919619D01*
X108953904Y-124871238D01*
X108905523Y-124822857D01*
X108857142Y-124726095D01*
X108857142Y-124435809D01*
X108905523Y-124339047D01*
X108953904Y-124290666D01*
X109050666Y-124242285D01*
X109244190Y-124242285D01*
X109340952Y-124290666D01*
X110163428Y-124871238D02*
X110066666Y-124919619D01*
X109873142Y-124919619D01*
X109776380Y-124871238D01*
X109728000Y-124774476D01*
X109728000Y-124387428D01*
X109776380Y-124290666D01*
X109873142Y-124242285D01*
X110066666Y-124242285D01*
X110163428Y-124290666D01*
X110211809Y-124387428D01*
X110211809Y-124484190D01*
X109728000Y-124580952D01*
X110405333Y-125016380D02*
X111179428Y-125016380D01*
X111421333Y-124919619D02*
X111421333Y-123903619D01*
X111421333Y-124290666D02*
X111518095Y-124242285D01*
X111711619Y-124242285D01*
X111808380Y-124290666D01*
X111856761Y-124339047D01*
X111905142Y-124435809D01*
X111905142Y-124726095D01*
X111856761Y-124822857D01*
X111808380Y-124871238D01*
X111711619Y-124919619D01*
X111518095Y-124919619D01*
X111421333Y-124871238D01*
X112776000Y-124919619D02*
X112776000Y-124387428D01*
X112727619Y-124290666D01*
X112630857Y-124242285D01*
X112437333Y-124242285D01*
X112340571Y-124290666D01*
X112776000Y-124871238D02*
X112679238Y-124919619D01*
X112437333Y-124919619D01*
X112340571Y-124871238D01*
X112292190Y-124774476D01*
X112292190Y-124677714D01*
X112340571Y-124580952D01*
X112437333Y-124532571D01*
X112679238Y-124532571D01*
X112776000Y-124484190D01*
X113211428Y-124871238D02*
X113308190Y-124919619D01*
X113501714Y-124919619D01*
X113598476Y-124871238D01*
X113646857Y-124774476D01*
X113646857Y-124726095D01*
X113598476Y-124629333D01*
X113501714Y-124580952D01*
X113356571Y-124580952D01*
X113259809Y-124532571D01*
X113211428Y-124435809D01*
X113211428Y-124387428D01*
X113259809Y-124290666D01*
X113356571Y-124242285D01*
X113501714Y-124242285D01*
X113598476Y-124290666D01*
X114469333Y-124871238D02*
X114372571Y-124919619D01*
X114179047Y-124919619D01*
X114082285Y-124871238D01*
X114033904Y-124774476D01*
X114033904Y-124387428D01*
X114082285Y-124290666D01*
X114179047Y-124242285D01*
X114372571Y-124242285D01*
X114469333Y-124290666D01*
X114517714Y-124387428D01*
X114517714Y-124484190D01*
X114033904Y-124580952D01*
X90932000Y-126020285D02*
X90932000Y-127036285D01*
X90932000Y-126068666D02*
X91028761Y-126020285D01*
X91222285Y-126020285D01*
X91319047Y-126068666D01*
X91367428Y-126117047D01*
X91415809Y-126213809D01*
X91415809Y-126504095D01*
X91367428Y-126600857D01*
X91319047Y-126649238D01*
X91222285Y-126697619D01*
X91028761Y-126697619D01*
X90932000Y-126649238D01*
X92286666Y-126697619D02*
X92286666Y-126165428D01*
X92238285Y-126068666D01*
X92141523Y-126020285D01*
X91948000Y-126020285D01*
X91851238Y-126068666D01*
X92286666Y-126649238D02*
X92189904Y-126697619D01*
X91948000Y-126697619D01*
X91851238Y-126649238D01*
X91802857Y-126552476D01*
X91802857Y-126455714D01*
X91851238Y-126358952D01*
X91948000Y-126310571D01*
X92189904Y-126310571D01*
X92286666Y-126262190D01*
X92770476Y-126697619D02*
X92770476Y-126020285D01*
X92770476Y-126213809D02*
X92818857Y-126117047D01*
X92867238Y-126068666D01*
X92964000Y-126020285D01*
X93060761Y-126020285D01*
X93254285Y-126020285D02*
X93641333Y-126020285D01*
X93399428Y-125681619D02*
X93399428Y-126552476D01*
X93447809Y-126649238D01*
X93544571Y-126697619D01*
X93641333Y-126697619D01*
X93738095Y-126794380D02*
X94512190Y-126794380D01*
X94754095Y-126020285D02*
X94754095Y-126697619D01*
X94754095Y-126117047D02*
X94802476Y-126068666D01*
X94899238Y-126020285D01*
X95044380Y-126020285D01*
X95141142Y-126068666D01*
X95189523Y-126165428D01*
X95189523Y-126697619D01*
X96108761Y-126020285D02*
X96108761Y-126697619D01*
X95673333Y-126020285D02*
X95673333Y-126552476D01*
X95721714Y-126649238D01*
X95818476Y-126697619D01*
X95963619Y-126697619D01*
X96060380Y-126649238D01*
X96108761Y-126600857D01*
X96592571Y-126697619D02*
X96592571Y-126020285D01*
X96592571Y-126117047D02*
X96640952Y-126068666D01*
X96737714Y-126020285D01*
X96882857Y-126020285D01*
X96979619Y-126068666D01*
X97028000Y-126165428D01*
X97028000Y-126697619D01*
X97028000Y-126165428D02*
X97076380Y-126068666D01*
X97173142Y-126020285D01*
X97318285Y-126020285D01*
X97415047Y-126068666D01*
X97463428Y-126165428D01*
X97463428Y-126697619D01*
X97947238Y-126697619D02*
X97947238Y-125681619D01*
X97947238Y-126068666D02*
X98044000Y-126020285D01*
X98237523Y-126020285D01*
X98334285Y-126068666D01*
X98382666Y-126117047D01*
X98431047Y-126213809D01*
X98431047Y-126504095D01*
X98382666Y-126600857D01*
X98334285Y-126649238D01*
X98237523Y-126697619D01*
X98044000Y-126697619D01*
X97947238Y-126649238D01*
X99253523Y-126649238D02*
X99156761Y-126697619D01*
X98963238Y-126697619D01*
X98866476Y-126649238D01*
X98818095Y-126552476D01*
X98818095Y-126165428D01*
X98866476Y-126068666D01*
X98963238Y-126020285D01*
X99156761Y-126020285D01*
X99253523Y-126068666D01*
X99301904Y-126165428D01*
X99301904Y-126262190D01*
X98818095Y-126358952D01*
X99737333Y-126697619D02*
X99737333Y-126020285D01*
X99737333Y-126213809D02*
X99785714Y-126117047D01*
X99834095Y-126068666D01*
X99930857Y-126020285D01*
X100027619Y-126020285D01*
X100366285Y-126600857D02*
X100414666Y-126649238D01*
X100366285Y-126697619D01*
X100317904Y-126649238D01*
X100366285Y-126600857D01*
X100366285Y-126697619D01*
X100366285Y-126068666D02*
X100414666Y-126117047D01*
X100366285Y-126165428D01*
X100317904Y-126117047D01*
X100366285Y-126068666D01*
X100366285Y-126165428D01*
X102156380Y-126697619D02*
X101575809Y-126697619D01*
X101866095Y-126697619D02*
X101866095Y-125681619D01*
X101769333Y-125826761D01*
X101672571Y-125923523D01*
X101575809Y-125971904D01*
X102785333Y-125681619D02*
X102882095Y-125681619D01*
X102978857Y-125730000D01*
X103027238Y-125778380D01*
X103075619Y-125875142D01*
X103124000Y-126068666D01*
X103124000Y-126310571D01*
X103075619Y-126504095D01*
X103027238Y-126600857D01*
X102978857Y-126649238D01*
X102882095Y-126697619D01*
X102785333Y-126697619D01*
X102688571Y-126649238D01*
X102640190Y-126600857D01*
X102591809Y-126504095D01*
X102543428Y-126310571D01*
X102543428Y-126068666D01*
X102591809Y-125875142D01*
X102640190Y-125778380D01*
X102688571Y-125730000D01*
X102785333Y-125681619D01*
X103752952Y-125681619D02*
X103849714Y-125681619D01*
X103946476Y-125730000D01*
X103994857Y-125778380D01*
X104043238Y-125875142D01*
X104091619Y-126068666D01*
X104091619Y-126310571D01*
X104043238Y-126504095D01*
X103994857Y-126600857D01*
X103946476Y-126649238D01*
X103849714Y-126697619D01*
X103752952Y-126697619D01*
X103656190Y-126649238D01*
X103607809Y-126600857D01*
X103559428Y-126504095D01*
X103511047Y-126310571D01*
X103511047Y-126068666D01*
X103559428Y-125875142D01*
X103607809Y-125778380D01*
X103656190Y-125730000D01*
X103752952Y-125681619D01*
X104720571Y-125681619D02*
X104817333Y-125681619D01*
X104914095Y-125730000D01*
X104962476Y-125778380D01*
X105010857Y-125875142D01*
X105059238Y-126068666D01*
X105059238Y-126310571D01*
X105010857Y-126504095D01*
X104962476Y-126600857D01*
X104914095Y-126649238D01*
X104817333Y-126697619D01*
X104720571Y-126697619D01*
X104623809Y-126649238D01*
X104575428Y-126600857D01*
X104527047Y-126504095D01*
X104478666Y-126310571D01*
X104478666Y-126068666D01*
X104527047Y-125875142D01*
X104575428Y-125778380D01*
X104623809Y-125730000D01*
X104720571Y-125681619D01*
X106462285Y-125681619D02*
X106559047Y-125681619D01*
X106655809Y-125730000D01*
X106704190Y-125778380D01*
X106752571Y-125875142D01*
X106800952Y-126068666D01*
X106800952Y-126310571D01*
X106752571Y-126504095D01*
X106704190Y-126600857D01*
X106655809Y-126649238D01*
X106559047Y-126697619D01*
X106462285Y-126697619D01*
X106365523Y-126649238D01*
X106317142Y-126600857D01*
X106268761Y-126504095D01*
X106220380Y-126310571D01*
X106220380Y-126068666D01*
X106268761Y-125875142D01*
X106317142Y-125778380D01*
X106365523Y-125730000D01*
X106462285Y-125681619D01*
X107720190Y-125681619D02*
X107236380Y-125681619D01*
X107188000Y-126165428D01*
X107236380Y-126117047D01*
X107333142Y-126068666D01*
X107575047Y-126068666D01*
X107671809Y-126117047D01*
X107720190Y-126165428D01*
X107768571Y-126262190D01*
X107768571Y-126504095D01*
X107720190Y-126600857D01*
X107671809Y-126649238D01*
X107575047Y-126697619D01*
X107333142Y-126697619D01*
X107236380Y-126649238D01*
X107188000Y-126600857D01*
X108929714Y-125633238D02*
X108058857Y-126939523D01*
X109220000Y-125778380D02*
X109268380Y-125730000D01*
X109365142Y-125681619D01*
X109607047Y-125681619D01*
X109703809Y-125730000D01*
X109752190Y-125778380D01*
X109800571Y-125875142D01*
X109800571Y-125971904D01*
X109752190Y-126117047D01*
X109171619Y-126697619D01*
X109800571Y-126697619D01*
X110429523Y-125681619D02*
X110526285Y-125681619D01*
X110623047Y-125730000D01*
X110671428Y-125778380D01*
X110719809Y-125875142D01*
X110768190Y-126068666D01*
X110768190Y-126310571D01*
X110719809Y-126504095D01*
X110671428Y-126600857D01*
X110623047Y-126649238D01*
X110526285Y-126697619D01*
X110429523Y-126697619D01*
X110332761Y-126649238D01*
X110284380Y-126600857D01*
X110236000Y-126504095D01*
X110187619Y-126310571D01*
X110187619Y-126068666D01*
X110236000Y-125875142D01*
X110284380Y-125778380D01*
X110332761Y-125730000D01*
X110429523Y-125681619D01*
X111735809Y-126697619D02*
X111155238Y-126697619D01*
X111445523Y-126697619D02*
X111445523Y-125681619D01*
X111348761Y-125826761D01*
X111252000Y-125923523D01*
X111155238Y-125971904D01*
X112074476Y-125681619D02*
X112751809Y-125681619D01*
X112316380Y-126697619D01*
X113816190Y-126020285D02*
X114058095Y-126697619D01*
X114300000Y-126020285D01*
X115074095Y-126649238D02*
X114977333Y-126697619D01*
X114783809Y-126697619D01*
X114687047Y-126649238D01*
X114638666Y-126552476D01*
X114638666Y-126165428D01*
X114687047Y-126068666D01*
X114783809Y-126020285D01*
X114977333Y-126020285D01*
X115074095Y-126068666D01*
X115122476Y-126165428D01*
X115122476Y-126262190D01*
X114638666Y-126358952D01*
X115557904Y-126697619D02*
X115557904Y-126020285D01*
X115557904Y-126213809D02*
X115606285Y-126117047D01*
X115654666Y-126068666D01*
X115751428Y-126020285D01*
X115848190Y-126020285D01*
X117493142Y-126697619D02*
X116912571Y-126697619D01*
X117202857Y-126697619D02*
X117202857Y-125681619D01*
X117106095Y-125826761D01*
X117009333Y-125923523D01*
X116912571Y-125971904D01*
X117928571Y-126600857D02*
X117976952Y-126649238D01*
X117928571Y-126697619D01*
X117880190Y-126649238D01*
X117928571Y-126600857D01*
X117928571Y-126697619D01*
X118944571Y-126697619D02*
X118364000Y-126697619D01*
X118654285Y-126697619D02*
X118654285Y-125681619D01*
X118557523Y-125826761D01*
X118460761Y-125923523D01*
X118364000Y-125971904D01*
X120637904Y-125681619D02*
X120154095Y-125681619D01*
X120105714Y-126165428D01*
X120154095Y-126117047D01*
X120250857Y-126068666D01*
X120492761Y-126068666D01*
X120589523Y-126117047D01*
X120637904Y-126165428D01*
X120686285Y-126262190D01*
X120686285Y-126504095D01*
X120637904Y-126600857D01*
X120589523Y-126649238D01*
X120492761Y-126697619D01*
X120250857Y-126697619D01*
X120154095Y-126649238D01*
X120105714Y-126600857D01*
X121024952Y-126697619D02*
X121557142Y-126020285D01*
X121024952Y-126020285D02*
X121557142Y-126697619D01*
X121847428Y-125681619D02*
X122476380Y-125681619D01*
X122137714Y-126068666D01*
X122282857Y-126068666D01*
X122379619Y-126117047D01*
X122428000Y-126165428D01*
X122476380Y-126262190D01*
X122476380Y-126504095D01*
X122428000Y-126600857D01*
X122379619Y-126649238D01*
X122282857Y-126697619D01*
X121992571Y-126697619D01*
X121895809Y-126649238D01*
X121847428Y-126600857D01*
D15*
X74930000Y-70485000D02*
X138430000Y-70485000D01*
X74930000Y-67945000D02*
X138430000Y-67945000D01*
X74930000Y-131445000D02*
X138430000Y-131445000D01*
X74930000Y-128905000D02*
X138430000Y-128905000D01*
X138430000Y-70485000D02*
X138430000Y-67945000D01*
X74930000Y-67945000D02*
X74930000Y-70485000D01*
X138430000Y-131445000D02*
X138430000Y-128905000D01*
X74930000Y-128905000D02*
X74930000Y-131445000D01*
X73660000Y-107315000D02*
X65405000Y-107315000D01*
X65405000Y-107315000D02*
X65405000Y-118745000D01*
X65405000Y-118745000D02*
X73660000Y-118745000D01*
X73660000Y-118745000D02*
X73660000Y-107315000D01*
X69215000Y-123063000D02*
X69977000Y-124079000D01*
X69215000Y-121793000D02*
X69215000Y-123063000D01*
X69215000Y-125857000D02*
X69215000Y-124587000D01*
X71755000Y-121793000D02*
X66675000Y-121793000D01*
X71755000Y-125857000D02*
X66675000Y-125857000D01*
X72771000Y-127127000D02*
X72771000Y-120523000D01*
X72771000Y-120523000D02*
X65659000Y-120523000D01*
X65659000Y-120523000D02*
X65659000Y-127127000D01*
X65659000Y-127127000D02*
X72771000Y-127127000D01*
D13*
X173295000Y-84695000D02*
X173295000Y-89295000D01*
X173295000Y-89295000D02*
X165795000Y-89295000D01*
X165795000Y-89295000D02*
X165795000Y-84695000D01*
X165795000Y-84695000D02*
X173295000Y-84695000D01*
X173295000Y-99935000D02*
X173295000Y-104535000D01*
X173295000Y-104535000D02*
X165795000Y-104535000D01*
X165795000Y-104535000D02*
X165795000Y-99935000D01*
X165795000Y-99935000D02*
X173295000Y-99935000D01*
D16*
X87503000Y-98298000D02*
X85979000Y-98298000D01*
X85979000Y-98298000D02*
X85979000Y-101092000D01*
X85979000Y-101092000D02*
X87503000Y-101092000D01*
X89027000Y-101092000D02*
X90551000Y-101092000D01*
X90551000Y-101092000D02*
X90551000Y-98298000D01*
X90551000Y-98298000D02*
X89027000Y-98298000D01*
D17*
X79030000Y-97745000D02*
X79030000Y-98145000D01*
X79030000Y-101645000D02*
X79030000Y-101245000D01*
X83530000Y-101645000D02*
X83530000Y-101245000D01*
X83530000Y-97745000D02*
X83530000Y-98145000D01*
X79930000Y-101645000D02*
X79930000Y-101245000D01*
X79930000Y-101245000D02*
X80080000Y-101245000D01*
X80080000Y-101245000D02*
X80080000Y-101645000D01*
X79930000Y-97745000D02*
X79930000Y-98145000D01*
X79930000Y-98145000D02*
X80080000Y-98145000D01*
X80080000Y-98145000D02*
X80080000Y-97745000D01*
X79030000Y-97745000D02*
X83530000Y-97745000D01*
X83530000Y-101645000D02*
X79030000Y-101645000D01*
D13*
X64770000Y-69215000D02*
G75*
G03X64770000Y-69215000I-2540000J0D01*
G01*
X64770000Y-130175000D02*
G75*
G03X64770000Y-130175000I-2540000J0D01*
G01*
X194310000Y-69215000D02*
G75*
G03X194310000Y-69215000I-2540000J0D01*
G01*
D15*
X69850000Y-97155000D02*
X69088000Y-96393000D01*
X71120000Y-100965000D02*
X69596000Y-101981000D01*
X57785000Y-106045000D02*
X57150000Y-106045000D01*
X57150000Y-106045000D02*
X57150000Y-93345000D01*
X57150000Y-93345000D02*
X57785000Y-93345000D01*
X57785000Y-107315000D02*
X73660000Y-107315000D01*
X73660000Y-107315000D02*
X73660000Y-92075000D01*
X73660000Y-92075000D02*
X57785000Y-92075000D01*
X57785000Y-92075000D02*
X57785000Y-107315000D01*
X71755000Y-95377000D02*
X67945000Y-99187000D01*
X71120000Y-99695000D02*
X71120000Y-102235000D01*
X173355000Y-74930000D02*
X183515000Y-74930000D01*
X173355000Y-60960000D02*
X173355000Y-74930000D01*
X183515000Y-60960000D02*
X183515000Y-74930000D01*
X173355000Y-60960000D02*
X183515000Y-60960000D01*
X53975000Y-88900000D02*
X53975000Y-78740000D01*
X53975000Y-78740000D02*
X67945000Y-78740000D01*
X53975000Y-88900000D02*
X67945000Y-88900000D01*
X67945000Y-88900000D02*
X67945000Y-78740000D01*
X183515000Y-138430000D02*
X173355000Y-138430000D01*
X173355000Y-138430000D02*
X173355000Y-124460000D01*
X183515000Y-138430000D02*
X183515000Y-124460000D01*
X183515000Y-124460000D02*
X173355000Y-124460000D01*
X200025000Y-78740000D02*
X200025000Y-88900000D01*
X200025000Y-88900000D02*
X186055000Y-88900000D01*
X200025000Y-78740000D02*
X186055000Y-78740000D01*
X186055000Y-78740000D02*
X186055000Y-88900000D01*
D13*
X194310000Y-130175000D02*
G75*
G03X194310000Y-130175000I-2540000J0D01*
G01*
X173295000Y-89775000D02*
X173295000Y-94375000D01*
X173295000Y-94375000D02*
X165795000Y-94375000D01*
X165795000Y-94375000D02*
X165795000Y-89775000D01*
X165795000Y-89775000D02*
X173295000Y-89775000D01*
X173295000Y-105015000D02*
X173295000Y-109615000D01*
X173295000Y-109615000D02*
X165795000Y-109615000D01*
X165795000Y-109615000D02*
X165795000Y-105015000D01*
X165795000Y-105015000D02*
X173295000Y-105015000D01*
X173295000Y-94855000D02*
X173295000Y-99455000D01*
X173295000Y-99455000D02*
X165795000Y-99455000D01*
X165795000Y-99455000D02*
X165795000Y-94855000D01*
X165795000Y-94855000D02*
X173295000Y-94855000D01*
X173295000Y-110095000D02*
X173295000Y-114695000D01*
X173295000Y-114695000D02*
X165795000Y-114695000D01*
X165795000Y-114695000D02*
X165795000Y-110095000D01*
X165795000Y-110095000D02*
X173295000Y-110095000D01*
X66929000Y-132715000D02*
G75*
G03X68961000Y-132715000I1016000J0D01*
G01*
X69215000Y-127635000D02*
X69215000Y-132715000D01*
X66675000Y-127635000D02*
X69215000Y-127635000D01*
X66675000Y-132715000D02*
X66675000Y-127635000D01*
X69215000Y-132715000D02*
X66675000Y-132715000D01*
X71755000Y-132715000D02*
X69215000Y-132715000D01*
X69215000Y-132715000D02*
X69215000Y-127635000D01*
X69215000Y-127635000D02*
X71755000Y-127635000D01*
X71755000Y-127635000D02*
X71755000Y-132715000D01*
X69469000Y-132715000D02*
G75*
G03X71501000Y-132715000I1016000J0D01*
G01*
X110490000Y-84455000D02*
G75*
G03X110490000Y-84455000I-2540000J0D01*
G01*
X110490000Y-114935000D02*
G75*
G03X110490000Y-114935000I-2540000J0D01*
G01*
D15*
X69977000Y-72390000D02*
X68961000Y-73152000D01*
X71247000Y-72390000D02*
X69977000Y-72390000D01*
X67183000Y-72390000D02*
X68453000Y-72390000D01*
X71247000Y-74930000D02*
X71247000Y-69850000D01*
X67183000Y-74930000D02*
X67183000Y-69850000D01*
X65913000Y-75946000D02*
X72517000Y-75946000D01*
X72517000Y-75946000D02*
X72517000Y-68834000D01*
X72517000Y-68834000D02*
X65913000Y-68834000D01*
X65913000Y-68834000D02*
X65913000Y-75946000D01*
D13*
X148590000Y-69215000D02*
G75*
G03X148590000Y-69215000I-2540000J0D01*
G01*
X148590000Y-130175000D02*
G75*
G03X148590000Y-130175000I-2540000J0D01*
G01*
D12*
X136942285Y-71591714D02*
X136942285Y-72099714D01*
X136760857Y-71301428D02*
X136579428Y-71845714D01*
X137051142Y-71845714D01*
X137668000Y-71337714D02*
X137522857Y-71337714D01*
X137450285Y-71374000D01*
X137414000Y-71410285D01*
X137341428Y-71519142D01*
X137305142Y-71664285D01*
X137305142Y-71954571D01*
X137341428Y-72027142D01*
X137377714Y-72063428D01*
X137450285Y-72099714D01*
X137595428Y-72099714D01*
X137668000Y-72063428D01*
X137704285Y-72027142D01*
X137740571Y-71954571D01*
X137740571Y-71773142D01*
X137704285Y-71700571D01*
X137668000Y-71664285D01*
X137595428Y-71628000D01*
X137450285Y-71628000D01*
X137377714Y-71664285D01*
X137341428Y-71700571D01*
X137305142Y-71773142D01*
X134402285Y-71591714D02*
X134402285Y-72099714D01*
X134220857Y-71301428D02*
X134039428Y-71845714D01*
X134511142Y-71845714D01*
X135164285Y-71337714D02*
X134801428Y-71337714D01*
X134765142Y-71700571D01*
X134801428Y-71664285D01*
X134874000Y-71628000D01*
X135055428Y-71628000D01*
X135128000Y-71664285D01*
X135164285Y-71700571D01*
X135200571Y-71773142D01*
X135200571Y-71954571D01*
X135164285Y-72027142D01*
X135128000Y-72063428D01*
X135055428Y-72099714D01*
X134874000Y-72099714D01*
X134801428Y-72063428D01*
X134765142Y-72027142D01*
X131463142Y-71337714D02*
X131934857Y-71337714D01*
X131680857Y-71628000D01*
X131789714Y-71628000D01*
X131862285Y-71664285D01*
X131898571Y-71700571D01*
X131934857Y-71773142D01*
X131934857Y-71954571D01*
X131898571Y-72027142D01*
X131862285Y-72063428D01*
X131789714Y-72099714D01*
X131572000Y-72099714D01*
X131499428Y-72063428D01*
X131463142Y-72027142D01*
X132406571Y-71337714D02*
X132479142Y-71337714D01*
X132551714Y-71374000D01*
X132588000Y-71410285D01*
X132624285Y-71482857D01*
X132660571Y-71628000D01*
X132660571Y-71809428D01*
X132624285Y-71954571D01*
X132588000Y-72027142D01*
X132551714Y-72063428D01*
X132479142Y-72099714D01*
X132406571Y-72099714D01*
X132334000Y-72063428D01*
X132297714Y-72027142D01*
X132261428Y-71954571D01*
X132225142Y-71809428D01*
X132225142Y-71628000D01*
X132261428Y-71482857D01*
X132297714Y-71410285D01*
X132334000Y-71374000D01*
X132406571Y-71337714D01*
X128959428Y-71410285D02*
X128995714Y-71374000D01*
X129068285Y-71337714D01*
X129249714Y-71337714D01*
X129322285Y-71374000D01*
X129358571Y-71410285D01*
X129394857Y-71482857D01*
X129394857Y-71555428D01*
X129358571Y-71664285D01*
X128923142Y-72099714D01*
X129394857Y-72099714D01*
X129757714Y-72099714D02*
X129902857Y-72099714D01*
X129975428Y-72063428D01*
X130011714Y-72027142D01*
X130084285Y-71918285D01*
X130120571Y-71773142D01*
X130120571Y-71482857D01*
X130084285Y-71410285D01*
X130048000Y-71374000D01*
X129975428Y-71337714D01*
X129830285Y-71337714D01*
X129757714Y-71374000D01*
X129721428Y-71410285D01*
X129685142Y-71482857D01*
X129685142Y-71664285D01*
X129721428Y-71736857D01*
X129757714Y-71773142D01*
X129830285Y-71809428D01*
X129975428Y-71809428D01*
X130048000Y-71773142D01*
X130084285Y-71736857D01*
X130120571Y-71664285D01*
X126782285Y-71591714D02*
X126782285Y-72099714D01*
X126600857Y-71301428D02*
X126419428Y-71845714D01*
X126891142Y-71845714D01*
X127508000Y-71591714D02*
X127508000Y-72099714D01*
X127326571Y-71301428D02*
X127145142Y-71845714D01*
X127616857Y-71845714D01*
X124242285Y-71591714D02*
X124242285Y-72099714D01*
X124060857Y-71301428D02*
X123879428Y-71845714D01*
X124351142Y-71845714D01*
X124568857Y-71337714D02*
X125040571Y-71337714D01*
X124786571Y-71628000D01*
X124895428Y-71628000D01*
X124968000Y-71664285D01*
X125004285Y-71700571D01*
X125040571Y-71773142D01*
X125040571Y-71954571D01*
X125004285Y-72027142D01*
X124968000Y-72063428D01*
X124895428Y-72099714D01*
X124677714Y-72099714D01*
X124605142Y-72063428D01*
X124568857Y-72027142D01*
X121702285Y-71591714D02*
X121702285Y-72099714D01*
X121520857Y-71301428D02*
X121339428Y-71845714D01*
X121811142Y-71845714D01*
X122028857Y-71337714D02*
X122536857Y-71337714D01*
X122210285Y-72099714D01*
X119162285Y-71591714D02*
X119162285Y-72099714D01*
X118980857Y-71301428D02*
X118799428Y-71845714D01*
X119271142Y-71845714D01*
X119670285Y-71664285D02*
X119597714Y-71628000D01*
X119561428Y-71591714D01*
X119525142Y-71519142D01*
X119525142Y-71482857D01*
X119561428Y-71410285D01*
X119597714Y-71374000D01*
X119670285Y-71337714D01*
X119815428Y-71337714D01*
X119888000Y-71374000D01*
X119924285Y-71410285D01*
X119960571Y-71482857D01*
X119960571Y-71519142D01*
X119924285Y-71591714D01*
X119888000Y-71628000D01*
X119815428Y-71664285D01*
X119670285Y-71664285D01*
X119597714Y-71700571D01*
X119561428Y-71736857D01*
X119525142Y-71809428D01*
X119525142Y-71954571D01*
X119561428Y-72027142D01*
X119597714Y-72063428D01*
X119670285Y-72099714D01*
X119815428Y-72099714D01*
X119888000Y-72063428D01*
X119924285Y-72027142D01*
X119960571Y-71954571D01*
X119960571Y-71809428D01*
X119924285Y-71736857D01*
X119888000Y-71700571D01*
X119815428Y-71664285D01*
X116622285Y-71591714D02*
X116622285Y-72099714D01*
X116440857Y-71301428D02*
X116259428Y-71845714D01*
X116731142Y-71845714D01*
X117057714Y-72099714D02*
X117202857Y-72099714D01*
X117275428Y-72063428D01*
X117311714Y-72027142D01*
X117384285Y-71918285D01*
X117420571Y-71773142D01*
X117420571Y-71482857D01*
X117384285Y-71410285D01*
X117348000Y-71374000D01*
X117275428Y-71337714D01*
X117130285Y-71337714D01*
X117057714Y-71374000D01*
X117021428Y-71410285D01*
X116985142Y-71482857D01*
X116985142Y-71664285D01*
X117021428Y-71736857D01*
X117057714Y-71773142D01*
X117130285Y-71809428D01*
X117275428Y-71809428D01*
X117348000Y-71773142D01*
X117384285Y-71736857D01*
X117420571Y-71664285D01*
X114118571Y-71337714D02*
X113755714Y-71337714D01*
X113719428Y-71700571D01*
X113755714Y-71664285D01*
X113828285Y-71628000D01*
X114009714Y-71628000D01*
X114082285Y-71664285D01*
X114118571Y-71700571D01*
X114154857Y-71773142D01*
X114154857Y-71954571D01*
X114118571Y-72027142D01*
X114082285Y-72063428D01*
X114009714Y-72099714D01*
X113828285Y-72099714D01*
X113755714Y-72063428D01*
X113719428Y-72027142D01*
X114626571Y-71337714D02*
X114699142Y-71337714D01*
X114771714Y-71374000D01*
X114808000Y-71410285D01*
X114844285Y-71482857D01*
X114880571Y-71628000D01*
X114880571Y-71809428D01*
X114844285Y-71954571D01*
X114808000Y-72027142D01*
X114771714Y-72063428D01*
X114699142Y-72099714D01*
X114626571Y-72099714D01*
X114554000Y-72063428D01*
X114517714Y-72027142D01*
X114481428Y-71954571D01*
X114445142Y-71809428D01*
X114445142Y-71628000D01*
X114481428Y-71482857D01*
X114517714Y-71410285D01*
X114554000Y-71374000D01*
X114626571Y-71337714D01*
X106462285Y-71591714D02*
X106462285Y-72099714D01*
X106280857Y-71301428D02*
X106099428Y-71845714D01*
X106571142Y-71845714D01*
X106825142Y-71410285D02*
X106861428Y-71374000D01*
X106934000Y-71337714D01*
X107115428Y-71337714D01*
X107188000Y-71374000D01*
X107224285Y-71410285D01*
X107260571Y-71482857D01*
X107260571Y-71555428D01*
X107224285Y-71664285D01*
X106788857Y-72099714D01*
X107260571Y-72099714D01*
X103922285Y-71591714D02*
X103922285Y-72099714D01*
X103740857Y-71301428D02*
X103559428Y-71845714D01*
X104031142Y-71845714D01*
X104720571Y-72099714D02*
X104285142Y-72099714D01*
X104502857Y-72099714D02*
X104502857Y-71337714D01*
X104430285Y-71446571D01*
X104357714Y-71519142D01*
X104285142Y-71555428D01*
X101382285Y-71591714D02*
X101382285Y-72099714D01*
X101200857Y-71301428D02*
X101019428Y-71845714D01*
X101491142Y-71845714D01*
X101926571Y-71337714D02*
X101999142Y-71337714D01*
X102071714Y-71374000D01*
X102108000Y-71410285D01*
X102144285Y-71482857D01*
X102180571Y-71628000D01*
X102180571Y-71809428D01*
X102144285Y-71954571D01*
X102108000Y-72027142D01*
X102071714Y-72063428D01*
X101999142Y-72099714D01*
X101926571Y-72099714D01*
X101854000Y-72063428D01*
X101817714Y-72027142D01*
X101781428Y-71954571D01*
X101745142Y-71809428D01*
X101745142Y-71628000D01*
X101781428Y-71482857D01*
X101817714Y-71410285D01*
X101854000Y-71374000D01*
X101926571Y-71337714D01*
X98878571Y-71337714D02*
X98515714Y-71337714D01*
X98479428Y-71700571D01*
X98515714Y-71664285D01*
X98588285Y-71628000D01*
X98769714Y-71628000D01*
X98842285Y-71664285D01*
X98878571Y-71700571D01*
X98914857Y-71773142D01*
X98914857Y-71954571D01*
X98878571Y-72027142D01*
X98842285Y-72063428D01*
X98769714Y-72099714D01*
X98588285Y-72099714D01*
X98515714Y-72063428D01*
X98479428Y-72027142D01*
X99205142Y-71410285D02*
X99241428Y-71374000D01*
X99314000Y-71337714D01*
X99495428Y-71337714D01*
X99568000Y-71374000D01*
X99604285Y-71410285D01*
X99640571Y-71482857D01*
X99640571Y-71555428D01*
X99604285Y-71664285D01*
X99168857Y-72099714D01*
X99640571Y-72099714D01*
X91258571Y-71337714D02*
X90895714Y-71337714D01*
X90859428Y-71700571D01*
X90895714Y-71664285D01*
X90968285Y-71628000D01*
X91149714Y-71628000D01*
X91222285Y-71664285D01*
X91258571Y-71700571D01*
X91294857Y-71773142D01*
X91294857Y-71954571D01*
X91258571Y-72027142D01*
X91222285Y-72063428D01*
X91149714Y-72099714D01*
X90968285Y-72099714D01*
X90895714Y-72063428D01*
X90859428Y-72027142D01*
X91948000Y-71591714D02*
X91948000Y-72099714D01*
X91766571Y-71301428D02*
X91585142Y-71845714D01*
X92056857Y-71845714D01*
X88718571Y-71337714D02*
X88355714Y-71337714D01*
X88319428Y-71700571D01*
X88355714Y-71664285D01*
X88428285Y-71628000D01*
X88609714Y-71628000D01*
X88682285Y-71664285D01*
X88718571Y-71700571D01*
X88754857Y-71773142D01*
X88754857Y-71954571D01*
X88718571Y-72027142D01*
X88682285Y-72063428D01*
X88609714Y-72099714D01*
X88428285Y-72099714D01*
X88355714Y-72063428D01*
X88319428Y-72027142D01*
X89444285Y-71337714D02*
X89081428Y-71337714D01*
X89045142Y-71700571D01*
X89081428Y-71664285D01*
X89154000Y-71628000D01*
X89335428Y-71628000D01*
X89408000Y-71664285D01*
X89444285Y-71700571D01*
X89480571Y-71773142D01*
X89480571Y-71954571D01*
X89444285Y-72027142D01*
X89408000Y-72063428D01*
X89335428Y-72099714D01*
X89154000Y-72099714D01*
X89081428Y-72063428D01*
X89045142Y-72027142D01*
X82912857Y-71882000D02*
X83275714Y-71882000D01*
X82840285Y-72099714D02*
X83094285Y-71337714D01*
X83348285Y-72099714D01*
X84001428Y-72099714D02*
X83566000Y-72099714D01*
X83783714Y-72099714D02*
X83783714Y-71337714D01*
X83711142Y-71446571D01*
X83638571Y-71519142D01*
X83566000Y-71555428D01*
X84727142Y-72099714D02*
X84291714Y-72099714D01*
X84509428Y-72099714D02*
X84509428Y-71337714D01*
X84436857Y-71446571D01*
X84364285Y-71519142D01*
X84291714Y-71555428D01*
X80372857Y-71882000D02*
X80735714Y-71882000D01*
X80300285Y-72099714D02*
X80554285Y-71337714D01*
X80808285Y-72099714D01*
X81461428Y-72099714D02*
X81026000Y-72099714D01*
X81243714Y-72099714D02*
X81243714Y-71337714D01*
X81171142Y-71446571D01*
X81098571Y-71519142D01*
X81026000Y-71555428D01*
X81933142Y-71337714D02*
X82005714Y-71337714D01*
X82078285Y-71374000D01*
X82114571Y-71410285D01*
X82150857Y-71482857D01*
X82187142Y-71628000D01*
X82187142Y-71809428D01*
X82150857Y-71954571D01*
X82114571Y-72027142D01*
X82078285Y-72063428D01*
X82005714Y-72099714D01*
X81933142Y-72099714D01*
X81860571Y-72063428D01*
X81824285Y-72027142D01*
X81788000Y-71954571D01*
X81751714Y-71809428D01*
X81751714Y-71628000D01*
X81788000Y-71482857D01*
X81824285Y-71410285D01*
X81860571Y-71374000D01*
X81933142Y-71337714D01*
X136543142Y-127217714D02*
X137014857Y-127217714D01*
X136760857Y-127508000D01*
X136869714Y-127508000D01*
X136942285Y-127544285D01*
X136978571Y-127580571D01*
X137014857Y-127653142D01*
X137014857Y-127834571D01*
X136978571Y-127907142D01*
X136942285Y-127943428D01*
X136869714Y-127979714D01*
X136652000Y-127979714D01*
X136579428Y-127943428D01*
X136543142Y-127907142D01*
X137268857Y-127217714D02*
X137740571Y-127217714D01*
X137486571Y-127508000D01*
X137595428Y-127508000D01*
X137668000Y-127544285D01*
X137704285Y-127580571D01*
X137740571Y-127653142D01*
X137740571Y-127834571D01*
X137704285Y-127907142D01*
X137668000Y-127943428D01*
X137595428Y-127979714D01*
X137377714Y-127979714D01*
X137305142Y-127943428D01*
X137268857Y-127907142D01*
X134003142Y-127217714D02*
X134474857Y-127217714D01*
X134220857Y-127508000D01*
X134329714Y-127508000D01*
X134402285Y-127544285D01*
X134438571Y-127580571D01*
X134474857Y-127653142D01*
X134474857Y-127834571D01*
X134438571Y-127907142D01*
X134402285Y-127943428D01*
X134329714Y-127979714D01*
X134112000Y-127979714D01*
X134039428Y-127943428D01*
X134003142Y-127907142D01*
X135128000Y-127471714D02*
X135128000Y-127979714D01*
X134946571Y-127181428D02*
X134765142Y-127725714D01*
X135236857Y-127725714D01*
X131463142Y-127217714D02*
X131934857Y-127217714D01*
X131680857Y-127508000D01*
X131789714Y-127508000D01*
X131862285Y-127544285D01*
X131898571Y-127580571D01*
X131934857Y-127653142D01*
X131934857Y-127834571D01*
X131898571Y-127907142D01*
X131862285Y-127943428D01*
X131789714Y-127979714D01*
X131572000Y-127979714D01*
X131499428Y-127943428D01*
X131463142Y-127907142D01*
X132624285Y-127217714D02*
X132261428Y-127217714D01*
X132225142Y-127580571D01*
X132261428Y-127544285D01*
X132334000Y-127508000D01*
X132515428Y-127508000D01*
X132588000Y-127544285D01*
X132624285Y-127580571D01*
X132660571Y-127653142D01*
X132660571Y-127834571D01*
X132624285Y-127907142D01*
X132588000Y-127943428D01*
X132515428Y-127979714D01*
X132334000Y-127979714D01*
X132261428Y-127943428D01*
X132225142Y-127907142D01*
X128923142Y-127217714D02*
X129394857Y-127217714D01*
X129140857Y-127508000D01*
X129249714Y-127508000D01*
X129322285Y-127544285D01*
X129358571Y-127580571D01*
X129394857Y-127653142D01*
X129394857Y-127834571D01*
X129358571Y-127907142D01*
X129322285Y-127943428D01*
X129249714Y-127979714D01*
X129032000Y-127979714D01*
X128959428Y-127943428D01*
X128923142Y-127907142D01*
X130048000Y-127217714D02*
X129902857Y-127217714D01*
X129830285Y-127254000D01*
X129794000Y-127290285D01*
X129721428Y-127399142D01*
X129685142Y-127544285D01*
X129685142Y-127834571D01*
X129721428Y-127907142D01*
X129757714Y-127943428D01*
X129830285Y-127979714D01*
X129975428Y-127979714D01*
X130048000Y-127943428D01*
X130084285Y-127907142D01*
X130120571Y-127834571D01*
X130120571Y-127653142D01*
X130084285Y-127580571D01*
X130048000Y-127544285D01*
X129975428Y-127508000D01*
X129830285Y-127508000D01*
X129757714Y-127544285D01*
X129721428Y-127580571D01*
X129685142Y-127653142D01*
X126383142Y-127217714D02*
X126854857Y-127217714D01*
X126600857Y-127508000D01*
X126709714Y-127508000D01*
X126782285Y-127544285D01*
X126818571Y-127580571D01*
X126854857Y-127653142D01*
X126854857Y-127834571D01*
X126818571Y-127907142D01*
X126782285Y-127943428D01*
X126709714Y-127979714D01*
X126492000Y-127979714D01*
X126419428Y-127943428D01*
X126383142Y-127907142D01*
X127108857Y-127217714D02*
X127616857Y-127217714D01*
X127290285Y-127979714D01*
X121738571Y-127217714D02*
X121375714Y-127217714D01*
X121339428Y-127580571D01*
X121375714Y-127544285D01*
X121448285Y-127508000D01*
X121629714Y-127508000D01*
X121702285Y-127544285D01*
X121738571Y-127580571D01*
X121774857Y-127653142D01*
X121774857Y-127834571D01*
X121738571Y-127907142D01*
X121702285Y-127943428D01*
X121629714Y-127979714D01*
X121448285Y-127979714D01*
X121375714Y-127943428D01*
X121339428Y-127907142D01*
X122500571Y-127979714D02*
X122065142Y-127979714D01*
X122282857Y-127979714D02*
X122282857Y-127217714D01*
X122210285Y-127326571D01*
X122137714Y-127399142D01*
X122065142Y-127435428D01*
X114118571Y-127217714D02*
X113755714Y-127217714D01*
X113719428Y-127580571D01*
X113755714Y-127544285D01*
X113828285Y-127508000D01*
X114009714Y-127508000D01*
X114082285Y-127544285D01*
X114118571Y-127580571D01*
X114154857Y-127653142D01*
X114154857Y-127834571D01*
X114118571Y-127907142D01*
X114082285Y-127943428D01*
X114009714Y-127979714D01*
X113828285Y-127979714D01*
X113755714Y-127943428D01*
X113719428Y-127907142D01*
X114408857Y-127217714D02*
X114880571Y-127217714D01*
X114626571Y-127508000D01*
X114735428Y-127508000D01*
X114808000Y-127544285D01*
X114844285Y-127580571D01*
X114880571Y-127653142D01*
X114880571Y-127834571D01*
X114844285Y-127907142D01*
X114808000Y-127943428D01*
X114735428Y-127979714D01*
X114517714Y-127979714D01*
X114445142Y-127943428D01*
X114408857Y-127907142D01*
X123843142Y-127217714D02*
X124314857Y-127217714D01*
X124060857Y-127508000D01*
X124169714Y-127508000D01*
X124242285Y-127544285D01*
X124278571Y-127580571D01*
X124314857Y-127653142D01*
X124314857Y-127834571D01*
X124278571Y-127907142D01*
X124242285Y-127943428D01*
X124169714Y-127979714D01*
X123952000Y-127979714D01*
X123879428Y-127943428D01*
X123843142Y-127907142D01*
X124750285Y-127544285D02*
X124677714Y-127508000D01*
X124641428Y-127471714D01*
X124605142Y-127399142D01*
X124605142Y-127362857D01*
X124641428Y-127290285D01*
X124677714Y-127254000D01*
X124750285Y-127217714D01*
X124895428Y-127217714D01*
X124968000Y-127254000D01*
X125004285Y-127290285D01*
X125040571Y-127362857D01*
X125040571Y-127399142D01*
X125004285Y-127471714D01*
X124968000Y-127508000D01*
X124895428Y-127544285D01*
X124750285Y-127544285D01*
X124677714Y-127580571D01*
X124641428Y-127616857D01*
X124605142Y-127689428D01*
X124605142Y-127834571D01*
X124641428Y-127907142D01*
X124677714Y-127943428D01*
X124750285Y-127979714D01*
X124895428Y-127979714D01*
X124968000Y-127943428D01*
X125004285Y-127907142D01*
X125040571Y-127834571D01*
X125040571Y-127689428D01*
X125004285Y-127616857D01*
X124968000Y-127580571D01*
X124895428Y-127544285D01*
D18*
X118321666Y-127922261D02*
X118321666Y-127287261D01*
X118472857Y-127287261D01*
X118563571Y-127317500D01*
X118624047Y-127377976D01*
X118654285Y-127438452D01*
X118684523Y-127559404D01*
X118684523Y-127650119D01*
X118654285Y-127771071D01*
X118624047Y-127831547D01*
X118563571Y-127892023D01*
X118472857Y-127922261D01*
X118321666Y-127922261D01*
X118926428Y-127740833D02*
X119228809Y-127740833D01*
X118865952Y-127922261D02*
X119077619Y-127287261D01*
X119289285Y-127922261D01*
X119863809Y-127861785D02*
X119833571Y-127892023D01*
X119742857Y-127922261D01*
X119682380Y-127922261D01*
X119591666Y-127892023D01*
X119531190Y-127831547D01*
X119500952Y-127771071D01*
X119470714Y-127650119D01*
X119470714Y-127559404D01*
X119500952Y-127438452D01*
X119531190Y-127377976D01*
X119591666Y-127317500D01*
X119682380Y-127287261D01*
X119742857Y-127287261D01*
X119833571Y-127317500D01*
X119863809Y-127347738D01*
X120256904Y-127287261D02*
X120317380Y-127287261D01*
X120377857Y-127317500D01*
X120408095Y-127347738D01*
X120438333Y-127408214D01*
X120468571Y-127529166D01*
X120468571Y-127680357D01*
X120438333Y-127801309D01*
X120408095Y-127861785D01*
X120377857Y-127892023D01*
X120317380Y-127922261D01*
X120256904Y-127922261D01*
X120196428Y-127892023D01*
X120166190Y-127861785D01*
X120135952Y-127801309D01*
X120105714Y-127680357D01*
X120105714Y-127529166D01*
X120135952Y-127408214D01*
X120166190Y-127347738D01*
X120196428Y-127317500D01*
X120256904Y-127287261D01*
X75171904Y-127740833D02*
X75474285Y-127740833D01*
X75111428Y-127922261D02*
X75323095Y-127287261D01*
X75534761Y-127922261D01*
X76109285Y-127922261D02*
X75897619Y-127619880D01*
X75746428Y-127922261D02*
X75746428Y-127287261D01*
X75988333Y-127287261D01*
X76048809Y-127317500D01*
X76079047Y-127347738D01*
X76109285Y-127408214D01*
X76109285Y-127498928D01*
X76079047Y-127559404D01*
X76048809Y-127589642D01*
X75988333Y-127619880D01*
X75746428Y-127619880D01*
X76381428Y-127589642D02*
X76593095Y-127589642D01*
X76683809Y-127922261D02*
X76381428Y-127922261D01*
X76381428Y-127287261D01*
X76683809Y-127287261D01*
X77167619Y-127589642D02*
X76955952Y-127589642D01*
X76955952Y-127922261D02*
X76955952Y-127287261D01*
X77258333Y-127287261D01*
X77953809Y-127287261D02*
X78165476Y-127922261D01*
X78377142Y-127287261D01*
X78588809Y-127589642D02*
X78800476Y-127589642D01*
X78891190Y-127922261D02*
X78588809Y-127922261D01*
X78588809Y-127287261D01*
X78891190Y-127287261D01*
X79163333Y-127589642D02*
X79375000Y-127589642D01*
X79465714Y-127922261D02*
X79163333Y-127922261D01*
X79163333Y-127287261D01*
X79465714Y-127287261D01*
X80161190Y-127740833D02*
X80463571Y-127740833D01*
X80100714Y-127922261D02*
X80312380Y-127287261D01*
X80524047Y-127922261D01*
X81068333Y-127317500D02*
X81007857Y-127287261D01*
X80917142Y-127287261D01*
X80826428Y-127317500D01*
X80765952Y-127377976D01*
X80735714Y-127438452D01*
X80705476Y-127559404D01*
X80705476Y-127650119D01*
X80735714Y-127771071D01*
X80765952Y-127831547D01*
X80826428Y-127892023D01*
X80917142Y-127922261D01*
X80977619Y-127922261D01*
X81068333Y-127892023D01*
X81098571Y-127861785D01*
X81098571Y-127650119D01*
X80977619Y-127650119D01*
X81370714Y-127922261D02*
X81370714Y-127287261D01*
X81733571Y-127922261D01*
X81733571Y-127287261D01*
X82035952Y-127922261D02*
X82035952Y-127287261D01*
X82187142Y-127287261D01*
X82277857Y-127317500D01*
X82338333Y-127377976D01*
X82368571Y-127438452D01*
X82398809Y-127559404D01*
X82398809Y-127650119D01*
X82368571Y-127771071D01*
X82338333Y-127831547D01*
X82277857Y-127892023D01*
X82187142Y-127922261D01*
X82035952Y-127922261D01*
X82882619Y-127287261D02*
X83275714Y-127287261D01*
X83064047Y-127529166D01*
X83154761Y-127529166D01*
X83215238Y-127559404D01*
X83245476Y-127589642D01*
X83275714Y-127650119D01*
X83275714Y-127801309D01*
X83245476Y-127861785D01*
X83215238Y-127892023D01*
X83154761Y-127922261D01*
X82973333Y-127922261D01*
X82912857Y-127892023D01*
X82882619Y-127861785D01*
X83547857Y-127861785D02*
X83578095Y-127892023D01*
X83547857Y-127922261D01*
X83517619Y-127892023D01*
X83547857Y-127861785D01*
X83547857Y-127922261D01*
X83789761Y-127287261D02*
X84182857Y-127287261D01*
X83971190Y-127529166D01*
X84061904Y-127529166D01*
X84122380Y-127559404D01*
X84152619Y-127589642D01*
X84182857Y-127650119D01*
X84182857Y-127801309D01*
X84152619Y-127861785D01*
X84122380Y-127892023D01*
X84061904Y-127922261D01*
X83880476Y-127922261D01*
X83820000Y-127892023D01*
X83789761Y-127861785D01*
X84364285Y-127287261D02*
X84575952Y-127922261D01*
X84787619Y-127287261D01*
D12*
X85779428Y-127290285D02*
X85815714Y-127254000D01*
X85888285Y-127217714D01*
X86069714Y-127217714D01*
X86142285Y-127254000D01*
X86178571Y-127290285D01*
X86214857Y-127362857D01*
X86214857Y-127435428D01*
X86178571Y-127544285D01*
X85743142Y-127979714D01*
X86214857Y-127979714D01*
X86468857Y-127217714D02*
X86940571Y-127217714D01*
X86686571Y-127508000D01*
X86795428Y-127508000D01*
X86868000Y-127544285D01*
X86904285Y-127580571D01*
X86940571Y-127653142D01*
X86940571Y-127834571D01*
X86904285Y-127907142D01*
X86868000Y-127943428D01*
X86795428Y-127979714D01*
X86577714Y-127979714D01*
X86505142Y-127943428D01*
X86468857Y-127907142D01*
X88319428Y-127290285D02*
X88355714Y-127254000D01*
X88428285Y-127217714D01*
X88609714Y-127217714D01*
X88682285Y-127254000D01*
X88718571Y-127290285D01*
X88754857Y-127362857D01*
X88754857Y-127435428D01*
X88718571Y-127544285D01*
X88283142Y-127979714D01*
X88754857Y-127979714D01*
X89045142Y-127290285D02*
X89081428Y-127254000D01*
X89154000Y-127217714D01*
X89335428Y-127217714D01*
X89408000Y-127254000D01*
X89444285Y-127290285D01*
X89480571Y-127362857D01*
X89480571Y-127435428D01*
X89444285Y-127544285D01*
X89008857Y-127979714D01*
X89480571Y-127979714D01*
D18*
X75353333Y-71407261D02*
X75565000Y-72042261D01*
X75776666Y-71407261D01*
X75988333Y-72042261D02*
X75988333Y-71407261D01*
X76139523Y-71407261D01*
X76230238Y-71437500D01*
X76290714Y-71497976D01*
X76320952Y-71558452D01*
X76351190Y-71679404D01*
X76351190Y-71770119D01*
X76320952Y-71891071D01*
X76290714Y-71951547D01*
X76230238Y-72012023D01*
X76139523Y-72042261D01*
X75988333Y-72042261D01*
X76623333Y-72042261D02*
X76623333Y-71407261D01*
X76774523Y-71407261D01*
X76865238Y-71437500D01*
X76925714Y-71497976D01*
X76955952Y-71558452D01*
X76986190Y-71679404D01*
X76986190Y-71770119D01*
X76955952Y-71891071D01*
X76925714Y-71951547D01*
X76865238Y-72012023D01*
X76774523Y-72042261D01*
X76623333Y-72042261D01*
X78256190Y-71437500D02*
X78195714Y-71407261D01*
X78105000Y-71407261D01*
X78014285Y-71437500D01*
X77953809Y-71497976D01*
X77923571Y-71558452D01*
X77893333Y-71679404D01*
X77893333Y-71770119D01*
X77923571Y-71891071D01*
X77953809Y-71951547D01*
X78014285Y-72012023D01*
X78105000Y-72042261D01*
X78165476Y-72042261D01*
X78256190Y-72012023D01*
X78286428Y-71981785D01*
X78286428Y-71770119D01*
X78165476Y-71770119D01*
X78558571Y-72042261D02*
X78558571Y-71407261D01*
X78921428Y-72042261D01*
X78921428Y-71407261D01*
X79223809Y-72042261D02*
X79223809Y-71407261D01*
X79375000Y-71407261D01*
X79465714Y-71437500D01*
X79526190Y-71497976D01*
X79556428Y-71558452D01*
X79586666Y-71679404D01*
X79586666Y-71770119D01*
X79556428Y-71891071D01*
X79526190Y-71951547D01*
X79465714Y-72012023D01*
X79375000Y-72042261D01*
X79223809Y-72042261D01*
X115781666Y-127922261D02*
X115781666Y-127287261D01*
X115932857Y-127287261D01*
X116023571Y-127317500D01*
X116084047Y-127377976D01*
X116114285Y-127438452D01*
X116144523Y-127559404D01*
X116144523Y-127650119D01*
X116114285Y-127771071D01*
X116084047Y-127831547D01*
X116023571Y-127892023D01*
X115932857Y-127922261D01*
X115781666Y-127922261D01*
X116386428Y-127740833D02*
X116688809Y-127740833D01*
X116325952Y-127922261D02*
X116537619Y-127287261D01*
X116749285Y-127922261D01*
X117323809Y-127861785D02*
X117293571Y-127892023D01*
X117202857Y-127922261D01*
X117142380Y-127922261D01*
X117051666Y-127892023D01*
X116991190Y-127831547D01*
X116960952Y-127771071D01*
X116930714Y-127650119D01*
X116930714Y-127559404D01*
X116960952Y-127438452D01*
X116991190Y-127377976D01*
X117051666Y-127317500D01*
X117142380Y-127287261D01*
X117202857Y-127287261D01*
X117293571Y-127317500D01*
X117323809Y-127347738D01*
X117928571Y-127922261D02*
X117565714Y-127922261D01*
X117747142Y-127922261D02*
X117747142Y-127287261D01*
X117686666Y-127377976D01*
X117626190Y-127438452D01*
X117565714Y-127468690D01*
D12*
X90859428Y-127290285D02*
X90895714Y-127254000D01*
X90968285Y-127217714D01*
X91149714Y-127217714D01*
X91222285Y-127254000D01*
X91258571Y-127290285D01*
X91294857Y-127362857D01*
X91294857Y-127435428D01*
X91258571Y-127544285D01*
X90823142Y-127979714D01*
X91294857Y-127979714D01*
X92020571Y-127979714D02*
X91585142Y-127979714D01*
X91802857Y-127979714D02*
X91802857Y-127217714D01*
X91730285Y-127326571D01*
X91657714Y-127399142D01*
X91585142Y-127435428D01*
X93399428Y-127290285D02*
X93435714Y-127254000D01*
X93508285Y-127217714D01*
X93689714Y-127217714D01*
X93762285Y-127254000D01*
X93798571Y-127290285D01*
X93834857Y-127362857D01*
X93834857Y-127435428D01*
X93798571Y-127544285D01*
X93363142Y-127979714D01*
X93834857Y-127979714D01*
X94306571Y-127217714D02*
X94379142Y-127217714D01*
X94451714Y-127254000D01*
X94488000Y-127290285D01*
X94524285Y-127362857D01*
X94560571Y-127508000D01*
X94560571Y-127689428D01*
X94524285Y-127834571D01*
X94488000Y-127907142D01*
X94451714Y-127943428D01*
X94379142Y-127979714D01*
X94306571Y-127979714D01*
X94234000Y-127943428D01*
X94197714Y-127907142D01*
X94161428Y-127834571D01*
X94125142Y-127689428D01*
X94125142Y-127508000D01*
X94161428Y-127362857D01*
X94197714Y-127290285D01*
X94234000Y-127254000D01*
X94306571Y-127217714D01*
X96374857Y-127979714D02*
X95939428Y-127979714D01*
X96157142Y-127979714D02*
X96157142Y-127217714D01*
X96084571Y-127326571D01*
X96012000Y-127399142D01*
X95939428Y-127435428D01*
X96737714Y-127979714D02*
X96882857Y-127979714D01*
X96955428Y-127943428D01*
X96991714Y-127907142D01*
X97064285Y-127798285D01*
X97100571Y-127653142D01*
X97100571Y-127362857D01*
X97064285Y-127290285D01*
X97028000Y-127254000D01*
X96955428Y-127217714D01*
X96810285Y-127217714D01*
X96737714Y-127254000D01*
X96701428Y-127290285D01*
X96665142Y-127362857D01*
X96665142Y-127544285D01*
X96701428Y-127616857D01*
X96737714Y-127653142D01*
X96810285Y-127689428D01*
X96955428Y-127689428D01*
X97028000Y-127653142D01*
X97064285Y-127616857D01*
X97100571Y-127544285D01*
X98914857Y-127979714D02*
X98479428Y-127979714D01*
X98697142Y-127979714D02*
X98697142Y-127217714D01*
X98624571Y-127326571D01*
X98552000Y-127399142D01*
X98479428Y-127435428D01*
X99350285Y-127544285D02*
X99277714Y-127508000D01*
X99241428Y-127471714D01*
X99205142Y-127399142D01*
X99205142Y-127362857D01*
X99241428Y-127290285D01*
X99277714Y-127254000D01*
X99350285Y-127217714D01*
X99495428Y-127217714D01*
X99568000Y-127254000D01*
X99604285Y-127290285D01*
X99640571Y-127362857D01*
X99640571Y-127399142D01*
X99604285Y-127471714D01*
X99568000Y-127508000D01*
X99495428Y-127544285D01*
X99350285Y-127544285D01*
X99277714Y-127580571D01*
X99241428Y-127616857D01*
X99205142Y-127689428D01*
X99205142Y-127834571D01*
X99241428Y-127907142D01*
X99277714Y-127943428D01*
X99350285Y-127979714D01*
X99495428Y-127979714D01*
X99568000Y-127943428D01*
X99604285Y-127907142D01*
X99640571Y-127834571D01*
X99640571Y-127689428D01*
X99604285Y-127616857D01*
X99568000Y-127580571D01*
X99495428Y-127544285D01*
X101454857Y-127979714D02*
X101019428Y-127979714D01*
X101237142Y-127979714D02*
X101237142Y-127217714D01*
X101164571Y-127326571D01*
X101092000Y-127399142D01*
X101019428Y-127435428D01*
X101708857Y-127217714D02*
X102216857Y-127217714D01*
X101890285Y-127979714D01*
X103994857Y-127979714D02*
X103559428Y-127979714D01*
X103777142Y-127979714D02*
X103777142Y-127217714D01*
X103704571Y-127326571D01*
X103632000Y-127399142D01*
X103559428Y-127435428D01*
X104648000Y-127217714D02*
X104502857Y-127217714D01*
X104430285Y-127254000D01*
X104394000Y-127290285D01*
X104321428Y-127399142D01*
X104285142Y-127544285D01*
X104285142Y-127834571D01*
X104321428Y-127907142D01*
X104357714Y-127943428D01*
X104430285Y-127979714D01*
X104575428Y-127979714D01*
X104648000Y-127943428D01*
X104684285Y-127907142D01*
X104720571Y-127834571D01*
X104720571Y-127653142D01*
X104684285Y-127580571D01*
X104648000Y-127544285D01*
X104575428Y-127508000D01*
X104430285Y-127508000D01*
X104357714Y-127544285D01*
X104321428Y-127580571D01*
X104285142Y-127653142D01*
X106534857Y-127979714D02*
X106099428Y-127979714D01*
X106317142Y-127979714D02*
X106317142Y-127217714D01*
X106244571Y-127326571D01*
X106172000Y-127399142D01*
X106099428Y-127435428D01*
X107224285Y-127217714D02*
X106861428Y-127217714D01*
X106825142Y-127580571D01*
X106861428Y-127544285D01*
X106934000Y-127508000D01*
X107115428Y-127508000D01*
X107188000Y-127544285D01*
X107224285Y-127580571D01*
X107260571Y-127653142D01*
X107260571Y-127834571D01*
X107224285Y-127907142D01*
X107188000Y-127943428D01*
X107115428Y-127979714D01*
X106934000Y-127979714D01*
X106861428Y-127943428D01*
X106825142Y-127907142D01*
X109074857Y-127979714D02*
X108639428Y-127979714D01*
X108857142Y-127979714D02*
X108857142Y-127217714D01*
X108784571Y-127326571D01*
X108712000Y-127399142D01*
X108639428Y-127435428D01*
X109728000Y-127471714D02*
X109728000Y-127979714D01*
X109546571Y-127181428D02*
X109365142Y-127725714D01*
X109836857Y-127725714D01*
X111614857Y-127979714D02*
X111179428Y-127979714D01*
X111397142Y-127979714D02*
X111397142Y-127217714D01*
X111324571Y-127326571D01*
X111252000Y-127399142D01*
X111179428Y-127435428D01*
X111868857Y-127217714D02*
X112340571Y-127217714D01*
X112086571Y-127508000D01*
X112195428Y-127508000D01*
X112268000Y-127544285D01*
X112304285Y-127580571D01*
X112340571Y-127653142D01*
X112340571Y-127834571D01*
X112304285Y-127907142D01*
X112268000Y-127943428D01*
X112195428Y-127979714D01*
X111977714Y-127979714D01*
X111905142Y-127943428D01*
X111868857Y-127907142D01*
X86142285Y-71410285D02*
X86178571Y-71374000D01*
X86251142Y-71337714D01*
X86432571Y-71337714D01*
X86505142Y-71374000D01*
X86541428Y-71410285D01*
X86577714Y-71482857D01*
X86577714Y-71555428D01*
X86541428Y-71664285D01*
X86106000Y-72099714D01*
X86577714Y-72099714D01*
X94161428Y-71337714D02*
X93798571Y-71337714D01*
X93762285Y-71700571D01*
X93798571Y-71664285D01*
X93871142Y-71628000D01*
X94052571Y-71628000D01*
X94125142Y-71664285D01*
X94161428Y-71700571D01*
X94197714Y-71773142D01*
X94197714Y-71954571D01*
X94161428Y-72027142D01*
X94125142Y-72063428D01*
X94052571Y-72099714D01*
X93871142Y-72099714D01*
X93798571Y-72063428D01*
X93762285Y-72027142D01*
X96665142Y-71337714D02*
X96520000Y-71337714D01*
X96447428Y-71374000D01*
X96411142Y-71410285D01*
X96338571Y-71519142D01*
X96302285Y-71664285D01*
X96302285Y-71954571D01*
X96338571Y-72027142D01*
X96374857Y-72063428D01*
X96447428Y-72099714D01*
X96592571Y-72099714D01*
X96665142Y-72063428D01*
X96701428Y-72027142D01*
X96737714Y-71954571D01*
X96737714Y-71773142D01*
X96701428Y-71700571D01*
X96665142Y-71664285D01*
X96592571Y-71628000D01*
X96447428Y-71628000D01*
X96374857Y-71664285D01*
X96338571Y-71700571D01*
X96302285Y-71773142D01*
X109074857Y-72099714D02*
X108639428Y-72099714D01*
X108857142Y-72099714D02*
X108857142Y-71337714D01*
X108784571Y-71446571D01*
X108712000Y-71519142D01*
X108639428Y-71555428D01*
X109800571Y-72099714D02*
X109365142Y-72099714D01*
X109582857Y-72099714D02*
X109582857Y-71337714D01*
X109510285Y-71446571D01*
X109437714Y-71519142D01*
X109365142Y-71555428D01*
X111614857Y-72099714D02*
X111179428Y-72099714D01*
X111397142Y-72099714D02*
X111397142Y-71337714D01*
X111324571Y-71446571D01*
X111252000Y-71519142D01*
X111179428Y-71555428D01*
X111905142Y-71410285D02*
X111941428Y-71374000D01*
X112014000Y-71337714D01*
X112195428Y-71337714D01*
X112268000Y-71374000D01*
X112304285Y-71410285D01*
X112340571Y-71482857D01*
X112340571Y-71555428D01*
X112304285Y-71664285D01*
X111868857Y-72099714D01*
X112340571Y-72099714D01*
D11*
X75389619Y-114166952D02*
X74905809Y-114505619D01*
X75389619Y-114747523D02*
X74373619Y-114747523D01*
X74373619Y-114360476D01*
X74422000Y-114263714D01*
X74470380Y-114215333D01*
X74567142Y-114166952D01*
X74712285Y-114166952D01*
X74809047Y-114215333D01*
X74857428Y-114263714D01*
X74905809Y-114360476D01*
X74905809Y-114747523D01*
X74857428Y-113731523D02*
X74857428Y-113392857D01*
X75389619Y-113247714D02*
X75389619Y-113731523D01*
X74373619Y-113731523D01*
X74373619Y-113247714D01*
X74422000Y-112280095D02*
X74373619Y-112376857D01*
X74373619Y-112522000D01*
X74422000Y-112667142D01*
X74518761Y-112763904D01*
X74615523Y-112812285D01*
X74809047Y-112860666D01*
X74954190Y-112860666D01*
X75147714Y-112812285D01*
X75244476Y-112763904D01*
X75341238Y-112667142D01*
X75389619Y-112522000D01*
X75389619Y-112425238D01*
X75341238Y-112280095D01*
X75292857Y-112231714D01*
X74954190Y-112231714D01*
X74954190Y-112425238D01*
X75389619Y-111264095D02*
X75389619Y-111844666D01*
X75389619Y-111554380D02*
X74373619Y-111554380D01*
X74518761Y-111651142D01*
X74615523Y-111747904D01*
X74663904Y-111844666D01*
D12*
X73279000Y-124133428D02*
X73387857Y-124169714D01*
X73569285Y-124169714D01*
X73641857Y-124133428D01*
X73678142Y-124097142D01*
X73714428Y-124024571D01*
X73714428Y-123952000D01*
X73678142Y-123879428D01*
X73641857Y-123843142D01*
X73569285Y-123806857D01*
X73424142Y-123770571D01*
X73351571Y-123734285D01*
X73315285Y-123698000D01*
X73279000Y-123625428D01*
X73279000Y-123552857D01*
X73315285Y-123480285D01*
X73351571Y-123444000D01*
X73424142Y-123407714D01*
X73605571Y-123407714D01*
X73714428Y-123444000D01*
X73968428Y-123407714D02*
X74149857Y-124169714D01*
X74295000Y-123625428D01*
X74440142Y-124169714D01*
X74621571Y-123407714D01*
X75311000Y-124169714D02*
X74875571Y-124169714D01*
X75093285Y-124169714D02*
X75093285Y-123407714D01*
X75020714Y-123516571D01*
X74948142Y-123589142D01*
X74875571Y-123625428D01*
D11*
X62157428Y-125494142D02*
X62205809Y-125349000D01*
X62254190Y-125300619D01*
X62350952Y-125252238D01*
X62496095Y-125252238D01*
X62592857Y-125300619D01*
X62641238Y-125349000D01*
X62689619Y-125445761D01*
X62689619Y-125832809D01*
X61673619Y-125832809D01*
X61673619Y-125494142D01*
X61722000Y-125397380D01*
X61770380Y-125349000D01*
X61867142Y-125300619D01*
X61963904Y-125300619D01*
X62060666Y-125349000D01*
X62109047Y-125397380D01*
X62157428Y-125494142D01*
X62157428Y-125832809D01*
X61673619Y-124961952D02*
X61673619Y-124381380D01*
X62689619Y-124671666D02*
X61673619Y-124671666D01*
X62689619Y-124042714D02*
X61673619Y-124042714D01*
X62689619Y-123462142D01*
X61673619Y-123462142D01*
X62399333Y-122252619D02*
X62399333Y-121768809D01*
X62689619Y-122349380D02*
X61673619Y-122010714D01*
X62689619Y-121672047D01*
X165559619Y-87744904D02*
X164543619Y-87744904D01*
X164543619Y-87503000D01*
X164592000Y-87357857D01*
X164688761Y-87261095D01*
X164785523Y-87212714D01*
X164979047Y-87164333D01*
X165124190Y-87164333D01*
X165317714Y-87212714D01*
X165414476Y-87261095D01*
X165511238Y-87357857D01*
X165559619Y-87503000D01*
X165559619Y-87744904D01*
X164882285Y-86293476D02*
X165559619Y-86293476D01*
X164495238Y-86535380D02*
X165220952Y-86777285D01*
X165220952Y-86148333D01*
X165559619Y-102984904D02*
X164543619Y-102984904D01*
X164543619Y-102743000D01*
X164592000Y-102597857D01*
X164688761Y-102501095D01*
X164785523Y-102452714D01*
X164979047Y-102404333D01*
X165124190Y-102404333D01*
X165317714Y-102452714D01*
X165414476Y-102501095D01*
X165511238Y-102597857D01*
X165559619Y-102743000D01*
X165559619Y-102984904D01*
X164543619Y-102065666D02*
X164543619Y-101436714D01*
X164930666Y-101775380D01*
X164930666Y-101630238D01*
X164979047Y-101533476D01*
X165027428Y-101485095D01*
X165124190Y-101436714D01*
X165366095Y-101436714D01*
X165462857Y-101485095D01*
X165511238Y-101533476D01*
X165559619Y-101630238D01*
X165559619Y-101920523D01*
X165511238Y-102017285D01*
X165462857Y-102065666D01*
X88095666Y-97771857D02*
X88047285Y-97820238D01*
X87902142Y-97868619D01*
X87805380Y-97868619D01*
X87660238Y-97820238D01*
X87563476Y-97723476D01*
X87515095Y-97626714D01*
X87466714Y-97433190D01*
X87466714Y-97288047D01*
X87515095Y-97094523D01*
X87563476Y-96997761D01*
X87660238Y-96901000D01*
X87805380Y-96852619D01*
X87902142Y-96852619D01*
X88047285Y-96901000D01*
X88095666Y-96949380D01*
X89014904Y-96852619D02*
X88531095Y-96852619D01*
X88482714Y-97336428D01*
X88531095Y-97288047D01*
X88627857Y-97239666D01*
X88869761Y-97239666D01*
X88966523Y-97288047D01*
X89014904Y-97336428D01*
X89063285Y-97433190D01*
X89063285Y-97675095D01*
X89014904Y-97771857D01*
X88966523Y-97820238D01*
X88869761Y-97868619D01*
X88627857Y-97868619D01*
X88531095Y-97820238D01*
X88482714Y-97771857D01*
X87176428Y-102440619D02*
X86595857Y-102440619D01*
X86886142Y-102440619D02*
X86886142Y-101424619D01*
X86789380Y-101569761D01*
X86692619Y-101666523D01*
X86595857Y-101714904D01*
X87805380Y-101424619D02*
X87902142Y-101424619D01*
X87998904Y-101473000D01*
X88047285Y-101521380D01*
X88095666Y-101618142D01*
X88144047Y-101811666D01*
X88144047Y-102053571D01*
X88095666Y-102247095D01*
X88047285Y-102343857D01*
X87998904Y-102392238D01*
X87902142Y-102440619D01*
X87805380Y-102440619D01*
X87708619Y-102392238D01*
X87660238Y-102343857D01*
X87611857Y-102247095D01*
X87563476Y-102053571D01*
X87563476Y-101811666D01*
X87611857Y-101618142D01*
X87660238Y-101521380D01*
X87708619Y-101473000D01*
X87805380Y-101424619D01*
X89014904Y-101763285D02*
X89014904Y-102440619D01*
X88579476Y-101763285D02*
X88579476Y-102295476D01*
X88627857Y-102392238D01*
X88724619Y-102440619D01*
X88869761Y-102440619D01*
X88966523Y-102392238D01*
X89014904Y-102343857D01*
X89837380Y-101908428D02*
X89498714Y-101908428D01*
X89498714Y-102440619D02*
X89498714Y-101424619D01*
X89982523Y-101424619D01*
X80530095Y-96979619D02*
X80530095Y-95963619D01*
X80772000Y-95963619D01*
X80917142Y-96012000D01*
X81013904Y-96108761D01*
X81062285Y-96205523D01*
X81110666Y-96399047D01*
X81110666Y-96544190D01*
X81062285Y-96737714D01*
X81013904Y-96834476D01*
X80917142Y-96931238D01*
X80772000Y-96979619D01*
X80530095Y-96979619D01*
X82078285Y-96979619D02*
X81497714Y-96979619D01*
X81788000Y-96979619D02*
X81788000Y-95963619D01*
X81691238Y-96108761D01*
X81594476Y-96205523D01*
X81497714Y-96253904D01*
X75389619Y-100444904D02*
X74373619Y-100444904D01*
X74373619Y-100057857D01*
X74422000Y-99961095D01*
X74470380Y-99912714D01*
X74567142Y-99864333D01*
X74712285Y-99864333D01*
X74809047Y-99912714D01*
X74857428Y-99961095D01*
X74905809Y-100057857D01*
X74905809Y-100444904D01*
X74470380Y-99477285D02*
X74422000Y-99428904D01*
X74373619Y-99332142D01*
X74373619Y-99090238D01*
X74422000Y-98993476D01*
X74470380Y-98945095D01*
X74567142Y-98896714D01*
X74663904Y-98896714D01*
X74809047Y-98945095D01*
X75389619Y-99525666D01*
X75389619Y-98896714D01*
X68761428Y-95558428D02*
X68809809Y-95413285D01*
X68858190Y-95364904D01*
X68954952Y-95316523D01*
X69100095Y-95316523D01*
X69196857Y-95364904D01*
X69245238Y-95413285D01*
X69293619Y-95510047D01*
X69293619Y-95897095D01*
X68277619Y-95897095D01*
X68277619Y-95558428D01*
X68326000Y-95461666D01*
X68374380Y-95413285D01*
X68471142Y-95364904D01*
X68567904Y-95364904D01*
X68664666Y-95413285D01*
X68713047Y-95461666D01*
X68761428Y-95558428D01*
X68761428Y-95897095D01*
X68023619Y-102525285D02*
X68023619Y-101944714D01*
X69039619Y-102235000D02*
X68023619Y-102235000D01*
X177685095Y-79834619D02*
X177685095Y-78818619D01*
X178072142Y-78818619D01*
X178168904Y-78867000D01*
X178217285Y-78915380D01*
X178265666Y-79012142D01*
X178265666Y-79157285D01*
X178217285Y-79254047D01*
X178168904Y-79302428D01*
X178072142Y-79350809D01*
X177685095Y-79350809D01*
X179136523Y-79157285D02*
X179136523Y-79834619D01*
X178894619Y-78770238D02*
X178652714Y-79495952D01*
X179281666Y-79495952D01*
X72849619Y-85053714D02*
X71833619Y-85053714D01*
X71833619Y-84666666D01*
X71882000Y-84569904D01*
X71930380Y-84521523D01*
X72027142Y-84473142D01*
X72172285Y-84473142D01*
X72269047Y-84521523D01*
X72317428Y-84569904D01*
X72365809Y-84666666D01*
X72365809Y-85053714D01*
X72849619Y-83505523D02*
X72849619Y-84086095D01*
X72849619Y-83795809D02*
X71833619Y-83795809D01*
X71978761Y-83892571D01*
X72075523Y-83989333D01*
X72123904Y-84086095D01*
X71833619Y-82876571D02*
X71833619Y-82779809D01*
X71882000Y-82683047D01*
X71930380Y-82634666D01*
X72027142Y-82586285D01*
X72220666Y-82537904D01*
X72462571Y-82537904D01*
X72656095Y-82586285D01*
X72752857Y-82634666D01*
X72801238Y-82683047D01*
X72849619Y-82779809D01*
X72849619Y-82876571D01*
X72801238Y-82973333D01*
X72752857Y-83021714D01*
X72656095Y-83070095D01*
X72462571Y-83118476D01*
X72220666Y-83118476D01*
X72027142Y-83070095D01*
X71930380Y-83021714D01*
X71882000Y-82973333D01*
X71833619Y-82876571D01*
X177685095Y-120474619D02*
X177685095Y-119458619D01*
X178072142Y-119458619D01*
X178168904Y-119507000D01*
X178217285Y-119555380D01*
X178265666Y-119652142D01*
X178265666Y-119797285D01*
X178217285Y-119894047D01*
X178168904Y-119942428D01*
X178072142Y-119990809D01*
X177685095Y-119990809D01*
X179136523Y-119458619D02*
X178943000Y-119458619D01*
X178846238Y-119507000D01*
X178797857Y-119555380D01*
X178701095Y-119700523D01*
X178652714Y-119894047D01*
X178652714Y-120281095D01*
X178701095Y-120377857D01*
X178749476Y-120426238D01*
X178846238Y-120474619D01*
X179039761Y-120474619D01*
X179136523Y-120426238D01*
X179184904Y-120377857D01*
X179233285Y-120281095D01*
X179233285Y-120039190D01*
X179184904Y-119942428D01*
X179136523Y-119894047D01*
X179039761Y-119845666D01*
X178846238Y-119845666D01*
X178749476Y-119894047D01*
X178701095Y-119942428D01*
X178652714Y-120039190D01*
X182069619Y-84569904D02*
X181053619Y-84569904D01*
X181053619Y-84182857D01*
X181102000Y-84086095D01*
X181150380Y-84037714D01*
X181247142Y-83989333D01*
X181392285Y-83989333D01*
X181489047Y-84037714D01*
X181537428Y-84086095D01*
X181585809Y-84182857D01*
X181585809Y-84569904D01*
X181489047Y-83408761D02*
X181440666Y-83505523D01*
X181392285Y-83553904D01*
X181295523Y-83602285D01*
X181247142Y-83602285D01*
X181150380Y-83553904D01*
X181102000Y-83505523D01*
X181053619Y-83408761D01*
X181053619Y-83215238D01*
X181102000Y-83118476D01*
X181150380Y-83070095D01*
X181247142Y-83021714D01*
X181295523Y-83021714D01*
X181392285Y-83070095D01*
X181440666Y-83118476D01*
X181489047Y-83215238D01*
X181489047Y-83408761D01*
X181537428Y-83505523D01*
X181585809Y-83553904D01*
X181682571Y-83602285D01*
X181876095Y-83602285D01*
X181972857Y-83553904D01*
X182021238Y-83505523D01*
X182069619Y-83408761D01*
X182069619Y-83215238D01*
X182021238Y-83118476D01*
X181972857Y-83070095D01*
X181876095Y-83021714D01*
X181682571Y-83021714D01*
X181585809Y-83070095D01*
X181537428Y-83118476D01*
X181489047Y-83215238D01*
X165559619Y-92824904D02*
X164543619Y-92824904D01*
X164543619Y-92583000D01*
X164592000Y-92437857D01*
X164688761Y-92341095D01*
X164785523Y-92292714D01*
X164979047Y-92244333D01*
X165124190Y-92244333D01*
X165317714Y-92292714D01*
X165414476Y-92341095D01*
X165511238Y-92437857D01*
X165559619Y-92583000D01*
X165559619Y-92824904D01*
X164543619Y-91373476D02*
X164543619Y-91567000D01*
X164592000Y-91663761D01*
X164640380Y-91712142D01*
X164785523Y-91808904D01*
X164979047Y-91857285D01*
X165366095Y-91857285D01*
X165462857Y-91808904D01*
X165511238Y-91760523D01*
X165559619Y-91663761D01*
X165559619Y-91470238D01*
X165511238Y-91373476D01*
X165462857Y-91325095D01*
X165366095Y-91276714D01*
X165124190Y-91276714D01*
X165027428Y-91325095D01*
X164979047Y-91373476D01*
X164930666Y-91470238D01*
X164930666Y-91663761D01*
X164979047Y-91760523D01*
X165027428Y-91808904D01*
X165124190Y-91857285D01*
X165559619Y-108064904D02*
X164543619Y-108064904D01*
X164543619Y-107823000D01*
X164592000Y-107677857D01*
X164688761Y-107581095D01*
X164785523Y-107532714D01*
X164979047Y-107484333D01*
X165124190Y-107484333D01*
X165317714Y-107532714D01*
X165414476Y-107581095D01*
X165511238Y-107677857D01*
X165559619Y-107823000D01*
X165559619Y-108064904D01*
X164979047Y-106903761D02*
X164930666Y-107000523D01*
X164882285Y-107048904D01*
X164785523Y-107097285D01*
X164737142Y-107097285D01*
X164640380Y-107048904D01*
X164592000Y-107000523D01*
X164543619Y-106903761D01*
X164543619Y-106710238D01*
X164592000Y-106613476D01*
X164640380Y-106565095D01*
X164737142Y-106516714D01*
X164785523Y-106516714D01*
X164882285Y-106565095D01*
X164930666Y-106613476D01*
X164979047Y-106710238D01*
X164979047Y-106903761D01*
X165027428Y-107000523D01*
X165075809Y-107048904D01*
X165172571Y-107097285D01*
X165366095Y-107097285D01*
X165462857Y-107048904D01*
X165511238Y-107000523D01*
X165559619Y-106903761D01*
X165559619Y-106710238D01*
X165511238Y-106613476D01*
X165462857Y-106565095D01*
X165366095Y-106516714D01*
X165172571Y-106516714D01*
X165075809Y-106565095D01*
X165027428Y-106613476D01*
X164979047Y-106710238D01*
X165559619Y-98388714D02*
X164543619Y-98388714D01*
X164543619Y-98146809D01*
X164592000Y-98001666D01*
X164688761Y-97904904D01*
X164785523Y-97856523D01*
X164979047Y-97808142D01*
X165124190Y-97808142D01*
X165317714Y-97856523D01*
X165414476Y-97904904D01*
X165511238Y-98001666D01*
X165559619Y-98146809D01*
X165559619Y-98388714D01*
X165559619Y-96840523D02*
X165559619Y-97421095D01*
X165559619Y-97130809D02*
X164543619Y-97130809D01*
X164688761Y-97227571D01*
X164785523Y-97324333D01*
X164833904Y-97421095D01*
X164543619Y-96211571D02*
X164543619Y-96114809D01*
X164592000Y-96018047D01*
X164640380Y-95969666D01*
X164737142Y-95921285D01*
X164930666Y-95872904D01*
X165172571Y-95872904D01*
X165366095Y-95921285D01*
X165462857Y-95969666D01*
X165511238Y-96018047D01*
X165559619Y-96114809D01*
X165559619Y-96211571D01*
X165511238Y-96308333D01*
X165462857Y-96356714D01*
X165366095Y-96405095D01*
X165172571Y-96453476D01*
X164930666Y-96453476D01*
X164737142Y-96405095D01*
X164640380Y-96356714D01*
X164592000Y-96308333D01*
X164543619Y-96211571D01*
X165559619Y-113628714D02*
X164543619Y-113628714D01*
X164543619Y-113386809D01*
X164592000Y-113241666D01*
X164688761Y-113144904D01*
X164785523Y-113096523D01*
X164979047Y-113048142D01*
X165124190Y-113048142D01*
X165317714Y-113096523D01*
X165414476Y-113144904D01*
X165511238Y-113241666D01*
X165559619Y-113386809D01*
X165559619Y-113628714D01*
X165559619Y-112080523D02*
X165559619Y-112661095D01*
X165559619Y-112370809D02*
X164543619Y-112370809D01*
X164688761Y-112467571D01*
X164785523Y-112564333D01*
X164833904Y-112661095D01*
X164640380Y-111693476D02*
X164592000Y-111645095D01*
X164543619Y-111548333D01*
X164543619Y-111306428D01*
X164592000Y-111209666D01*
X164640380Y-111161285D01*
X164737142Y-111112904D01*
X164833904Y-111112904D01*
X164979047Y-111161285D01*
X165559619Y-111741857D01*
X165559619Y-111112904D01*
D12*
X66384714Y-132207000D02*
X66384714Y-132569857D01*
X65622714Y-132569857D01*
X65695285Y-131989285D02*
X65659000Y-131953000D01*
X65622714Y-131880428D01*
X65622714Y-131699000D01*
X65659000Y-131626428D01*
X65695285Y-131590142D01*
X65767857Y-131553857D01*
X65840428Y-131553857D01*
X65949285Y-131590142D01*
X66384714Y-132025571D01*
X66384714Y-131553857D01*
D16*
X68767476Y-131735285D02*
X69154523Y-131735285D01*
X68961000Y-131928809D02*
X68961000Y-131541761D01*
D12*
X72734714Y-132207000D02*
X72734714Y-132569857D01*
X71972714Y-132569857D01*
X71972714Y-132025571D02*
X71972714Y-131553857D01*
X72263000Y-131807857D01*
X72263000Y-131699000D01*
X72299285Y-131626428D01*
X72335571Y-131590142D01*
X72408142Y-131553857D01*
X72589571Y-131553857D01*
X72662142Y-131590142D01*
X72698428Y-131626428D01*
X72734714Y-131699000D01*
X72734714Y-131916714D01*
X72698428Y-131989285D01*
X72662142Y-132025571D01*
D16*
X71307476Y-131735285D02*
X71694523Y-131735285D01*
X71501000Y-131928809D02*
X71501000Y-131541761D01*
D11*
X74071238Y-73744666D02*
X74119619Y-73599523D01*
X74119619Y-73357619D01*
X74071238Y-73260857D01*
X74022857Y-73212476D01*
X73926095Y-73164095D01*
X73829333Y-73164095D01*
X73732571Y-73212476D01*
X73684190Y-73260857D01*
X73635809Y-73357619D01*
X73587428Y-73551142D01*
X73539047Y-73647904D01*
X73490666Y-73696285D01*
X73393904Y-73744666D01*
X73297142Y-73744666D01*
X73200380Y-73696285D01*
X73152000Y-73647904D01*
X73103619Y-73551142D01*
X73103619Y-73309238D01*
X73152000Y-73164095D01*
X73103619Y-72825428D02*
X74119619Y-72583523D01*
X73393904Y-72390000D01*
X74119619Y-72196476D01*
X73103619Y-71954571D01*
X73200380Y-71615904D02*
X73152000Y-71567523D01*
X73103619Y-71470761D01*
X73103619Y-71228857D01*
X73152000Y-71132095D01*
X73200380Y-71083714D01*
X73297142Y-71035333D01*
X73393904Y-71035333D01*
X73539047Y-71083714D01*
X74119619Y-71664285D01*
X74119619Y-71035333D01*
X64697428Y-75401714D02*
X64745809Y-75256571D01*
X64794190Y-75208190D01*
X64890952Y-75159809D01*
X65036095Y-75159809D01*
X65132857Y-75208190D01*
X65181238Y-75256571D01*
X65229619Y-75353333D01*
X65229619Y-75740380D01*
X64213619Y-75740380D01*
X64213619Y-75401714D01*
X64262000Y-75304952D01*
X64310380Y-75256571D01*
X64407142Y-75208190D01*
X64503904Y-75208190D01*
X64600666Y-75256571D01*
X64649047Y-75304952D01*
X64697428Y-75401714D01*
X64697428Y-75740380D01*
X64213619Y-74869523D02*
X64213619Y-74288952D01*
X65229619Y-74579238D02*
X64213619Y-74579238D01*
X65229619Y-73950285D02*
X64213619Y-73950285D01*
X65229619Y-73369714D01*
X64213619Y-73369714D01*
X64697428Y-71773142D02*
X64745809Y-71628000D01*
X64794190Y-71579619D01*
X64890952Y-71531238D01*
X65036095Y-71531238D01*
X65132857Y-71579619D01*
X65181238Y-71628000D01*
X65229619Y-71724761D01*
X65229619Y-72111809D01*
X64213619Y-72111809D01*
X64213619Y-71773142D01*
X64262000Y-71676380D01*
X64310380Y-71628000D01*
X64407142Y-71579619D01*
X64503904Y-71579619D01*
X64600666Y-71628000D01*
X64649047Y-71676380D01*
X64697428Y-71773142D01*
X64697428Y-72111809D01*
%LPC*%
D19*
X137160000Y-69215000D03*
X134620000Y-69215000D03*
X132080000Y-69215000D03*
X129540000Y-69215000D03*
X127000000Y-69215000D03*
X124460000Y-69215000D03*
X121920000Y-69215000D03*
X119380000Y-69215000D03*
X116840000Y-69215000D03*
X137160000Y-130175000D03*
X134620000Y-130175000D03*
X132080000Y-130175000D03*
X129540000Y-130175000D03*
X127000000Y-130175000D03*
X124460000Y-130175000D03*
X121920000Y-130175000D03*
X119380000Y-130175000D03*
X116840000Y-130175000D03*
D20*
X168910000Y-69215000D03*
X168910000Y-130175000D03*
X77470000Y-125095000D03*
X77470000Y-74295000D03*
D19*
X76200000Y-130175000D03*
X78740000Y-130175000D03*
X81280000Y-130175000D03*
X83820000Y-130175000D03*
X86360000Y-130175000D03*
X88900000Y-130175000D03*
X91440000Y-130175000D03*
X93980000Y-130175000D03*
X96520000Y-130175000D03*
X99060000Y-130175000D03*
X101600000Y-130175000D03*
X104140000Y-130175000D03*
X106680000Y-130175000D03*
X109220000Y-130175000D03*
X111760000Y-130175000D03*
X114300000Y-130175000D03*
X114300000Y-69215000D03*
X111760000Y-69215000D03*
X109220000Y-69215000D03*
X106680000Y-69215000D03*
X104140000Y-69215000D03*
X101600000Y-69215000D03*
X99060000Y-69215000D03*
X96520000Y-69215000D03*
X93980000Y-69215000D03*
X91440000Y-69215000D03*
X88900000Y-69215000D03*
X86360000Y-69215000D03*
X83820000Y-69215000D03*
D21*
X76200000Y-69215000D03*
D19*
X81280000Y-69215000D03*
X78740000Y-69215000D03*
D22*
X71755000Y-113030000D03*
X71755000Y-110490000D03*
X71755000Y-115570000D03*
D23*
X65087500Y-125823980D03*
X73342500Y-125823980D03*
X65087500Y-121826020D03*
X73342500Y-121826020D03*
D24*
X168525000Y-86995000D03*
D25*
X172325000Y-85930000D03*
X172325000Y-88060000D03*
D24*
X168525000Y-102235000D03*
D25*
X172325000Y-101170000D03*
X172325000Y-103300000D03*
D26*
X86741000Y-99695000D03*
X89789000Y-99695000D03*
D27*
X83220000Y-99695000D03*
X79340000Y-99695000D03*
D20*
X62230000Y-69215000D03*
X62230000Y-130175000D03*
X191770000Y-69215000D03*
D28*
X63500000Y-104775000D03*
X63500000Y-94615000D03*
D29*
X69596000Y-99695000D03*
D30*
X72390000Y-99695000D03*
X72390000Y-96901000D03*
X72390000Y-102489000D03*
D31*
X183159400Y-69215000D03*
X173710600Y-69215000D03*
D32*
X182118000Y-72771000D03*
X174752000Y-72771000D03*
D33*
X179705000Y-75946000D03*
X177165000Y-75946000D03*
D32*
X173482000Y-125349000D03*
X183388000Y-125349000D03*
X186944000Y-88773000D03*
X186944000Y-78867000D03*
D34*
X116840000Y-107315000D03*
X119380000Y-107315000D03*
X121920000Y-107315000D03*
X124460000Y-107315000D03*
X127000000Y-107315000D03*
X129540000Y-107315000D03*
X132080000Y-107315000D03*
X134620000Y-107315000D03*
X137160000Y-107315000D03*
X137160000Y-92075000D03*
X134620000Y-92075000D03*
X132080000Y-92075000D03*
X129540000Y-92075000D03*
X127000000Y-92075000D03*
X124460000Y-92075000D03*
X121920000Y-92075000D03*
X119380000Y-92075000D03*
D35*
X78740000Y-92075000D03*
D34*
X81280000Y-92075000D03*
X83820000Y-92075000D03*
X86360000Y-92075000D03*
X88900000Y-92075000D03*
X91440000Y-92075000D03*
X93980000Y-92075000D03*
X96520000Y-92075000D03*
X99060000Y-92075000D03*
X101600000Y-92075000D03*
X104140000Y-92075000D03*
X106680000Y-92075000D03*
X109220000Y-92075000D03*
X111760000Y-92075000D03*
X111760000Y-107315000D03*
X109220000Y-107315000D03*
X106680000Y-107315000D03*
X104140000Y-107315000D03*
X101600000Y-107315000D03*
X99060000Y-107315000D03*
X96520000Y-107315000D03*
X93980000Y-107315000D03*
X91440000Y-107315000D03*
X88900000Y-107315000D03*
X86360000Y-107315000D03*
X83820000Y-107315000D03*
X81280000Y-107315000D03*
X78740000Y-107315000D03*
D22*
X124460000Y-104775000D03*
X124460000Y-102235000D03*
X124460000Y-99695000D03*
X124460000Y-97155000D03*
X124460000Y-94615000D03*
D34*
X81280000Y-104267000D03*
X86360000Y-104267000D03*
X88900000Y-104267000D03*
X91440000Y-104267000D03*
X93980000Y-102743000D03*
X93980000Y-99187000D03*
X96520000Y-102743000D03*
X96520000Y-99187000D03*
X99060000Y-99187000D03*
X101600000Y-99187000D03*
X99060000Y-102743000D03*
X101600000Y-102743000D03*
D35*
X114300000Y-107315000D03*
D34*
X114300000Y-92075000D03*
X116840000Y-92075000D03*
X121920000Y-102743000D03*
X119380000Y-102743000D03*
X116840000Y-102743000D03*
X121920000Y-99187000D03*
X119380000Y-99187000D03*
X116840000Y-99187000D03*
X127000000Y-102743000D03*
X129540000Y-102743000D03*
X132080000Y-102743000D03*
X134620000Y-102743000D03*
X137160000Y-102743000D03*
X127000000Y-99187000D03*
X129540000Y-99187000D03*
X132080000Y-99187000D03*
X134620000Y-99187000D03*
X137160000Y-99187000D03*
D32*
X67056000Y-78867000D03*
X67056000Y-88773000D03*
D36*
X68961000Y-85090000D03*
X68961000Y-82550000D03*
D32*
X65786000Y-87503000D03*
X65786000Y-80137000D03*
D37*
X62230000Y-88544400D03*
X62230000Y-79095600D03*
D32*
X183388000Y-74041000D03*
X173482000Y-74041000D03*
D33*
X179705000Y-123444000D03*
X177165000Y-123444000D03*
D32*
X182118000Y-126619000D03*
X174752000Y-126619000D03*
D31*
X183159400Y-130175000D03*
X173710600Y-130175000D03*
D36*
X185039000Y-82550000D03*
X185039000Y-85090000D03*
D32*
X188214000Y-80137000D03*
X188214000Y-87503000D03*
D37*
X191770000Y-79095600D03*
X191770000Y-88544400D03*
D38*
X191947800Y-99695000D03*
D39*
X188442600Y-99695000D03*
D40*
X182956200Y-99695000D03*
D41*
X189941200Y-104190800D03*
X189941200Y-95199200D03*
D20*
X191770000Y-130175000D03*
D24*
X168525000Y-92075000D03*
D25*
X172325000Y-91010000D03*
X172325000Y-93140000D03*
D24*
X168525000Y-107315000D03*
D25*
X172325000Y-106250000D03*
X172325000Y-108380000D03*
D24*
X168525000Y-97155000D03*
D25*
X172325000Y-96090000D03*
X172325000Y-98220000D03*
D24*
X168525000Y-112395000D03*
D25*
X172325000Y-111330000D03*
X172325000Y-113460000D03*
D29*
X193294000Y-123190000D03*
X190754000Y-123190000D03*
D30*
X67945000Y-129159000D03*
X67945000Y-131699000D03*
X70485000Y-131699000D03*
X70485000Y-129159000D03*
D20*
X107950000Y-84455000D03*
X107950000Y-114935000D03*
D42*
X67216020Y-68262500D03*
X67216020Y-76517500D03*
X71213980Y-68262500D03*
X71213980Y-76517500D03*
D43*
X187325000Y-110490000D03*
X187325000Y-107950000D03*
D44*
X187325000Y-113030000D03*
D20*
X146050000Y-69215000D03*
X146050000Y-130175000D03*
M02*
