M48
;DRILL file {KiCad no-vcs-found-7584~57~ubuntu16.04.1} date Wed Feb  8 11:00:46 2017
;FORMAT={-:-/ absolute / inch / decimal}
FMAT,2
INCH,TZ
T1C0.025
T2C0.035
T3C0.039
T4C0.040
T5C0.043
T6C0.047
T7C0.063
T8C0.090
T9C0.106
T10C0.124
T11C0.130
%
G90
G05
M72
T1
X2.5985Y-3.35
X2.7223Y-3.1303
X2.7753Y-3.4776
X3.0236Y-4.1155
X3.0256Y-3.657
X3.1532Y-3.1314
X3.474Y-3.925
X3.6881Y-2.8621
X4.2601Y-3.0183
X4.3871Y-3.0207
X4.6846Y-3.552
X4.9645Y-3.7793
X5.1469Y-2.998
X5.2787Y-3.1314
X5.3854Y-3.375
X5.4727Y-3.7703
X5.6783Y-3.1592
X6.6217Y-3.011
X6.8274Y-4.725
X6.8881Y-3.1544
X6.9153Y-3.525
X6.9312Y-3.425
X6.9385Y-4.525
X7.0531Y-3.1565
T2
X2.75Y-3.925
X2.85Y-3.825
X2.85Y-3.925
X2.85Y-4.025
T3
X2.65Y-4.35
X2.65Y-4.45
X2.65Y-4.55
T4
X3.1Y-3.625
X3.1Y-4.225
X3.2Y-3.625
X3.2Y-4.125
X3.2Y-4.225
X3.3Y-3.625
X3.3Y-4.225
X3.4Y-3.625
X3.4Y-4.125
X3.4Y-4.225
X3.5Y-3.625
X3.5Y-4.125
X3.5Y-4.225
X3.6Y-3.625
X3.6Y-4.125
X3.6Y-4.225
X3.7Y-3.625
X3.7Y-3.925
X3.7Y-4.025
X3.7Y-4.225
X3.8Y-3.625
X3.8Y-3.925
X3.8Y-4.025
X3.8Y-4.225
X3.9Y-3.625
X3.9Y-3.925
X3.9Y-4.025
X3.9Y-4.225
X4.Y-3.625
X4.Y-3.925
X4.Y-4.025
X4.Y-4.225
X4.1Y-3.625
X4.1Y-4.225
X4.2Y-3.625
X4.2Y-4.225
X4.3Y-3.625
X4.3Y-4.225
X4.4Y-3.625
X4.4Y-4.225
X4.5Y-3.625
X4.5Y-4.225
X4.6Y-3.625
X4.6Y-3.925
X4.6Y-4.025
X4.6Y-4.225
X4.7Y-3.625
X4.7Y-3.925
X4.7Y-4.025
X4.7Y-4.225
X4.8Y-3.625
X4.8Y-3.925
X4.8Y-4.025
X4.8Y-4.225
X4.9Y-3.625
X4.9Y-3.725
X4.9Y-3.825
X4.9Y-3.925
X4.9Y-4.025
X4.9Y-4.125
X4.9Y-4.225
X5.Y-3.625
X5.Y-3.925
X5.Y-4.025
X5.Y-4.225
X5.1Y-3.625
X5.1Y-3.925
X5.1Y-4.025
X5.1Y-4.225
X5.2Y-3.625
X5.2Y-3.925
X5.2Y-4.025
X5.2Y-4.225
X5.3Y-3.625
X5.3Y-3.925
X5.3Y-4.025
X5.3Y-4.225
X5.4Y-3.625
X5.4Y-3.925
X5.4Y-4.025
X5.4Y-4.225
X5.975Y-3.075
X5.975Y-3.175
X5.975Y-3.275
X5.975Y-3.375
X5.975Y-3.475
X5.975Y-3.575
X5.975Y-3.675
X5.975Y-3.775
X5.975Y-3.875
X5.975Y-3.975
X5.975Y-4.075
X5.975Y-4.175
X5.975Y-4.275
X5.975Y-4.375
X5.975Y-4.475
X5.975Y-4.575
X5.975Y-4.675
X5.975Y-4.775
X5.975Y-4.875
X5.975Y-4.975
X6.575Y-3.075
X6.575Y-3.175
X6.575Y-3.275
X6.575Y-3.375
X6.575Y-3.475
X6.575Y-3.575
X6.575Y-3.675
X6.575Y-3.775
X6.575Y-3.875
X6.575Y-3.975
X6.575Y-4.075
X6.575Y-4.175
X6.575Y-4.275
X6.575Y-4.375
X6.575Y-4.475
X6.575Y-4.575
X6.575Y-4.675
X6.575Y-4.775
X6.575Y-4.875
X6.575Y-4.975
T5
X3.Y-2.725
X3.Y-5.125
X3.1Y-2.725
X3.1Y-5.125
X3.2Y-2.725
X3.2Y-5.125
X3.3Y-2.725
X3.3Y-5.125
X3.4Y-2.725
X3.4Y-5.125
X3.5Y-2.725
X3.5Y-5.125
X3.6Y-2.725
X3.6Y-5.125
X3.7Y-2.725
X3.7Y-5.125
X3.8Y-2.725
X3.8Y-5.125
X3.9Y-2.725
X3.9Y-5.125
X4.Y-2.725
X4.Y-5.125
X4.1Y-2.725
X4.1Y-5.125
X4.2Y-2.725
X4.2Y-5.125
X4.3Y-2.725
X4.3Y-5.125
X4.4Y-2.725
X4.4Y-5.125
X4.5Y-2.725
X4.5Y-5.125
X4.6Y-2.725
X4.6Y-5.125
X4.7Y-2.725
X4.7Y-5.125
X4.8Y-2.725
X4.8Y-5.125
X4.9Y-2.725
X4.9Y-5.125
X5.Y-2.725
X5.Y-5.125
X5.1Y-2.725
X5.1Y-5.125
X5.2Y-2.725
X5.2Y-5.125
X5.3Y-2.725
X5.3Y-5.125
X5.4Y-2.725
X5.4Y-5.125
T6
X2.59Y-3.155
X2.59Y-3.445
X2.64Y-3.105
X2.64Y-3.495
X6.83Y-2.915
X6.83Y-4.935
X6.88Y-2.865
X6.88Y-4.985
X7.17Y-2.865
X7.17Y-4.985
X7.22Y-2.915
X7.22Y-4.935
X7.36Y-3.105
X7.36Y-3.495
X7.41Y-3.155
X7.41Y-3.445
T7
X7.532Y-3.925
T8
X2.5Y-3.725
X2.5Y-4.125
T9
X7.414Y-3.925
X7.453Y-3.748
X7.453Y-4.102
T10
X7.178Y-3.925
T11
X2.45Y-2.725
X2.45Y-5.125
X3.05Y-2.925
X3.05Y-4.925
X5.55Y-2.725
X5.55Y-5.125
X7.55Y-2.725
X7.55Y-5.125
T0
M30
