G04 #@! TF.GenerationSoftware,KiCad,Pcbnew,no-vcs-found-7584~57~ubuntu16.04.1*
G04 #@! TF.CreationDate,2017-02-08T11:00:44-05:00*
G04 #@! TF.ProjectId,modular_device_base_5x3,6D6F64756C61725F6465766963655F62,1.0*
G04 #@! TF.FileFunction,Legend,Bot*
G04 #@! TF.FilePolarity,Positive*
%FSLAX46Y46*%
G04 Gerber Fmt 4.6, Leading zero omitted, Abs format (unit mm)*
G04 Created by KiCad (PCBNEW no-vcs-found-7584~57~ubuntu16.04.1) date Wed Feb  8 11:00:44 2017*
%MOMM*%
%LPD*%
G01*
G04 APERTURE LIST*
%ADD10C,0.100000*%
%ADD11C,0.254000*%
%ADD12C,0.228600*%
%ADD13C,0.150000*%
%ADD14C,0.127000*%
%ADD15C,0.381000*%
%ADD16C,0.158750*%
%ADD17C,0.190500*%
%ADD18R,2.900000X3.110000*%
%ADD19R,1.670000X2.940000*%
%ADD20R,2.940000X1.670000*%
%ADD21O,2.940000X1.924000*%
%ADD22C,3.956000*%
%ADD23R,2.940000X1.924000*%
%ADD24O,2.254200X2.940000*%
%ADD25R,2.254200X2.940000*%
%ADD26O,5.480000X3.448000*%
%ADD27O,2.432000X1.924000*%
%ADD28O,1.924000X2.432000*%
%ADD29C,1.600200*%
%ADD30R,2.178000X4.591000*%
%ADD31R,2.997200X5.029200*%
%ADD32R,4.591000X2.178000*%
%ADD33R,5.029200X2.997200*%
%ADD34O,1.924000X2.940000*%
%ADD35R,1.924000X2.940000*%
%ADD36C,2.330400*%
%ADD37O,4.972000X3.956000*%
%ADD38O,4.464000X5.480000*%
%ADD39O,5.480000X3.956000*%
G04 APERTURE END LIST*
D10*
D11*
X65356619Y-75976238D02*
X65211476Y-76024619D01*
X64969571Y-76024619D01*
X64872809Y-75976238D01*
X64824428Y-75927857D01*
X64776047Y-75831095D01*
X64776047Y-75734333D01*
X64824428Y-75637571D01*
X64872809Y-75589190D01*
X64969571Y-75540809D01*
X65163095Y-75492428D01*
X65259857Y-75444047D01*
X65308238Y-75395666D01*
X65356619Y-75298904D01*
X65356619Y-75202142D01*
X65308238Y-75105380D01*
X65259857Y-75057000D01*
X65163095Y-75008619D01*
X64921190Y-75008619D01*
X64776047Y-75057000D01*
X63953571Y-75976238D02*
X64050333Y-76024619D01*
X64243857Y-76024619D01*
X64340619Y-75976238D01*
X64389000Y-75879476D01*
X64389000Y-75492428D01*
X64340619Y-75395666D01*
X64243857Y-75347285D01*
X64050333Y-75347285D01*
X63953571Y-75395666D01*
X63905190Y-75492428D01*
X63905190Y-75589190D01*
X64389000Y-75685952D01*
X63469761Y-76024619D02*
X63469761Y-75347285D01*
X63469761Y-75540809D02*
X63421380Y-75444047D01*
X63373000Y-75395666D01*
X63276238Y-75347285D01*
X63179476Y-75347285D01*
X62840809Y-76024619D02*
X62840809Y-75347285D01*
X62840809Y-75008619D02*
X62889190Y-75057000D01*
X62840809Y-75105380D01*
X62792428Y-75057000D01*
X62840809Y-75008619D01*
X62840809Y-75105380D01*
X61921571Y-76024619D02*
X61921571Y-75492428D01*
X61969952Y-75395666D01*
X62066714Y-75347285D01*
X62260238Y-75347285D01*
X62357000Y-75395666D01*
X61921571Y-75976238D02*
X62018333Y-76024619D01*
X62260238Y-76024619D01*
X62357000Y-75976238D01*
X62405380Y-75879476D01*
X62405380Y-75782714D01*
X62357000Y-75685952D01*
X62260238Y-75637571D01*
X62018333Y-75637571D01*
X61921571Y-75589190D01*
X61292619Y-76024619D02*
X61389380Y-75976238D01*
X61437761Y-75879476D01*
X61437761Y-75008619D01*
X60470142Y-75347285D02*
X60470142Y-76024619D01*
X60712047Y-74960238D02*
X60953952Y-75685952D01*
X60325000Y-75685952D01*
D12*
X194310000Y-66675000D02*
X59690000Y-66675000D01*
X194310000Y-132715000D02*
X194310000Y-66675000D01*
X59690000Y-132715000D02*
X194310000Y-132715000D01*
X59690000Y-66675000D02*
X59690000Y-132715000D01*
D11*
X124097142Y-77294619D02*
X124097142Y-76278619D01*
X123661714Y-77294619D02*
X123661714Y-76762428D01*
X123710095Y-76665666D01*
X123806857Y-76617285D01*
X123952000Y-76617285D01*
X124048761Y-76665666D01*
X124097142Y-76714047D01*
X123323047Y-76617285D02*
X122936000Y-76617285D01*
X123177904Y-76278619D02*
X123177904Y-77149476D01*
X123129523Y-77246238D01*
X123032761Y-77294619D01*
X122936000Y-77294619D01*
X122742476Y-76617285D02*
X122355428Y-76617285D01*
X122597333Y-76278619D02*
X122597333Y-77149476D01*
X122548952Y-77246238D01*
X122452190Y-77294619D01*
X122355428Y-77294619D01*
X122016761Y-76617285D02*
X122016761Y-77633285D01*
X122016761Y-76665666D02*
X121920000Y-76617285D01*
X121726476Y-76617285D01*
X121629714Y-76665666D01*
X121581333Y-76714047D01*
X121532952Y-76810809D01*
X121532952Y-77101095D01*
X121581333Y-77197857D01*
X121629714Y-77246238D01*
X121726476Y-77294619D01*
X121920000Y-77294619D01*
X122016761Y-77246238D01*
X121145904Y-77246238D02*
X121049142Y-77294619D01*
X120855619Y-77294619D01*
X120758857Y-77246238D01*
X120710476Y-77149476D01*
X120710476Y-77101095D01*
X120758857Y-77004333D01*
X120855619Y-76955952D01*
X121000761Y-76955952D01*
X121097523Y-76907571D01*
X121145904Y-76810809D01*
X121145904Y-76762428D01*
X121097523Y-76665666D01*
X121000761Y-76617285D01*
X120855619Y-76617285D01*
X120758857Y-76665666D01*
X120275047Y-77197857D02*
X120226666Y-77246238D01*
X120275047Y-77294619D01*
X120323428Y-77246238D01*
X120275047Y-77197857D01*
X120275047Y-77294619D01*
X120275047Y-76665666D02*
X120226666Y-76714047D01*
X120275047Y-76762428D01*
X120323428Y-76714047D01*
X120275047Y-76665666D01*
X120275047Y-76762428D01*
X119065523Y-76230238D02*
X119936380Y-77536523D01*
X118001142Y-76230238D02*
X118872000Y-77536523D01*
X117227047Y-76617285D02*
X117227047Y-77439761D01*
X117275428Y-77536523D01*
X117323809Y-77584904D01*
X117420571Y-77633285D01*
X117565714Y-77633285D01*
X117662476Y-77584904D01*
X117227047Y-77246238D02*
X117323809Y-77294619D01*
X117517333Y-77294619D01*
X117614095Y-77246238D01*
X117662476Y-77197857D01*
X117710857Y-77101095D01*
X117710857Y-76810809D01*
X117662476Y-76714047D01*
X117614095Y-76665666D01*
X117517333Y-76617285D01*
X117323809Y-76617285D01*
X117227047Y-76665666D01*
X116743238Y-77294619D02*
X116743238Y-76617285D01*
X116743238Y-76278619D02*
X116791619Y-76327000D01*
X116743238Y-76375380D01*
X116694857Y-76327000D01*
X116743238Y-76278619D01*
X116743238Y-76375380D01*
X116404571Y-76617285D02*
X116017523Y-76617285D01*
X116259428Y-76278619D02*
X116259428Y-77149476D01*
X116211047Y-77246238D01*
X116114285Y-77294619D01*
X116017523Y-77294619D01*
X115678857Y-77294619D02*
X115678857Y-76278619D01*
X115243428Y-77294619D02*
X115243428Y-76762428D01*
X115291809Y-76665666D01*
X115388571Y-76617285D01*
X115533714Y-76617285D01*
X115630476Y-76665666D01*
X115678857Y-76714047D01*
X114324190Y-76617285D02*
X114324190Y-77294619D01*
X114759619Y-76617285D02*
X114759619Y-77149476D01*
X114711238Y-77246238D01*
X114614476Y-77294619D01*
X114469333Y-77294619D01*
X114372571Y-77246238D01*
X114324190Y-77197857D01*
X113840380Y-77294619D02*
X113840380Y-76278619D01*
X113840380Y-76665666D02*
X113743619Y-76617285D01*
X113550095Y-76617285D01*
X113453333Y-76665666D01*
X113404952Y-76714047D01*
X113356571Y-76810809D01*
X113356571Y-77101095D01*
X113404952Y-77197857D01*
X113453333Y-77246238D01*
X113550095Y-77294619D01*
X113743619Y-77294619D01*
X113840380Y-77246238D01*
X112921142Y-77197857D02*
X112872761Y-77246238D01*
X112921142Y-77294619D01*
X112969523Y-77246238D01*
X112921142Y-77197857D01*
X112921142Y-77294619D01*
X112001904Y-77246238D02*
X112098666Y-77294619D01*
X112292190Y-77294619D01*
X112388952Y-77246238D01*
X112437333Y-77197857D01*
X112485714Y-77101095D01*
X112485714Y-76810809D01*
X112437333Y-76714047D01*
X112388952Y-76665666D01*
X112292190Y-76617285D01*
X112098666Y-76617285D01*
X112001904Y-76665666D01*
X111421333Y-77294619D02*
X111518095Y-77246238D01*
X111566476Y-77197857D01*
X111614857Y-77101095D01*
X111614857Y-76810809D01*
X111566476Y-76714047D01*
X111518095Y-76665666D01*
X111421333Y-76617285D01*
X111276190Y-76617285D01*
X111179428Y-76665666D01*
X111131047Y-76714047D01*
X111082666Y-76810809D01*
X111082666Y-77101095D01*
X111131047Y-77197857D01*
X111179428Y-77246238D01*
X111276190Y-77294619D01*
X111421333Y-77294619D01*
X110647238Y-77294619D02*
X110647238Y-76617285D01*
X110647238Y-76714047D02*
X110598857Y-76665666D01*
X110502095Y-76617285D01*
X110356952Y-76617285D01*
X110260190Y-76665666D01*
X110211809Y-76762428D01*
X110211809Y-77294619D01*
X110211809Y-76762428D02*
X110163428Y-76665666D01*
X110066666Y-76617285D01*
X109921523Y-76617285D01*
X109824761Y-76665666D01*
X109776380Y-76762428D01*
X109776380Y-77294619D01*
X108566857Y-76230238D02*
X109437714Y-77536523D01*
X108228190Y-76617285D02*
X108228190Y-77488142D01*
X108276571Y-77584904D01*
X108373333Y-77633285D01*
X108421714Y-77633285D01*
X108228190Y-76278619D02*
X108276571Y-76327000D01*
X108228190Y-76375380D01*
X108179809Y-76327000D01*
X108228190Y-76278619D01*
X108228190Y-76375380D01*
X107308952Y-77294619D02*
X107308952Y-76762428D01*
X107357333Y-76665666D01*
X107454095Y-76617285D01*
X107647619Y-76617285D01*
X107744380Y-76665666D01*
X107308952Y-77246238D02*
X107405714Y-77294619D01*
X107647619Y-77294619D01*
X107744380Y-77246238D01*
X107792761Y-77149476D01*
X107792761Y-77052714D01*
X107744380Y-76955952D01*
X107647619Y-76907571D01*
X107405714Y-76907571D01*
X107308952Y-76859190D01*
X106825142Y-76617285D02*
X106825142Y-77294619D01*
X106825142Y-76714047D02*
X106776761Y-76665666D01*
X106680000Y-76617285D01*
X106534857Y-76617285D01*
X106438095Y-76665666D01*
X106389714Y-76762428D01*
X106389714Y-77294619D01*
X105518857Y-77246238D02*
X105615619Y-77294619D01*
X105809142Y-77294619D01*
X105905904Y-77246238D01*
X105954285Y-77149476D01*
X105954285Y-76762428D01*
X105905904Y-76665666D01*
X105809142Y-76617285D01*
X105615619Y-76617285D01*
X105518857Y-76665666D01*
X105470476Y-76762428D01*
X105470476Y-76859190D01*
X105954285Y-76955952D01*
X104889904Y-77294619D02*
X104986666Y-77246238D01*
X105035047Y-77149476D01*
X105035047Y-76278619D01*
X104502857Y-77294619D02*
X104502857Y-76617285D01*
X104502857Y-76278619D02*
X104551238Y-76327000D01*
X104502857Y-76375380D01*
X104454476Y-76327000D01*
X104502857Y-76278619D01*
X104502857Y-76375380D01*
X103583619Y-77294619D02*
X103583619Y-76762428D01*
X103632000Y-76665666D01*
X103728761Y-76617285D01*
X103922285Y-76617285D01*
X104019047Y-76665666D01*
X103583619Y-77246238D02*
X103680380Y-77294619D01*
X103922285Y-77294619D01*
X104019047Y-77246238D01*
X104067428Y-77149476D01*
X104067428Y-77052714D01*
X104019047Y-76955952D01*
X103922285Y-76907571D01*
X103680380Y-76907571D01*
X103583619Y-76859190D01*
X103099809Y-76907571D02*
X102325714Y-76907571D01*
X101841904Y-77294619D02*
X101841904Y-76617285D01*
X101841904Y-76714047D02*
X101793523Y-76665666D01*
X101696761Y-76617285D01*
X101551619Y-76617285D01*
X101454857Y-76665666D01*
X101406476Y-76762428D01*
X101406476Y-77294619D01*
X101406476Y-76762428D02*
X101358095Y-76665666D01*
X101261333Y-76617285D01*
X101116190Y-76617285D01*
X101019428Y-76665666D01*
X100971047Y-76762428D01*
X100971047Y-77294619D01*
X100342095Y-77294619D02*
X100438857Y-77246238D01*
X100487238Y-77197857D01*
X100535619Y-77101095D01*
X100535619Y-76810809D01*
X100487238Y-76714047D01*
X100438857Y-76665666D01*
X100342095Y-76617285D01*
X100196952Y-76617285D01*
X100100190Y-76665666D01*
X100051809Y-76714047D01*
X100003428Y-76810809D01*
X100003428Y-77101095D01*
X100051809Y-77197857D01*
X100100190Y-77246238D01*
X100196952Y-77294619D01*
X100342095Y-77294619D01*
X99132571Y-77294619D02*
X99132571Y-76278619D01*
X99132571Y-77246238D02*
X99229333Y-77294619D01*
X99422857Y-77294619D01*
X99519619Y-77246238D01*
X99568000Y-77197857D01*
X99616380Y-77101095D01*
X99616380Y-76810809D01*
X99568000Y-76714047D01*
X99519619Y-76665666D01*
X99422857Y-76617285D01*
X99229333Y-76617285D01*
X99132571Y-76665666D01*
X98213333Y-76617285D02*
X98213333Y-77294619D01*
X98648761Y-76617285D02*
X98648761Y-77149476D01*
X98600380Y-77246238D01*
X98503619Y-77294619D01*
X98358476Y-77294619D01*
X98261714Y-77246238D01*
X98213333Y-77197857D01*
X97584380Y-77294619D02*
X97681142Y-77246238D01*
X97729523Y-77149476D01*
X97729523Y-76278619D01*
X96761904Y-77294619D02*
X96761904Y-76762428D01*
X96810285Y-76665666D01*
X96907047Y-76617285D01*
X97100571Y-76617285D01*
X97197333Y-76665666D01*
X96761904Y-77246238D02*
X96858666Y-77294619D01*
X97100571Y-77294619D01*
X97197333Y-77246238D01*
X97245714Y-77149476D01*
X97245714Y-77052714D01*
X97197333Y-76955952D01*
X97100571Y-76907571D01*
X96858666Y-76907571D01*
X96761904Y-76859190D01*
X96278095Y-77294619D02*
X96278095Y-76617285D01*
X96278095Y-76810809D02*
X96229714Y-76714047D01*
X96181333Y-76665666D01*
X96084571Y-76617285D01*
X95987809Y-76617285D01*
X95649142Y-76907571D02*
X94875047Y-76907571D01*
X93955809Y-77294619D02*
X93955809Y-76278619D01*
X93955809Y-77246238D02*
X94052571Y-77294619D01*
X94246095Y-77294619D01*
X94342857Y-77246238D01*
X94391238Y-77197857D01*
X94439619Y-77101095D01*
X94439619Y-76810809D01*
X94391238Y-76714047D01*
X94342857Y-76665666D01*
X94246095Y-76617285D01*
X94052571Y-76617285D01*
X93955809Y-76665666D01*
X93084952Y-77246238D02*
X93181714Y-77294619D01*
X93375238Y-77294619D01*
X93472000Y-77246238D01*
X93520380Y-77149476D01*
X93520380Y-76762428D01*
X93472000Y-76665666D01*
X93375238Y-76617285D01*
X93181714Y-76617285D01*
X93084952Y-76665666D01*
X93036571Y-76762428D01*
X93036571Y-76859190D01*
X93520380Y-76955952D01*
X92697904Y-76617285D02*
X92456000Y-77294619D01*
X92214095Y-76617285D01*
X91827047Y-77294619D02*
X91827047Y-76617285D01*
X91827047Y-76278619D02*
X91875428Y-76327000D01*
X91827047Y-76375380D01*
X91778666Y-76327000D01*
X91827047Y-76278619D01*
X91827047Y-76375380D01*
X90907809Y-77246238D02*
X91004571Y-77294619D01*
X91198095Y-77294619D01*
X91294857Y-77246238D01*
X91343238Y-77197857D01*
X91391619Y-77101095D01*
X91391619Y-76810809D01*
X91343238Y-76714047D01*
X91294857Y-76665666D01*
X91198095Y-76617285D01*
X91004571Y-76617285D01*
X90907809Y-76665666D01*
X90085333Y-77246238D02*
X90182095Y-77294619D01*
X90375619Y-77294619D01*
X90472380Y-77246238D01*
X90520761Y-77149476D01*
X90520761Y-76762428D01*
X90472380Y-76665666D01*
X90375619Y-76617285D01*
X90182095Y-76617285D01*
X90085333Y-76665666D01*
X90036952Y-76762428D01*
X90036952Y-76859190D01*
X90520761Y-76955952D01*
X89649904Y-77246238D02*
X89553142Y-77294619D01*
X89359619Y-77294619D01*
X89262857Y-77246238D01*
X89214476Y-77149476D01*
X89214476Y-77101095D01*
X89262857Y-77004333D01*
X89359619Y-76955952D01*
X89504761Y-76955952D01*
X89601523Y-76907571D01*
X89649904Y-76810809D01*
X89649904Y-76762428D01*
X89601523Y-76665666D01*
X89504761Y-76617285D01*
X89359619Y-76617285D01*
X89262857Y-76665666D01*
X115074095Y-122125619D02*
X115074095Y-122851333D01*
X115122476Y-122996476D01*
X115219238Y-123093238D01*
X115364380Y-123141619D01*
X115461142Y-123141619D01*
X114154857Y-123141619D02*
X114154857Y-122609428D01*
X114203238Y-122512666D01*
X114300000Y-122464285D01*
X114493523Y-122464285D01*
X114590285Y-122512666D01*
X114154857Y-123093238D02*
X114251619Y-123141619D01*
X114493523Y-123141619D01*
X114590285Y-123093238D01*
X114638666Y-122996476D01*
X114638666Y-122899714D01*
X114590285Y-122802952D01*
X114493523Y-122754571D01*
X114251619Y-122754571D01*
X114154857Y-122706190D01*
X113671047Y-122464285D02*
X113671047Y-123141619D01*
X113671047Y-122561047D02*
X113622666Y-122512666D01*
X113525904Y-122464285D01*
X113380761Y-122464285D01*
X113284000Y-122512666D01*
X113235619Y-122609428D01*
X113235619Y-123141619D01*
X112364761Y-123093238D02*
X112461523Y-123141619D01*
X112655047Y-123141619D01*
X112751809Y-123093238D01*
X112800190Y-122996476D01*
X112800190Y-122609428D01*
X112751809Y-122512666D01*
X112655047Y-122464285D01*
X112461523Y-122464285D01*
X112364761Y-122512666D01*
X112316380Y-122609428D01*
X112316380Y-122706190D01*
X112800190Y-122802952D01*
X111735809Y-123141619D02*
X111832571Y-123093238D01*
X111880952Y-122996476D01*
X111880952Y-122125619D01*
X111348761Y-123141619D02*
X111348761Y-122464285D01*
X111348761Y-122125619D02*
X111397142Y-122174000D01*
X111348761Y-122222380D01*
X111300380Y-122174000D01*
X111348761Y-122125619D01*
X111348761Y-122222380D01*
X110429523Y-123141619D02*
X110429523Y-122609428D01*
X110477904Y-122512666D01*
X110574666Y-122464285D01*
X110768190Y-122464285D01*
X110864952Y-122512666D01*
X110429523Y-123093238D02*
X110526285Y-123141619D01*
X110768190Y-123141619D01*
X110864952Y-123093238D01*
X110913333Y-122996476D01*
X110913333Y-122899714D01*
X110864952Y-122802952D01*
X110768190Y-122754571D01*
X110526285Y-122754571D01*
X110429523Y-122706190D01*
X109171619Y-123141619D02*
X109171619Y-122125619D01*
X108832952Y-122851333D01*
X108494285Y-122125619D01*
X108494285Y-123141619D01*
X107865333Y-123141619D02*
X107962095Y-123093238D01*
X108010476Y-123044857D01*
X108058857Y-122948095D01*
X108058857Y-122657809D01*
X108010476Y-122561047D01*
X107962095Y-122512666D01*
X107865333Y-122464285D01*
X107720190Y-122464285D01*
X107623428Y-122512666D01*
X107575047Y-122561047D01*
X107526666Y-122657809D01*
X107526666Y-122948095D01*
X107575047Y-123044857D01*
X107623428Y-123093238D01*
X107720190Y-123141619D01*
X107865333Y-123141619D01*
X106655809Y-123141619D02*
X106655809Y-122125619D01*
X106655809Y-123093238D02*
X106752571Y-123141619D01*
X106946095Y-123141619D01*
X107042857Y-123093238D01*
X107091238Y-123044857D01*
X107139619Y-122948095D01*
X107139619Y-122657809D01*
X107091238Y-122561047D01*
X107042857Y-122512666D01*
X106946095Y-122464285D01*
X106752571Y-122464285D01*
X106655809Y-122512666D01*
X105736571Y-122464285D02*
X105736571Y-123141619D01*
X106172000Y-122464285D02*
X106172000Y-122996476D01*
X106123619Y-123093238D01*
X106026857Y-123141619D01*
X105881714Y-123141619D01*
X105784952Y-123093238D01*
X105736571Y-123044857D01*
X105107619Y-123141619D02*
X105204380Y-123093238D01*
X105252761Y-122996476D01*
X105252761Y-122125619D01*
X104285142Y-123141619D02*
X104285142Y-122609428D01*
X104333523Y-122512666D01*
X104430285Y-122464285D01*
X104623809Y-122464285D01*
X104720571Y-122512666D01*
X104285142Y-123093238D02*
X104381904Y-123141619D01*
X104623809Y-123141619D01*
X104720571Y-123093238D01*
X104768952Y-122996476D01*
X104768952Y-122899714D01*
X104720571Y-122802952D01*
X104623809Y-122754571D01*
X104381904Y-122754571D01*
X104285142Y-122706190D01*
X103801333Y-123141619D02*
X103801333Y-122464285D01*
X103801333Y-122657809D02*
X103752952Y-122561047D01*
X103704571Y-122512666D01*
X103607809Y-122464285D01*
X103511047Y-122464285D01*
X102398285Y-123141619D02*
X102398285Y-122125619D01*
X102156380Y-122125619D01*
X102011238Y-122174000D01*
X101914476Y-122270761D01*
X101866095Y-122367523D01*
X101817714Y-122561047D01*
X101817714Y-122706190D01*
X101866095Y-122899714D01*
X101914476Y-122996476D01*
X102011238Y-123093238D01*
X102156380Y-123141619D01*
X102398285Y-123141619D01*
X100995238Y-123093238D02*
X101092000Y-123141619D01*
X101285523Y-123141619D01*
X101382285Y-123093238D01*
X101430666Y-122996476D01*
X101430666Y-122609428D01*
X101382285Y-122512666D01*
X101285523Y-122464285D01*
X101092000Y-122464285D01*
X100995238Y-122512666D01*
X100946857Y-122609428D01*
X100946857Y-122706190D01*
X101430666Y-122802952D01*
X100608190Y-122464285D02*
X100366285Y-123141619D01*
X100124380Y-122464285D01*
X99737333Y-123141619D02*
X99737333Y-122464285D01*
X99737333Y-122125619D02*
X99785714Y-122174000D01*
X99737333Y-122222380D01*
X99688952Y-122174000D01*
X99737333Y-122125619D01*
X99737333Y-122222380D01*
X98818095Y-123093238D02*
X98914857Y-123141619D01*
X99108380Y-123141619D01*
X99205142Y-123093238D01*
X99253523Y-123044857D01*
X99301904Y-122948095D01*
X99301904Y-122657809D01*
X99253523Y-122561047D01*
X99205142Y-122512666D01*
X99108380Y-122464285D01*
X98914857Y-122464285D01*
X98818095Y-122512666D01*
X97995619Y-123093238D02*
X98092380Y-123141619D01*
X98285904Y-123141619D01*
X98382666Y-123093238D01*
X98431047Y-122996476D01*
X98431047Y-122609428D01*
X98382666Y-122512666D01*
X98285904Y-122464285D01*
X98092380Y-122464285D01*
X97995619Y-122512666D01*
X97947238Y-122609428D01*
X97947238Y-122706190D01*
X98431047Y-122802952D01*
X114469333Y-124919619D02*
X114469333Y-124242285D01*
X114469333Y-124339047D02*
X114420952Y-124290666D01*
X114324190Y-124242285D01*
X114179047Y-124242285D01*
X114082285Y-124290666D01*
X114033904Y-124387428D01*
X114033904Y-124919619D01*
X114033904Y-124387428D02*
X113985523Y-124290666D01*
X113888761Y-124242285D01*
X113743619Y-124242285D01*
X113646857Y-124290666D01*
X113598476Y-124387428D01*
X113598476Y-124919619D01*
X112969523Y-124919619D02*
X113066285Y-124871238D01*
X113114666Y-124822857D01*
X113163047Y-124726095D01*
X113163047Y-124435809D01*
X113114666Y-124339047D01*
X113066285Y-124290666D01*
X112969523Y-124242285D01*
X112824380Y-124242285D01*
X112727619Y-124290666D01*
X112679238Y-124339047D01*
X112630857Y-124435809D01*
X112630857Y-124726095D01*
X112679238Y-124822857D01*
X112727619Y-124871238D01*
X112824380Y-124919619D01*
X112969523Y-124919619D01*
X111760000Y-124919619D02*
X111760000Y-123903619D01*
X111760000Y-124871238D02*
X111856761Y-124919619D01*
X112050285Y-124919619D01*
X112147047Y-124871238D01*
X112195428Y-124822857D01*
X112243809Y-124726095D01*
X112243809Y-124435809D01*
X112195428Y-124339047D01*
X112147047Y-124290666D01*
X112050285Y-124242285D01*
X111856761Y-124242285D01*
X111760000Y-124290666D01*
X110840761Y-124242285D02*
X110840761Y-124919619D01*
X111276190Y-124242285D02*
X111276190Y-124774476D01*
X111227809Y-124871238D01*
X111131047Y-124919619D01*
X110985904Y-124919619D01*
X110889142Y-124871238D01*
X110840761Y-124822857D01*
X110211809Y-124919619D02*
X110308571Y-124871238D01*
X110356952Y-124774476D01*
X110356952Y-123903619D01*
X109389333Y-124919619D02*
X109389333Y-124387428D01*
X109437714Y-124290666D01*
X109534476Y-124242285D01*
X109728000Y-124242285D01*
X109824761Y-124290666D01*
X109389333Y-124871238D02*
X109486095Y-124919619D01*
X109728000Y-124919619D01*
X109824761Y-124871238D01*
X109873142Y-124774476D01*
X109873142Y-124677714D01*
X109824761Y-124580952D01*
X109728000Y-124532571D01*
X109486095Y-124532571D01*
X109389333Y-124484190D01*
X108905523Y-124919619D02*
X108905523Y-124242285D01*
X108905523Y-124435809D02*
X108857142Y-124339047D01*
X108808761Y-124290666D01*
X108712000Y-124242285D01*
X108615238Y-124242285D01*
X108518476Y-125016380D02*
X107744380Y-125016380D01*
X107067047Y-124919619D02*
X107067047Y-123903619D01*
X107067047Y-124871238D02*
X107163809Y-124919619D01*
X107357333Y-124919619D01*
X107454095Y-124871238D01*
X107502476Y-124822857D01*
X107550857Y-124726095D01*
X107550857Y-124435809D01*
X107502476Y-124339047D01*
X107454095Y-124290666D01*
X107357333Y-124242285D01*
X107163809Y-124242285D01*
X107067047Y-124290666D01*
X106196190Y-124871238D02*
X106292952Y-124919619D01*
X106486476Y-124919619D01*
X106583238Y-124871238D01*
X106631619Y-124774476D01*
X106631619Y-124387428D01*
X106583238Y-124290666D01*
X106486476Y-124242285D01*
X106292952Y-124242285D01*
X106196190Y-124290666D01*
X106147809Y-124387428D01*
X106147809Y-124484190D01*
X106631619Y-124580952D01*
X105809142Y-124242285D02*
X105567238Y-124919619D01*
X105325333Y-124242285D01*
X104938285Y-124919619D02*
X104938285Y-124242285D01*
X104938285Y-123903619D02*
X104986666Y-123952000D01*
X104938285Y-124000380D01*
X104889904Y-123952000D01*
X104938285Y-123903619D01*
X104938285Y-124000380D01*
X104019047Y-124871238D02*
X104115809Y-124919619D01*
X104309333Y-124919619D01*
X104406095Y-124871238D01*
X104454476Y-124822857D01*
X104502857Y-124726095D01*
X104502857Y-124435809D01*
X104454476Y-124339047D01*
X104406095Y-124290666D01*
X104309333Y-124242285D01*
X104115809Y-124242285D01*
X104019047Y-124290666D01*
X103196571Y-124871238D02*
X103293333Y-124919619D01*
X103486857Y-124919619D01*
X103583619Y-124871238D01*
X103632000Y-124774476D01*
X103632000Y-124387428D01*
X103583619Y-124290666D01*
X103486857Y-124242285D01*
X103293333Y-124242285D01*
X103196571Y-124290666D01*
X103148190Y-124387428D01*
X103148190Y-124484190D01*
X103632000Y-124580952D01*
X102954666Y-125016380D02*
X102180571Y-125016380D01*
X101938666Y-124919619D02*
X101938666Y-123903619D01*
X101938666Y-124290666D02*
X101841904Y-124242285D01*
X101648380Y-124242285D01*
X101551619Y-124290666D01*
X101503238Y-124339047D01*
X101454857Y-124435809D01*
X101454857Y-124726095D01*
X101503238Y-124822857D01*
X101551619Y-124871238D01*
X101648380Y-124919619D01*
X101841904Y-124919619D01*
X101938666Y-124871238D01*
X100584000Y-124919619D02*
X100584000Y-124387428D01*
X100632380Y-124290666D01*
X100729142Y-124242285D01*
X100922666Y-124242285D01*
X101019428Y-124290666D01*
X100584000Y-124871238D02*
X100680761Y-124919619D01*
X100922666Y-124919619D01*
X101019428Y-124871238D01*
X101067809Y-124774476D01*
X101067809Y-124677714D01*
X101019428Y-124580952D01*
X100922666Y-124532571D01*
X100680761Y-124532571D01*
X100584000Y-124484190D01*
X100148571Y-124871238D02*
X100051809Y-124919619D01*
X99858285Y-124919619D01*
X99761523Y-124871238D01*
X99713142Y-124774476D01*
X99713142Y-124726095D01*
X99761523Y-124629333D01*
X99858285Y-124580952D01*
X100003428Y-124580952D01*
X100100190Y-124532571D01*
X100148571Y-124435809D01*
X100148571Y-124387428D01*
X100100190Y-124290666D01*
X100003428Y-124242285D01*
X99858285Y-124242285D01*
X99761523Y-124290666D01*
X98890666Y-124871238D02*
X98987428Y-124919619D01*
X99180952Y-124919619D01*
X99277714Y-124871238D01*
X99326095Y-124774476D01*
X99326095Y-124387428D01*
X99277714Y-124290666D01*
X99180952Y-124242285D01*
X98987428Y-124242285D01*
X98890666Y-124290666D01*
X98842285Y-124387428D01*
X98842285Y-124484190D01*
X99326095Y-124580952D01*
X122428000Y-126020285D02*
X122428000Y-127036285D01*
X122428000Y-126068666D02*
X122331238Y-126020285D01*
X122137714Y-126020285D01*
X122040952Y-126068666D01*
X121992571Y-126117047D01*
X121944190Y-126213809D01*
X121944190Y-126504095D01*
X121992571Y-126600857D01*
X122040952Y-126649238D01*
X122137714Y-126697619D01*
X122331238Y-126697619D01*
X122428000Y-126649238D01*
X121073333Y-126697619D02*
X121073333Y-126165428D01*
X121121714Y-126068666D01*
X121218476Y-126020285D01*
X121412000Y-126020285D01*
X121508761Y-126068666D01*
X121073333Y-126649238D02*
X121170095Y-126697619D01*
X121412000Y-126697619D01*
X121508761Y-126649238D01*
X121557142Y-126552476D01*
X121557142Y-126455714D01*
X121508761Y-126358952D01*
X121412000Y-126310571D01*
X121170095Y-126310571D01*
X121073333Y-126262190D01*
X120589523Y-126697619D02*
X120589523Y-126020285D01*
X120589523Y-126213809D02*
X120541142Y-126117047D01*
X120492761Y-126068666D01*
X120396000Y-126020285D01*
X120299238Y-126020285D01*
X120105714Y-126020285D02*
X119718666Y-126020285D01*
X119960571Y-125681619D02*
X119960571Y-126552476D01*
X119912190Y-126649238D01*
X119815428Y-126697619D01*
X119718666Y-126697619D01*
X119621904Y-126794380D02*
X118847809Y-126794380D01*
X118605904Y-126020285D02*
X118605904Y-126697619D01*
X118605904Y-126117047D02*
X118557523Y-126068666D01*
X118460761Y-126020285D01*
X118315619Y-126020285D01*
X118218857Y-126068666D01*
X118170476Y-126165428D01*
X118170476Y-126697619D01*
X117251238Y-126020285D02*
X117251238Y-126697619D01*
X117686666Y-126020285D02*
X117686666Y-126552476D01*
X117638285Y-126649238D01*
X117541523Y-126697619D01*
X117396380Y-126697619D01*
X117299619Y-126649238D01*
X117251238Y-126600857D01*
X116767428Y-126697619D02*
X116767428Y-126020285D01*
X116767428Y-126117047D02*
X116719047Y-126068666D01*
X116622285Y-126020285D01*
X116477142Y-126020285D01*
X116380380Y-126068666D01*
X116332000Y-126165428D01*
X116332000Y-126697619D01*
X116332000Y-126165428D02*
X116283619Y-126068666D01*
X116186857Y-126020285D01*
X116041714Y-126020285D01*
X115944952Y-126068666D01*
X115896571Y-126165428D01*
X115896571Y-126697619D01*
X115412761Y-126697619D02*
X115412761Y-125681619D01*
X115412761Y-126068666D02*
X115316000Y-126020285D01*
X115122476Y-126020285D01*
X115025714Y-126068666D01*
X114977333Y-126117047D01*
X114928952Y-126213809D01*
X114928952Y-126504095D01*
X114977333Y-126600857D01*
X115025714Y-126649238D01*
X115122476Y-126697619D01*
X115316000Y-126697619D01*
X115412761Y-126649238D01*
X114106476Y-126649238D02*
X114203238Y-126697619D01*
X114396761Y-126697619D01*
X114493523Y-126649238D01*
X114541904Y-126552476D01*
X114541904Y-126165428D01*
X114493523Y-126068666D01*
X114396761Y-126020285D01*
X114203238Y-126020285D01*
X114106476Y-126068666D01*
X114058095Y-126165428D01*
X114058095Y-126262190D01*
X114541904Y-126358952D01*
X113622666Y-126697619D02*
X113622666Y-126020285D01*
X113622666Y-126213809D02*
X113574285Y-126117047D01*
X113525904Y-126068666D01*
X113429142Y-126020285D01*
X113332380Y-126020285D01*
X112993714Y-126600857D02*
X112945333Y-126649238D01*
X112993714Y-126697619D01*
X113042095Y-126649238D01*
X112993714Y-126600857D01*
X112993714Y-126697619D01*
X112993714Y-126068666D02*
X112945333Y-126117047D01*
X112993714Y-126165428D01*
X113042095Y-126117047D01*
X112993714Y-126068666D01*
X112993714Y-126165428D01*
X111203619Y-126697619D02*
X111784190Y-126697619D01*
X111493904Y-126697619D02*
X111493904Y-125681619D01*
X111590666Y-125826761D01*
X111687428Y-125923523D01*
X111784190Y-125971904D01*
X110574666Y-125681619D02*
X110477904Y-125681619D01*
X110381142Y-125730000D01*
X110332761Y-125778380D01*
X110284380Y-125875142D01*
X110236000Y-126068666D01*
X110236000Y-126310571D01*
X110284380Y-126504095D01*
X110332761Y-126600857D01*
X110381142Y-126649238D01*
X110477904Y-126697619D01*
X110574666Y-126697619D01*
X110671428Y-126649238D01*
X110719809Y-126600857D01*
X110768190Y-126504095D01*
X110816571Y-126310571D01*
X110816571Y-126068666D01*
X110768190Y-125875142D01*
X110719809Y-125778380D01*
X110671428Y-125730000D01*
X110574666Y-125681619D01*
X109607047Y-125681619D02*
X109510285Y-125681619D01*
X109413523Y-125730000D01*
X109365142Y-125778380D01*
X109316761Y-125875142D01*
X109268380Y-126068666D01*
X109268380Y-126310571D01*
X109316761Y-126504095D01*
X109365142Y-126600857D01*
X109413523Y-126649238D01*
X109510285Y-126697619D01*
X109607047Y-126697619D01*
X109703809Y-126649238D01*
X109752190Y-126600857D01*
X109800571Y-126504095D01*
X109848952Y-126310571D01*
X109848952Y-126068666D01*
X109800571Y-125875142D01*
X109752190Y-125778380D01*
X109703809Y-125730000D01*
X109607047Y-125681619D01*
X108639428Y-125681619D02*
X108542666Y-125681619D01*
X108445904Y-125730000D01*
X108397523Y-125778380D01*
X108349142Y-125875142D01*
X108300761Y-126068666D01*
X108300761Y-126310571D01*
X108349142Y-126504095D01*
X108397523Y-126600857D01*
X108445904Y-126649238D01*
X108542666Y-126697619D01*
X108639428Y-126697619D01*
X108736190Y-126649238D01*
X108784571Y-126600857D01*
X108832952Y-126504095D01*
X108881333Y-126310571D01*
X108881333Y-126068666D01*
X108832952Y-125875142D01*
X108784571Y-125778380D01*
X108736190Y-125730000D01*
X108639428Y-125681619D01*
X106897714Y-125681619D02*
X106800952Y-125681619D01*
X106704190Y-125730000D01*
X106655809Y-125778380D01*
X106607428Y-125875142D01*
X106559047Y-126068666D01*
X106559047Y-126310571D01*
X106607428Y-126504095D01*
X106655809Y-126600857D01*
X106704190Y-126649238D01*
X106800952Y-126697619D01*
X106897714Y-126697619D01*
X106994476Y-126649238D01*
X107042857Y-126600857D01*
X107091238Y-126504095D01*
X107139619Y-126310571D01*
X107139619Y-126068666D01*
X107091238Y-125875142D01*
X107042857Y-125778380D01*
X106994476Y-125730000D01*
X106897714Y-125681619D01*
X106172000Y-125778380D02*
X106123619Y-125730000D01*
X106026857Y-125681619D01*
X105784952Y-125681619D01*
X105688190Y-125730000D01*
X105639809Y-125778380D01*
X105591428Y-125875142D01*
X105591428Y-125971904D01*
X105639809Y-126117047D01*
X106220380Y-126697619D01*
X105591428Y-126697619D01*
X104430285Y-125633238D02*
X105301142Y-126939523D01*
X104140000Y-125778380D02*
X104091619Y-125730000D01*
X103994857Y-125681619D01*
X103752952Y-125681619D01*
X103656190Y-125730000D01*
X103607809Y-125778380D01*
X103559428Y-125875142D01*
X103559428Y-125971904D01*
X103607809Y-126117047D01*
X104188380Y-126697619D01*
X103559428Y-126697619D01*
X102930476Y-125681619D02*
X102833714Y-125681619D01*
X102736952Y-125730000D01*
X102688571Y-125778380D01*
X102640190Y-125875142D01*
X102591809Y-126068666D01*
X102591809Y-126310571D01*
X102640190Y-126504095D01*
X102688571Y-126600857D01*
X102736952Y-126649238D01*
X102833714Y-126697619D01*
X102930476Y-126697619D01*
X103027238Y-126649238D01*
X103075619Y-126600857D01*
X103124000Y-126504095D01*
X103172380Y-126310571D01*
X103172380Y-126068666D01*
X103124000Y-125875142D01*
X103075619Y-125778380D01*
X103027238Y-125730000D01*
X102930476Y-125681619D01*
X101624190Y-126697619D02*
X102204761Y-126697619D01*
X101914476Y-126697619D02*
X101914476Y-125681619D01*
X102011238Y-125826761D01*
X102108000Y-125923523D01*
X102204761Y-125971904D01*
X101285523Y-125681619D02*
X100608190Y-125681619D01*
X101043619Y-126697619D01*
X99543809Y-126020285D02*
X99301904Y-126697619D01*
X99060000Y-126020285D01*
X98285904Y-126649238D02*
X98382666Y-126697619D01*
X98576190Y-126697619D01*
X98672952Y-126649238D01*
X98721333Y-126552476D01*
X98721333Y-126165428D01*
X98672952Y-126068666D01*
X98576190Y-126020285D01*
X98382666Y-126020285D01*
X98285904Y-126068666D01*
X98237523Y-126165428D01*
X98237523Y-126262190D01*
X98721333Y-126358952D01*
X97802095Y-126697619D02*
X97802095Y-126020285D01*
X97802095Y-126213809D02*
X97753714Y-126117047D01*
X97705333Y-126068666D01*
X97608571Y-126020285D01*
X97511809Y-126020285D01*
X95866857Y-126697619D02*
X96447428Y-126697619D01*
X96157142Y-126697619D02*
X96157142Y-125681619D01*
X96253904Y-125826761D01*
X96350666Y-125923523D01*
X96447428Y-125971904D01*
X95431428Y-126600857D02*
X95383047Y-126649238D01*
X95431428Y-126697619D01*
X95479809Y-126649238D01*
X95431428Y-126600857D01*
X95431428Y-126697619D01*
X94754095Y-125681619D02*
X94657333Y-125681619D01*
X94560571Y-125730000D01*
X94512190Y-125778380D01*
X94463809Y-125875142D01*
X94415428Y-126068666D01*
X94415428Y-126310571D01*
X94463809Y-126504095D01*
X94512190Y-126600857D01*
X94560571Y-126649238D01*
X94657333Y-126697619D01*
X94754095Y-126697619D01*
X94850857Y-126649238D01*
X94899238Y-126600857D01*
X94947619Y-126504095D01*
X94996000Y-126310571D01*
X94996000Y-126068666D01*
X94947619Y-125875142D01*
X94899238Y-125778380D01*
X94850857Y-125730000D01*
X94754095Y-125681619D01*
X92722095Y-125681619D02*
X93205904Y-125681619D01*
X93254285Y-126165428D01*
X93205904Y-126117047D01*
X93109142Y-126068666D01*
X92867238Y-126068666D01*
X92770476Y-126117047D01*
X92722095Y-126165428D01*
X92673714Y-126262190D01*
X92673714Y-126504095D01*
X92722095Y-126600857D01*
X92770476Y-126649238D01*
X92867238Y-126697619D01*
X93109142Y-126697619D01*
X93205904Y-126649238D01*
X93254285Y-126600857D01*
X92335047Y-126697619D02*
X91802857Y-126020285D01*
X92335047Y-126020285D02*
X91802857Y-126697619D01*
X91512571Y-125681619D02*
X90883619Y-125681619D01*
X91222285Y-126068666D01*
X91077142Y-126068666D01*
X90980380Y-126117047D01*
X90932000Y-126165428D01*
X90883619Y-126262190D01*
X90883619Y-126504095D01*
X90932000Y-126600857D01*
X90980380Y-126649238D01*
X91077142Y-126697619D01*
X91367428Y-126697619D01*
X91464190Y-126649238D01*
X91512571Y-126600857D01*
X187101238Y-67993380D02*
X187149619Y-68138523D01*
X187149619Y-68380428D01*
X187101238Y-68477190D01*
X187052857Y-68525571D01*
X186956095Y-68573952D01*
X186859333Y-68573952D01*
X186762571Y-68525571D01*
X186714190Y-68477190D01*
X186665809Y-68380428D01*
X186617428Y-68186904D01*
X186569047Y-68090142D01*
X186520666Y-68041761D01*
X186423904Y-67993380D01*
X186327142Y-67993380D01*
X186230380Y-68041761D01*
X186182000Y-68090142D01*
X186133619Y-68186904D01*
X186133619Y-68428809D01*
X186182000Y-68573952D01*
X187101238Y-69396428D02*
X187149619Y-69299666D01*
X187149619Y-69106142D01*
X187101238Y-69009380D01*
X187004476Y-68961000D01*
X186617428Y-68961000D01*
X186520666Y-69009380D01*
X186472285Y-69106142D01*
X186472285Y-69299666D01*
X186520666Y-69396428D01*
X186617428Y-69444809D01*
X186714190Y-69444809D01*
X186810952Y-68961000D01*
X187149619Y-69880238D02*
X186472285Y-69880238D01*
X186665809Y-69880238D02*
X186569047Y-69928619D01*
X186520666Y-69977000D01*
X186472285Y-70073761D01*
X186472285Y-70170523D01*
X187149619Y-70509190D02*
X186472285Y-70509190D01*
X186133619Y-70509190D02*
X186182000Y-70460809D01*
X186230380Y-70509190D01*
X186182000Y-70557571D01*
X186133619Y-70509190D01*
X186230380Y-70509190D01*
X187149619Y-71428428D02*
X186617428Y-71428428D01*
X186520666Y-71380047D01*
X186472285Y-71283285D01*
X186472285Y-71089761D01*
X186520666Y-70993000D01*
X187101238Y-71428428D02*
X187149619Y-71331666D01*
X187149619Y-71089761D01*
X187101238Y-70993000D01*
X187004476Y-70944619D01*
X186907714Y-70944619D01*
X186810952Y-70993000D01*
X186762571Y-71089761D01*
X186762571Y-71331666D01*
X186714190Y-71428428D01*
X187149619Y-72057380D02*
X187101238Y-71960619D01*
X187004476Y-71912238D01*
X186133619Y-71912238D01*
X187149619Y-72976619D02*
X187149619Y-72396047D01*
X187149619Y-72686333D02*
X186133619Y-72686333D01*
X186278761Y-72589571D01*
X186375523Y-72492809D01*
X186423904Y-72396047D01*
X187101238Y-127048380D02*
X187149619Y-127193523D01*
X187149619Y-127435428D01*
X187101238Y-127532190D01*
X187052857Y-127580571D01*
X186956095Y-127628952D01*
X186859333Y-127628952D01*
X186762571Y-127580571D01*
X186714190Y-127532190D01*
X186665809Y-127435428D01*
X186617428Y-127241904D01*
X186569047Y-127145142D01*
X186520666Y-127096761D01*
X186423904Y-127048380D01*
X186327142Y-127048380D01*
X186230380Y-127096761D01*
X186182000Y-127145142D01*
X186133619Y-127241904D01*
X186133619Y-127483809D01*
X186182000Y-127628952D01*
X187101238Y-128451428D02*
X187149619Y-128354666D01*
X187149619Y-128161142D01*
X187101238Y-128064380D01*
X187004476Y-128016000D01*
X186617428Y-128016000D01*
X186520666Y-128064380D01*
X186472285Y-128161142D01*
X186472285Y-128354666D01*
X186520666Y-128451428D01*
X186617428Y-128499809D01*
X186714190Y-128499809D01*
X186810952Y-128016000D01*
X187149619Y-128935238D02*
X186472285Y-128935238D01*
X186665809Y-128935238D02*
X186569047Y-128983619D01*
X186520666Y-129032000D01*
X186472285Y-129128761D01*
X186472285Y-129225523D01*
X187149619Y-129564190D02*
X186472285Y-129564190D01*
X186133619Y-129564190D02*
X186182000Y-129515809D01*
X186230380Y-129564190D01*
X186182000Y-129612571D01*
X186133619Y-129564190D01*
X186230380Y-129564190D01*
X187149619Y-130483428D02*
X186617428Y-130483428D01*
X186520666Y-130435047D01*
X186472285Y-130338285D01*
X186472285Y-130144761D01*
X186520666Y-130048000D01*
X187101238Y-130483428D02*
X187149619Y-130386666D01*
X187149619Y-130144761D01*
X187101238Y-130048000D01*
X187004476Y-129999619D01*
X186907714Y-129999619D01*
X186810952Y-130048000D01*
X186762571Y-130144761D01*
X186762571Y-130386666D01*
X186714190Y-130483428D01*
X187149619Y-131112380D02*
X187101238Y-131015619D01*
X187004476Y-130967238D01*
X186133619Y-130967238D01*
X186133619Y-131402666D02*
X186133619Y-132031619D01*
X186520666Y-131692952D01*
X186520666Y-131838095D01*
X186569047Y-131934857D01*
X186617428Y-131983238D01*
X186714190Y-132031619D01*
X186956095Y-132031619D01*
X187052857Y-131983238D01*
X187101238Y-131934857D01*
X187149619Y-131838095D01*
X187149619Y-131547809D01*
X187101238Y-131451047D01*
X187052857Y-131402666D01*
X189532380Y-106583238D02*
X189484000Y-106631619D01*
X189435619Y-106728380D01*
X189435619Y-106970285D01*
X189484000Y-107067047D01*
X189532380Y-107115428D01*
X189629142Y-107163809D01*
X189725904Y-107163809D01*
X189871047Y-107115428D01*
X190451619Y-106534857D01*
X190451619Y-107163809D01*
X190354857Y-107599238D02*
X190403238Y-107647619D01*
X190451619Y-107599238D01*
X190403238Y-107550857D01*
X190354857Y-107599238D01*
X190451619Y-107599238D01*
X189435619Y-108566857D02*
X189435619Y-108083047D01*
X189919428Y-108034666D01*
X189871047Y-108083047D01*
X189822666Y-108179809D01*
X189822666Y-108421714D01*
X189871047Y-108518476D01*
X189919428Y-108566857D01*
X190016190Y-108615238D01*
X190258095Y-108615238D01*
X190354857Y-108566857D01*
X190403238Y-108518476D01*
X190451619Y-108421714D01*
X190451619Y-108179809D01*
X190403238Y-108083047D01*
X190354857Y-108034666D01*
X190451619Y-108953904D02*
X189774285Y-109486095D01*
X189774285Y-108953904D02*
X190451619Y-109486095D01*
X189435619Y-110356952D02*
X189435619Y-109873142D01*
X189919428Y-109824761D01*
X189871047Y-109873142D01*
X189822666Y-109969904D01*
X189822666Y-110211809D01*
X189871047Y-110308571D01*
X189919428Y-110356952D01*
X190016190Y-110405333D01*
X190258095Y-110405333D01*
X190354857Y-110356952D01*
X190403238Y-110308571D01*
X190451619Y-110211809D01*
X190451619Y-109969904D01*
X190403238Y-109873142D01*
X190354857Y-109824761D01*
X190354857Y-110840761D02*
X190403238Y-110889142D01*
X190451619Y-110840761D01*
X190403238Y-110792380D01*
X190354857Y-110840761D01*
X190451619Y-110840761D01*
X189435619Y-111808380D02*
X189435619Y-111324571D01*
X189919428Y-111276190D01*
X189871047Y-111324571D01*
X189822666Y-111421333D01*
X189822666Y-111663238D01*
X189871047Y-111760000D01*
X189919428Y-111808380D01*
X190016190Y-111856761D01*
X190258095Y-111856761D01*
X190354857Y-111808380D01*
X190403238Y-111760000D01*
X190451619Y-111663238D01*
X190451619Y-111421333D01*
X190403238Y-111324571D01*
X190354857Y-111276190D01*
X192132857Y-106583238D02*
X192181238Y-106534857D01*
X192229619Y-106389714D01*
X192229619Y-106292952D01*
X192181238Y-106147809D01*
X192084476Y-106051047D01*
X191987714Y-106002666D01*
X191794190Y-105954285D01*
X191649047Y-105954285D01*
X191455523Y-106002666D01*
X191358761Y-106051047D01*
X191262000Y-106147809D01*
X191213619Y-106292952D01*
X191213619Y-106389714D01*
X191262000Y-106534857D01*
X191310380Y-106583238D01*
X192181238Y-107405714D02*
X192229619Y-107308952D01*
X192229619Y-107115428D01*
X192181238Y-107018666D01*
X192084476Y-106970285D01*
X191697428Y-106970285D01*
X191600666Y-107018666D01*
X191552285Y-107115428D01*
X191552285Y-107308952D01*
X191600666Y-107405714D01*
X191697428Y-107454095D01*
X191794190Y-107454095D01*
X191890952Y-106970285D01*
X191552285Y-107889523D02*
X192229619Y-107889523D01*
X191649047Y-107889523D02*
X191600666Y-107937904D01*
X191552285Y-108034666D01*
X191552285Y-108179809D01*
X191600666Y-108276571D01*
X191697428Y-108324952D01*
X192229619Y-108324952D01*
X191552285Y-108663619D02*
X191552285Y-109050666D01*
X191213619Y-108808761D02*
X192084476Y-108808761D01*
X192181238Y-108857142D01*
X192229619Y-108953904D01*
X192229619Y-109050666D01*
X192181238Y-109776380D02*
X192229619Y-109679619D01*
X192229619Y-109486095D01*
X192181238Y-109389333D01*
X192084476Y-109340952D01*
X191697428Y-109340952D01*
X191600666Y-109389333D01*
X191552285Y-109486095D01*
X191552285Y-109679619D01*
X191600666Y-109776380D01*
X191697428Y-109824761D01*
X191794190Y-109824761D01*
X191890952Y-109340952D01*
X192229619Y-110260190D02*
X191552285Y-110260190D01*
X191745809Y-110260190D02*
X191649047Y-110308571D01*
X191600666Y-110356952D01*
X191552285Y-110453714D01*
X191552285Y-110550476D01*
X191842571Y-111663238D02*
X191842571Y-112437333D01*
X192229619Y-112050285D02*
X191455523Y-112050285D01*
X193620571Y-105301142D02*
X193620571Y-106075238D01*
X194007619Y-105688190D02*
X193233523Y-105688190D01*
X194007619Y-106607428D02*
X194007619Y-106800952D01*
X193959238Y-106897714D01*
X193910857Y-106946095D01*
X193765714Y-107042857D01*
X193572190Y-107091238D01*
X193185142Y-107091238D01*
X193088380Y-107042857D01*
X193040000Y-106994476D01*
X192991619Y-106897714D01*
X192991619Y-106704190D01*
X193040000Y-106607428D01*
X193088380Y-106559047D01*
X193185142Y-106510666D01*
X193427047Y-106510666D01*
X193523809Y-106559047D01*
X193572190Y-106607428D01*
X193620571Y-106704190D01*
X193620571Y-106897714D01*
X193572190Y-106994476D01*
X193523809Y-107042857D01*
X193427047Y-107091238D01*
X193620571Y-107526666D02*
X193620571Y-108300761D01*
X193330285Y-109220000D02*
X194007619Y-109220000D01*
X192943238Y-108978095D02*
X193668952Y-108736190D01*
X193668952Y-109365142D01*
X193088380Y-109703809D02*
X193040000Y-109752190D01*
X192991619Y-109848952D01*
X192991619Y-110090857D01*
X193040000Y-110187619D01*
X193088380Y-110236000D01*
X193185142Y-110284380D01*
X193281904Y-110284380D01*
X193427047Y-110236000D01*
X194007619Y-109655428D01*
X194007619Y-110284380D01*
X192991619Y-110574666D02*
X194007619Y-110913333D01*
X192991619Y-111252000D01*
X194007619Y-111590666D02*
X192991619Y-111590666D01*
X192991619Y-111832571D01*
X193040000Y-111977714D01*
X193136761Y-112074476D01*
X193233523Y-112122857D01*
X193427047Y-112171238D01*
X193572190Y-112171238D01*
X193765714Y-112122857D01*
X193862476Y-112074476D01*
X193959238Y-111977714D01*
X194007619Y-111832571D01*
X194007619Y-111590666D01*
X193910857Y-113187238D02*
X193959238Y-113138857D01*
X194007619Y-112993714D01*
X194007619Y-112896952D01*
X193959238Y-112751809D01*
X193862476Y-112655047D01*
X193765714Y-112606666D01*
X193572190Y-112558285D01*
X193427047Y-112558285D01*
X193233523Y-112606666D01*
X193136761Y-112655047D01*
X193040000Y-112751809D01*
X192991619Y-112896952D01*
X192991619Y-112993714D01*
X193040000Y-113138857D01*
X193088380Y-113187238D01*
X193626619Y-75976238D02*
X193481476Y-76024619D01*
X193239571Y-76024619D01*
X193142809Y-75976238D01*
X193094428Y-75927857D01*
X193046047Y-75831095D01*
X193046047Y-75734333D01*
X193094428Y-75637571D01*
X193142809Y-75589190D01*
X193239571Y-75540809D01*
X193433095Y-75492428D01*
X193529857Y-75444047D01*
X193578238Y-75395666D01*
X193626619Y-75298904D01*
X193626619Y-75202142D01*
X193578238Y-75105380D01*
X193529857Y-75057000D01*
X193433095Y-75008619D01*
X193191190Y-75008619D01*
X193046047Y-75057000D01*
X192223571Y-75976238D02*
X192320333Y-76024619D01*
X192513857Y-76024619D01*
X192610619Y-75976238D01*
X192659000Y-75879476D01*
X192659000Y-75492428D01*
X192610619Y-75395666D01*
X192513857Y-75347285D01*
X192320333Y-75347285D01*
X192223571Y-75395666D01*
X192175190Y-75492428D01*
X192175190Y-75589190D01*
X192659000Y-75685952D01*
X191739761Y-76024619D02*
X191739761Y-75347285D01*
X191739761Y-75540809D02*
X191691380Y-75444047D01*
X191643000Y-75395666D01*
X191546238Y-75347285D01*
X191449476Y-75347285D01*
X191110809Y-76024619D02*
X191110809Y-75347285D01*
X191110809Y-75008619D02*
X191159190Y-75057000D01*
X191110809Y-75105380D01*
X191062428Y-75057000D01*
X191110809Y-75008619D01*
X191110809Y-75105380D01*
X190191571Y-76024619D02*
X190191571Y-75492428D01*
X190239952Y-75395666D01*
X190336714Y-75347285D01*
X190530238Y-75347285D01*
X190627000Y-75395666D01*
X190191571Y-75976238D02*
X190288333Y-76024619D01*
X190530238Y-76024619D01*
X190627000Y-75976238D01*
X190675380Y-75879476D01*
X190675380Y-75782714D01*
X190627000Y-75685952D01*
X190530238Y-75637571D01*
X190288333Y-75637571D01*
X190191571Y-75589190D01*
X189562619Y-76024619D02*
X189659380Y-75976238D01*
X189707761Y-75879476D01*
X189707761Y-75008619D01*
X189223952Y-75105380D02*
X189175571Y-75057000D01*
X189078809Y-75008619D01*
X188836904Y-75008619D01*
X188740142Y-75057000D01*
X188691761Y-75105380D01*
X188643380Y-75202142D01*
X188643380Y-75298904D01*
X188691761Y-75444047D01*
X189272333Y-76024619D01*
X188643380Y-76024619D01*
D13*
X73705000Y-115915000D02*
X73705000Y-111415000D01*
X69805000Y-111415000D02*
X69805000Y-115915000D01*
X70205000Y-112465000D02*
X69805000Y-112465000D01*
X70205000Y-112315000D02*
X70205000Y-112465000D01*
X69805000Y-112315000D02*
X70205000Y-112315000D01*
X73305000Y-112465000D02*
X73705000Y-112465000D01*
X73305000Y-112315000D02*
X73305000Y-112465000D01*
X73705000Y-112315000D02*
X73305000Y-112315000D01*
X69805000Y-115915000D02*
X70205000Y-115915000D01*
X73705000Y-115915000D02*
X73305000Y-115915000D01*
X73705000Y-111415000D02*
X73305000Y-111415000D01*
X69805000Y-111415000D02*
X70205000Y-111415000D01*
D14*
X67818000Y-108077000D02*
X66294000Y-108077000D01*
X66294000Y-108077000D02*
X66294000Y-105283000D01*
X66294000Y-105283000D02*
X67818000Y-105283000D01*
X69342000Y-105283000D02*
X70866000Y-105283000D01*
X70866000Y-105283000D02*
X70866000Y-108077000D01*
X70866000Y-108077000D02*
X69342000Y-108077000D01*
X64262000Y-111252000D02*
X64262000Y-112776000D01*
X64262000Y-112776000D02*
X61468000Y-112776000D01*
X61468000Y-112776000D02*
X61468000Y-111252000D01*
X61468000Y-109728000D02*
X61468000Y-108204000D01*
X61468000Y-108204000D02*
X64262000Y-108204000D01*
X64262000Y-108204000D02*
X64262000Y-109728000D01*
X68453000Y-71628000D02*
X68453000Y-70104000D01*
X68453000Y-70104000D02*
X71247000Y-70104000D01*
X71247000Y-70104000D02*
X71247000Y-71628000D01*
X71247000Y-73152000D02*
X71247000Y-74676000D01*
X71247000Y-74676000D02*
X68453000Y-74676000D01*
X68453000Y-74676000D02*
X68453000Y-73152000D01*
X75057000Y-105283000D02*
X76581000Y-105283000D01*
X76581000Y-105283000D02*
X76581000Y-108077000D01*
X76581000Y-108077000D02*
X75057000Y-108077000D01*
X73533000Y-108077000D02*
X72009000Y-108077000D01*
X72009000Y-108077000D02*
X72009000Y-105283000D01*
X72009000Y-105283000D02*
X73533000Y-105283000D01*
D12*
X64490600Y-69215000D02*
G75*
G03X64490600Y-69215000I-2260600J0D01*
G01*
X64490600Y-130175000D02*
G75*
G03X64490600Y-130175000I-2260600J0D01*
G01*
X194030600Y-69215000D02*
G75*
G03X194030600Y-69215000I-2260600J0D01*
G01*
D15*
X168275000Y-127635000D02*
X150495000Y-127635000D01*
X150495000Y-66675000D02*
X168275000Y-66675000D01*
X168275000Y-66675000D02*
X168275000Y-127635000D01*
X150495000Y-66675000D02*
X150495000Y-127635000D01*
X165735000Y-113665000D02*
G75*
G03X165735000Y-113665000I-1270000J0D01*
G01*
X163195000Y-113665000D02*
G75*
G03X163195000Y-113665000I-1270000J0D01*
G01*
X160655000Y-113665000D02*
G75*
G03X160655000Y-113665000I-1270000J0D01*
G01*
X158115000Y-113665000D02*
G75*
G03X158115000Y-113665000I-1270000J0D01*
G01*
X155575000Y-113665000D02*
G75*
G03X155575000Y-113665000I-1270000J0D01*
G01*
X151765000Y-76835000D02*
X151765000Y-66675000D01*
X167005000Y-76835000D02*
X151765000Y-76835000D01*
X167005000Y-66675000D02*
X167005000Y-76835000D01*
X151765000Y-65405000D02*
X151765000Y-66675000D01*
X167005000Y-65405000D02*
X151765000Y-65405000D01*
X167005000Y-66675000D02*
X167005000Y-65405000D01*
X172085000Y-137160000D02*
X184785000Y-137160000D01*
X184785000Y-137160000D02*
X184785000Y-123190000D01*
X172085000Y-137160000D02*
X172085000Y-123190000D01*
X172085000Y-123190000D02*
X184785000Y-123190000D01*
X198755000Y-90170000D02*
X198755000Y-77470000D01*
X198755000Y-77470000D02*
X184785000Y-77470000D01*
X198755000Y-90170000D02*
X184785000Y-90170000D01*
X184785000Y-90170000D02*
X184785000Y-77470000D01*
X122555000Y-99695000D02*
G75*
G03X122555000Y-99695000I-1270000J0D01*
G01*
X122555000Y-97155000D02*
X122555000Y-102235000D01*
X122555000Y-102235000D02*
X120015000Y-102235000D01*
X120015000Y-102235000D02*
X120015000Y-97155000D01*
X120015000Y-97155000D02*
X122555000Y-97155000D01*
X77470000Y-95885000D02*
X76200000Y-95885000D01*
X76200000Y-95885000D02*
X76200000Y-103505000D01*
X76200000Y-103505000D02*
X77470000Y-103505000D01*
X138430000Y-90805000D02*
X138430000Y-108585000D01*
X77470000Y-108585000D02*
X77470000Y-90805000D01*
X77470000Y-90805000D02*
X138430000Y-90805000D01*
X77470000Y-108585000D02*
X138430000Y-108585000D01*
X125730000Y-104775000D02*
X138430000Y-104775000D01*
X125730000Y-94615000D02*
X125730000Y-104775000D01*
X138430000Y-94615000D02*
X125730000Y-94615000D01*
X55245000Y-77470000D02*
X55245000Y-90170000D01*
X55245000Y-90170000D02*
X69215000Y-90170000D01*
X55245000Y-77470000D02*
X69215000Y-77470000D01*
X69215000Y-77470000D02*
X69215000Y-90170000D01*
X184785000Y-62230000D02*
X172085000Y-62230000D01*
X172085000Y-62230000D02*
X172085000Y-76200000D01*
X184785000Y-62230000D02*
X184785000Y-76200000D01*
X184785000Y-76200000D02*
X172085000Y-76200000D01*
X180975000Y-104775000D02*
X180975000Y-94615000D01*
X180975000Y-94615000D02*
X194310000Y-94615000D01*
X180975000Y-104775000D02*
X194310000Y-104775000D01*
X194310000Y-104775000D02*
X194310000Y-94615000D01*
D12*
X194030600Y-130175000D02*
G75*
G03X194030600Y-130175000I-2260600J0D01*
G01*
D11*
X72504904Y-118569619D02*
X72504904Y-117553619D01*
X72263000Y-117553619D01*
X72117857Y-117602000D01*
X72021095Y-117698761D01*
X71972714Y-117795523D01*
X71924333Y-117989047D01*
X71924333Y-118134190D01*
X71972714Y-118327714D01*
X72021095Y-118424476D01*
X72117857Y-118521238D01*
X72263000Y-118569619D01*
X72504904Y-118569619D01*
X71537285Y-117650380D02*
X71488904Y-117602000D01*
X71392142Y-117553619D01*
X71150238Y-117553619D01*
X71053476Y-117602000D01*
X71005095Y-117650380D01*
X70956714Y-117747142D01*
X70956714Y-117843904D01*
X71005095Y-117989047D01*
X71585666Y-118569619D01*
X70956714Y-118569619D01*
X68749333Y-109328857D02*
X68797714Y-109377238D01*
X68942857Y-109425619D01*
X69039619Y-109425619D01*
X69184761Y-109377238D01*
X69281523Y-109280476D01*
X69329904Y-109183714D01*
X69378285Y-108990190D01*
X69378285Y-108845047D01*
X69329904Y-108651523D01*
X69281523Y-108554761D01*
X69184761Y-108458000D01*
X69039619Y-108409619D01*
X68942857Y-108409619D01*
X68797714Y-108458000D01*
X68749333Y-108506380D01*
X67781714Y-109425619D02*
X68362285Y-109425619D01*
X68072000Y-109425619D02*
X68072000Y-108409619D01*
X68168761Y-108554761D01*
X68265523Y-108651523D01*
X68362285Y-108699904D01*
X69668571Y-104853619D02*
X70249142Y-104853619D01*
X69958857Y-104853619D02*
X69958857Y-103837619D01*
X70055619Y-103982761D01*
X70152380Y-104079523D01*
X70249142Y-104127904D01*
X69039619Y-103837619D02*
X68942857Y-103837619D01*
X68846095Y-103886000D01*
X68797714Y-103934380D01*
X68749333Y-104031142D01*
X68700952Y-104224666D01*
X68700952Y-104466571D01*
X68749333Y-104660095D01*
X68797714Y-104756857D01*
X68846095Y-104805238D01*
X68942857Y-104853619D01*
X69039619Y-104853619D01*
X69136380Y-104805238D01*
X69184761Y-104756857D01*
X69233142Y-104660095D01*
X69281523Y-104466571D01*
X69281523Y-104224666D01*
X69233142Y-104031142D01*
X69184761Y-103934380D01*
X69136380Y-103886000D01*
X69039619Y-103837619D01*
X67830095Y-104176285D02*
X67830095Y-104853619D01*
X68265523Y-104176285D02*
X68265523Y-104708476D01*
X68217142Y-104805238D01*
X68120380Y-104853619D01*
X67975238Y-104853619D01*
X67878476Y-104805238D01*
X67830095Y-104756857D01*
X67007619Y-104321428D02*
X67346285Y-104321428D01*
X67346285Y-104853619D02*
X67346285Y-103837619D01*
X66862476Y-103837619D01*
X65513857Y-110320666D02*
X65562238Y-110272285D01*
X65610619Y-110127142D01*
X65610619Y-110030380D01*
X65562238Y-109885238D01*
X65465476Y-109788476D01*
X65368714Y-109740095D01*
X65175190Y-109691714D01*
X65030047Y-109691714D01*
X64836523Y-109740095D01*
X64739761Y-109788476D01*
X64643000Y-109885238D01*
X64594619Y-110030380D01*
X64594619Y-110127142D01*
X64643000Y-110272285D01*
X64691380Y-110320666D01*
X64691380Y-110707714D02*
X64643000Y-110756095D01*
X64594619Y-110852857D01*
X64594619Y-111094761D01*
X64643000Y-111191523D01*
X64691380Y-111239904D01*
X64788142Y-111288285D01*
X64884904Y-111288285D01*
X65030047Y-111239904D01*
X65610619Y-110659333D01*
X65610619Y-111288285D01*
X61038619Y-109401428D02*
X61038619Y-108820857D01*
X61038619Y-109111142D02*
X60022619Y-109111142D01*
X60167761Y-109014380D01*
X60264523Y-108917619D01*
X60312904Y-108820857D01*
X60022619Y-110030380D02*
X60022619Y-110127142D01*
X60071000Y-110223904D01*
X60119380Y-110272285D01*
X60216142Y-110320666D01*
X60409666Y-110369047D01*
X60651571Y-110369047D01*
X60845095Y-110320666D01*
X60941857Y-110272285D01*
X60990238Y-110223904D01*
X61038619Y-110127142D01*
X61038619Y-110030380D01*
X60990238Y-109933619D01*
X60941857Y-109885238D01*
X60845095Y-109836857D01*
X60651571Y-109788476D01*
X60409666Y-109788476D01*
X60216142Y-109836857D01*
X60119380Y-109885238D01*
X60071000Y-109933619D01*
X60022619Y-110030380D01*
X60361285Y-111239904D02*
X61038619Y-111239904D01*
X60361285Y-110804476D02*
X60893476Y-110804476D01*
X60990238Y-110852857D01*
X61038619Y-110949619D01*
X61038619Y-111094761D01*
X60990238Y-111191523D01*
X60941857Y-111239904D01*
X60506428Y-112062380D02*
X60506428Y-111723714D01*
X61038619Y-111723714D02*
X60022619Y-111723714D01*
X60022619Y-112207523D01*
X67926857Y-72220666D02*
X67975238Y-72172285D01*
X68023619Y-72027142D01*
X68023619Y-71930380D01*
X67975238Y-71785238D01*
X67878476Y-71688476D01*
X67781714Y-71640095D01*
X67588190Y-71591714D01*
X67443047Y-71591714D01*
X67249523Y-71640095D01*
X67152761Y-71688476D01*
X67056000Y-71785238D01*
X67007619Y-71930380D01*
X67007619Y-72027142D01*
X67056000Y-72172285D01*
X67104380Y-72220666D01*
X67007619Y-72559333D02*
X67007619Y-73188285D01*
X67394666Y-72849619D01*
X67394666Y-72994761D01*
X67443047Y-73091523D01*
X67491428Y-73139904D01*
X67588190Y-73188285D01*
X67830095Y-73188285D01*
X67926857Y-73139904D01*
X67975238Y-73091523D01*
X68023619Y-72994761D01*
X68023619Y-72704476D01*
X67975238Y-72607714D01*
X67926857Y-72559333D01*
X72595619Y-71301428D02*
X72595619Y-70720857D01*
X72595619Y-71011142D02*
X71579619Y-71011142D01*
X71724761Y-70914380D01*
X71821523Y-70817619D01*
X71869904Y-70720857D01*
X71579619Y-71930380D02*
X71579619Y-72027142D01*
X71628000Y-72123904D01*
X71676380Y-72172285D01*
X71773142Y-72220666D01*
X71966666Y-72269047D01*
X72208571Y-72269047D01*
X72402095Y-72220666D01*
X72498857Y-72172285D01*
X72547238Y-72123904D01*
X72595619Y-72027142D01*
X72595619Y-71930380D01*
X72547238Y-71833619D01*
X72498857Y-71785238D01*
X72402095Y-71736857D01*
X72208571Y-71688476D01*
X71966666Y-71688476D01*
X71773142Y-71736857D01*
X71676380Y-71785238D01*
X71628000Y-71833619D01*
X71579619Y-71930380D01*
X71918285Y-73139904D02*
X72595619Y-73139904D01*
X71918285Y-72704476D02*
X72450476Y-72704476D01*
X72547238Y-72752857D01*
X72595619Y-72849619D01*
X72595619Y-72994761D01*
X72547238Y-73091523D01*
X72498857Y-73139904D01*
X72063428Y-73962380D02*
X72063428Y-73623714D01*
X72595619Y-73623714D02*
X71579619Y-73623714D01*
X71579619Y-74107523D01*
X74464333Y-104756857D02*
X74512714Y-104805238D01*
X74657857Y-104853619D01*
X74754619Y-104853619D01*
X74899761Y-104805238D01*
X74996523Y-104708476D01*
X75044904Y-104611714D01*
X75093285Y-104418190D01*
X75093285Y-104273047D01*
X75044904Y-104079523D01*
X74996523Y-103982761D01*
X74899761Y-103886000D01*
X74754619Y-103837619D01*
X74657857Y-103837619D01*
X74512714Y-103886000D01*
X74464333Y-103934380D01*
X73593476Y-104176285D02*
X73593476Y-104853619D01*
X73835380Y-103789238D02*
X74077285Y-104514952D01*
X73448333Y-104514952D01*
X75383571Y-109425619D02*
X75964142Y-109425619D01*
X75673857Y-109425619D02*
X75673857Y-108409619D01*
X75770619Y-108554761D01*
X75867380Y-108651523D01*
X75964142Y-108699904D01*
X74754619Y-108409619D02*
X74657857Y-108409619D01*
X74561095Y-108458000D01*
X74512714Y-108506380D01*
X74464333Y-108603142D01*
X74415952Y-108796666D01*
X74415952Y-109038571D01*
X74464333Y-109232095D01*
X74512714Y-109328857D01*
X74561095Y-109377238D01*
X74657857Y-109425619D01*
X74754619Y-109425619D01*
X74851380Y-109377238D01*
X74899761Y-109328857D01*
X74948142Y-109232095D01*
X74996523Y-109038571D01*
X74996523Y-108796666D01*
X74948142Y-108603142D01*
X74899761Y-108506380D01*
X74851380Y-108458000D01*
X74754619Y-108409619D01*
X73545095Y-108748285D02*
X73545095Y-109425619D01*
X73980523Y-108748285D02*
X73980523Y-109280476D01*
X73932142Y-109377238D01*
X73835380Y-109425619D01*
X73690238Y-109425619D01*
X73593476Y-109377238D01*
X73545095Y-109328857D01*
X72722619Y-108893428D02*
X73061285Y-108893428D01*
X73061285Y-109425619D02*
X73061285Y-108409619D01*
X72577476Y-108409619D01*
X160086523Y-128832428D02*
X159747857Y-128832428D01*
X159602714Y-129364619D02*
X160086523Y-129364619D01*
X160086523Y-128348619D01*
X159602714Y-128348619D01*
X158635095Y-129364619D02*
X159215666Y-129364619D01*
X158925380Y-129364619D02*
X158925380Y-128348619D01*
X159022142Y-128493761D01*
X159118904Y-128590523D01*
X159215666Y-128638904D01*
X158828619Y-77681666D02*
X158828619Y-78262238D01*
X159844619Y-77971952D02*
X158828619Y-77971952D01*
X159312428Y-78600904D02*
X159312428Y-78939571D01*
X159844619Y-79084714D02*
X159844619Y-78600904D01*
X158828619Y-78600904D01*
X158828619Y-79084714D01*
X159312428Y-79520142D02*
X159312428Y-79858809D01*
X159844619Y-80003952D02*
X159844619Y-79520142D01*
X158828619Y-79520142D01*
X158828619Y-80003952D01*
X159844619Y-80439380D02*
X158828619Y-80439380D01*
X159844619Y-81019952D01*
X158828619Y-81019952D01*
X159796238Y-81455380D02*
X159844619Y-81600523D01*
X159844619Y-81842428D01*
X159796238Y-81939190D01*
X159747857Y-81987571D01*
X159651095Y-82035952D01*
X159554333Y-82035952D01*
X159457571Y-81987571D01*
X159409190Y-81939190D01*
X159360809Y-81842428D01*
X159312428Y-81648904D01*
X159264047Y-81552142D01*
X159215666Y-81503761D01*
X159118904Y-81455380D01*
X159022142Y-81455380D01*
X158925380Y-81503761D01*
X158877000Y-81552142D01*
X158828619Y-81648904D01*
X158828619Y-81890809D01*
X158877000Y-82035952D01*
X159360809Y-82664904D02*
X159844619Y-82664904D01*
X158828619Y-82326238D02*
X159360809Y-82664904D01*
X158828619Y-83003571D01*
X159941380Y-83100333D02*
X159941380Y-83874428D01*
X159312428Y-84116333D02*
X159312428Y-84454999D01*
X159844619Y-84600142D02*
X159844619Y-84116333D01*
X158828619Y-84116333D01*
X158828619Y-84600142D01*
X158828619Y-84890428D02*
X158828619Y-85470999D01*
X159844619Y-85180714D02*
X158828619Y-85180714D01*
X159844619Y-85809666D02*
X158828619Y-85809666D01*
X159312428Y-85809666D02*
X159312428Y-86390238D01*
X159844619Y-86390238D02*
X158828619Y-86390238D01*
X159312428Y-86874047D02*
X159312428Y-87212714D01*
X159844619Y-87357857D02*
X159844619Y-86874047D01*
X158828619Y-86874047D01*
X158828619Y-87357857D01*
X159844619Y-88373857D02*
X159360809Y-88035190D01*
X159844619Y-87793285D02*
X158828619Y-87793285D01*
X158828619Y-88180333D01*
X158877000Y-88277095D01*
X158925380Y-88325476D01*
X159022142Y-88373857D01*
X159167285Y-88373857D01*
X159264047Y-88325476D01*
X159312428Y-88277095D01*
X159360809Y-88180333D01*
X159360809Y-87793285D01*
X159844619Y-88809285D02*
X158828619Y-88809285D01*
X159844619Y-89389857D01*
X158828619Y-89389857D01*
X159312428Y-89873666D02*
X159312428Y-90212333D01*
X159844619Y-90357476D02*
X159844619Y-89873666D01*
X158828619Y-89873666D01*
X158828619Y-90357476D01*
X158828619Y-90647761D02*
X158828619Y-91228333D01*
X159844619Y-90938047D02*
X158828619Y-90938047D01*
D16*
X117898333Y-127922261D02*
X117898333Y-127287261D01*
X117747142Y-127287261D01*
X117656428Y-127317500D01*
X117595952Y-127377976D01*
X117565714Y-127438452D01*
X117535476Y-127559404D01*
X117535476Y-127650119D01*
X117565714Y-127771071D01*
X117595952Y-127831547D01*
X117656428Y-127892023D01*
X117747142Y-127922261D01*
X117898333Y-127922261D01*
X117293571Y-127740833D02*
X116991190Y-127740833D01*
X117354047Y-127922261D02*
X117142380Y-127287261D01*
X116930714Y-127922261D01*
X116356190Y-127861785D02*
X116386428Y-127892023D01*
X116477142Y-127922261D01*
X116537619Y-127922261D01*
X116628333Y-127892023D01*
X116688809Y-127831547D01*
X116719047Y-127771071D01*
X116749285Y-127650119D01*
X116749285Y-127559404D01*
X116719047Y-127438452D01*
X116688809Y-127377976D01*
X116628333Y-127317500D01*
X116537619Y-127287261D01*
X116477142Y-127287261D01*
X116386428Y-127317500D01*
X116356190Y-127347738D01*
X115751428Y-127922261D02*
X116114285Y-127922261D01*
X115932857Y-127922261D02*
X115932857Y-127287261D01*
X115993333Y-127377976D01*
X116053809Y-127438452D01*
X116114285Y-127468690D01*
D17*
X111905142Y-127979714D02*
X112340571Y-127979714D01*
X112122857Y-127979714D02*
X112122857Y-127217714D01*
X112195428Y-127326571D01*
X112268000Y-127399142D01*
X112340571Y-127435428D01*
X111651142Y-127217714D02*
X111179428Y-127217714D01*
X111433428Y-127508000D01*
X111324571Y-127508000D01*
X111252000Y-127544285D01*
X111215714Y-127580571D01*
X111179428Y-127653142D01*
X111179428Y-127834571D01*
X111215714Y-127907142D01*
X111252000Y-127943428D01*
X111324571Y-127979714D01*
X111542285Y-127979714D01*
X111614857Y-127943428D01*
X111651142Y-127907142D01*
X109365142Y-127979714D02*
X109800571Y-127979714D01*
X109582857Y-127979714D02*
X109582857Y-127217714D01*
X109655428Y-127326571D01*
X109728000Y-127399142D01*
X109800571Y-127435428D01*
X108712000Y-127471714D02*
X108712000Y-127979714D01*
X108893428Y-127181428D02*
X109074857Y-127725714D01*
X108603142Y-127725714D01*
X106825142Y-127979714D02*
X107260571Y-127979714D01*
X107042857Y-127979714D02*
X107042857Y-127217714D01*
X107115428Y-127326571D01*
X107188000Y-127399142D01*
X107260571Y-127435428D01*
X106135714Y-127217714D02*
X106498571Y-127217714D01*
X106534857Y-127580571D01*
X106498571Y-127544285D01*
X106426000Y-127508000D01*
X106244571Y-127508000D01*
X106172000Y-127544285D01*
X106135714Y-127580571D01*
X106099428Y-127653142D01*
X106099428Y-127834571D01*
X106135714Y-127907142D01*
X106172000Y-127943428D01*
X106244571Y-127979714D01*
X106426000Y-127979714D01*
X106498571Y-127943428D01*
X106534857Y-127907142D01*
X104285142Y-127979714D02*
X104720571Y-127979714D01*
X104502857Y-127979714D02*
X104502857Y-127217714D01*
X104575428Y-127326571D01*
X104648000Y-127399142D01*
X104720571Y-127435428D01*
X103632000Y-127217714D02*
X103777142Y-127217714D01*
X103849714Y-127254000D01*
X103886000Y-127290285D01*
X103958571Y-127399142D01*
X103994857Y-127544285D01*
X103994857Y-127834571D01*
X103958571Y-127907142D01*
X103922285Y-127943428D01*
X103849714Y-127979714D01*
X103704571Y-127979714D01*
X103632000Y-127943428D01*
X103595714Y-127907142D01*
X103559428Y-127834571D01*
X103559428Y-127653142D01*
X103595714Y-127580571D01*
X103632000Y-127544285D01*
X103704571Y-127508000D01*
X103849714Y-127508000D01*
X103922285Y-127544285D01*
X103958571Y-127580571D01*
X103994857Y-127653142D01*
X101745142Y-127979714D02*
X102180571Y-127979714D01*
X101962857Y-127979714D02*
X101962857Y-127217714D01*
X102035428Y-127326571D01*
X102108000Y-127399142D01*
X102180571Y-127435428D01*
X101491142Y-127217714D02*
X100983142Y-127217714D01*
X101309714Y-127979714D01*
X99205142Y-127979714D02*
X99640571Y-127979714D01*
X99422857Y-127979714D02*
X99422857Y-127217714D01*
X99495428Y-127326571D01*
X99568000Y-127399142D01*
X99640571Y-127435428D01*
X98769714Y-127544285D02*
X98842285Y-127508000D01*
X98878571Y-127471714D01*
X98914857Y-127399142D01*
X98914857Y-127362857D01*
X98878571Y-127290285D01*
X98842285Y-127254000D01*
X98769714Y-127217714D01*
X98624571Y-127217714D01*
X98552000Y-127254000D01*
X98515714Y-127290285D01*
X98479428Y-127362857D01*
X98479428Y-127399142D01*
X98515714Y-127471714D01*
X98552000Y-127508000D01*
X98624571Y-127544285D01*
X98769714Y-127544285D01*
X98842285Y-127580571D01*
X98878571Y-127616857D01*
X98914857Y-127689428D01*
X98914857Y-127834571D01*
X98878571Y-127907142D01*
X98842285Y-127943428D01*
X98769714Y-127979714D01*
X98624571Y-127979714D01*
X98552000Y-127943428D01*
X98515714Y-127907142D01*
X98479428Y-127834571D01*
X98479428Y-127689428D01*
X98515714Y-127616857D01*
X98552000Y-127580571D01*
X98624571Y-127544285D01*
X96665142Y-127979714D02*
X97100571Y-127979714D01*
X96882857Y-127979714D02*
X96882857Y-127217714D01*
X96955428Y-127326571D01*
X97028000Y-127399142D01*
X97100571Y-127435428D01*
X96302285Y-127979714D02*
X96157142Y-127979714D01*
X96084571Y-127943428D01*
X96048285Y-127907142D01*
X95975714Y-127798285D01*
X95939428Y-127653142D01*
X95939428Y-127362857D01*
X95975714Y-127290285D01*
X96012000Y-127254000D01*
X96084571Y-127217714D01*
X96229714Y-127217714D01*
X96302285Y-127254000D01*
X96338571Y-127290285D01*
X96374857Y-127362857D01*
X96374857Y-127544285D01*
X96338571Y-127616857D01*
X96302285Y-127653142D01*
X96229714Y-127689428D01*
X96084571Y-127689428D01*
X96012000Y-127653142D01*
X95975714Y-127616857D01*
X95939428Y-127544285D01*
X94560571Y-127290285D02*
X94524285Y-127254000D01*
X94451714Y-127217714D01*
X94270285Y-127217714D01*
X94197714Y-127254000D01*
X94161428Y-127290285D01*
X94125142Y-127362857D01*
X94125142Y-127435428D01*
X94161428Y-127544285D01*
X94596857Y-127979714D01*
X94125142Y-127979714D01*
X93653428Y-127217714D02*
X93580857Y-127217714D01*
X93508285Y-127254000D01*
X93472000Y-127290285D01*
X93435714Y-127362857D01*
X93399428Y-127508000D01*
X93399428Y-127689428D01*
X93435714Y-127834571D01*
X93472000Y-127907142D01*
X93508285Y-127943428D01*
X93580857Y-127979714D01*
X93653428Y-127979714D01*
X93726000Y-127943428D01*
X93762285Y-127907142D01*
X93798571Y-127834571D01*
X93834857Y-127689428D01*
X93834857Y-127508000D01*
X93798571Y-127362857D01*
X93762285Y-127290285D01*
X93726000Y-127254000D01*
X93653428Y-127217714D01*
X92020571Y-127290285D02*
X91984285Y-127254000D01*
X91911714Y-127217714D01*
X91730285Y-127217714D01*
X91657714Y-127254000D01*
X91621428Y-127290285D01*
X91585142Y-127362857D01*
X91585142Y-127435428D01*
X91621428Y-127544285D01*
X92056857Y-127979714D01*
X91585142Y-127979714D01*
X90859428Y-127979714D02*
X91294857Y-127979714D01*
X91077142Y-127979714D02*
X91077142Y-127217714D01*
X91149714Y-127326571D01*
X91222285Y-127399142D01*
X91294857Y-127435428D01*
X89480571Y-127290285D02*
X89444285Y-127254000D01*
X89371714Y-127217714D01*
X89190285Y-127217714D01*
X89117714Y-127254000D01*
X89081428Y-127290285D01*
X89045142Y-127362857D01*
X89045142Y-127435428D01*
X89081428Y-127544285D01*
X89516857Y-127979714D01*
X89045142Y-127979714D01*
X88754857Y-127290285D02*
X88718571Y-127254000D01*
X88646000Y-127217714D01*
X88464571Y-127217714D01*
X88392000Y-127254000D01*
X88355714Y-127290285D01*
X88319428Y-127362857D01*
X88319428Y-127435428D01*
X88355714Y-127544285D01*
X88791142Y-127979714D01*
X88319428Y-127979714D01*
X86940571Y-127290285D02*
X86904285Y-127254000D01*
X86831714Y-127217714D01*
X86650285Y-127217714D01*
X86577714Y-127254000D01*
X86541428Y-127290285D01*
X86505142Y-127362857D01*
X86505142Y-127435428D01*
X86541428Y-127544285D01*
X86976857Y-127979714D01*
X86505142Y-127979714D01*
X86251142Y-127217714D02*
X85779428Y-127217714D01*
X86033428Y-127508000D01*
X85924571Y-127508000D01*
X85852000Y-127544285D01*
X85815714Y-127580571D01*
X85779428Y-127653142D01*
X85779428Y-127834571D01*
X85815714Y-127907142D01*
X85852000Y-127943428D01*
X85924571Y-127979714D01*
X86142285Y-127979714D01*
X86214857Y-127943428D01*
X86251142Y-127907142D01*
D16*
X84757380Y-127287261D02*
X84364285Y-127287261D01*
X84575952Y-127529166D01*
X84485238Y-127529166D01*
X84424761Y-127559404D01*
X84394523Y-127589642D01*
X84364285Y-127650119D01*
X84364285Y-127801309D01*
X84394523Y-127861785D01*
X84424761Y-127892023D01*
X84485238Y-127922261D01*
X84666666Y-127922261D01*
X84727142Y-127892023D01*
X84757380Y-127861785D01*
X84092142Y-127861785D02*
X84061904Y-127892023D01*
X84092142Y-127922261D01*
X84122380Y-127892023D01*
X84092142Y-127861785D01*
X84092142Y-127922261D01*
X83850238Y-127287261D02*
X83457142Y-127287261D01*
X83668809Y-127529166D01*
X83578095Y-127529166D01*
X83517619Y-127559404D01*
X83487380Y-127589642D01*
X83457142Y-127650119D01*
X83457142Y-127801309D01*
X83487380Y-127861785D01*
X83517619Y-127892023D01*
X83578095Y-127922261D01*
X83759523Y-127922261D01*
X83820000Y-127892023D01*
X83850238Y-127861785D01*
X83275714Y-127287261D02*
X83064047Y-127922261D01*
X82852380Y-127287261D01*
X82398809Y-127740833D02*
X82096428Y-127740833D01*
X82459285Y-127922261D02*
X82247619Y-127287261D01*
X82035952Y-127922261D01*
X81491666Y-127317500D02*
X81552142Y-127287261D01*
X81642857Y-127287261D01*
X81733571Y-127317500D01*
X81794047Y-127377976D01*
X81824285Y-127438452D01*
X81854523Y-127559404D01*
X81854523Y-127650119D01*
X81824285Y-127771071D01*
X81794047Y-127831547D01*
X81733571Y-127892023D01*
X81642857Y-127922261D01*
X81582380Y-127922261D01*
X81491666Y-127892023D01*
X81461428Y-127861785D01*
X81461428Y-127650119D01*
X81582380Y-127650119D01*
X81189285Y-127922261D02*
X81189285Y-127287261D01*
X80826428Y-127922261D01*
X80826428Y-127287261D01*
X80524047Y-127922261D02*
X80524047Y-127287261D01*
X80372857Y-127287261D01*
X80282142Y-127317500D01*
X80221666Y-127377976D01*
X80191428Y-127438452D01*
X80161190Y-127559404D01*
X80161190Y-127650119D01*
X80191428Y-127771071D01*
X80221666Y-127831547D01*
X80282142Y-127892023D01*
X80372857Y-127922261D01*
X80524047Y-127922261D01*
X79526190Y-127287261D02*
X79314523Y-127922261D01*
X79102857Y-127287261D01*
X78891190Y-127589642D02*
X78679523Y-127589642D01*
X78588809Y-127922261D02*
X78891190Y-127922261D01*
X78891190Y-127287261D01*
X78588809Y-127287261D01*
X78316666Y-127589642D02*
X78105000Y-127589642D01*
X78014285Y-127922261D02*
X78316666Y-127922261D01*
X78316666Y-127287261D01*
X78014285Y-127287261D01*
X77228095Y-127740833D02*
X76925714Y-127740833D01*
X77288571Y-127922261D02*
X77076904Y-127287261D01*
X76865238Y-127922261D01*
X76290714Y-127922261D02*
X76502380Y-127619880D01*
X76653571Y-127922261D02*
X76653571Y-127287261D01*
X76411666Y-127287261D01*
X76351190Y-127317500D01*
X76320952Y-127347738D01*
X76290714Y-127408214D01*
X76290714Y-127498928D01*
X76320952Y-127559404D01*
X76351190Y-127589642D01*
X76411666Y-127619880D01*
X76653571Y-127619880D01*
X76018571Y-127589642D02*
X75806904Y-127589642D01*
X75716190Y-127922261D02*
X76018571Y-127922261D01*
X76018571Y-127287261D01*
X75716190Y-127287261D01*
X75232380Y-127589642D02*
X75444047Y-127589642D01*
X75444047Y-127922261D02*
X75444047Y-127287261D01*
X75141666Y-127287261D01*
D17*
X111905142Y-72099714D02*
X112340571Y-72099714D01*
X112122857Y-72099714D02*
X112122857Y-71337714D01*
X112195428Y-71446571D01*
X112268000Y-71519142D01*
X112340571Y-71555428D01*
X111614857Y-71410285D02*
X111578571Y-71374000D01*
X111506000Y-71337714D01*
X111324571Y-71337714D01*
X111252000Y-71374000D01*
X111215714Y-71410285D01*
X111179428Y-71482857D01*
X111179428Y-71555428D01*
X111215714Y-71664285D01*
X111651142Y-72099714D01*
X111179428Y-72099714D01*
X109365142Y-72099714D02*
X109800571Y-72099714D01*
X109582857Y-72099714D02*
X109582857Y-71337714D01*
X109655428Y-71446571D01*
X109728000Y-71519142D01*
X109800571Y-71555428D01*
X108639428Y-72099714D02*
X109074857Y-72099714D01*
X108857142Y-72099714D02*
X108857142Y-71337714D01*
X108929714Y-71446571D01*
X109002285Y-71519142D01*
X109074857Y-71555428D01*
X96374857Y-71337714D02*
X96520000Y-71337714D01*
X96592571Y-71374000D01*
X96628857Y-71410285D01*
X96701428Y-71519142D01*
X96737714Y-71664285D01*
X96737714Y-71954571D01*
X96701428Y-72027142D01*
X96665142Y-72063428D01*
X96592571Y-72099714D01*
X96447428Y-72099714D01*
X96374857Y-72063428D01*
X96338571Y-72027142D01*
X96302285Y-71954571D01*
X96302285Y-71773142D01*
X96338571Y-71700571D01*
X96374857Y-71664285D01*
X96447428Y-71628000D01*
X96592571Y-71628000D01*
X96665142Y-71664285D01*
X96701428Y-71700571D01*
X96737714Y-71773142D01*
X93798571Y-71337714D02*
X94161428Y-71337714D01*
X94197714Y-71700571D01*
X94161428Y-71664285D01*
X94088857Y-71628000D01*
X93907428Y-71628000D01*
X93834857Y-71664285D01*
X93798571Y-71700571D01*
X93762285Y-71773142D01*
X93762285Y-71954571D01*
X93798571Y-72027142D01*
X93834857Y-72063428D01*
X93907428Y-72099714D01*
X94088857Y-72099714D01*
X94161428Y-72063428D01*
X94197714Y-72027142D01*
X86577714Y-71410285D02*
X86541428Y-71374000D01*
X86468857Y-71337714D01*
X86287428Y-71337714D01*
X86214857Y-71374000D01*
X86178571Y-71410285D01*
X86142285Y-71482857D01*
X86142285Y-71555428D01*
X86178571Y-71664285D01*
X86614000Y-72099714D01*
X86142285Y-72099714D01*
D16*
X79223809Y-71437500D02*
X79284285Y-71407261D01*
X79375000Y-71407261D01*
X79465714Y-71437500D01*
X79526190Y-71497976D01*
X79556428Y-71558452D01*
X79586666Y-71679404D01*
X79586666Y-71770119D01*
X79556428Y-71891071D01*
X79526190Y-71951547D01*
X79465714Y-72012023D01*
X79375000Y-72042261D01*
X79314523Y-72042261D01*
X79223809Y-72012023D01*
X79193571Y-71981785D01*
X79193571Y-71770119D01*
X79314523Y-71770119D01*
X78921428Y-72042261D02*
X78921428Y-71407261D01*
X78558571Y-72042261D01*
X78558571Y-71407261D01*
X78256190Y-72042261D02*
X78256190Y-71407261D01*
X78105000Y-71407261D01*
X78014285Y-71437500D01*
X77953809Y-71497976D01*
X77923571Y-71558452D01*
X77893333Y-71679404D01*
X77893333Y-71770119D01*
X77923571Y-71891071D01*
X77953809Y-71951547D01*
X78014285Y-72012023D01*
X78105000Y-72042261D01*
X78256190Y-72042261D01*
X77046666Y-71407261D02*
X76835000Y-72042261D01*
X76623333Y-71407261D01*
X76411666Y-72042261D02*
X76411666Y-71407261D01*
X76260476Y-71407261D01*
X76169761Y-71437500D01*
X76109285Y-71497976D01*
X76079047Y-71558452D01*
X76048809Y-71679404D01*
X76048809Y-71770119D01*
X76079047Y-71891071D01*
X76109285Y-71951547D01*
X76169761Y-72012023D01*
X76260476Y-72042261D01*
X76411666Y-72042261D01*
X75776666Y-72042261D02*
X75776666Y-71407261D01*
X75625476Y-71407261D01*
X75534761Y-71437500D01*
X75474285Y-71497976D01*
X75444047Y-71558452D01*
X75413809Y-71679404D01*
X75413809Y-71770119D01*
X75444047Y-71891071D01*
X75474285Y-71951547D01*
X75534761Y-72012023D01*
X75625476Y-72042261D01*
X75776666Y-72042261D01*
X120438333Y-127922261D02*
X120438333Y-127287261D01*
X120287142Y-127287261D01*
X120196428Y-127317500D01*
X120135952Y-127377976D01*
X120105714Y-127438452D01*
X120075476Y-127559404D01*
X120075476Y-127650119D01*
X120105714Y-127771071D01*
X120135952Y-127831547D01*
X120196428Y-127892023D01*
X120287142Y-127922261D01*
X120438333Y-127922261D01*
X119833571Y-127740833D02*
X119531190Y-127740833D01*
X119894047Y-127922261D02*
X119682380Y-127287261D01*
X119470714Y-127922261D01*
X118896190Y-127861785D02*
X118926428Y-127892023D01*
X119017142Y-127922261D01*
X119077619Y-127922261D01*
X119168333Y-127892023D01*
X119228809Y-127831547D01*
X119259047Y-127771071D01*
X119289285Y-127650119D01*
X119289285Y-127559404D01*
X119259047Y-127438452D01*
X119228809Y-127377976D01*
X119168333Y-127317500D01*
X119077619Y-127287261D01*
X119017142Y-127287261D01*
X118926428Y-127317500D01*
X118896190Y-127347738D01*
X118503095Y-127287261D02*
X118442619Y-127287261D01*
X118382142Y-127317500D01*
X118351904Y-127347738D01*
X118321666Y-127408214D01*
X118291428Y-127529166D01*
X118291428Y-127680357D01*
X118321666Y-127801309D01*
X118351904Y-127861785D01*
X118382142Y-127892023D01*
X118442619Y-127922261D01*
X118503095Y-127922261D01*
X118563571Y-127892023D01*
X118593809Y-127861785D01*
X118624047Y-127801309D01*
X118654285Y-127680357D01*
X118654285Y-127529166D01*
X118624047Y-127408214D01*
X118593809Y-127347738D01*
X118563571Y-127317500D01*
X118503095Y-127287261D01*
D17*
X125076857Y-127217714D02*
X124605142Y-127217714D01*
X124859142Y-127508000D01*
X124750285Y-127508000D01*
X124677714Y-127544285D01*
X124641428Y-127580571D01*
X124605142Y-127653142D01*
X124605142Y-127834571D01*
X124641428Y-127907142D01*
X124677714Y-127943428D01*
X124750285Y-127979714D01*
X124968000Y-127979714D01*
X125040571Y-127943428D01*
X125076857Y-127907142D01*
X124169714Y-127544285D02*
X124242285Y-127508000D01*
X124278571Y-127471714D01*
X124314857Y-127399142D01*
X124314857Y-127362857D01*
X124278571Y-127290285D01*
X124242285Y-127254000D01*
X124169714Y-127217714D01*
X124024571Y-127217714D01*
X123952000Y-127254000D01*
X123915714Y-127290285D01*
X123879428Y-127362857D01*
X123879428Y-127399142D01*
X123915714Y-127471714D01*
X123952000Y-127508000D01*
X124024571Y-127544285D01*
X124169714Y-127544285D01*
X124242285Y-127580571D01*
X124278571Y-127616857D01*
X124314857Y-127689428D01*
X124314857Y-127834571D01*
X124278571Y-127907142D01*
X124242285Y-127943428D01*
X124169714Y-127979714D01*
X124024571Y-127979714D01*
X123952000Y-127943428D01*
X123915714Y-127907142D01*
X123879428Y-127834571D01*
X123879428Y-127689428D01*
X123915714Y-127616857D01*
X123952000Y-127580571D01*
X124024571Y-127544285D01*
X114481428Y-127217714D02*
X114844285Y-127217714D01*
X114880571Y-127580571D01*
X114844285Y-127544285D01*
X114771714Y-127508000D01*
X114590285Y-127508000D01*
X114517714Y-127544285D01*
X114481428Y-127580571D01*
X114445142Y-127653142D01*
X114445142Y-127834571D01*
X114481428Y-127907142D01*
X114517714Y-127943428D01*
X114590285Y-127979714D01*
X114771714Y-127979714D01*
X114844285Y-127943428D01*
X114880571Y-127907142D01*
X114191142Y-127217714D02*
X113719428Y-127217714D01*
X113973428Y-127508000D01*
X113864571Y-127508000D01*
X113792000Y-127544285D01*
X113755714Y-127580571D01*
X113719428Y-127653142D01*
X113719428Y-127834571D01*
X113755714Y-127907142D01*
X113792000Y-127943428D01*
X113864571Y-127979714D01*
X114082285Y-127979714D01*
X114154857Y-127943428D01*
X114191142Y-127907142D01*
X122101428Y-127217714D02*
X122464285Y-127217714D01*
X122500571Y-127580571D01*
X122464285Y-127544285D01*
X122391714Y-127508000D01*
X122210285Y-127508000D01*
X122137714Y-127544285D01*
X122101428Y-127580571D01*
X122065142Y-127653142D01*
X122065142Y-127834571D01*
X122101428Y-127907142D01*
X122137714Y-127943428D01*
X122210285Y-127979714D01*
X122391714Y-127979714D01*
X122464285Y-127943428D01*
X122500571Y-127907142D01*
X121339428Y-127979714D02*
X121774857Y-127979714D01*
X121557142Y-127979714D02*
X121557142Y-127217714D01*
X121629714Y-127326571D01*
X121702285Y-127399142D01*
X121774857Y-127435428D01*
X127616857Y-127217714D02*
X127145142Y-127217714D01*
X127399142Y-127508000D01*
X127290285Y-127508000D01*
X127217714Y-127544285D01*
X127181428Y-127580571D01*
X127145142Y-127653142D01*
X127145142Y-127834571D01*
X127181428Y-127907142D01*
X127217714Y-127943428D01*
X127290285Y-127979714D01*
X127508000Y-127979714D01*
X127580571Y-127943428D01*
X127616857Y-127907142D01*
X126891142Y-127217714D02*
X126383142Y-127217714D01*
X126709714Y-127979714D01*
X130156857Y-127217714D02*
X129685142Y-127217714D01*
X129939142Y-127508000D01*
X129830285Y-127508000D01*
X129757714Y-127544285D01*
X129721428Y-127580571D01*
X129685142Y-127653142D01*
X129685142Y-127834571D01*
X129721428Y-127907142D01*
X129757714Y-127943428D01*
X129830285Y-127979714D01*
X130048000Y-127979714D01*
X130120571Y-127943428D01*
X130156857Y-127907142D01*
X129032000Y-127217714D02*
X129177142Y-127217714D01*
X129249714Y-127254000D01*
X129286000Y-127290285D01*
X129358571Y-127399142D01*
X129394857Y-127544285D01*
X129394857Y-127834571D01*
X129358571Y-127907142D01*
X129322285Y-127943428D01*
X129249714Y-127979714D01*
X129104571Y-127979714D01*
X129032000Y-127943428D01*
X128995714Y-127907142D01*
X128959428Y-127834571D01*
X128959428Y-127653142D01*
X128995714Y-127580571D01*
X129032000Y-127544285D01*
X129104571Y-127508000D01*
X129249714Y-127508000D01*
X129322285Y-127544285D01*
X129358571Y-127580571D01*
X129394857Y-127653142D01*
X132696857Y-127217714D02*
X132225142Y-127217714D01*
X132479142Y-127508000D01*
X132370285Y-127508000D01*
X132297714Y-127544285D01*
X132261428Y-127580571D01*
X132225142Y-127653142D01*
X132225142Y-127834571D01*
X132261428Y-127907142D01*
X132297714Y-127943428D01*
X132370285Y-127979714D01*
X132588000Y-127979714D01*
X132660571Y-127943428D01*
X132696857Y-127907142D01*
X131535714Y-127217714D02*
X131898571Y-127217714D01*
X131934857Y-127580571D01*
X131898571Y-127544285D01*
X131826000Y-127508000D01*
X131644571Y-127508000D01*
X131572000Y-127544285D01*
X131535714Y-127580571D01*
X131499428Y-127653142D01*
X131499428Y-127834571D01*
X131535714Y-127907142D01*
X131572000Y-127943428D01*
X131644571Y-127979714D01*
X131826000Y-127979714D01*
X131898571Y-127943428D01*
X131934857Y-127907142D01*
X135236857Y-127217714D02*
X134765142Y-127217714D01*
X135019142Y-127508000D01*
X134910285Y-127508000D01*
X134837714Y-127544285D01*
X134801428Y-127580571D01*
X134765142Y-127653142D01*
X134765142Y-127834571D01*
X134801428Y-127907142D01*
X134837714Y-127943428D01*
X134910285Y-127979714D01*
X135128000Y-127979714D01*
X135200571Y-127943428D01*
X135236857Y-127907142D01*
X134112000Y-127471714D02*
X134112000Y-127979714D01*
X134293428Y-127181428D02*
X134474857Y-127725714D01*
X134003142Y-127725714D01*
X137776857Y-127217714D02*
X137305142Y-127217714D01*
X137559142Y-127508000D01*
X137450285Y-127508000D01*
X137377714Y-127544285D01*
X137341428Y-127580571D01*
X137305142Y-127653142D01*
X137305142Y-127834571D01*
X137341428Y-127907142D01*
X137377714Y-127943428D01*
X137450285Y-127979714D01*
X137668000Y-127979714D01*
X137740571Y-127943428D01*
X137776857Y-127907142D01*
X137051142Y-127217714D02*
X136579428Y-127217714D01*
X136833428Y-127508000D01*
X136724571Y-127508000D01*
X136652000Y-127544285D01*
X136615714Y-127580571D01*
X136579428Y-127653142D01*
X136579428Y-127834571D01*
X136615714Y-127907142D01*
X136652000Y-127943428D01*
X136724571Y-127979714D01*
X136942285Y-127979714D01*
X137014857Y-127943428D01*
X137051142Y-127907142D01*
X82187142Y-71882000D02*
X81824285Y-71882000D01*
X82259714Y-72099714D02*
X82005714Y-71337714D01*
X81751714Y-72099714D01*
X81098571Y-72099714D02*
X81534000Y-72099714D01*
X81316285Y-72099714D02*
X81316285Y-71337714D01*
X81388857Y-71446571D01*
X81461428Y-71519142D01*
X81534000Y-71555428D01*
X80626857Y-71337714D02*
X80554285Y-71337714D01*
X80481714Y-71374000D01*
X80445428Y-71410285D01*
X80409142Y-71482857D01*
X80372857Y-71628000D01*
X80372857Y-71809428D01*
X80409142Y-71954571D01*
X80445428Y-72027142D01*
X80481714Y-72063428D01*
X80554285Y-72099714D01*
X80626857Y-72099714D01*
X80699428Y-72063428D01*
X80735714Y-72027142D01*
X80772000Y-71954571D01*
X80808285Y-71809428D01*
X80808285Y-71628000D01*
X80772000Y-71482857D01*
X80735714Y-71410285D01*
X80699428Y-71374000D01*
X80626857Y-71337714D01*
X84727142Y-71882000D02*
X84364285Y-71882000D01*
X84799714Y-72099714D02*
X84545714Y-71337714D01*
X84291714Y-72099714D01*
X83638571Y-72099714D02*
X84074000Y-72099714D01*
X83856285Y-72099714D02*
X83856285Y-71337714D01*
X83928857Y-71446571D01*
X84001428Y-71519142D01*
X84074000Y-71555428D01*
X82912857Y-72099714D02*
X83348285Y-72099714D01*
X83130571Y-72099714D02*
X83130571Y-71337714D01*
X83203142Y-71446571D01*
X83275714Y-71519142D01*
X83348285Y-71555428D01*
X89081428Y-71337714D02*
X89444285Y-71337714D01*
X89480571Y-71700571D01*
X89444285Y-71664285D01*
X89371714Y-71628000D01*
X89190285Y-71628000D01*
X89117714Y-71664285D01*
X89081428Y-71700571D01*
X89045142Y-71773142D01*
X89045142Y-71954571D01*
X89081428Y-72027142D01*
X89117714Y-72063428D01*
X89190285Y-72099714D01*
X89371714Y-72099714D01*
X89444285Y-72063428D01*
X89480571Y-72027142D01*
X88355714Y-71337714D02*
X88718571Y-71337714D01*
X88754857Y-71700571D01*
X88718571Y-71664285D01*
X88646000Y-71628000D01*
X88464571Y-71628000D01*
X88392000Y-71664285D01*
X88355714Y-71700571D01*
X88319428Y-71773142D01*
X88319428Y-71954571D01*
X88355714Y-72027142D01*
X88392000Y-72063428D01*
X88464571Y-72099714D01*
X88646000Y-72099714D01*
X88718571Y-72063428D01*
X88754857Y-72027142D01*
X91621428Y-71337714D02*
X91984285Y-71337714D01*
X92020571Y-71700571D01*
X91984285Y-71664285D01*
X91911714Y-71628000D01*
X91730285Y-71628000D01*
X91657714Y-71664285D01*
X91621428Y-71700571D01*
X91585142Y-71773142D01*
X91585142Y-71954571D01*
X91621428Y-72027142D01*
X91657714Y-72063428D01*
X91730285Y-72099714D01*
X91911714Y-72099714D01*
X91984285Y-72063428D01*
X92020571Y-72027142D01*
X90932000Y-71591714D02*
X90932000Y-72099714D01*
X91113428Y-71301428D02*
X91294857Y-71845714D01*
X90823142Y-71845714D01*
X99241428Y-71337714D02*
X99604285Y-71337714D01*
X99640571Y-71700571D01*
X99604285Y-71664285D01*
X99531714Y-71628000D01*
X99350285Y-71628000D01*
X99277714Y-71664285D01*
X99241428Y-71700571D01*
X99205142Y-71773142D01*
X99205142Y-71954571D01*
X99241428Y-72027142D01*
X99277714Y-72063428D01*
X99350285Y-72099714D01*
X99531714Y-72099714D01*
X99604285Y-72063428D01*
X99640571Y-72027142D01*
X98914857Y-71410285D02*
X98878571Y-71374000D01*
X98806000Y-71337714D01*
X98624571Y-71337714D01*
X98552000Y-71374000D01*
X98515714Y-71410285D01*
X98479428Y-71482857D01*
X98479428Y-71555428D01*
X98515714Y-71664285D01*
X98951142Y-72099714D01*
X98479428Y-72099714D01*
X101817714Y-71591714D02*
X101817714Y-72099714D01*
X101999142Y-71301428D02*
X102180571Y-71845714D01*
X101708857Y-71845714D01*
X101273428Y-71337714D02*
X101200857Y-71337714D01*
X101128285Y-71374000D01*
X101092000Y-71410285D01*
X101055714Y-71482857D01*
X101019428Y-71628000D01*
X101019428Y-71809428D01*
X101055714Y-71954571D01*
X101092000Y-72027142D01*
X101128285Y-72063428D01*
X101200857Y-72099714D01*
X101273428Y-72099714D01*
X101346000Y-72063428D01*
X101382285Y-72027142D01*
X101418571Y-71954571D01*
X101454857Y-71809428D01*
X101454857Y-71628000D01*
X101418571Y-71482857D01*
X101382285Y-71410285D01*
X101346000Y-71374000D01*
X101273428Y-71337714D01*
X104357714Y-71591714D02*
X104357714Y-72099714D01*
X104539142Y-71301428D02*
X104720571Y-71845714D01*
X104248857Y-71845714D01*
X103559428Y-72099714D02*
X103994857Y-72099714D01*
X103777142Y-72099714D02*
X103777142Y-71337714D01*
X103849714Y-71446571D01*
X103922285Y-71519142D01*
X103994857Y-71555428D01*
X106897714Y-71591714D02*
X106897714Y-72099714D01*
X107079142Y-71301428D02*
X107260571Y-71845714D01*
X106788857Y-71845714D01*
X106534857Y-71410285D02*
X106498571Y-71374000D01*
X106426000Y-71337714D01*
X106244571Y-71337714D01*
X106172000Y-71374000D01*
X106135714Y-71410285D01*
X106099428Y-71482857D01*
X106099428Y-71555428D01*
X106135714Y-71664285D01*
X106571142Y-72099714D01*
X106099428Y-72099714D01*
X114481428Y-71337714D02*
X114844285Y-71337714D01*
X114880571Y-71700571D01*
X114844285Y-71664285D01*
X114771714Y-71628000D01*
X114590285Y-71628000D01*
X114517714Y-71664285D01*
X114481428Y-71700571D01*
X114445142Y-71773142D01*
X114445142Y-71954571D01*
X114481428Y-72027142D01*
X114517714Y-72063428D01*
X114590285Y-72099714D01*
X114771714Y-72099714D01*
X114844285Y-72063428D01*
X114880571Y-72027142D01*
X113973428Y-71337714D02*
X113900857Y-71337714D01*
X113828285Y-71374000D01*
X113792000Y-71410285D01*
X113755714Y-71482857D01*
X113719428Y-71628000D01*
X113719428Y-71809428D01*
X113755714Y-71954571D01*
X113792000Y-72027142D01*
X113828285Y-72063428D01*
X113900857Y-72099714D01*
X113973428Y-72099714D01*
X114046000Y-72063428D01*
X114082285Y-72027142D01*
X114118571Y-71954571D01*
X114154857Y-71809428D01*
X114154857Y-71628000D01*
X114118571Y-71482857D01*
X114082285Y-71410285D01*
X114046000Y-71374000D01*
X113973428Y-71337714D01*
X117057714Y-71591714D02*
X117057714Y-72099714D01*
X117239142Y-71301428D02*
X117420571Y-71845714D01*
X116948857Y-71845714D01*
X116622285Y-72099714D02*
X116477142Y-72099714D01*
X116404571Y-72063428D01*
X116368285Y-72027142D01*
X116295714Y-71918285D01*
X116259428Y-71773142D01*
X116259428Y-71482857D01*
X116295714Y-71410285D01*
X116332000Y-71374000D01*
X116404571Y-71337714D01*
X116549714Y-71337714D01*
X116622285Y-71374000D01*
X116658571Y-71410285D01*
X116694857Y-71482857D01*
X116694857Y-71664285D01*
X116658571Y-71736857D01*
X116622285Y-71773142D01*
X116549714Y-71809428D01*
X116404571Y-71809428D01*
X116332000Y-71773142D01*
X116295714Y-71736857D01*
X116259428Y-71664285D01*
X119597714Y-71591714D02*
X119597714Y-72099714D01*
X119779142Y-71301428D02*
X119960571Y-71845714D01*
X119488857Y-71845714D01*
X119089714Y-71664285D02*
X119162285Y-71628000D01*
X119198571Y-71591714D01*
X119234857Y-71519142D01*
X119234857Y-71482857D01*
X119198571Y-71410285D01*
X119162285Y-71374000D01*
X119089714Y-71337714D01*
X118944571Y-71337714D01*
X118872000Y-71374000D01*
X118835714Y-71410285D01*
X118799428Y-71482857D01*
X118799428Y-71519142D01*
X118835714Y-71591714D01*
X118872000Y-71628000D01*
X118944571Y-71664285D01*
X119089714Y-71664285D01*
X119162285Y-71700571D01*
X119198571Y-71736857D01*
X119234857Y-71809428D01*
X119234857Y-71954571D01*
X119198571Y-72027142D01*
X119162285Y-72063428D01*
X119089714Y-72099714D01*
X118944571Y-72099714D01*
X118872000Y-72063428D01*
X118835714Y-72027142D01*
X118799428Y-71954571D01*
X118799428Y-71809428D01*
X118835714Y-71736857D01*
X118872000Y-71700571D01*
X118944571Y-71664285D01*
X122137714Y-71591714D02*
X122137714Y-72099714D01*
X122319142Y-71301428D02*
X122500571Y-71845714D01*
X122028857Y-71845714D01*
X121811142Y-71337714D02*
X121303142Y-71337714D01*
X121629714Y-72099714D01*
X124677714Y-71591714D02*
X124677714Y-72099714D01*
X124859142Y-71301428D02*
X125040571Y-71845714D01*
X124568857Y-71845714D01*
X124351142Y-71337714D02*
X123879428Y-71337714D01*
X124133428Y-71628000D01*
X124024571Y-71628000D01*
X123952000Y-71664285D01*
X123915714Y-71700571D01*
X123879428Y-71773142D01*
X123879428Y-71954571D01*
X123915714Y-72027142D01*
X123952000Y-72063428D01*
X124024571Y-72099714D01*
X124242285Y-72099714D01*
X124314857Y-72063428D01*
X124351142Y-72027142D01*
X127217714Y-71591714D02*
X127217714Y-72099714D01*
X127399142Y-71301428D02*
X127580571Y-71845714D01*
X127108857Y-71845714D01*
X126492000Y-71591714D02*
X126492000Y-72099714D01*
X126673428Y-71301428D02*
X126854857Y-71845714D01*
X126383142Y-71845714D01*
X130120571Y-71410285D02*
X130084285Y-71374000D01*
X130011714Y-71337714D01*
X129830285Y-71337714D01*
X129757714Y-71374000D01*
X129721428Y-71410285D01*
X129685142Y-71482857D01*
X129685142Y-71555428D01*
X129721428Y-71664285D01*
X130156857Y-72099714D01*
X129685142Y-72099714D01*
X129322285Y-72099714D02*
X129177142Y-72099714D01*
X129104571Y-72063428D01*
X129068285Y-72027142D01*
X128995714Y-71918285D01*
X128959428Y-71773142D01*
X128959428Y-71482857D01*
X128995714Y-71410285D01*
X129032000Y-71374000D01*
X129104571Y-71337714D01*
X129249714Y-71337714D01*
X129322285Y-71374000D01*
X129358571Y-71410285D01*
X129394857Y-71482857D01*
X129394857Y-71664285D01*
X129358571Y-71736857D01*
X129322285Y-71773142D01*
X129249714Y-71809428D01*
X129104571Y-71809428D01*
X129032000Y-71773142D01*
X128995714Y-71736857D01*
X128959428Y-71664285D01*
X132696857Y-71337714D02*
X132225142Y-71337714D01*
X132479142Y-71628000D01*
X132370285Y-71628000D01*
X132297714Y-71664285D01*
X132261428Y-71700571D01*
X132225142Y-71773142D01*
X132225142Y-71954571D01*
X132261428Y-72027142D01*
X132297714Y-72063428D01*
X132370285Y-72099714D01*
X132588000Y-72099714D01*
X132660571Y-72063428D01*
X132696857Y-72027142D01*
X131753428Y-71337714D02*
X131680857Y-71337714D01*
X131608285Y-71374000D01*
X131572000Y-71410285D01*
X131535714Y-71482857D01*
X131499428Y-71628000D01*
X131499428Y-71809428D01*
X131535714Y-71954571D01*
X131572000Y-72027142D01*
X131608285Y-72063428D01*
X131680857Y-72099714D01*
X131753428Y-72099714D01*
X131826000Y-72063428D01*
X131862285Y-72027142D01*
X131898571Y-71954571D01*
X131934857Y-71809428D01*
X131934857Y-71628000D01*
X131898571Y-71482857D01*
X131862285Y-71410285D01*
X131826000Y-71374000D01*
X131753428Y-71337714D01*
X134837714Y-71591714D02*
X134837714Y-72099714D01*
X135019142Y-71301428D02*
X135200571Y-71845714D01*
X134728857Y-71845714D01*
X134075714Y-71337714D02*
X134438571Y-71337714D01*
X134474857Y-71700571D01*
X134438571Y-71664285D01*
X134366000Y-71628000D01*
X134184571Y-71628000D01*
X134112000Y-71664285D01*
X134075714Y-71700571D01*
X134039428Y-71773142D01*
X134039428Y-71954571D01*
X134075714Y-72027142D01*
X134112000Y-72063428D01*
X134184571Y-72099714D01*
X134366000Y-72099714D01*
X134438571Y-72063428D01*
X134474857Y-72027142D01*
X137377714Y-71591714D02*
X137377714Y-72099714D01*
X137559142Y-71301428D02*
X137740571Y-71845714D01*
X137268857Y-71845714D01*
X136652000Y-71337714D02*
X136797142Y-71337714D01*
X136869714Y-71374000D01*
X136906000Y-71410285D01*
X136978571Y-71519142D01*
X137014857Y-71664285D01*
X137014857Y-71954571D01*
X136978571Y-72027142D01*
X136942285Y-72063428D01*
X136869714Y-72099714D01*
X136724571Y-72099714D01*
X136652000Y-72063428D01*
X136615714Y-72027142D01*
X136579428Y-71954571D01*
X136579428Y-71773142D01*
X136615714Y-71700571D01*
X136652000Y-71664285D01*
X136724571Y-71628000D01*
X136869714Y-71628000D01*
X136942285Y-71664285D01*
X136978571Y-71700571D01*
X137014857Y-71773142D01*
D11*
X172834904Y-122379619D02*
X172834904Y-121363619D01*
X172447857Y-121363619D01*
X172351095Y-121412000D01*
X172302714Y-121460380D01*
X172254333Y-121557142D01*
X172254333Y-121702285D01*
X172302714Y-121799047D01*
X172351095Y-121847428D01*
X172447857Y-121895809D01*
X172834904Y-121895809D01*
X171335095Y-121363619D02*
X171818904Y-121363619D01*
X171867285Y-121847428D01*
X171818904Y-121799047D01*
X171722142Y-121750666D01*
X171480238Y-121750666D01*
X171383476Y-121799047D01*
X171335095Y-121847428D01*
X171286714Y-121944190D01*
X171286714Y-122186095D01*
X171335095Y-122282857D01*
X171383476Y-122331238D01*
X171480238Y-122379619D01*
X171722142Y-122379619D01*
X171818904Y-122331238D01*
X171867285Y-122282857D01*
X183974619Y-89420095D02*
X182958619Y-89420095D01*
X182958619Y-89807142D01*
X183007000Y-89903904D01*
X183055380Y-89952285D01*
X183152142Y-90000666D01*
X183297285Y-90000666D01*
X183394047Y-89952285D01*
X183442428Y-89903904D01*
X183490809Y-89807142D01*
X183490809Y-89420095D01*
X182958619Y-90339333D02*
X182958619Y-91016666D01*
X183974619Y-90581238D01*
X139143619Y-96550238D02*
X139143619Y-97130809D01*
X140159619Y-96840523D02*
X139143619Y-96840523D01*
X139627428Y-97469476D02*
X139627428Y-97808142D01*
X140159619Y-97953285D02*
X140159619Y-97469476D01*
X139143619Y-97469476D01*
X139143619Y-97953285D01*
X139627428Y-98388714D02*
X139627428Y-98727380D01*
X140159619Y-98872523D02*
X140159619Y-98388714D01*
X139143619Y-98388714D01*
X139143619Y-98872523D01*
X140159619Y-99307952D02*
X139143619Y-99307952D01*
X140159619Y-99888523D01*
X139143619Y-99888523D01*
X140111238Y-100323952D02*
X140159619Y-100469095D01*
X140159619Y-100711000D01*
X140111238Y-100807761D01*
X140062857Y-100856142D01*
X139966095Y-100904523D01*
X139869333Y-100904523D01*
X139772571Y-100856142D01*
X139724190Y-100807761D01*
X139675809Y-100711000D01*
X139627428Y-100517476D01*
X139579047Y-100420714D01*
X139530666Y-100372333D01*
X139433904Y-100323952D01*
X139337142Y-100323952D01*
X139240380Y-100372333D01*
X139192000Y-100420714D01*
X139143619Y-100517476D01*
X139143619Y-100759380D01*
X139192000Y-100904523D01*
X139675809Y-101533476D02*
X140159619Y-101533476D01*
X139143619Y-101194809D02*
X139675809Y-101533476D01*
X139143619Y-101872142D01*
X140159619Y-102743000D02*
X140159619Y-102162428D01*
X140159619Y-102452714D02*
X139143619Y-102452714D01*
X139288761Y-102355952D01*
X139385523Y-102259190D01*
X139433904Y-102162428D01*
X78193619Y-95437476D02*
X78193619Y-96018047D01*
X79209619Y-95727761D02*
X78193619Y-95727761D01*
X78677428Y-96356714D02*
X78677428Y-96695380D01*
X79209619Y-96840523D02*
X79209619Y-96356714D01*
X78193619Y-96356714D01*
X78193619Y-96840523D01*
X78677428Y-97275952D02*
X78677428Y-97614619D01*
X79209619Y-97759761D02*
X79209619Y-97275952D01*
X78193619Y-97275952D01*
X78193619Y-97759761D01*
X79209619Y-98195190D02*
X78193619Y-98195190D01*
X79209619Y-98775761D01*
X78193619Y-98775761D01*
X79161238Y-99211190D02*
X79209619Y-99356333D01*
X79209619Y-99598238D01*
X79161238Y-99695000D01*
X79112857Y-99743380D01*
X79016095Y-99791761D01*
X78919333Y-99791761D01*
X78822571Y-99743380D01*
X78774190Y-99695000D01*
X78725809Y-99598238D01*
X78677428Y-99404714D01*
X78629047Y-99307952D01*
X78580666Y-99259571D01*
X78483904Y-99211190D01*
X78387142Y-99211190D01*
X78290380Y-99259571D01*
X78242000Y-99307952D01*
X78193619Y-99404714D01*
X78193619Y-99646619D01*
X78242000Y-99791761D01*
X78725809Y-100420714D02*
X79209619Y-100420714D01*
X78193619Y-100082047D02*
X78725809Y-100420714D01*
X78193619Y-100759380D01*
X79306380Y-100856142D02*
X79306380Y-101630238D01*
X78193619Y-101775380D02*
X78193619Y-102404333D01*
X78580666Y-102065666D01*
X78580666Y-102210809D01*
X78629047Y-102307571D01*
X78677428Y-102355952D01*
X78774190Y-102404333D01*
X79016095Y-102404333D01*
X79112857Y-102355952D01*
X79161238Y-102307571D01*
X79209619Y-102210809D01*
X79209619Y-101920523D01*
X79161238Y-101823761D01*
X79112857Y-101775380D01*
X79112857Y-102839761D02*
X79161238Y-102888142D01*
X79209619Y-102839761D01*
X79161238Y-102791380D01*
X79112857Y-102839761D01*
X79209619Y-102839761D01*
X78193619Y-103807380D02*
X78193619Y-103323571D01*
X78677428Y-103275190D01*
X78629047Y-103323571D01*
X78580666Y-103420333D01*
X78580666Y-103662238D01*
X78629047Y-103759000D01*
X78677428Y-103807380D01*
X78774190Y-103855761D01*
X79016095Y-103855761D01*
X79112857Y-103807380D01*
X79161238Y-103759000D01*
X79209619Y-103662238D01*
X79209619Y-103420333D01*
X79161238Y-103323571D01*
X79112857Y-103275190D01*
X70944619Y-76720095D02*
X69928619Y-76720095D01*
X69928619Y-77107142D01*
X69977000Y-77203904D01*
X70025380Y-77252285D01*
X70122142Y-77300666D01*
X70267285Y-77300666D01*
X70364047Y-77252285D01*
X70412428Y-77203904D01*
X70460809Y-77107142D01*
X70460809Y-76720095D01*
X70944619Y-77784476D02*
X70944619Y-77978000D01*
X70896238Y-78074761D01*
X70847857Y-78123142D01*
X70702714Y-78219904D01*
X70509190Y-78268285D01*
X70122142Y-78268285D01*
X70025380Y-78219904D01*
X69977000Y-78171523D01*
X69928619Y-78074761D01*
X69928619Y-77881238D01*
X69977000Y-77784476D01*
X70025380Y-77736095D01*
X70122142Y-77687714D01*
X70364047Y-77687714D01*
X70460809Y-77736095D01*
X70509190Y-77784476D01*
X70557571Y-77881238D01*
X70557571Y-78074761D01*
X70509190Y-78171523D01*
X70460809Y-78219904D01*
X70364047Y-78268285D01*
X172834904Y-77929619D02*
X172834904Y-76913619D01*
X172447857Y-76913619D01*
X172351095Y-76962000D01*
X172302714Y-77010380D01*
X172254333Y-77107142D01*
X172254333Y-77252285D01*
X172302714Y-77349047D01*
X172351095Y-77397428D01*
X172447857Y-77445809D01*
X172834904Y-77445809D01*
X171915666Y-76913619D02*
X171286714Y-76913619D01*
X171625380Y-77300666D01*
X171480238Y-77300666D01*
X171383476Y-77349047D01*
X171335095Y-77397428D01*
X171286714Y-77494190D01*
X171286714Y-77736095D01*
X171335095Y-77832857D01*
X171383476Y-77881238D01*
X171480238Y-77929619D01*
X171770523Y-77929619D01*
X171867285Y-77881238D01*
X171915666Y-77832857D01*
X193789904Y-93804619D02*
X193789904Y-92788619D01*
X193402857Y-92788619D01*
X193306095Y-92837000D01*
X193257714Y-92885380D01*
X193209333Y-92982142D01*
X193209333Y-93127285D01*
X193257714Y-93224047D01*
X193306095Y-93272428D01*
X193402857Y-93320809D01*
X193789904Y-93320809D01*
X192241714Y-93804619D02*
X192822285Y-93804619D01*
X192532000Y-93804619D02*
X192532000Y-92788619D01*
X192628761Y-92933761D01*
X192725523Y-93030523D01*
X192822285Y-93078904D01*
%LPC*%
D18*
X71755000Y-111725000D03*
X71755000Y-115605000D03*
D19*
X67056000Y-106680000D03*
X70104000Y-106680000D03*
D20*
X62865000Y-112014000D03*
X62865000Y-108966000D03*
D21*
X67310000Y-113030000D03*
X67310000Y-115570000D03*
X67310000Y-110490000D03*
D20*
X69850000Y-70866000D03*
X69850000Y-73914000D03*
D19*
X75819000Y-106680000D03*
X72771000Y-106680000D03*
D22*
X62230000Y-69215000D03*
X62230000Y-130175000D03*
X191770000Y-69215000D03*
D21*
X151765000Y-106045000D03*
X151765000Y-108585000D03*
X151765000Y-111125000D03*
X151765000Y-113665000D03*
X151765000Y-116205000D03*
X151765000Y-118745000D03*
X151765000Y-121285000D03*
X151765000Y-123825000D03*
X151765000Y-126365000D03*
X167005000Y-126365000D03*
X167005000Y-123825000D03*
X167005000Y-121285000D03*
X167005000Y-118745000D03*
X167005000Y-116205000D03*
X167005000Y-113665000D03*
X167005000Y-111125000D03*
X167005000Y-108585000D03*
X167005000Y-78105000D03*
X167005000Y-80645000D03*
X167005000Y-83185000D03*
X167005000Y-85725000D03*
X167005000Y-88265000D03*
X167005000Y-90805000D03*
X167005000Y-93345000D03*
X167005000Y-95885000D03*
X167005000Y-98425000D03*
X167005000Y-100965000D03*
X151765000Y-100965000D03*
X151765000Y-98425000D03*
X151765000Y-95885000D03*
X151765000Y-93345000D03*
X151765000Y-90805000D03*
X151765000Y-88265000D03*
X151765000Y-85725000D03*
X151765000Y-83185000D03*
X151765000Y-80645000D03*
X151765000Y-78105000D03*
D23*
X151765000Y-103505000D03*
D21*
X167005000Y-103505000D03*
X167005000Y-106045000D03*
D24*
X78740000Y-69215000D03*
X81280000Y-69215000D03*
D25*
X76200000Y-69215000D03*
D24*
X83820000Y-69215000D03*
X86360000Y-69215000D03*
X88900000Y-69215000D03*
X91440000Y-69215000D03*
X93980000Y-69215000D03*
X96520000Y-69215000D03*
X99060000Y-69215000D03*
X101600000Y-69215000D03*
X104140000Y-69215000D03*
X106680000Y-69215000D03*
X109220000Y-69215000D03*
X111760000Y-69215000D03*
X114300000Y-69215000D03*
X114300000Y-130175000D03*
X111760000Y-130175000D03*
X109220000Y-130175000D03*
X106680000Y-130175000D03*
X104140000Y-130175000D03*
X101600000Y-130175000D03*
X99060000Y-130175000D03*
X96520000Y-130175000D03*
X93980000Y-130175000D03*
X91440000Y-130175000D03*
X88900000Y-130175000D03*
X86360000Y-130175000D03*
X83820000Y-130175000D03*
X81280000Y-130175000D03*
X78740000Y-130175000D03*
X76200000Y-130175000D03*
D22*
X77470000Y-74295000D03*
X77470000Y-125095000D03*
X140970000Y-130175000D03*
X140970000Y-69215000D03*
D24*
X116840000Y-130175000D03*
X119380000Y-130175000D03*
X121920000Y-130175000D03*
X124460000Y-130175000D03*
X127000000Y-130175000D03*
X129540000Y-130175000D03*
X132080000Y-130175000D03*
X134620000Y-130175000D03*
X137160000Y-130175000D03*
X116840000Y-69215000D03*
X119380000Y-69215000D03*
X121920000Y-69215000D03*
X124460000Y-69215000D03*
X127000000Y-69215000D03*
X129540000Y-69215000D03*
X132080000Y-69215000D03*
X134620000Y-69215000D03*
X137160000Y-69215000D03*
D26*
X63500000Y-104775000D03*
X63500000Y-94615000D03*
D27*
X69596000Y-99695000D03*
D28*
X72390000Y-99695000D03*
X72390000Y-96901000D03*
X72390000Y-102489000D03*
D29*
X182118000Y-72771000D03*
X174752000Y-72771000D03*
D30*
X175895000Y-122174000D03*
X178435000Y-122174000D03*
X180975000Y-122174000D03*
D29*
X173482000Y-125349000D03*
X183388000Y-125349000D03*
D31*
X172440600Y-128905000D03*
X184429400Y-128905000D03*
D32*
X183769000Y-86360000D03*
X183769000Y-83820000D03*
X183769000Y-81280000D03*
D29*
X186944000Y-88773000D03*
X186944000Y-78867000D03*
D33*
X190500000Y-89814400D03*
X190500000Y-77825600D03*
D34*
X116840000Y-107315000D03*
X119380000Y-107315000D03*
X121920000Y-107315000D03*
X124460000Y-107315000D03*
X127000000Y-107315000D03*
X129540000Y-107315000D03*
X132080000Y-107315000D03*
X134620000Y-107315000D03*
X137160000Y-107315000D03*
X137160000Y-92075000D03*
X134620000Y-92075000D03*
X132080000Y-92075000D03*
X129540000Y-92075000D03*
X127000000Y-92075000D03*
X124460000Y-92075000D03*
X121920000Y-92075000D03*
X119380000Y-92075000D03*
D35*
X78740000Y-92075000D03*
D34*
X81280000Y-92075000D03*
X83820000Y-92075000D03*
X86360000Y-92075000D03*
X88900000Y-92075000D03*
X91440000Y-92075000D03*
X93980000Y-92075000D03*
X96520000Y-92075000D03*
X99060000Y-92075000D03*
X101600000Y-92075000D03*
X104140000Y-92075000D03*
X106680000Y-92075000D03*
X109220000Y-92075000D03*
X111760000Y-92075000D03*
X111760000Y-107315000D03*
X109220000Y-107315000D03*
X106680000Y-107315000D03*
X104140000Y-107315000D03*
X101600000Y-107315000D03*
X99060000Y-107315000D03*
X96520000Y-107315000D03*
X93980000Y-107315000D03*
X91440000Y-107315000D03*
X88900000Y-107315000D03*
X86360000Y-107315000D03*
X83820000Y-107315000D03*
X81280000Y-107315000D03*
X78740000Y-107315000D03*
D21*
X124460000Y-104775000D03*
X124460000Y-102235000D03*
X124460000Y-99695000D03*
X124460000Y-97155000D03*
X124460000Y-94615000D03*
D34*
X81280000Y-104267000D03*
X86360000Y-104267000D03*
X88900000Y-104267000D03*
X91440000Y-104267000D03*
X93980000Y-102743000D03*
X93980000Y-99187000D03*
X96520000Y-102743000D03*
X96520000Y-99187000D03*
X99060000Y-99187000D03*
X101600000Y-99187000D03*
X99060000Y-102743000D03*
X101600000Y-102743000D03*
D35*
X114300000Y-107315000D03*
D34*
X114300000Y-92075000D03*
X116840000Y-92075000D03*
X121920000Y-102743000D03*
X119380000Y-102743000D03*
X116840000Y-102743000D03*
X121920000Y-99187000D03*
X119380000Y-99187000D03*
X116840000Y-99187000D03*
X127000000Y-102743000D03*
X129540000Y-102743000D03*
X132080000Y-102743000D03*
X134620000Y-102743000D03*
X137160000Y-102743000D03*
X127000000Y-99187000D03*
X129540000Y-99187000D03*
X132080000Y-99187000D03*
X134620000Y-99187000D03*
X137160000Y-99187000D03*
D32*
X70231000Y-81280000D03*
X70231000Y-83820000D03*
X70231000Y-86360000D03*
D29*
X67056000Y-78867000D03*
X67056000Y-88773000D03*
D33*
X63500000Y-77825600D03*
X63500000Y-89814400D03*
D29*
X65786000Y-87503000D03*
X65786000Y-80137000D03*
D30*
X180975000Y-77216000D03*
X178435000Y-77216000D03*
X175895000Y-77216000D03*
D29*
X183388000Y-74041000D03*
X173482000Y-74041000D03*
D31*
X184429400Y-70485000D03*
X172440600Y-70485000D03*
D29*
X182118000Y-126619000D03*
X174752000Y-126619000D03*
X188214000Y-80137000D03*
X188214000Y-87503000D03*
D36*
X191312800Y-99695000D03*
D37*
X187807600Y-99695000D03*
D38*
X182321200Y-99695000D03*
D39*
X189306200Y-104190800D03*
X189306200Y-95199200D03*
D22*
X191770000Y-130175000D03*
M02*
