M48
;DRILL file {KiCad no-vcs-found-ea855c1~58~ubuntu16.04.1} date Thu May 25 14:11:55 2017
;FORMAT={-:-/ absolute / inch / decimal}
FMAT,2
INCH,TZ
T1C0.025
T2C0.035
T3C0.038
T4C0.039
T5C0.040
T6C0.043
T7C0.047
T8C0.063
T9C0.090
T10C0.106
T11C0.124
T12C0.130
%
G90
G05
M72
T1
X2.3628Y-4.0117
X2.4213Y-2.9758
X2.52Y-3.8923
X2.5334Y-3.9603
X2.8763Y-3.1742
X2.9267Y-3.4214
X2.9719Y-4.3575
X3.2704Y-3.1387
X3.3848Y-3.0382
X4.Y-2.874
X4.2054Y-3.8465
X4.5074Y-2.9674
X4.6077Y-3.4559
X4.9294Y-3.5569
X5.2816Y-3.1742
X5.3791Y-3.4297
X5.5119Y-3.5503
X5.5138Y-3.4936
X5.5158Y-3.4513
X6.0989Y-4.6292
X6.45Y-3.225
X6.5032Y-4.425
X6.727Y-3.1822
X6.7276Y-3.0382
X6.7316Y-3.2852
X6.8054Y-4.7339
X6.8068Y-4.6197
X6.8468Y-3.4669
X6.8468Y-3.6669
X6.8468Y-3.8669
X6.8468Y-4.1831
X6.8468Y-4.3831
T2
X2.75Y-3.925
X2.85Y-3.825
X2.85Y-3.925
X2.85Y-4.025
T3
X2.675Y-5.085
X2.675Y-5.185
X7.51Y-4.85
X7.61Y-4.85
X2.775Y-5.085
X2.775Y-5.185
T4
X2.825Y-4.35
X2.825Y-4.45
X2.825Y-4.55
T5
X3.1Y-3.625
X3.1Y-4.225
X3.2Y-3.625
X3.2Y-4.125
X3.2Y-4.225
X3.3Y-3.625
X3.3Y-4.225
X3.4Y-3.625
X3.4Y-4.125
X3.4Y-4.225
X3.5Y-3.625
X3.5Y-4.125
X3.5Y-4.225
X3.6Y-3.625
X3.6Y-4.125
X3.6Y-4.225
X3.7Y-3.625
X3.7Y-3.925
X3.7Y-4.025
X3.7Y-4.225
X3.8Y-3.625
X3.8Y-3.925
X3.8Y-4.025
X3.8Y-4.225
X3.9Y-3.625
X3.9Y-3.925
X3.9Y-4.025
X3.9Y-4.225
X4.Y-3.625
X4.Y-3.925
X4.Y-4.025
X4.Y-4.225
X4.1Y-3.625
X4.1Y-4.225
X4.2Y-3.625
X4.2Y-4.225
X4.3Y-3.625
X4.3Y-4.225
X4.4Y-3.625
X4.4Y-4.225
X4.5Y-3.625
X4.5Y-4.225
X4.6Y-3.625
X4.6Y-3.925
X4.6Y-4.025
X4.6Y-4.225
X4.7Y-3.625
X4.7Y-3.925
X4.7Y-4.025
X4.7Y-4.225
X4.8Y-3.625
X4.8Y-3.925
X4.8Y-4.025
X4.8Y-4.225
X4.9Y-3.625
X4.9Y-3.725
X4.9Y-3.825
X4.9Y-3.925
X4.9Y-4.025
X4.9Y-4.125
X4.9Y-4.225
X5.Y-3.625
X5.Y-3.925
X5.Y-4.025
X5.Y-4.225
X5.1Y-3.625
X5.1Y-3.925
X5.1Y-4.025
X5.1Y-4.225
X5.2Y-3.625
X5.2Y-3.925
X5.2Y-4.025
X5.2Y-4.225
X5.3Y-3.625
X5.3Y-3.925
X5.3Y-4.025
X5.3Y-4.225
X5.4Y-3.625
X5.4Y-3.925
X5.4Y-4.025
X5.4Y-4.225
T6
X7.375Y-4.25
X7.375Y-4.35
X7.375Y-4.45
X3.Y-2.725
X3.Y-5.125
X3.1Y-2.725
X3.1Y-5.125
X3.2Y-2.725
X3.2Y-5.125
X3.3Y-2.725
X3.3Y-5.125
X3.4Y-2.725
X3.4Y-5.125
X3.5Y-2.725
X3.5Y-5.125
X3.6Y-2.725
X3.6Y-5.125
X3.7Y-2.725
X3.7Y-5.125
X3.8Y-2.725
X3.8Y-5.125
X3.9Y-2.725
X3.9Y-5.125
X4.Y-2.725
X4.Y-5.125
X4.1Y-2.725
X4.1Y-5.125
X4.2Y-2.725
X4.2Y-5.125
X4.3Y-2.725
X4.3Y-5.125
X4.4Y-2.725
X4.4Y-5.125
X4.5Y-2.725
X4.5Y-5.125
X4.6Y-2.725
X4.6Y-5.125
X4.7Y-2.725
X4.7Y-5.125
X4.8Y-2.725
X4.8Y-5.125
X4.9Y-2.725
X4.9Y-5.125
X5.Y-2.725
X5.Y-5.125
X5.1Y-2.725
X5.1Y-5.125
X5.2Y-2.725
X5.2Y-5.125
X5.3Y-2.725
X5.3Y-5.125
X5.4Y-2.725
X5.4Y-5.125
T7
X6.88Y-4.985
X7.17Y-4.985
X7.41Y-3.155
X7.41Y-3.445
X6.88Y-2.865
X7.17Y-2.865
X2.64Y-3.105
X2.64Y-3.495
X6.83Y-2.915
X7.22Y-2.915
X6.83Y-4.935
X7.22Y-4.935
X2.59Y-3.155
X2.59Y-3.445
X7.36Y-3.105
X7.36Y-3.495
T8
X7.557Y-3.925
T9
X2.5Y-3.725
X2.5Y-4.125
T10
X7.439Y-3.925
X7.478Y-3.748
X7.478Y-4.102
T11
X7.203Y-3.925
T12
X2.45Y-2.725
X7.55Y-2.725
X5.75Y-5.125
X7.55Y-5.125
X3.05Y-2.925
X3.05Y-4.925
X6.65Y-2.725
X6.65Y-5.125
X4.25Y-4.525
X4.25Y-3.325
X5.75Y-2.725
X2.45Y-5.125
T0
M30
