G04 #@! TF.GenerationSoftware,KiCad,Pcbnew,no-vcs-found-ea855c1~58~ubuntu16.04.1*
G04 #@! TF.CreationDate,2017-05-25T14:11:52-04:00*
G04 #@! TF.ProjectId,modular_device_base_5x3,6D6F64756C61725F6465766963655F62,1.1*
G04 #@! TF.FileFunction,Soldermask,Top*
G04 #@! TF.FilePolarity,Negative*
%FSLAX46Y46*%
G04 Gerber Fmt 4.6, Leading zero omitted, Abs format (unit mm)*
G04 Created by KiCad (PCBNEW no-vcs-found-ea855c1~58~ubuntu16.04.1) date Thu May 25 14:11:52 2017*
%MOMM*%
%LPD*%
G01*
G04 APERTURE LIST*
%ADD10C,0.100000*%
%ADD11C,0.228600*%
%ADD12O,2.254200X2.940000*%
%ADD13C,3.956000*%
%ADD14R,2.254200X2.940000*%
%ADD15O,2.940000X1.924000*%
%ADD16R,3.067000X1.990040*%
%ADD17R,5.160000X4.000000*%
%ADD18R,1.640000X1.800000*%
%ADD19R,1.670000X2.940000*%
%ADD20R,3.110000X2.900000*%
%ADD21O,5.480000X3.448000*%
%ADD22O,2.432000X1.924000*%
%ADD23O,1.924000X2.432000*%
%ADD24R,2.997200X5.029200*%
%ADD25C,1.600200*%
%ADD26R,2.178000X4.591000*%
%ADD27O,1.924000X2.940000*%
%ADD28R,1.924000X2.940000*%
%ADD29R,4.591000X2.178000*%
%ADD30R,5.029200X2.997200*%
%ADD31C,2.330400*%
%ADD32O,4.972000X3.956000*%
%ADD33O,4.464000X5.480000*%
%ADD34O,5.480000X3.956000*%
%ADD35R,1.990040X3.067000*%
%ADD36O,2.743200X2.057400*%
%ADD37R,2.743200X2.057400*%
G04 APERTURE END LIST*
D10*
D11*
X194945000Y-66040000D02*
X59055000Y-66040000D01*
X194945000Y-133350000D02*
X194945000Y-66040000D01*
X59055000Y-133350000D02*
X194945000Y-133350000D01*
X59055000Y-66040000D02*
X59055000Y-133350000D01*
D12*
X137160000Y-69215000D03*
X134620000Y-69215000D03*
X132080000Y-69215000D03*
X129540000Y-69215000D03*
X127000000Y-69215000D03*
X124460000Y-69215000D03*
X121920000Y-69215000D03*
X119380000Y-69215000D03*
X116840000Y-69215000D03*
X137160000Y-130175000D03*
X134620000Y-130175000D03*
X132080000Y-130175000D03*
X129540000Y-130175000D03*
X127000000Y-130175000D03*
X124460000Y-130175000D03*
X121920000Y-130175000D03*
X119380000Y-130175000D03*
X116840000Y-130175000D03*
D13*
X168910000Y-69215000D03*
X168910000Y-130175000D03*
X77470000Y-125095000D03*
X77470000Y-74295000D03*
D12*
X76200000Y-130175000D03*
X78740000Y-130175000D03*
X81280000Y-130175000D03*
X83820000Y-130175000D03*
X86360000Y-130175000D03*
X88900000Y-130175000D03*
X91440000Y-130175000D03*
X93980000Y-130175000D03*
X96520000Y-130175000D03*
X99060000Y-130175000D03*
X101600000Y-130175000D03*
X104140000Y-130175000D03*
X106680000Y-130175000D03*
X109220000Y-130175000D03*
X111760000Y-130175000D03*
X114300000Y-130175000D03*
X114300000Y-69215000D03*
X111760000Y-69215000D03*
X109220000Y-69215000D03*
X106680000Y-69215000D03*
X104140000Y-69215000D03*
X101600000Y-69215000D03*
X99060000Y-69215000D03*
X96520000Y-69215000D03*
X93980000Y-69215000D03*
X91440000Y-69215000D03*
X88900000Y-69215000D03*
X86360000Y-69215000D03*
X83820000Y-69215000D03*
D14*
X76200000Y-69215000D03*
D12*
X81280000Y-69215000D03*
X78740000Y-69215000D03*
D15*
X71755000Y-113030000D03*
X71755000Y-110490000D03*
X71755000Y-115570000D03*
D16*
X65087500Y-125823980D03*
X73342500Y-125823980D03*
X65087500Y-121826020D03*
X73342500Y-121826020D03*
D17*
X168525000Y-86995000D03*
D18*
X172325000Y-85930000D03*
X172325000Y-88060000D03*
D17*
X168525000Y-102235000D03*
D18*
X172325000Y-101170000D03*
X172325000Y-103300000D03*
D19*
X86741000Y-99695000D03*
X89789000Y-99695000D03*
D20*
X83220000Y-99695000D03*
X79340000Y-99695000D03*
D13*
X62230000Y-69215000D03*
X62230000Y-130175000D03*
X191770000Y-69215000D03*
D21*
X63500000Y-104775000D03*
X63500000Y-94615000D03*
D22*
X69596000Y-99695000D03*
D23*
X72390000Y-99695000D03*
X72390000Y-96901000D03*
X72390000Y-102489000D03*
D24*
X183159400Y-69215000D03*
X173710600Y-69215000D03*
D25*
X182118000Y-72771000D03*
X174752000Y-72771000D03*
D26*
X179705000Y-75946000D03*
X177165000Y-75946000D03*
D25*
X173482000Y-125349000D03*
X183388000Y-125349000D03*
X186944000Y-88773000D03*
X186944000Y-78867000D03*
D27*
X116840000Y-107315000D03*
X119380000Y-107315000D03*
X121920000Y-107315000D03*
X124460000Y-107315000D03*
X127000000Y-107315000D03*
X129540000Y-107315000D03*
X132080000Y-107315000D03*
X134620000Y-107315000D03*
X137160000Y-107315000D03*
X137160000Y-92075000D03*
X134620000Y-92075000D03*
X132080000Y-92075000D03*
X129540000Y-92075000D03*
X127000000Y-92075000D03*
X124460000Y-92075000D03*
X121920000Y-92075000D03*
X119380000Y-92075000D03*
D28*
X78740000Y-92075000D03*
D27*
X81280000Y-92075000D03*
X83820000Y-92075000D03*
X86360000Y-92075000D03*
X88900000Y-92075000D03*
X91440000Y-92075000D03*
X93980000Y-92075000D03*
X96520000Y-92075000D03*
X99060000Y-92075000D03*
X101600000Y-92075000D03*
X104140000Y-92075000D03*
X106680000Y-92075000D03*
X109220000Y-92075000D03*
X111760000Y-92075000D03*
X111760000Y-107315000D03*
X109220000Y-107315000D03*
X106680000Y-107315000D03*
X104140000Y-107315000D03*
X101600000Y-107315000D03*
X99060000Y-107315000D03*
X96520000Y-107315000D03*
X93980000Y-107315000D03*
X91440000Y-107315000D03*
X88900000Y-107315000D03*
X86360000Y-107315000D03*
X83820000Y-107315000D03*
X81280000Y-107315000D03*
X78740000Y-107315000D03*
D15*
X124460000Y-104775000D03*
X124460000Y-102235000D03*
X124460000Y-99695000D03*
X124460000Y-97155000D03*
X124460000Y-94615000D03*
D27*
X81280000Y-104267000D03*
X86360000Y-104267000D03*
X88900000Y-104267000D03*
X91440000Y-104267000D03*
X93980000Y-102743000D03*
X93980000Y-99187000D03*
X96520000Y-102743000D03*
X96520000Y-99187000D03*
X99060000Y-99187000D03*
X101600000Y-99187000D03*
X99060000Y-102743000D03*
X101600000Y-102743000D03*
D28*
X114300000Y-107315000D03*
D27*
X114300000Y-92075000D03*
X116840000Y-92075000D03*
X121920000Y-102743000D03*
X119380000Y-102743000D03*
X116840000Y-102743000D03*
X121920000Y-99187000D03*
X119380000Y-99187000D03*
X116840000Y-99187000D03*
X127000000Y-102743000D03*
X129540000Y-102743000D03*
X132080000Y-102743000D03*
X134620000Y-102743000D03*
X137160000Y-102743000D03*
X127000000Y-99187000D03*
X129540000Y-99187000D03*
X132080000Y-99187000D03*
X134620000Y-99187000D03*
X137160000Y-99187000D03*
D25*
X67056000Y-78867000D03*
X67056000Y-88773000D03*
D29*
X68961000Y-85090000D03*
X68961000Y-82550000D03*
D25*
X65786000Y-87503000D03*
X65786000Y-80137000D03*
D30*
X62230000Y-88544400D03*
X62230000Y-79095600D03*
D25*
X183388000Y-74041000D03*
X173482000Y-74041000D03*
D26*
X179705000Y-123444000D03*
X177165000Y-123444000D03*
D25*
X182118000Y-126619000D03*
X174752000Y-126619000D03*
D24*
X183159400Y-130175000D03*
X173710600Y-130175000D03*
D29*
X185039000Y-82550000D03*
X185039000Y-85090000D03*
D25*
X188214000Y-80137000D03*
X188214000Y-87503000D03*
D30*
X191770000Y-79095600D03*
X191770000Y-88544400D03*
D31*
X191947800Y-99695000D03*
D32*
X188442600Y-99695000D03*
D33*
X182956200Y-99695000D03*
D34*
X189941200Y-104190800D03*
X189941200Y-95199200D03*
D13*
X191770000Y-130175000D03*
D17*
X168525000Y-92075000D03*
D18*
X172325000Y-91010000D03*
X172325000Y-93140000D03*
D17*
X168525000Y-107315000D03*
D18*
X172325000Y-106250000D03*
X172325000Y-108380000D03*
D17*
X168525000Y-97155000D03*
D18*
X172325000Y-96090000D03*
X172325000Y-98220000D03*
D17*
X168525000Y-112395000D03*
D18*
X172325000Y-111330000D03*
X172325000Y-113460000D03*
D22*
X193294000Y-123190000D03*
X190754000Y-123190000D03*
D23*
X67945000Y-129159000D03*
X67945000Y-131699000D03*
X70485000Y-131699000D03*
X70485000Y-129159000D03*
D13*
X107950000Y-84455000D03*
X107950000Y-114935000D03*
D35*
X67216020Y-68262500D03*
X67216020Y-76517500D03*
X71213980Y-68262500D03*
X71213980Y-76517500D03*
D36*
X187325000Y-110490000D03*
X187325000Y-107950000D03*
D37*
X187325000Y-113030000D03*
D13*
X146050000Y-69215000D03*
X146050000Y-130175000D03*
M02*
